<?xml version="1.0" encoding="UTF-8" standalone="no"?>
<svg width="270px" height="314px" viewBox="0 0 270 314" version="1.1" xmlns="http://www.w3.org/2000/svg" xmlns:xlink="http://www.w3.org/1999/xlink">
    <!-- Generator: Sketch 3.7.2 (28276) - http://www.bohemiancoding.com/sketch -->
    <title>alpha-beta</title>
    <desc>Created with Sketch.</desc>
    <defs>
        <radialGradient cx="0%" cy="0%" fx="0%" fy="0%" r="143.544416%" id="radialGradient-1">
            <stop stop-color="#725AC1" offset="0%"></stop>
            <stop stop-color="#1E1639" offset="100%"></stop>
        </radialGradient>
    </defs>
    <g id="NEXUS-VL" stroke="none" stroke-width="1" fill="none" fill-rule="evenodd">
        <g id="NEXUS/pitch/nxs_slide2" transform="translate(-498.000000, -131.000000)">
            <g id="alpha-beta" transform="translate(498.000000, 121.000000)">
                <ellipse id="Oval-1" fill="#8D86C9" opacity="0.0965485075" cx="134.519573" cy="189.798817" rx="134.519573" ry="134.201183"></ellipse>
                <path d="M134.519573,324 C208.812682,324 269.039146,263.916084 269.039146,189.798817 C269.039146,115.68155 208.812682,55.5976331 134.519573,55.5976331 C134.519573,99.2130178 134.519573,223.349112 134.519573,324 Z" id="Oval-1-Copy" fill="#8D86C9" opacity="0.332789179"></path>
                <g id="Group">
                    <path d="M172.47331,184.047337 L216.192171,218.076923" id="Line" stroke="#725AC1" stroke-width="0.959999981" stroke-linecap="square" stroke-dasharray="4"></path>
                    <g id="Line-+-Line-+-Line" transform="translate(15.854093, 118.863905)" stroke="#CFD8DC" stroke-width="0.959999981" stroke-linecap="round" stroke-linejoin="round">
                        <path d="M28.8256228,0.958579882 L80.2313167,69.4970414" id="Line"></path>
                        <path d="M79.7508897,69.9763314 L0.480427046,84.8343195" id="Line"></path>
                        <path d="M79.7508897,69.9763314 L57.1708185,126.053254" id="Line"></path>
                    </g>
                    <g transform="translate(64.377224, 120.781065)">
                        <g id="Rectangle-53-+-ALPHA" transform="translate(0.000000, 37.384615)">
                            <rect id="Rectangle-53" fill="#725AC1" transform="translate(31.708185, 31.633136) rotate(-45.000000) translate(-31.708185, -31.633136) " x="9.60854093" y="9.58579882" width="44.1992883" height="44.0946746" rx="1.91999996"></rect>
                            <text id="ALPHA" fill="#F8F7F5" font-family="Roboto-Medium, Roboto" font-size="9.59999981" font-weight="400" letter-spacing="1.91999996">
                                <tspan x="12.4911032" y="34.9230769">ALPHA</tspan>
                            </text>
                        </g>
                        <g id="Rectangle-53-+-ALPHA-Copy" transform="translate(38.434164, 74.769231)" fill="#725AC1">
                            <rect id="Rectangle-53" transform="translate(31.708185, 31.633136) rotate(-45.000000) translate(-31.708185, -31.633136) " x="9.60854093" y="9.58579882" width="44.1992883" height="44.0946746" rx="1.91999996"></rect>
                        </g>
                        <g id="Rectangle-53-Copy-+-BETA" transform="translate(38.434164, 0.000000)" fill="#725AC1">
                            <rect id="Rectangle-53-Copy" transform="translate(31.708185, 31.633136) rotate(-45.000000) translate(-31.708185, -31.633136) " x="9.60854093" y="9.58579882" width="44.1992883" height="44.0946746" rx="1.91999996"></rect>
                        </g>
                        <g id="Rectangle-53-Copy-+-BETA-Copy" transform="translate(76.868327, 37.384615)">
                            <rect id="Rectangle-53-Copy" fill="#725AC1" transform="translate(31.708185, 31.633136) rotate(-45.000000) translate(-31.708185, -31.633136) " x="9.60854093" y="9.58579882" width="44.1992883" height="44.0946746" rx="1.91999996"></rect>
                            <text id="BETA" font-family="Roboto-Medium, Roboto" font-size="9.59999981" font-weight="400" letter-spacing="1.91999996" fill="#F8F7F5">
                                <tspan x="18.2562278" y="34.9230769">BETA</tspan>
                            </text>
                        </g>
                        <path d="M61.0168605,24.8482497 C60.1487649,24.8482497 59.3539345,25.1770801 58.7027423,25.7603163 C58.0510681,26.3795487 57.6895625,27.2196228 57.6538939,28.1316894 C57.6182254,29.043756 57.9440625,29.8838301 58.5576581,30.575055 C59.2093322,31.268712 60.0750177,31.6335387 61.0168605,31.6335387 C61.884474,31.6335387 62.6793044,31.3047083 63.3304966,30.7214721 C63.9821708,30.1022397 64.3436764,29.2621655 64.379345,28.350099 C64.4150135,27.4380324 64.0896584,26.5984447 63.4755808,25.9067334 C62.8243887,25.2130764 61.9206246,24.8482497 61.0168605,24.8482497 L61.0168605,24.8482497 Z M62.8243887,30.1742321 C62.3177988,30.6494796 61.7037212,30.9038854 61.0168605,30.9038854 C60.2938492,30.9038854 59.6065064,30.6115377 59.0999165,30.0642977 C58.6289952,29.553054 58.3769052,28.8593969 58.3769052,28.1676856 C58.3769052,27.4740286 58.7027423,26.780858 59.2093322,26.3075563 C59.7154401,25.8323088 60.3295177,25.577903 61.0168605,25.577903 C61.7398717,25.577903 62.4267325,25.8707372 62.9333224,26.4179771 C63.4042437,26.9287344 63.6563337,27.6223914 63.6563337,28.3141027 C63.6563337,29.0077598 63.3285685,29.6629884 62.8243887,30.1742321 L62.8243887,30.1742321 Z M79.2348169,21.1639872 L79.2348169,21.1639872 C81.1141642,21.1639872 82.5977834,19.6686844 82.633452,17.8080686 C82.633452,16.896002 82.3076149,16.0564143 81.6583507,15.4006992 C81.0442731,14.7435249 80.1766596,14.3786982 79.2728955,14.3786982 C77.4292167,14.3786982 75.9475256,15.874001 75.909929,17.7341304 C75.909929,19.630256 77.3916201,21.1639872 79.2348169,21.1639872 L79.2348169,21.1639872 Z M76.6686088,17.9525399 L79.4893169,15.1064057 C79.815154,15.142402 80.1029124,15.2163402 80.393081,15.3248153 L76.8869582,18.8626608 C76.7780245,18.6102007 76.6686088,18.2813703 76.6686088,17.9525399 L76.6686088,17.9525399 Z M81.9104407,17.7701266 L79.2348169,20.4703301 L79.2348169,20.4343339 C78.9094618,20.4343339 78.5836247,20.361855 78.2953842,20.2519206 L81.7296878,16.7860676 C81.8747721,17.114898 81.9104407,17.4412962 81.9104407,17.7701266 L81.9104407,17.7701266 Z M80.2479967,20.2519206 L81.7653564,18.7201352 C81.4775979,19.4478427 80.9353394,19.9950826 80.2479967,20.2519206 L80.2479967,20.2519206 Z M81.4775979,16.3108201 L77.8268729,19.9950826 C77.574301,19.8126693 77.3559516,19.630256 77.1751987,19.3758502 L80.8615923,15.6555914 C80.971008,15.7275839 81.0784957,15.8380048 81.1874294,15.9099972 C81.2968451,16.0564143 81.3681822,16.164403 81.4775979,16.3108201 L81.4775979,16.3108201 Z M78.6212213,15.2163402 L76.742356,17.1129522 C76.9944459,16.2028314 77.6817886,15.4731781 78.6212213,15.2163402 L78.6212213,15.2163402 Z M79.1278112,35.3922259 C77.2846144,35.3922259 75.8024413,36.8875286 75.7648447,38.747658 C75.7648447,39.6597246 76.0906818,40.4997987 76.7404279,41.1550273 C77.3540235,41.8126882 78.2221191,42.1775148 79.0902146,42.1775148 L79.1258832,42.1775148 C80.96908,42.1775148 82.4507711,40.682212 82.4883677,38.8220826 C82.5264463,36.9235248 81.0423451,35.3922259 79.1278112,35.3922259 L79.1278112,35.3922259 Z M71.4624455,28.0212686 C71.5342647,28.0577512 71.5718613,28.1316894 71.5718613,28.2401645 C71.5718613,28.312157 71.5361927,28.3860952 71.4624455,28.4585741 L69.5103151,29.7714635 C69.4741645,29.7734093 69.4384959,29.7734093 69.3671588,29.7734093 C69.3314903,29.7734093 69.2953397,29.7734093 69.2577431,29.737413 C69.186406,29.7014168 69.1126589,29.6269922 69.1126589,29.5190035 L69.1126589,28.9352809 L65.4619339,28.9352809 C65.3530002,28.9352809 65.281181,28.8632884 65.281181,28.7528676 L65.281181,27.6223914 C65.281181,27.512457 65.3530002,27.4399781 65.4619339,27.4399781 L69.1126589,27.4399781 L69.1126589,26.8567419 C69.1126589,26.7842631 69.1488094,26.6743286 69.2577431,26.6383324 C69.3295622,26.6018497 69.4384959,26.6018497 69.5103151,26.6383324 L71.4624455,28.0212686 Z M74.499575,29.043756 L74.499575,29.043756 L74.499575,29.043756 L72.1854568,29.043756 L72.1854568,27.5844495 L74.499575,27.5844495 L74.499575,27.5844495 C75.5840919,27.5844495 76.5972717,27.1836266 77.3559516,26.4179771 C78.0076257,25.7982583 78.4047999,24.9586706 78.5118056,24.0826002 L78.0056977,24.0826002 C77.9338786,24.0826002 77.8606134,24.046604 77.8606134,23.9721794 C77.8249449,23.9001869 77.8249449,23.8257623 77.8606134,23.7897661 L79.1258832,21.8556985 C79.1615517,21.8192158 79.1972203,21.7832196 79.2709675,21.7832196 C79.3423046,21.7832196 79.3799012,21.8192158 79.4155697,21.8556985 L80.6808395,23.7897661 C80.71699,23.8622449 80.71699,23.9361831 80.6808395,23.9721794 C80.6451709,24.0081756 80.5719058,24.0826002 80.5362372,24.0826002 L79.9221596,24.0826002 C79.8132259,25.3594934 79.2348169,26.5639078 78.2953842,27.4759744 C77.9695471,27.8048048 77.5723729,28.0956932 77.1751987,28.3160485 C77.5723729,28.534458 77.9695471,28.8272922 78.2953842,29.1556362 C79.1634798,30.0317065 79.7057382,31.1261864 79.8864911,32.3670834 L80.393081,32.3670834 C80.4644181,32.3670834 80.5381652,32.4030796 80.5381652,32.4775043 C80.5738338,32.5494967 80.5738338,32.6234349 80.5381652,32.6599176 L79.2728955,34.5939852 C79.2367449,34.6299814 79.2010764,34.6664641 79.1278112,34.6664641 C79.0559921,34.6664641 79.0183955,34.6299814 78.982727,34.5939852 L77.7174572,32.6599176 C77.6817886,32.5874387 77.6817886,32.5135005 77.7174572,32.4775043 C77.7531258,32.4410216 77.8268729,32.3670834 77.8625415,32.3670834 L78.4404685,32.3670834 C78.2953842,31.5654377 77.89821,30.797356 77.320283,30.2141198 C76.5972717,29.4445789 75.5840919,29.0077598 74.499575,29.043756 L74.499575,29.043756 Z" id="Imported-Layers" fill="#F8F7F5" transform="translate(70.142349, 28.278107) rotate(-270.000000) translate(-70.142349, -28.278107) "></path>
                        <path d="M61.0168605,108.244699 C60.1487649,108.244699 59.3539345,108.57353 58.7027423,109.156766 C58.0510681,109.775998 57.6895625,110.616073 57.6538939,111.528139 C57.6182254,112.440206 57.9440625,113.28028 58.5576581,113.971505 C59.2093322,114.665162 60.0750177,115.029988 61.0168605,115.029988 C61.884474,115.029988 62.6793044,114.701158 63.3304966,114.117922 C63.9821708,113.498689 64.3436764,112.658615 64.379345,111.746549 C64.4150135,110.834482 64.0896584,109.994894 63.4755808,109.303183 C62.8243887,108.609526 61.9206246,108.244699 61.0168605,108.244699 L61.0168605,108.244699 Z M62.8243887,113.570682 C62.3177988,114.045929 61.7037212,114.300335 61.0168605,114.300335 C60.2938492,114.300335 59.6065064,114.007987 59.0999165,113.460747 C58.6289952,112.949504 58.3769052,112.255847 58.3769052,111.564135 C58.3769052,110.870478 58.7027423,110.177308 59.2093322,109.704006 C59.7154401,109.228758 60.3295177,108.974353 61.0168605,108.974353 C61.7398717,108.974353 62.4267325,109.267187 62.9333224,109.814427 C63.4042437,110.325184 63.6563337,111.018841 63.6563337,111.710552 C63.6563337,112.404209 63.3285685,113.059438 62.8243887,113.570682 L62.8243887,113.570682 Z M79.2348169,104.560437 L79.2348169,104.560437 C81.1141642,104.560437 82.5977834,103.065134 82.633452,101.204518 C82.633452,100.292452 82.3076149,99.452864 81.6583507,98.7971489 C81.0442731,98.1399746 80.1766596,97.7751479 79.2728955,97.7751479 C77.4292167,97.7751479 75.9475256,99.2704507 75.909929,101.13058 C75.909929,103.026706 77.3916201,104.560437 79.2348169,104.560437 L79.2348169,104.560437 Z M76.6686088,101.34899 L79.4893169,98.5028555 C79.815154,98.5388517 80.1029124,98.6127899 80.393081,98.721265 L76.8869582,102.25911 C76.7780245,102.00665 76.6686088,101.67782 76.6686088,101.34899 L76.6686088,101.34899 Z M81.9104407,101.166576 L79.2348169,103.86678 L79.2348169,103.830784 C78.9094618,103.830784 78.5836247,103.758305 78.2953842,103.64837 L81.7296878,100.182517 C81.8747721,100.511348 81.9104407,100.837746 81.9104407,101.166576 L81.9104407,101.166576 Z M80.2479967,103.64837 L81.7653564,102.116585 C81.4775979,102.844292 80.9353394,103.391532 80.2479967,103.64837 L80.2479967,103.64837 Z M81.4775979,99.7072698 L77.8268729,103.391532 C77.574301,103.209119 77.3559516,103.026706 77.1751987,102.7723 L80.8615923,99.0520411 C80.971008,99.1240336 81.0784957,99.2344545 81.1874294,99.3064469 C81.2968451,99.452864 81.3681822,99.5608527 81.4775979,99.7072698 L81.4775979,99.7072698 Z M78.6212213,98.6127899 L76.742356,100.509402 C76.9944459,99.5992811 77.6817886,98.8696278 78.6212213,98.6127899 L78.6212213,98.6127899 Z M79.1278112,118.788676 C77.2846144,118.788676 75.8024413,120.283978 75.7648447,122.144108 C75.7648447,123.056174 76.0906818,123.896248 76.7404279,124.551477 C77.3540235,125.209138 78.2221191,125.573964 79.0902146,125.573964 L79.1258832,125.573964 C80.96908,125.573964 82.4507711,124.078662 82.4883677,122.218532 C82.5264463,120.319975 81.0423451,118.788676 79.1278112,118.788676 L79.1278112,118.788676 Z M71.4624455,111.417718 C71.5342647,111.454201 71.5718613,111.528139 71.5718613,111.636614 C71.5718613,111.708607 71.5361927,111.782545 71.4624455,111.855024 L69.5103151,113.167913 C69.4741645,113.169859 69.4384959,113.169859 69.3671588,113.169859 C69.3314903,113.169859 69.2953397,113.169859 69.2577431,113.133863 C69.186406,113.097867 69.1126589,113.023442 69.1126589,112.915453 L69.1126589,112.331731 L65.4619339,112.331731 C65.3530002,112.331731 65.281181,112.259738 65.281181,112.149317 L65.281181,111.018841 C65.281181,110.908907 65.3530002,110.836428 65.4619339,110.836428 L69.1126589,110.836428 L69.1126589,110.253192 C69.1126589,110.180713 69.1488094,110.070778 69.2577431,110.034782 C69.3295622,109.998299 69.4384959,109.998299 69.5103151,110.034782 L71.4624455,111.417718 Z M74.499575,112.440206 L74.499575,112.440206 L74.499575,112.440206 L72.1854568,112.440206 L72.1854568,110.980899 L74.499575,110.980899 L74.499575,110.980899 C75.5840919,110.980899 76.5972717,110.580076 77.3559516,109.814427 C78.0076257,109.194708 78.4047999,108.35512 78.5118056,107.47905 L78.0056977,107.47905 C77.9338786,107.47905 77.8606134,107.443054 77.8606134,107.368629 C77.8249449,107.296637 77.8249449,107.222212 77.8606134,107.186216 L79.1258832,105.252148 C79.1615517,105.215666 79.1972203,105.179669 79.2709675,105.179669 C79.3423046,105.179669 79.3799012,105.215666 79.4155697,105.252148 L80.6808395,107.186216 C80.71699,107.258695 80.71699,107.332633 80.6808395,107.368629 C80.6451709,107.404625 80.5719058,107.47905 80.5362372,107.47905 L79.9221596,107.47905 C79.8132259,108.755943 79.2348169,109.960357 78.2953842,110.872424 C77.9695471,111.201254 77.5723729,111.492143 77.1751987,111.712498 C77.5723729,111.930908 77.9695471,112.223742 78.2953842,112.552086 C79.1634798,113.428156 79.7057382,114.522636 79.8864911,115.763533 L80.393081,115.763533 C80.4644181,115.763533 80.5381652,115.799529 80.5381652,115.873954 C80.5738338,115.945946 80.5738338,116.019885 80.5381652,116.056367 L79.2728955,117.990435 C79.2367449,118.026431 79.2010764,118.062914 79.1278112,118.062914 C79.0559921,118.062914 79.0183955,118.026431 78.982727,117.990435 L77.7174572,116.056367 C77.6817886,115.983888 77.6817886,115.90995 77.7174572,115.873954 C77.7531258,115.837471 77.8268729,115.763533 77.8625415,115.763533 L78.4404685,115.763533 C78.2953842,114.961887 77.89821,114.193806 77.320283,113.61057 C76.5972717,112.841029 75.5840919,112.404209 74.499575,112.440206 L74.499575,112.440206 Z" id="Imported-Layers-Copy" fill="#F8F7F5" transform="translate(70.142349, 111.674556) scale(1, -1) rotate(-270.000000) translate(-70.142349, -111.674556) "></path>
                    </g>
                    <path d="M23.8603663,200.537448 L17.7889308,197.006699 L17.7528407,197.006699 C17.7162628,196.971515 17.6801727,196.971515 17.6421317,196.971515 L17.6060415,196.971515 C17.5699514,196.971515 17.5333735,196.971515 17.4592424,196.936331 L17.4231523,196.936331 L17.4231523,196.936331 C17.3870621,196.936331 17.3124433,196.936331 17.2763532,196.971515 L17.240263,196.971515 C17.2041729,196.971515 17.167595,197.006699 17.1295541,197.006699 C17.1295541,197.006699 17.1295541,197.006699 17.0934639,197.006699 L10.9113194,200.394336 C10.69234,200.502264 10.5455409,200.750929 10.5455409,200.964409 L10.4733606,207.847611 C10.4733606,208.096276 10.5835819,208.311658 10.803049,208.417685 L16.8744845,211.948434 C16.9847058,212.018802 17.0934639,212.055888 17.240263,212.055888 C17.3504843,212.055888 17.4592424,212.020704 17.5699514,211.98552 L23.7516082,208.597884 C23.7881861,208.5627 23.8242762,208.5627 23.8242762,208.52704 L23.8603663,208.491856 C23.8964565,208.456673 23.9325466,208.384403 23.9710753,208.348744 C24.0071655,208.31356 24.0071655,208.278376 24.0432556,208.206106 L24.0432556,208.170447 L24.0432556,208.062994 L24.0432556,208.02781 L24.1154359,201.144608 C24.1900547,200.894042 24.0432556,200.680561 23.8603663,200.537448 L23.8603663,200.537448 Z M11.9364747,202.142118 L16.6555051,204.851752 L16.5828371,210.200652 L11.8638067,207.491018 L11.9364747,202.142118 Z M17.3870621,198.397888 L22.1056049,201.107522 L17.3143941,203.711604 L12.5953637,201.001495 L17.3870621,198.397888 Z M18.0079102,204.886936 L22.799121,202.283329 L22.7269407,207.632229 L17.9357299,210.235835 L18.0079102,204.886936 Z M31.1398464,212.483324 C31.0291374,212.696805 30.7740679,212.804734 30.5550885,212.804734 C30.4443795,212.804734 30.2995312,212.769074 30.18931,212.696805 C29.8596216,212.518508 29.7508634,212.091547 29.9337527,211.770138 C30.116642,211.448728 30.5550885,211.342701 30.8842891,211.520998 C31.2120267,211.770138 31.3227356,212.161915 31.1398464,212.483324 L31.1398464,212.483324 Z M28.7622861,211.127319 C28.615487,211.340799 28.3965076,211.448728 28.1775282,211.448728 C28.0668192,211.448728 27.9219709,211.413544 27.8117496,211.340799 C27.4820613,211.162503 27.3733031,210.735542 27.5561924,210.414132 C27.7390817,210.092723 28.1775282,209.987171 28.5067288,210.165468 C28.8344664,210.378948 28.9451753,210.805909 28.7622861,211.127319 L28.7622861,211.127319 Z M26.3847258,209.736129 C26.2379267,209.950085 26.0189472,210.057539 25.7999678,210.057539 C25.6892589,210.057539 25.5444106,210.022355 25.4341893,209.950085 C25.104501,209.771789 24.9957428,209.344352 25.1786321,209.022943 C25.3615213,208.702009 25.7999678,208.595982 26.1291685,208.774278 C26.4569061,208.987759 26.567615,209.417097 26.3847258,209.736129 L26.3847258,209.736129 Z M4.62090448,211.483912 C4.80379374,211.805322 4.69308477,212.232283 4.36534723,212.410579 C4.25512597,212.481422 4.14636783,212.481422 4.03614657,212.481422 C3.78058932,212.481422 3.5596591,212.373494 3.45090096,212.124829 C3.2680117,211.80342 3.37872066,211.376459 3.70645821,211.198162 C3.9976179,211.056951 4.43801523,211.162503 4.62090448,211.483912 L4.62090448,211.483912 Z M7.03455493,210.165468 C7.21744419,210.486877 7.10673523,210.913838 6.77948539,211.092135 C6.66877643,211.162503 6.56001828,211.162503 6.44979703,211.162503 C6.19423977,211.162503 5.97330955,211.055049 5.86503912,210.805909 C5.68214986,210.484975 5.79237112,210.057539 6.12010866,209.879242 C6.41370688,209.736129 6.85166568,209.844058 7.03455493,210.165468 L7.03455493,210.165468 Z M9.44820539,208.844646 C9.63109464,209.166056 9.52087339,209.593492 9.19313584,209.771789 C9.08242688,209.842156 8.97415644,209.842156 8.86344748,209.842156 C8.60837793,209.842156 8.38696001,209.734703 8.27868957,209.485563 C8.09580032,209.164154 8.20602157,208.737193 8.53375912,208.558896 C8.82735733,208.417685 9.26531613,208.525614 9.44820539,208.844646 L9.44820539,208.844646 Z M16.7276854,192.192689 C16.7276854,191.836096 17.0212836,191.514687 17.4231523,191.514687 C17.7889308,191.514687 18.1186192,191.800912 18.1186192,192.192689 C18.1186192,192.549283 17.8250209,192.870692 17.4231523,192.870692 C17.0212836,192.870692 16.7276854,192.584466 16.7276854,192.192689 L16.7276854,192.192689 Z M16.7276854,189.518239 C16.7276854,189.161646 17.0212836,188.840237 17.4231523,188.840237 C17.7889308,188.840237 18.1186192,189.126462 18.1186192,189.518239 C18.1186192,189.874833 17.8250209,190.196242 17.4231523,190.196242 C17.0212836,190.196242 16.7276854,189.874833 16.7276854,189.518239 L16.7276854,189.518239 Z M16.7276854,194.902323 C16.7276854,194.54573 17.0212836,194.22432 17.4231523,194.22432 C17.7889308,194.22432 18.1186192,194.510546 18.1186192,194.902323 C18.1186192,195.258916 17.8250209,195.580326 17.4231523,195.580326 C17.0212836,195.580326 16.7276854,195.2941 16.7276854,194.902323 L16.7276854,194.902323 Z" id="Imported-Layers-Copy-8" fill="url(#radialGradient-1)" transform="translate(17.295374, 200.822485) rotate(17.000000) translate(-17.295374, -200.822485) "></path>
                    <path d="M77.6681955,245.590703 L71.59676,242.059953 L71.5606698,242.059953 C71.524092,242.02477 71.4880018,242.02477 71.4499609,242.02477 L71.4138707,242.02477 C71.3777806,242.02477 71.3412027,242.02477 71.2670716,241.989586 L71.2309815,241.989586 L71.2309815,241.989586 C71.1948913,241.989586 71.1202725,241.989586 71.0841824,242.02477 L71.0480922,242.02477 C71.0120021,242.02477 70.9754242,242.059953 70.9373833,242.059953 C70.9373833,242.059953 70.9373833,242.059953 70.9012931,242.059953 L64.7191486,245.44759 C64.5001692,245.555519 64.3533701,245.804183 64.3533701,246.017664 L64.2811898,252.900866 C64.2811898,253.14953 64.3914111,253.364912 64.6108782,253.470939 L70.6823137,257.001689 C70.792535,257.072057 70.9012931,257.109142 71.0480922,257.109142 C71.1583135,257.109142 71.2670716,257.073958 71.3777806,257.038774 L77.5594374,253.651138 C77.5960152,253.615954 77.6321054,253.615954 77.6321054,253.580295 L77.6681955,253.545111 C77.7042857,253.509927 77.7403758,253.437657 77.7789045,253.401998 C77.8149946,253.366814 77.8149946,253.33163 77.8510848,253.259361 L77.8510848,253.223701 L77.8510848,253.116248 L77.8510848,253.081064 L77.9232651,246.197862 C77.9978839,245.947296 77.8510848,245.733816 77.6681955,245.590703 L77.6681955,245.590703 Z M65.7443038,247.195373 L70.4633343,249.905006 L70.3906663,255.253906 L65.6716358,252.544272 L65.7443038,247.195373 Z M71.1948913,243.451143 L75.9134341,246.160777 L71.1222233,248.764859 L66.4031929,246.054749 L71.1948913,243.451143 Z M71.8157394,249.94019 L76.6069501,247.336584 L76.5347699,252.685483 L71.7435591,255.28909 L71.8157394,249.94019 Z M84.9476756,257.536579 C84.8369666,257.750059 84.581897,257.857988 84.3629176,257.857988 C84.2522087,257.857988 84.1073604,257.822329 83.9971391,257.750059 C83.6674508,257.571763 83.5586926,257.144802 83.7415819,256.823392 C83.9244711,256.501983 84.3629176,256.395956 84.6921183,256.574252 C85.0198558,256.823392 85.1305648,257.215169 84.9476756,257.536579 L84.9476756,257.536579 Z M82.5701152,256.180573 C82.4233161,256.394054 82.2043367,256.501983 81.9853573,256.501983 C81.8746484,256.501983 81.7298001,256.466799 81.6195788,256.394054 C81.2898905,256.215757 81.1811323,255.788796 81.3640216,255.467387 C81.5469108,255.145977 81.9853573,255.040426 82.314558,255.218722 C82.6422955,255.432203 82.7530045,255.859164 82.5701152,256.180573 L82.5701152,256.180573 Z M80.1925549,254.789384 C80.0457558,255.00334 79.8267764,255.110793 79.607797,255.110793 C79.4970881,255.110793 79.3522398,255.075609 79.2420185,255.00334 C78.9123302,254.825043 78.803572,254.397607 78.9864613,254.076197 C79.1693505,253.755263 79.607797,253.649236 79.9369977,253.827533 C80.2647352,254.041013 80.3754442,254.470352 80.1925549,254.789384 L80.1925549,254.789384 Z M58.4287337,256.537167 C58.6116229,256.858576 58.500914,257.285537 58.1731764,257.463834 C58.0629552,257.534677 57.954197,257.534677 57.8439758,257.534677 C57.5884185,257.534677 57.3674883,257.426748 57.2587301,257.178084 C57.0758409,256.856674 57.1865498,256.429713 57.5142874,256.251416 C57.8054471,256.110205 58.2458444,256.215757 58.4287337,256.537167 L58.4287337,256.537167 Z M60.8423841,255.218722 C61.0252734,255.540132 60.9145644,255.967093 60.5873146,256.145389 C60.4766056,256.215757 60.3678475,256.215757 60.2576262,256.215757 C60.002069,256.215757 59.7811387,256.108304 59.6728683,255.859164 C59.489979,255.53823 59.6002003,255.110793 59.9279378,254.932497 C60.2215361,254.789384 60.6594949,254.897313 60.8423841,255.218722 L60.8423841,255.218722 Z M63.2560346,253.897901 C63.4389238,254.21931 63.3287026,254.646747 63.000965,254.825043 C62.8902561,254.895411 62.7819856,254.895411 62.6712767,254.895411 C62.4162071,254.895411 62.1947892,254.787957 62.0865188,254.538818 C61.9036295,254.217408 62.0138508,253.790447 62.3415883,253.61215 C62.6351865,253.470939 63.0731453,253.578868 63.2560346,253.897901 L63.2560346,253.897901 Z M70.5355146,237.245944 C70.5355146,236.88935 70.8291128,236.567941 71.2309815,236.567941 C71.59676,236.567941 71.9264483,236.854167 71.9264483,237.245944 C71.9264483,237.602537 71.6328501,237.923946 71.2309815,237.923946 C70.8291128,237.923946 70.5355146,237.637721 70.5355146,237.245944 L70.5355146,237.245944 Z M70.5355146,234.571494 C70.5355146,234.214901 70.8291128,233.893491 71.2309815,233.893491 C71.59676,233.893491 71.9264483,234.179717 71.9264483,234.571494 C71.9264483,234.928087 71.6328501,235.249497 71.2309815,235.249497 C70.8291128,235.249497 70.5355146,234.928087 70.5355146,234.571494 L70.5355146,234.571494 Z M70.5355146,239.955577 C70.5355146,239.598984 70.8291128,239.277575 71.2309815,239.277575 C71.59676,239.277575 71.9264483,239.5638 71.9264483,239.955577 C71.9264483,240.312171 71.6328501,240.63358 71.2309815,240.63358 C70.8291128,240.63358 70.5355146,240.347355 70.5355146,239.955577 L70.5355146,239.955577 Z" id="Imported-Layers-Copy-13" fill="url(#radialGradient-1)" transform="translate(71.103203, 245.875740) rotate(-56.000000) translate(-71.103203, -245.875740) "></path>
                    <path d="M51.725135,116.182419 L45.6536995,112.651669 L45.6176093,112.651669 C45.5810315,112.616486 45.5449413,112.616486 45.5069004,112.616486 L45.4708102,112.616486 C45.4347201,112.616486 45.3981422,112.616486 45.3240111,112.581302 L45.287921,112.581302 L45.287921,112.581302 C45.2518308,112.581302 45.177212,112.581302 45.1411219,112.616486 L45.1050317,112.616486 C45.0689416,112.616486 45.0323637,112.651669 44.9943228,112.651669 C44.9943228,112.651669 44.9943228,112.651669 44.9582326,112.651669 L38.7760881,116.039306 C38.5571087,116.147235 38.4103096,116.395899 38.4103096,116.60938 L38.3381293,123.492582 C38.3381293,123.741246 38.4483506,123.956628 38.6678177,124.062655 L44.7392532,127.593405 C44.8494745,127.663772 44.9582326,127.700858 45.1050317,127.700858 C45.215253,127.700858 45.3240111,127.665674 45.4347201,127.63049 L51.6163769,124.242854 C51.6529547,124.20767 51.6890449,124.20767 51.6890449,124.172011 L51.725135,124.136827 C51.7612252,124.101643 51.7973153,124.029373 51.835844,123.993714 C51.8719341,123.95853 51.8719341,123.923346 51.9080243,123.851077 L51.9080243,123.815417 L51.9080243,123.707964 L51.9080243,123.67278 L51.9802046,116.789578 C52.0548234,116.539012 51.9080243,116.325531 51.725135,116.182419 L51.725135,116.182419 Z M39.8012433,117.787089 L44.5202738,120.496722 L44.4476058,125.845622 L39.7285753,123.135988 L39.8012433,117.787089 Z M45.2518308,114.042859 L49.9703736,116.752493 L45.1791628,119.356575 L40.4601324,116.646465 L45.2518308,114.042859 Z M45.8726789,120.531906 L50.6638896,117.9283 L50.5917094,123.277199 L45.8004986,125.880806 L45.8726789,120.531906 Z M59.0046151,128.128295 C58.8939061,128.341775 58.6388365,128.449704 58.4198571,128.449704 C58.3091482,128.449704 58.1642999,128.414045 58.0540786,128.341775 C57.7243903,128.163479 57.6156321,127.736518 57.7985214,127.415108 C57.9814106,127.093699 58.4198571,126.987672 58.7490578,127.165968 C59.0767953,127.415108 59.1875043,127.806885 59.0046151,128.128295 L59.0046151,128.128295 Z M56.6270547,126.772289 C56.4802556,126.98577 56.2612762,127.093699 56.0422968,127.093699 C55.9315879,127.093699 55.7867396,127.058515 55.6765183,126.98577 C55.34683,126.807473 55.2380718,126.380512 55.4209611,126.059103 C55.6038503,125.737693 56.0422968,125.632142 56.3714975,125.810438 C56.699235,126.023919 56.809944,126.45088 56.6270547,126.772289 L56.6270547,126.772289 Z M54.2494944,125.3811 C54.1026953,125.595056 53.8837159,125.702509 53.6647365,125.702509 C53.5540276,125.702509 53.4091793,125.667325 53.298958,125.595056 C52.9692697,125.416759 52.8605115,124.989323 53.0434008,124.667913 C53.22629,124.346979 53.6647365,124.240952 53.9939372,124.419249 C54.3216747,124.632729 54.4323837,125.062068 54.2494944,125.3811 L54.2494944,125.3811 Z M32.4856732,127.128883 C32.6685624,127.450292 32.5578535,127.877253 32.2301159,128.05555 C32.1198947,128.126393 32.0111365,128.126393 31.9009153,128.126393 C31.645358,128.126393 31.4244278,128.018464 31.3156696,127.7698 C31.1327804,127.44839 31.2434893,127.021429 31.5712269,126.843132 C31.8623866,126.701921 32.3027839,126.807473 32.4856732,127.128883 L32.4856732,127.128883 Z M34.8993236,125.810438 C35.0822129,126.131848 34.9715039,126.558809 34.6442541,126.737105 C34.5335451,126.807473 34.424787,126.807473 34.3145657,126.807473 C34.0590085,126.807473 33.8380782,126.70002 33.7298078,126.45088 C33.5469185,126.129946 33.6571398,125.702509 33.9848773,125.524213 C34.2784756,125.3811 34.7164344,125.489029 34.8993236,125.810438 L34.8993236,125.810438 Z M37.3129741,124.489617 C37.4958633,124.811026 37.3856421,125.238462 37.0579045,125.416759 C36.9471956,125.487127 36.8389251,125.487127 36.7282162,125.487127 C36.4731466,125.487127 36.2517287,125.379673 36.1434583,125.130534 C35.960569,124.809124 36.0707903,124.382163 36.3985278,124.203866 C36.692126,124.062655 37.1300848,124.170584 37.3129741,124.489617 L37.3129741,124.489617 Z M44.5924541,107.83766 C44.5924541,107.481066 44.8860523,107.159657 45.287921,107.159657 C45.6536995,107.159657 45.9833878,107.445883 45.9833878,107.83766 C45.9833878,108.194253 45.6897896,108.515662 45.287921,108.515662 C44.8860523,108.515662 44.5924541,108.229437 44.5924541,107.83766 L44.5924541,107.83766 Z M44.5924541,105.16321 C44.5924541,104.806617 44.8860523,104.485207 45.287921,104.485207 C45.6536995,104.485207 45.9833878,104.771433 45.9833878,105.16321 C45.9833878,105.519803 45.6897896,105.841213 45.287921,105.841213 C44.8860523,105.841213 44.5924541,105.519803 44.5924541,105.16321 L44.5924541,105.16321 Z M44.5924541,110.547293 C44.5924541,110.1907 44.8860523,109.869291 45.287921,109.869291 C45.6536995,109.869291 45.9833878,110.155516 45.9833878,110.547293 C45.9833878,110.903887 45.6897896,111.225296 45.287921,111.225296 C44.8860523,111.225296 44.5924541,110.939071 44.5924541,110.547293 L44.5924541,110.547293 Z" id="Imported-Layers-Copy-9" fill="url(#radialGradient-1)" transform="translate(45.160142, 116.467456) rotate(-26.000000) translate(-45.160142, -116.467456) "></path>
                    <path d="M113.79715,85.4782448 L107.725715,81.9474955 L107.689624,81.9474955 C107.653047,81.9123116 107.616956,81.9123116 107.578915,81.9123116 L107.542825,81.9123116 C107.506735,81.9123116 107.470157,81.9123116 107.396026,81.8771278 L107.359936,81.8771278 L107.359936,81.8771278 C107.323846,81.8771278 107.249227,81.8771278 107.213137,81.9123116 L107.177047,81.9123116 C107.140957,81.9123116 107.104379,81.9474955 107.066338,81.9474955 C107.066338,81.9474955 107.066338,81.9474955 107.030248,81.9474955 L100.848103,85.335132 C100.629124,85.4430609 100.482325,85.6917253 100.482325,85.9052058 L100.410144,92.7884077 C100.410144,93.0370721 100.520366,93.2524545 100.739833,93.3584815 L106.811268,96.8892308 C106.92149,96.9595986 107.030248,96.9966843 107.177047,96.9966843 C107.287268,96.9966843 107.396026,96.9615004 107.506735,96.9263165 L113.688392,93.53868 C113.72497,93.5034962 113.76106,93.5034962 113.76106,93.4678368 L113.79715,93.432653 C113.83324,93.3974691 113.86933,93.3251995 113.907859,93.2895402 C113.943949,93.2543563 113.943949,93.2191724 113.980039,93.1469028 L113.980039,93.1112435 L113.980039,93.0037901 L113.980039,92.9686062 L114.05222,86.0854043 C114.126838,85.8348381 113.980039,85.6213576 113.79715,85.4782448 L113.79715,85.4782448 Z M101.873258,87.0829147 L106.592289,89.7925484 L106.519621,95.1414481 L101.80059,92.4318144 L101.873258,87.0829147 Z M107.323846,83.3386849 L112.042389,86.0483186 L107.251178,88.6524007 L102.532147,85.9422915 L107.323846,83.3386849 Z M107.944694,89.8277323 L112.735905,87.2241256 L112.663724,92.5730253 L107.872514,95.176632 L107.944694,89.8277323 Z M121.07663,97.4241208 C120.965921,97.6376013 120.710852,97.7455302 120.491872,97.7455302 C120.381163,97.7455302 120.236315,97.7098709 120.126094,97.6376013 C119.796405,97.4593046 119.687647,97.0323436 119.870536,96.7109341 C120.053426,96.3895247 120.491872,96.2834976 120.821073,96.4617943 C121.14881,96.7109341 121.259519,97.1027113 121.07663,97.4241208 L121.07663,97.4241208 Z M118.69907,96.0681153 C118.552271,96.2815958 118.333291,96.3895247 118.114312,96.3895247 C118.003603,96.3895247 117.858755,96.3543408 117.748533,96.2815958 C117.418845,96.1032991 117.310087,95.6763381 117.492976,95.3549286 C117.675865,95.0335192 118.114312,94.9279676 118.443513,95.1062642 C118.77125,95.3197448 118.881959,95.7467058 118.69907,96.0681153 L118.69907,96.0681153 Z M116.32151,94.6769259 C116.17471,94.8908819 115.955731,94.9983353 115.736752,94.9983353 C115.626043,94.9983353 115.481194,94.9631515 115.370973,94.8908819 C115.041285,94.7125852 114.932527,94.2851487 115.115416,93.9637393 C115.298305,93.6428053 115.736752,93.5367782 116.065952,93.7150749 C116.39369,93.9285554 116.504399,94.3578937 116.32151,94.6769259 L116.32151,94.6769259 Z M94.5576882,96.4247086 C94.7405775,96.746118 94.6298685,97.1730791 94.302131,97.3513757 C94.1919097,97.4222189 94.0831516,97.4222189 93.9729303,97.4222189 C93.7173731,97.4222189 93.4964428,97.31429 93.3876847,97.0656256 C93.2047954,96.7442162 93.3155044,96.3172551 93.643242,96.1389585 C93.9344016,95.9977475 94.374799,96.1032991 94.5576882,96.4247086 L94.5576882,96.4247086 Z M96.9713387,95.1062642 C97.1542279,95.4276737 97.043519,95.8546347 96.7162691,96.0329314 C96.6055602,96.1032991 96.496802,96.1032991 96.3865808,96.1032991 C96.1310235,96.1032991 95.9100933,95.9958457 95.8018229,95.7467058 C95.6189336,95.4257718 95.7291549,94.9983353 96.0568924,94.8200387 C96.3504906,94.6769259 96.7884494,94.7848548 96.9713387,95.1062642 L96.9713387,95.1062642 Z M99.3849891,93.7854426 C99.5678784,94.106852 99.4576571,94.5342886 99.1299196,94.7125852 C99.0192106,94.782953 98.9109402,94.782953 98.8002312,94.782953 C98.5451617,94.782953 98.3237438,94.6754995 98.2154733,94.4263597 C98.0325841,94.1049502 98.1428053,93.6779892 98.4705429,93.4996925 C98.7641411,93.3584815 99.2020999,93.4664105 99.3849891,93.7854426 L99.3849891,93.7854426 Z M106.664469,77.1334858 C106.664469,76.7768925 106.958067,76.455483 107.359936,76.455483 C107.725715,76.455483 108.055403,76.7417086 108.055403,77.1334858 C108.055403,77.4900791 107.761805,77.8114885 107.359936,77.8114885 C106.958067,77.8114885 106.664469,77.525263 106.664469,77.1334858 L106.664469,77.1334858 Z M106.664469,74.4590359 C106.664469,74.1024426 106.958067,73.7810332 107.359936,73.7810332 C107.725715,73.7810332 108.055403,74.0672587 108.055403,74.4590359 C108.055403,74.8156292 107.761805,75.1370387 107.359936,75.1370387 C106.958067,75.1370387 106.664469,74.8156292 106.664469,74.4590359 L106.664469,74.4590359 Z M106.664469,79.8431195 C106.664469,79.4865262 106.958067,79.1651168 107.359936,79.1651168 C107.725715,79.1651168 108.055403,79.4513423 108.055403,79.8431195 C108.055403,80.1997128 107.761805,80.5211223 107.359936,80.5211223 C106.958067,80.5211223 106.664469,80.2348967 106.664469,79.8431195 L106.664469,79.8431195 Z" id="Imported-Layers-Copy-15" fill="url(#radialGradient-1)" transform="translate(107.232157, 85.763282) rotate(-43.000000) translate(-107.232157, -85.763282) "></path>
                    <path d="M44.3941948,18.856943 L38.3227592,15.3261937 L38.2866691,15.3261937 C38.2500912,15.2910099 38.2140011,15.2910099 38.1759601,15.2910099 L38.13987,15.2910099 C38.1037798,15.2910099 38.067202,15.2910099 37.9930709,15.255826 L37.9569807,15.255826 L37.9569807,15.255826 C37.9208906,15.255826 37.8462718,15.255826 37.8101816,15.2910099 L37.7740915,15.2910099 C37.7380013,15.2910099 37.7014235,15.3261937 37.6633825,15.3261937 C37.6633825,15.3261937 37.6633825,15.3261937 37.6272924,15.3261937 L31.4451479,18.7138302 C31.2261685,18.8217591 31.0793694,19.0704235 31.0793694,19.2839041 L31.0071891,26.1671059 C31.0071891,26.4157703 31.1174103,26.6311527 31.3368774,26.7371798 L37.408313,30.267929 C37.5185342,30.3382968 37.6272924,30.3753825 37.7740915,30.3753825 C37.8843127,30.3753825 37.9930709,30.3401986 38.1037798,30.3050147 L44.2854366,26.9173783 C44.3220145,26.8821944 44.3581046,26.8821944 44.3581046,26.8465351 L44.3941948,26.8113512 C44.4302849,26.7761673 44.4663751,26.7038977 44.5049037,26.6682384 C44.5409939,26.6330545 44.5409939,26.5978706 44.577084,26.5256011 L44.577084,26.4899417 L44.577084,26.3824883 L44.577084,26.3473044 L44.6492643,19.4641025 C44.7238831,19.2135363 44.577084,19.0000558 44.3941948,18.856943 L44.3941948,18.856943 Z M32.4703031,20.4616129 L37.1893336,23.1712466 L37.1166656,28.5201463 L32.3976351,25.8105126 L32.4703031,20.4616129 Z M37.9208906,16.7173831 L42.6394334,19.4270168 L37.8482226,22.0310989 L33.1291921,19.3209898 L37.9208906,16.7173831 Z M38.5417386,23.2064305 L43.3329494,20.6028239 L43.2607691,25.9517236 L38.4695584,28.5553302 L38.5417386,23.2064305 Z M51.6736748,30.802819 C51.5629659,31.0162995 51.3078963,31.1242284 51.0889169,31.1242284 C50.9782079,31.1242284 50.8333597,31.0885691 50.7231384,31.0162995 C50.39345,30.8380029 50.2846919,30.4110418 50.4675811,30.0896324 C50.6504704,29.7682229 51.0889169,29.6621959 51.4181176,29.8404925 C51.7458551,30.0896324 51.8565641,30.4814096 51.6736748,30.802819 L51.6736748,30.802819 Z M49.2961145,29.4468135 C49.1493154,29.660294 48.930336,29.7682229 48.7113566,29.7682229 C48.6006476,29.7682229 48.4557993,29.7330391 48.3455781,29.660294 C48.0158897,29.4819974 47.9071316,29.0550363 48.0900208,28.7336269 C48.2729101,28.4122174 48.7113566,28.3066658 49.0405573,28.4849625 C49.3682948,28.698443 49.4790038,29.1254041 49.2961145,29.4468135 L49.2961145,29.4468135 Z M46.9185542,28.0556241 C46.7717551,28.2695801 46.5527757,28.3770336 46.3337963,28.3770336 C46.2230873,28.3770336 46.078239,28.3418497 45.9680178,28.2695801 C45.6383294,28.0912834 45.5295713,27.6638469 45.7124605,27.3424375 C45.8953498,27.0215035 46.3337963,26.9154764 46.662997,27.0937731 C46.9907345,27.3072536 47.1014435,27.736592 46.9185542,28.0556241 L46.9185542,28.0556241 Z M25.1547329,29.8034068 C25.3376222,30.1248162 25.2269132,30.5517773 24.8991757,30.730074 C24.7889544,30.8009172 24.6801963,30.8009172 24.569975,30.8009172 C24.3144178,30.8009172 24.0934875,30.6929883 23.9847294,30.4443239 C23.8018401,30.1229144 23.9125491,29.6959534 24.2402867,29.5176567 C24.5314463,29.3764457 24.9718437,29.4819974 25.1547329,29.8034068 L25.1547329,29.8034068 Z M27.5683834,28.4849625 C27.7512726,28.8063719 27.6405637,29.233333 27.3133138,29.4116296 C27.2026049,29.4819974 27.0938467,29.4819974 26.9836255,29.4819974 C26.7280682,29.4819974 26.507138,29.3745439 26.3988676,29.1254041 C26.2159783,28.8044701 26.3261996,28.3770336 26.6539371,28.1987369 C26.9475353,28.0556241 27.3854941,28.163553 27.5683834,28.4849625 L27.5683834,28.4849625 Z M29.9820338,27.1641408 C30.1649231,27.4855503 30.0547018,27.9129868 29.7269643,28.0912834 C29.6162553,28.1616512 29.5079849,28.1616512 29.3972759,28.1616512 C29.1422064,28.1616512 28.9207885,28.0541977 28.812518,27.8050579 C28.6296288,27.4836484 28.73985,27.0566874 29.0675876,26.8783907 C29.3611858,26.7371798 29.7991446,26.8451087 29.9820338,27.1641408 L29.9820338,27.1641408 Z M37.2615139,10.512184 C37.2615139,10.1555907 37.5551121,9.83418125 37.9569807,9.83418125 C38.3227592,9.83418125 38.6524476,10.1204068 38.6524476,10.512184 C38.6524476,10.8687773 38.3588494,11.1901868 37.9569807,11.1901868 C37.5551121,11.1901868 37.2615139,10.9039612 37.2615139,10.512184 L37.2615139,10.512184 Z M37.2615139,7.83773415 C37.2615139,7.48114084 37.5551121,7.1597314 37.9569807,7.1597314 C38.3227592,7.1597314 38.6524476,7.44595697 38.6524476,7.83773415 C38.6524476,8.19432747 38.3588494,8.51573691 37.9569807,8.51573691 C37.5551121,8.51573691 37.2615139,8.19432747 37.2615139,7.83773415 L37.2615139,7.83773415 Z M37.2615139,13.2218177 C37.2615139,12.8652244 37.5551121,12.543815 37.9569807,12.543815 C38.3227592,12.543815 38.6524476,12.8300405 38.6524476,13.2218177 C38.6524476,13.578411 38.3588494,13.8998205 37.9569807,13.8998205 C37.5551121,13.8998205 37.2615139,13.6135949 37.2615139,13.2218177 L37.2615139,13.2218177 Z" id="Imported-Layers-Copy-17" fill="url(#radialGradient-1)" transform="translate(37.829202, 19.141980) rotate(-43.000000) translate(-37.829202, -19.141980) "></path>
                    <path d="M238.611256,37.0995785 L232.53982,33.5688292 L232.50373,33.5688292 C232.467152,33.5336453 232.431062,33.5336453 232.393021,33.5336453 L232.356931,33.5336453 C232.320841,33.5336453 232.284263,33.5336453 232.210132,33.4984615 L232.174042,33.4984615 L232.174042,33.4984615 C232.137952,33.4984615 232.063333,33.4984615 232.027243,33.5336453 L231.991153,33.5336453 C231.955063,33.5336453 231.918485,33.5688292 231.880444,33.5688292 C231.880444,33.5688292 231.880444,33.5688292 231.844354,33.5688292 L225.662209,36.9564657 C225.44323,37.0643946 225.296431,37.313059 225.296431,37.5265395 L225.22425,44.4097414 C225.22425,44.6584058 225.334472,44.8737882 225.553939,44.9798152 L231.625374,48.5105645 C231.735595,48.5809322 231.844354,48.6180179 231.991153,48.6180179 C232.101374,48.6180179 232.210132,48.5828341 232.320841,48.5476502 L238.502498,45.1600137 C238.539076,45.1248298 238.575166,45.1248298 238.575166,45.0891705 L238.611256,45.0539866 C238.647346,45.0188028 238.683436,44.9465332 238.721965,44.9108739 C238.758055,44.87569 238.758055,44.8405061 238.794145,44.7682365 L238.794145,44.7325772 L238.794145,44.6251238 L238.794145,44.5899399 L238.866326,37.706738 C238.940944,37.4561718 238.794145,37.2426912 238.611256,37.0995785 L238.611256,37.0995785 Z M226.687364,38.7042484 L231.406395,41.4138821 L231.333727,46.7627818 L226.614696,44.0531481 L226.687364,38.7042484 Z M232.137952,34.9600186 L236.856495,37.6696523 L232.065284,40.2737344 L227.346253,37.5636252 L232.137952,34.9600186 Z M232.7588,41.449066 L237.550011,38.8454593 L237.47783,44.194359 L232.68662,46.7979657 L232.7588,41.449066 Z M245.890736,49.0454545 C245.780027,49.258935 245.524958,49.3668639 245.305978,49.3668639 C245.195269,49.3668639 245.050421,49.3312046 244.9402,49.258935 C244.610511,49.0806383 244.501753,48.6536773 244.684642,48.3322678 C244.867532,48.0108584 245.305978,47.9048313 245.635179,48.083128 C245.962916,48.3322678 246.073625,48.724045 245.890736,49.0454545 L245.890736,49.0454545 Z M243.513176,47.689449 C243.366377,47.9029295 243.147397,48.0108584 242.928418,48.0108584 C242.817709,48.0108584 242.672861,47.9756745 242.562639,47.9029295 C242.232951,47.7246328 242.124193,47.2976718 242.307082,46.9762623 C242.489971,46.6548529 242.928418,46.5493013 243.257618,46.7275979 C243.585356,46.9410785 243.696065,47.3680395 243.513176,47.689449 L243.513176,47.689449 Z M241.135615,46.2982596 C240.988816,46.5122156 240.769837,46.619669 240.550858,46.619669 C240.440149,46.619669 240.2953,46.5844851 240.185079,46.5122156 C239.855391,46.3339189 239.746633,45.9064824 239.929522,45.585073 C240.112411,45.264139 240.550858,45.1581119 240.880058,45.3364085 C241.207796,45.5498891 241.318505,45.9792274 241.135615,46.2982596 L241.135615,46.2982596 Z M219.371794,48.0460423 C219.554683,48.3674517 219.443974,48.7944128 219.116237,48.9727094 C219.006016,49.0435526 218.897258,49.0435526 218.787036,49.0435526 C218.531479,49.0435526 218.310549,48.9356237 218.201791,48.6869593 C218.018901,48.3655499 218.12961,47.9385888 218.457348,47.7602922 C218.748508,47.6190812 219.188905,47.7246328 219.371794,48.0460423 L219.371794,48.0460423 Z M221.785445,46.7275979 C221.968334,47.0490074 221.857625,47.4759684 221.530375,47.6542651 C221.419666,47.7246328 221.310908,47.7246328 221.200687,47.7246328 C220.945129,47.7246328 220.724199,47.6171794 220.615929,47.3680395 C220.43304,47.0471055 220.543261,46.619669 220.870998,46.4413724 C221.164597,46.2982596 221.602555,46.4061885 221.785445,46.7275979 L221.785445,46.7275979 Z M224.199095,45.4067763 C224.381984,45.7281857 224.271763,46.1556223 223.944026,46.3339189 C223.833317,46.4042867 223.725046,46.4042867 223.614337,46.4042867 C223.359268,46.4042867 223.13785,46.2968332 223.029579,46.0476933 C222.84669,45.7262839 222.956911,45.2993228 223.284649,45.1210262 C223.578247,44.9798152 224.016206,45.0877441 224.199095,45.4067763 L224.199095,45.4067763 Z M231.478575,28.7548195 C231.478575,28.3982262 231.772173,28.0768167 232.174042,28.0768167 C232.53982,28.0768167 232.869509,28.3630423 232.869509,28.7548195 C232.869509,29.1114128 232.575911,29.4328222 232.174042,29.4328222 C231.772173,29.4328222 231.478575,29.1465967 231.478575,28.7548195 L231.478575,28.7548195 Z M231.478575,26.0803696 C231.478575,25.7237763 231.772173,25.4023669 232.174042,25.4023669 C232.53982,25.4023669 232.869509,25.6885924 232.869509,26.0803696 C232.869509,26.4369629 232.575911,26.7583724 232.174042,26.7583724 C231.772173,26.7583724 231.478575,26.4369629 231.478575,26.0803696 L231.478575,26.0803696 Z M231.478575,31.4644532 C231.478575,31.1078599 231.772173,30.7864504 232.174042,30.7864504 C232.53982,30.7864504 232.869509,31.072676 232.869509,31.4644532 C232.869509,31.8210465 232.575911,32.1424559 232.174042,32.1424559 C231.772173,32.1424559 231.478575,31.8562304 231.478575,31.4644532 L231.478575,31.4644532 Z" id="Imported-Layers-Copy-19" fill="url(#radialGradient-1)" transform="translate(232.046263, 37.384615) rotate(-43.000000) translate(-232.046263, -37.384615) "></path>
                    <path d="M126.286743,278.123338 L120.215307,274.592589 L120.179217,274.592589 C120.142639,274.557405 120.106549,274.557405 120.068508,274.557405 L120.032418,274.557405 C119.996328,274.557405 119.95975,274.557405 119.885619,274.522221 L119.849529,274.522221 L119.849529,274.522221 C119.813439,274.522221 119.73882,274.522221 119.70273,274.557405 L119.66664,274.557405 C119.630549,274.557405 119.593972,274.592589 119.555931,274.592589 C119.555931,274.592589 119.555931,274.592589 119.51984,274.592589 L113.337696,277.980226 C113.118717,278.088154 112.971917,278.336819 112.971917,278.550299 L112.899737,285.433501 C112.899737,285.682166 113.009958,285.897548 113.229426,286.003575 L119.300861,289.534324 C119.411082,289.604692 119.51984,289.641778 119.66664,289.641778 C119.776861,289.641778 119.885619,289.606594 119.996328,289.57141 L126.177985,286.183774 C126.214563,286.14859 126.250653,286.14859 126.250653,286.11293 L126.286743,286.077747 C126.322833,286.042563 126.358923,285.970293 126.397452,285.934634 C126.433542,285.89945 126.433542,285.864266 126.469632,285.791996 L126.469632,285.756337 L126.469632,285.648884 L126.469632,285.6137 L126.541812,278.730498 C126.616431,278.479932 126.469632,278.266451 126.286743,278.123338 L126.286743,278.123338 Z M114.362851,279.728008 L119.081882,282.437642 L119.009214,287.786542 L114.290183,285.076908 L114.362851,279.728008 Z M119.813439,275.983778 L124.531981,278.693412 L119.740771,281.297494 L115.02174,278.587385 L119.813439,275.983778 Z M120.434287,282.472826 L125.225497,279.869219 L125.153317,285.218119 L120.362106,287.821726 L120.434287,282.472826 Z M133.566223,290.069214 C133.455514,290.282695 133.200444,290.390624 132.981465,290.390624 C132.870756,290.390624 132.725908,290.354964 132.615686,290.282695 C132.285998,290.104398 132.17724,289.677437 132.360129,289.356028 C132.543018,289.034618 132.981465,288.928591 133.310666,289.106888 C133.638403,289.356028 133.749112,289.747805 133.566223,290.069214 L133.566223,290.069214 Z M131.188663,288.713209 C131.041863,288.926689 130.822884,289.034618 130.603905,289.034618 C130.493196,289.034618 130.348347,288.999434 130.238126,288.926689 C129.908438,288.748393 129.79968,288.321432 129.982569,288.000022 C130.165458,287.678613 130.603905,287.573061 130.933105,287.751358 C131.260843,287.964838 131.371552,288.391799 131.188663,288.713209 L131.188663,288.713209 Z M128.811102,287.322019 C128.664303,287.535975 128.445324,287.643429 128.226344,287.643429 C128.115635,287.643429 127.970787,287.608245 127.860566,287.535975 C127.530877,287.357679 127.422119,286.930242 127.605009,286.608833 C127.787898,286.287899 128.226344,286.181872 128.555545,286.360168 C128.883283,286.573649 128.993992,287.002987 128.811102,287.322019 L128.811102,287.322019 Z M107.047281,289.069802 C107.23017,289.391212 107.119461,289.818173 106.791724,289.996469 C106.681502,290.067313 106.572744,290.067313 106.462523,290.067313 C106.206966,290.067313 105.986036,289.959384 105.877277,289.710719 C105.694388,289.38931 105.805097,288.962349 106.132835,288.784052 C106.423994,288.642841 106.864392,288.748393 107.047281,289.069802 L107.047281,289.069802 Z M109.460931,287.751358 C109.643821,288.072767 109.533112,288.499728 109.205862,288.678025 C109.095153,288.748393 108.986395,288.748393 108.876174,288.748393 C108.620616,288.748393 108.399686,288.640939 108.291416,288.391799 C108.108526,288.070865 108.218748,287.643429 108.546485,287.465132 C108.840083,287.322019 109.278042,287.429948 109.460931,287.751358 L109.460931,287.751358 Z M111.874582,286.430536 C112.057471,286.751946 111.94725,287.179382 111.619512,287.357679 C111.508803,287.428047 111.400533,287.428047 111.289824,287.428047 C111.034754,287.428047 110.813337,287.320593 110.705066,287.071453 C110.522177,286.750044 110.632398,286.323083 110.960136,286.144786 C111.253734,286.003575 111.691693,286.111504 111.874582,286.430536 L111.874582,286.430536 Z M119.154062,269.778579 C119.154062,269.421986 119.44766,269.100577 119.849529,269.100577 C120.215307,269.100577 120.544996,269.386802 120.544996,269.778579 C120.544996,270.135173 120.251397,270.456582 119.849529,270.456582 C119.44766,270.456582 119.154062,270.170357 119.154062,269.778579 L119.154062,269.778579 Z M119.154062,267.10413 C119.154062,266.747536 119.44766,266.426127 119.849529,266.426127 C120.215307,266.426127 120.544996,266.712352 120.544996,267.10413 C120.544996,267.460723 120.251397,267.782132 119.849529,267.782132 C119.44766,267.782132 119.154062,267.460723 119.154062,267.10413 L119.154062,267.10413 Z M119.154062,272.488213 C119.154062,272.13162 119.44766,271.81021 119.849529,271.81021 C120.215307,271.81021 120.544996,272.096436 120.544996,272.488213 C120.544996,272.844806 120.251397,273.166216 119.849529,273.166216 C119.44766,273.166216 119.154062,272.87999 119.154062,272.488213 L119.154062,272.488213 Z" id="Imported-Layers-Copy-14" fill="url(#radialGradient-1)" transform="translate(119.721750, 278.408375) rotate(92.000000) translate(-119.721750, -278.408375) "></path>
                    <path d="M50.2853643,309.347814 L44.2139288,305.817065 L44.1778386,305.817065 C44.1412608,305.781881 44.1051706,305.781881 44.0671297,305.781881 L44.0310395,305.781881 C43.9949494,305.781881 43.9583715,305.781881 43.8842404,305.746697 L43.8481503,305.746697 L43.8481503,305.746697 C43.8120601,305.746697 43.7374413,305.746697 43.7013512,305.781881 L43.665261,305.781881 C43.6291709,305.781881 43.592593,305.817065 43.554552,305.817065 C43.554552,305.817065 43.554552,305.817065 43.5184619,305.817065 L37.3363174,309.204701 C37.117338,309.31263 36.9705389,309.561294 36.9705389,309.774775 L36.8983586,316.657977 C36.8983586,316.906641 37.0085798,317.122023 37.228047,317.228051 L43.2994825,320.7588 C43.4097038,320.829168 43.5184619,320.866253 43.665261,320.866253 C43.7754823,320.866253 43.8842404,320.831069 43.9949494,320.795886 L50.1766062,317.408249 C50.213184,317.373065 50.2492742,317.373065 50.2492742,317.337406 L50.2853643,317.302222 C50.3214545,317.267038 50.3575446,317.194769 50.3960733,317.159109 C50.4321634,317.123925 50.4321634,317.088741 50.4682536,317.016472 L50.4682536,316.980813 L50.4682536,316.873359 L50.4682536,316.838175 L50.5404339,309.954973 C50.6150527,309.704407 50.4682536,309.490927 50.2853643,309.347814 L50.2853643,309.347814 Z M38.3614726,310.952484 L43.0805031,313.662117 L43.0078351,319.011017 L38.2888046,316.301383 L38.3614726,310.952484 Z M43.8120601,307.208254 L48.5306029,309.917888 L43.7393921,312.52197 L39.0203616,309.811861 L43.8120601,307.208254 Z M44.4329082,313.697301 L49.2241189,311.093695 L49.1519386,316.442594 L44.3607279,319.046201 L44.4329082,313.697301 Z M57.5648443,321.29369 C57.4541354,321.50717 57.1990658,321.615099 56.9800864,321.615099 C56.8693775,321.615099 56.7245292,321.57944 56.6143079,321.50717 C56.2846196,321.328874 56.1758614,320.901913 56.3587507,320.580503 C56.5416399,320.259094 56.9800864,320.153067 57.3092871,320.331363 C57.6370246,320.580503 57.7477336,320.97228 57.5648443,321.29369 L57.5648443,321.29369 Z M55.187284,319.937684 C55.0404849,320.151165 54.8215055,320.259094 54.6025261,320.259094 C54.4918172,320.259094 54.3469689,320.22391 54.2367476,320.151165 C53.9070593,319.972868 53.7983011,319.545907 53.9811904,319.224498 C54.1640796,318.903088 54.6025261,318.797537 54.9317268,318.975833 C55.2594643,319.189314 55.3701733,319.616275 55.187284,319.937684 L55.187284,319.937684 Z M52.8097237,318.546495 C52.6629246,318.760451 52.4439452,318.867904 52.2249658,318.867904 C52.1142569,318.867904 51.9694086,318.83272 51.8591873,318.760451 C51.5294989,318.582154 51.4207408,318.154718 51.6036301,317.833308 C51.7865193,317.512374 52.2249658,317.406347 52.5541665,317.584644 C52.881904,317.798124 52.992613,318.227463 52.8097237,318.546495 L52.8097237,318.546495 Z M31.0459024,320.294278 C31.2287917,320.615687 31.1180827,321.042648 30.7903452,321.220945 C30.6801239,321.291788 30.5713658,321.291788 30.4611445,321.291788 C30.2055873,321.291788 29.9846571,321.183859 29.8758989,320.935195 C29.6930097,320.613785 29.8037186,320.186824 30.1314562,320.008527 C30.4226159,319.867317 30.8630132,319.972868 31.0459024,320.294278 L31.0459024,320.294278 Z M33.4595529,318.975833 C33.6424422,319.297243 33.5317332,319.724204 33.2044834,319.9025 C33.0937744,319.972868 32.9850163,319.972868 32.874795,319.972868 C32.6192377,319.972868 32.3983075,319.865415 32.2900371,319.616275 C32.1071478,319.295341 32.2173691,318.867904 32.5451066,318.689608 C32.8387048,318.546495 33.2766636,318.654424 33.4595529,318.975833 L33.4595529,318.975833 Z M35.8732034,317.655012 C36.0560926,317.976421 35.9458714,318.403858 35.6181338,318.582154 C35.5074248,318.652522 35.3991544,318.652522 35.2884454,318.652522 C35.0333759,318.652522 34.811958,318.545069 34.7036875,318.295929 C34.5207983,317.974519 34.6310195,317.547558 34.9587571,317.369262 C35.2523553,317.228051 35.6903141,317.335979 35.8732034,317.655012 L35.8732034,317.655012 Z M43.1526834,301.003055 C43.1526834,300.646461 43.4462816,300.325052 43.8481503,300.325052 C44.2139288,300.325052 44.5436171,300.611278 44.5436171,301.003055 C44.5436171,301.359648 44.2500189,301.681058 43.8481503,301.681058 C43.4462816,301.681058 43.1526834,301.394832 43.1526834,301.003055 L43.1526834,301.003055 Z M43.1526834,298.328605 C43.1526834,297.972012 43.4462816,297.650602 43.8481503,297.650602 C44.2139288,297.650602 44.5436171,297.936828 44.5436171,298.328605 C44.5436171,298.685198 44.2500189,299.006608 43.8481503,299.006608 C43.4462816,299.006608 43.1526834,298.685198 43.1526834,298.328605 L43.1526834,298.328605 Z M43.1526834,303.712689 C43.1526834,303.356095 43.4462816,303.034686 43.8481503,303.034686 C44.2139288,303.034686 44.5436171,303.320911 44.5436171,303.712689 C44.5436171,304.069282 44.2500189,304.390691 43.8481503,304.390691 C43.4462816,304.390691 43.1526834,304.104466 43.1526834,303.712689 L43.1526834,303.712689 Z" id="Imported-Layers-Copy-18" fill="url(#radialGradient-1)" transform="translate(43.720372, 309.632851) rotate(92.000000) translate(-43.720372, -309.632851) "></path>
                    <path d="M176.636167,280.729583 L170.564732,277.198833 L170.528641,277.198833 C170.492064,277.163649 170.455973,277.163649 170.417932,277.163649 L170.381842,277.163649 C170.345752,277.163649 170.309174,277.163649 170.235043,277.128466 L170.198953,277.128466 L170.198953,277.128466 C170.162863,277.128466 170.088244,277.128466 170.052154,277.163649 L170.016064,277.163649 C169.979974,277.163649 169.943396,277.198833 169.905355,277.198833 C169.905355,277.198833 169.905355,277.198833 169.869265,277.198833 L163.68712,280.58647 C163.468141,280.694399 163.321342,280.943063 163.321342,281.156544 L163.249161,288.039746 C163.249161,288.28841 163.359383,288.503792 163.57885,288.609819 L169.650285,292.140569 C169.760506,292.210936 169.869265,292.248022 170.016064,292.248022 C170.126285,292.248022 170.235043,292.212838 170.345752,292.177654 L176.527409,288.790018 C176.563987,288.754834 176.600077,288.754834 176.600077,288.719175 L176.636167,288.683991 C176.672257,288.648807 176.708347,288.576537 176.746876,288.540878 C176.782966,288.505694 176.782966,288.47051 176.819056,288.398241 L176.819056,288.362581 L176.819056,288.255128 L176.819056,288.219944 L176.891237,281.336742 C176.965855,281.086176 176.819056,280.872695 176.636167,280.729583 L176.636167,280.729583 Z M164.712275,282.334253 L169.431306,285.043886 L169.358638,290.392786 L164.639607,287.683152 L164.712275,282.334253 Z M170.162863,278.590023 L174.881406,281.299656 L170.090195,283.903739 L165.371164,281.193629 L170.162863,278.590023 Z M170.783711,285.07907 L175.574922,282.475463 L175.502741,287.824363 L170.711531,290.42797 L170.783711,285.07907 Z M183.915647,292.675459 C183.804938,292.888939 183.549869,292.996868 183.330889,292.996868 C183.22018,292.996868 183.075332,292.961209 182.965111,292.888939 C182.635422,292.710642 182.526664,292.283681 182.709553,291.962272 C182.892443,291.640863 183.330889,291.534835 183.66009,291.713132 C183.987827,291.962272 184.098536,292.354049 183.915647,292.675459 L183.915647,292.675459 Z M181.538087,291.319453 C181.391288,291.532934 181.172308,291.640863 180.953329,291.640863 C180.84262,291.640863 180.697772,291.605679 180.58755,291.532934 C180.257862,291.354637 180.149104,290.927676 180.331993,290.606266 C180.514882,290.284857 180.953329,290.179305 181.28253,290.357602 C181.610267,290.571083 181.720976,290.998044 181.538087,291.319453 L181.538087,291.319453 Z M179.160526,289.928264 C179.013727,290.14222 178.794748,290.249673 178.575769,290.249673 C178.46506,290.249673 178.320211,290.214489 178.20999,290.14222 C177.880302,289.963923 177.771544,289.536487 177.954433,289.215077 C178.137322,288.894143 178.575769,288.788116 178.904969,288.966413 C179.232707,289.179893 179.343416,289.609232 179.160526,289.928264 L179.160526,289.928264 Z M157.396705,291.676046 C157.579594,291.997456 157.468885,292.424417 157.141148,292.602714 C157.030927,292.673557 156.922169,292.673557 156.811947,292.673557 C156.55639,292.673557 156.33546,292.565628 156.226702,292.316963 C156.043812,291.995554 156.154521,291.568593 156.482259,291.390296 C156.773419,291.249085 157.213816,291.354637 157.396705,291.676046 L157.396705,291.676046 Z M159.810356,290.357602 C159.993245,290.679012 159.882536,291.105973 159.555286,291.284269 C159.444577,291.354637 159.335819,291.354637 159.225598,291.354637 C158.97004,291.354637 158.74911,291.247184 158.64084,290.998044 C158.457951,290.67711 158.568172,290.249673 158.895909,290.071377 C159.189508,289.928264 159.627466,290.036193 159.810356,290.357602 L159.810356,290.357602 Z M162.224006,289.03678 C162.406895,289.35819 162.296674,289.785626 161.968937,289.963923 C161.858228,290.034291 161.749957,290.034291 161.639248,290.034291 C161.384179,290.034291 161.162761,289.926837 161.05449,289.677698 C160.871601,289.356288 160.981822,288.929327 161.30956,288.75103 C161.603158,288.609819 162.041117,288.717748 162.224006,289.03678 L162.224006,289.03678 Z M169.503486,272.384824 C169.503486,272.02823 169.797084,271.706821 170.198953,271.706821 C170.564732,271.706821 170.89442,271.993046 170.89442,272.384824 C170.89442,272.741417 170.600822,273.062826 170.198953,273.062826 C169.797084,273.062826 169.503486,272.776601 169.503486,272.384824 L169.503486,272.384824 Z M169.503486,269.710374 C169.503486,269.35378 169.797084,269.032371 170.198953,269.032371 C170.564732,269.032371 170.89442,269.318597 170.89442,269.710374 C170.89442,270.066967 170.600822,270.388377 170.198953,270.388377 C169.797084,270.388377 169.503486,270.066967 169.503486,269.710374 L169.503486,269.710374 Z M169.503486,275.094457 C169.503486,274.737864 169.797084,274.416455 170.198953,274.416455 C170.564732,274.416455 170.89442,274.70268 170.89442,275.094457 C170.89442,275.451051 170.600822,275.77246 170.198953,275.77246 C169.797084,275.77246 169.503486,275.486235 169.503486,275.094457 L169.503486,275.094457 Z" id="Imported-Layers-Copy-16" fill="url(#radialGradient-1)" transform="translate(170.071174, 281.014620) rotate(92.000000) translate(-170.071174, -281.014620) "></path>
                    <path d="M193.931541,103.72088 L187.860105,100.190131 L187.824015,100.190131 C187.787437,100.154947 187.751347,100.154947 187.713306,100.154947 L187.677216,100.154947 C187.641126,100.154947 187.604548,100.154947 187.530417,100.119763 L187.494327,100.119763 L187.494327,100.119763 C187.458237,100.119763 187.383618,100.119763 187.347528,100.154947 L187.311437,100.154947 C187.275347,100.154947 187.238769,100.190131 187.200728,100.190131 C187.200728,100.190131 187.200728,100.190131 187.164638,100.190131 L180.982494,103.577767 C180.763514,103.685696 180.616715,103.934361 180.616715,104.147841 L180.544535,111.031043 C180.544535,111.279708 180.654756,111.49509 180.874223,111.601117 L186.945659,115.131866 C187.05588,115.202234 187.164638,115.23932 187.311437,115.23932 C187.421659,115.23932 187.530417,115.204136 187.641126,115.168952 L193.822783,111.781315 C193.85936,111.746132 193.895451,111.746132 193.895451,111.710472 L193.931541,111.675288 C193.967631,111.640105 194.003721,111.567835 194.04225,111.532176 C194.07834,111.496992 194.07834,111.461808 194.11443,111.389538 L194.11443,111.353879 L194.11443,111.246426 L194.11443,111.211242 L194.18661,104.32804 C194.261229,104.077474 194.11443,103.863993 193.931541,103.72088 L193.931541,103.72088 Z M182.007649,105.32555 L186.72668,108.035184 L186.654012,113.384084 L181.934981,110.67445 L182.007649,105.32555 Z M187.458237,101.58132 L192.176779,104.290954 L187.385569,106.895036 L182.666538,104.184927 L187.458237,101.58132 Z M188.079085,108.070368 L192.870295,105.466761 L192.798115,110.815661 L188.006904,113.419267 L188.079085,108.070368 Z M201.211021,115.666756 C201.100312,115.880237 200.845242,115.988166 200.626263,115.988166 C200.515554,115.988166 200.370706,115.952506 200.260484,115.880237 C199.930796,115.70194 199.822038,115.274979 200.004927,114.95357 C200.187816,114.63216 200.626263,114.526133 200.955463,114.70443 C201.283201,114.95357 201.39391,115.345347 201.211021,115.666756 L201.211021,115.666756 Z M198.83346,114.310751 C198.686661,114.524231 198.467682,114.63216 198.248703,114.63216 C198.137994,114.63216 197.993145,114.596976 197.882924,114.524231 C197.553236,114.345935 197.444478,113.918974 197.627367,113.597564 C197.810256,113.276155 198.248703,113.170603 198.577903,113.3489 C198.905641,113.56238 199.01635,113.989341 198.83346,114.310751 L198.83346,114.310751 Z M196.4559,112.919561 C196.309101,113.133517 196.090122,113.240971 195.871142,113.240971 C195.760433,113.240971 195.615585,113.205787 195.505364,113.133517 C195.175675,112.955221 195.066917,112.527784 195.249806,112.206375 C195.432696,111.885441 195.871142,111.779414 196.200343,111.95771 C196.52808,112.171191 196.638789,112.600529 196.4559,112.919561 L196.4559,112.919561 Z M174.692079,114.667344 C174.874968,114.988753 174.764259,115.415715 174.436522,115.594011 C174.3263,115.664854 174.217542,115.664854 174.107321,115.664854 C173.851764,115.664854 173.630833,115.556925 173.522075,115.308261 C173.339186,114.986852 173.449895,114.559891 173.777633,114.381594 C174.068792,114.240383 174.50919,114.345935 174.692079,114.667344 L174.692079,114.667344 Z M177.105729,113.3489 C177.288619,113.670309 177.17791,114.09727 176.85066,114.275567 C176.739951,114.345935 176.631193,114.345935 176.520971,114.345935 C176.265414,114.345935 176.044484,114.238481 175.936213,113.989341 C175.753324,113.668407 175.863545,113.240971 176.191283,113.062674 C176.484881,112.919561 176.92284,113.02749 177.105729,113.3489 L177.105729,113.3489 Z M179.51938,112.028078 C179.702269,112.349488 179.592048,112.776924 179.26431,112.955221 C179.153601,113.025588 179.045331,113.025588 178.934622,113.025588 C178.679552,113.025588 178.458134,112.918135 178.349864,112.668995 C178.166975,112.347586 178.277196,111.920625 178.604933,111.742328 C178.898532,111.601117 179.336491,111.709046 179.51938,112.028078 L179.51938,112.028078 Z M186.79886,95.3761212 C186.79886,95.0195279 187.092458,94.6981185 187.494327,94.6981185 C187.860105,94.6981185 188.189794,94.9843441 188.189794,95.3761212 C188.189794,95.7327146 187.896195,96.054124 187.494327,96.054124 C187.092458,96.054124 186.79886,95.7678984 186.79886,95.3761212 L186.79886,95.3761212 Z M186.79886,92.7016714 C186.79886,92.3450781 187.092458,92.0236686 187.494327,92.0236686 C187.860105,92.0236686 188.189794,92.3098942 188.189794,92.7016714 C188.189794,93.0582647 187.896195,93.3796741 187.494327,93.3796741 C187.092458,93.3796741 186.79886,93.0582647 186.79886,92.7016714 L186.79886,92.7016714 Z M186.79886,98.085755 C186.79886,97.7291617 187.092458,97.4077522 187.494327,97.4077522 C187.860105,97.4077522 188.189794,97.6939778 188.189794,98.085755 C188.189794,98.4423483 187.896195,98.7637577 187.494327,98.7637577 C187.092458,98.7637577 186.79886,98.4775322 186.79886,98.085755 L186.79886,98.085755 Z" id="Imported-Layers-Copy-11" fill="url(#radialGradient-1)"></path>
                    <path d="M224.678872,214.916147 L218.607436,211.385397 L218.571346,211.385397 C218.534768,211.350213 218.498678,211.350213 218.460637,211.350213 L218.424547,211.350213 C218.388457,211.350213 218.351879,211.350213 218.277748,211.31503 L218.241658,211.31503 L218.241658,211.31503 C218.205567,211.31503 218.130949,211.31503 218.094859,211.350213 L218.058768,211.350213 C218.022678,211.350213 217.9861,211.385397 217.948059,211.385397 C217.948059,211.385397 217.948059,211.385397 217.911969,211.385397 L211.729825,214.773034 C211.510845,214.880963 211.364046,215.129627 211.364046,215.343108 L211.291866,222.226309 C211.291866,222.474974 211.402087,222.690356 211.621554,222.796383 L217.69299,226.327133 C217.803211,226.3975 217.911969,226.434586 218.058768,226.434586 C218.16899,226.434586 218.277748,226.399402 218.388457,226.364218 L224.570114,222.976582 C224.606691,222.941398 224.642782,222.941398 224.642782,222.905739 L224.678872,222.870555 C224.714962,222.835371 224.751052,222.763101 224.789581,222.727442 C224.825671,222.692258 224.825671,222.657074 224.861761,222.584805 L224.861761,222.549145 L224.861761,222.441692 L224.861761,222.406508 L224.933941,215.523306 C225.00856,215.27274 224.861761,215.059259 224.678872,214.916147 L224.678872,214.916147 Z M212.75498,216.520816 L217.47401,219.23045 L217.401342,224.57935 L212.682312,221.869716 L212.75498,216.520816 Z M218.205567,212.776587 L222.92411,215.48622 L218.132899,218.090302 L213.413869,215.380193 L218.205567,212.776587 Z M218.826416,219.265634 L223.617626,216.662027 L223.545446,222.010927 L218.754235,224.614534 L218.826416,219.265634 Z M231.958352,226.862023 C231.847643,227.075503 231.592573,227.183432 231.373594,227.183432 C231.262885,227.183432 231.118037,227.147773 231.007815,227.075503 C230.678127,226.897206 230.569369,226.470245 230.752258,226.148836 C230.935147,225.827426 231.373594,225.721399 231.702794,225.899696 C232.030532,226.148836 232.141241,226.540613 231.958352,226.862023 L231.958352,226.862023 Z M229.580791,225.506017 C229.433992,225.719498 229.215013,225.827426 228.996033,225.827426 C228.885325,225.827426 228.740476,225.792243 228.630255,225.719498 C228.300567,225.541201 228.191808,225.11424 228.374698,224.79283 C228.557587,224.471421 228.996033,224.365869 229.325234,224.544166 C229.652972,224.757647 229.763681,225.184608 229.580791,225.506017 L229.580791,225.506017 Z M227.203231,224.114828 C227.056432,224.328784 226.837453,224.436237 226.618473,224.436237 C226.507764,224.436237 226.362916,224.401053 226.252695,224.328784 C225.923006,224.150487 225.814248,223.72305 225.997137,223.401641 C226.180027,223.080707 226.618473,222.97468 226.947674,223.152977 C227.275411,223.366457 227.38612,223.795795 227.203231,224.114828 L227.203231,224.114828 Z M205.43941,225.86261 C205.622299,226.18402 205.51159,226.610981 205.183853,226.789277 C205.073631,226.860121 204.964873,226.860121 204.854652,226.860121 C204.599095,226.860121 204.378164,226.752192 204.269406,226.503527 C204.086517,226.182118 204.197226,225.755157 204.524964,225.57686 C204.816123,225.435649 205.256521,225.541201 205.43941,225.86261 L205.43941,225.86261 Z M207.85306,224.544166 C208.03595,224.865575 207.925241,225.292536 207.597991,225.470833 C207.487282,225.541201 207.378524,225.541201 207.268302,225.541201 C207.012745,225.541201 206.791815,225.433747 206.683544,225.184608 C206.500655,224.863674 206.610876,224.436237 206.938614,224.25794 C207.232212,224.114828 207.670171,224.222757 207.85306,224.544166 L207.85306,224.544166 Z M210.266711,223.223344 C210.4496,223.544754 210.339379,223.97219 210.011641,224.150487 C209.900932,224.220855 209.792662,224.220855 209.681953,224.220855 C209.426883,224.220855 209.205465,224.113401 209.097195,223.864261 C208.914306,223.542852 209.024527,223.115891 209.352264,222.937594 C209.645863,222.796383 210.083821,222.904312 210.266711,223.223344 L210.266711,223.223344 Z M217.546191,206.571388 C217.546191,206.214794 217.839789,205.893385 218.241658,205.893385 C218.607436,205.893385 218.937125,206.17961 218.937125,206.571388 C218.937125,206.927981 218.643526,207.24939 218.241658,207.24939 C217.839789,207.24939 217.546191,206.963165 217.546191,206.571388 L217.546191,206.571388 Z M217.546191,203.896938 C217.546191,203.540344 217.839789,203.218935 218.241658,203.218935 C218.607436,203.218935 218.937125,203.50516 218.937125,203.896938 C218.937125,204.253531 218.643526,204.57494 218.241658,204.57494 C217.839789,204.57494 217.546191,204.253531 217.546191,203.896938 L217.546191,203.896938 Z M217.546191,209.281021 C217.546191,208.924428 217.839789,208.603018 218.241658,208.603018 C218.607436,208.603018 218.937125,208.889244 218.937125,209.281021 C218.937125,209.637615 218.643526,209.959024 218.241658,209.959024 C217.839789,209.959024 217.546191,209.672798 217.546191,209.281021 L217.546191,209.281021 Z" id="Imported-Layers-Copy-12" fill="url(#radialGradient-1)"></path>
                </g>
            </g>
        </g>
    </g>
</svg>