<?xml version="1.0" encoding="UTF-8" standalone="no"?>
<svg width="377px" height="440px" viewBox="0 0 377 440" version="1.1" xmlns="http://www.w3.org/2000/svg" xmlns:xlink="http://www.w3.org/1999/xlink">
    <!-- Generator: Sketch 3.7 (28169) - http://www.bohemiancoding.com/sketch -->
    <title>Oval 1 + Oval 1 Copy + Group</title>
    <desc>Created with Sketch.</desc>
    <defs>
        <radialGradient cx="0%" cy="0%" fx="0%" fy="0%" r="143.544416%" id="radialGradient-1">
            <stop stop-color="#725AC1" offset="0%"></stop>
            <stop stop-color="#1E1639" offset="100%"></stop>
        </radialGradient>
    </defs>
    <g id="Dapple" stroke="none" stroke-width="1" fill="none" fill-rule="evenodd" opacity="0.245277519">
        <g id="Artboard-54" transform="translate(-724.000000, -360.000000)">
            <g id="Oval-1-+-Oval-1-Copy-+-Group" transform="translate(724.000000, 346.000000)">
                <ellipse id="Oval-1" fill="#8D86C9" opacity="0.0965485075" cx="188.327402" cy="265.952663" rx="188.327402" ry="188.047337"></ellipse>
                <path d="M188.327403,454 C292.337755,454 376.654805,369.808339 376.654805,265.952663 C376.654805,162.096986 292.337755,77.9053254 188.327403,77.9053254 C188.327403,139.02071 188.327402,312.964497 188.327403,454 Z" id="Oval-1-Copy" fill="#8D86C9" opacity="0.332789179"></path>
                <g id="Group">
                    <path d="M241.462633,257.893491 L302.669039,305.576923" id="Line" stroke="#725AC1" stroke-width="1.34399995" stroke-linecap="square" stroke-dasharray="5.599999904632568"></path>
                    <g id="Line-+-Line-+-Line" transform="translate(22.195730, 166.556213)" stroke="#CFD8DC" stroke-width="1.34399995" stroke-linecap="round" stroke-linejoin="round">
                        <path d="M40.3558719,1.34319527 L112.323843,97.3816568" id="Line"></path>
                        <path d="M111.651246,98.0532544 L0.672597865,118.872781" id="Line"></path>
                        <path d="M111.651246,98.0532544 L80.0391459,176.630178" id="Line"></path>
                    </g>
                    <g transform="translate(90.128114, 169.242604)">
                        <g id="Rectangle-53-+-ALPHA" transform="translate(0.000000, 52.384615)">
                            <rect id="Rectangle-53" fill="#725AC1" transform="translate(44.391459, 44.325444) rotate(-45.000000) translate(-44.391459, -44.325444) " x="13.4519573" y="13.4319527" width="61.8790036" height="61.7869822" rx="2.6879999"></rect>
                            <text id="DAPPLE" fill="#F8F7F5" font-family="Roboto-Medium, Roboto" font-size="13.9999998" font-weight="400" letter-spacing="1.39999998">
                                <tspan x="13.2875445" y="51.3243115">DAPPL</tspan>
                                <tspan x="64.0238717" y="51.3243115">E</tspan>
                            </text>
                        </g>
                        <g id="Rectangle-53-+-ALPHA-Copy" transform="translate(53.807829, 104.769231)" fill="#725AC1">
                            <rect id="Rectangle-53" transform="translate(44.391459, 44.325444) rotate(-45.000000) translate(-44.391459, -44.325444) " x="13.4519573" y="13.4319527" width="61.8790036" height="61.7869822" rx="2.6879999"></rect>
                        </g>
                        <g id="Rectangle-53-Copy-+-BETA" transform="translate(53.807829, 0.000000)" fill="#725AC1">
                            <rect id="Rectangle-53-Copy" transform="translate(44.391459, 44.325444) rotate(-45.000000) translate(-44.391459, -44.325444) " x="13.4519573" y="13.4319527" width="61.8790036" height="61.7869822" rx="2.6879999"></rect>
                        </g>
                        <g id="Rectangle-53-Copy-+-BETA-Copy" transform="translate(107.615658, 52.384615)">
                            <rect id="Rectangle-53-Copy" fill="#725AC1" transform="translate(44.391459, 44.325444) rotate(-45.000000) translate(-44.391459, -44.325444) " x="13.4519573" y="13.4319527" width="61.8790036" height="61.7869822" rx="2.6879999"></rect>
                            <text id="ETH" font-family="Roboto-Medium, Roboto" font-size="13.9999998" font-weight="400" letter-spacing="2.79999995" fill="#F8F7F5">
                                <tspan x="29.7587189" y="49.9230769">ETH</tspan>
                            </text>
                        </g>
                        <path d="M85.4236046,34.8182265 C84.2082709,34.8182265 83.0955083,35.278995 82.1838393,36.0962457 C81.2714954,36.9639355 80.7653875,38.1410764 80.7154515,39.4190957 C80.6655155,40.6971149 81.1216875,41.8742558 81.9807213,42.842824 C82.8930651,43.8148002 84.1050248,44.3260079 85.4236046,44.3260079 C86.6382636,44.3260079 87.7510262,43.8652393 88.6626952,43.0479887 C89.5750391,42.1802988 90.081147,41.0031579 90.1310829,39.7251387 C90.1810189,38.4471194 89.7255218,37.2706602 88.8658132,36.3014104 C87.9541441,35.3294342 86.6888744,34.8182265 85.4236046,34.8182265 L85.4236046,34.8182265 Z M87.9541441,42.2811771 C87.2449183,42.9471103 86.3852096,43.3035925 85.4236046,43.3035925 C84.4113888,43.3035925 83.449109,42.8939447 82.7398831,42.1271332 C82.0805932,41.4107608 81.7276673,40.4387846 81.7276673,39.4695348 C81.7276673,38.4975586 82.1838393,37.526264 82.8930651,36.8630572 C83.6016162,36.197124 84.4613248,35.8406418 85.4236046,35.8406418 C86.4358204,35.8406418 87.3974255,36.2509712 88.1066513,37.0177827 C88.7659412,37.7334735 89.1188671,38.7054497 89.1188671,39.6746995 C89.1188671,40.6466757 88.659996,41.5648047 87.9541441,42.2811771 L87.9541441,42.2811771 Z M110.928744,29.6557104 L110.928744,29.6557104 C113.55983,29.6557104 115.636897,27.5604405 115.686833,24.9532813 C115.686833,23.6752621 115.230661,22.4988028 114.321691,21.5799921 C113.461982,20.6591367 112.247323,20.147929 110.982054,20.147929 C108.400903,20.147929 106.326536,22.2431989 106.273901,24.8496765 C106.273901,27.5065933 108.348268,29.6557104 110.928744,29.6557104 L110.928744,29.6557104 Z M107.336052,25.1557195 L111.285044,21.1676179 C111.741216,21.2180571 112.144077,21.3216618 112.550313,21.4736609 L107.641742,26.4310123 C107.489234,26.0772566 107.336052,25.6164881 107.336052,25.1557195 L107.336052,25.1557195 Z M114.674617,24.9001157 L110.928744,28.6837342 L110.928744,28.633295 C110.473247,28.633295 110.017075,28.5317351 109.613538,28.3776912 L114.421563,23.5212181 C114.624681,23.9819867 114.674617,24.4393471 114.674617,24.9001157 L114.674617,24.9001157 Z M112.347195,28.3776912 L114.471499,26.2313005 C114.068637,27.2509894 113.309475,28.017801 112.347195,28.3776912 L112.347195,28.3776912 Z M114.068637,22.8552849 L108.957622,28.017801 C108.604021,27.7621971 108.298332,27.5065933 108.045278,27.1501111 L113.206229,21.9371559 C113.359411,22.0380342 113.509894,22.1927598 113.662401,22.2936381 C113.815583,22.4988028 113.915455,22.6501202 114.068637,22.8552849 L114.068637,22.8552849 Z M110.06971,21.3216618 L107.439298,23.9792602 C107.792224,22.7039674 108.754504,21.6815521 110.06971,21.3216618 L110.06971,21.3216618 Z M110.778936,49.5928103 C108.19846,49.5928103 106.123418,51.6880802 106.070783,54.2945578 C106.070783,55.572577 106.526955,56.749718 107.436599,57.667847 C108.295633,58.589384 109.510967,59.1005917 110.7263,59.1005917 L110.776236,59.1005917 C113.356712,59.1005917 115.43108,57.0053218 115.483715,54.3988442 C115.537025,51.7385194 113.459283,49.5928103 110.778936,49.5928103 L110.778936,49.5928103 Z M100.047424,39.2643701 C100.147971,39.3154909 100.200606,39.4190957 100.200606,39.5710948 C100.200606,39.6719731 100.15067,39.7755778 100.047424,39.8771378 L97.3144411,41.7168038 C97.2638303,41.7195303 97.2138943,41.7195303 97.1140224,41.7195303 C97.0640864,41.7195303 97.0134756,41.7195303 96.9608404,41.6690911 C96.8609684,41.618652 96.7577224,41.5143656 96.7577224,41.3630481 L96.7577224,40.5451158 L91.6467074,40.5451158 C91.4942002,40.5451158 91.3936534,40.4442375 91.3936534,40.289512 L91.3936534,38.7054497 C91.3936534,38.5514058 91.4942002,38.4498459 91.6467074,38.4498459 L96.7577224,38.4498459 L96.7577224,37.6325952 C96.7577224,37.5310353 96.8083332,37.3769914 96.9608404,37.3265522 C97.0613871,37.2754314 97.2138943,37.2754314 97.3144411,37.3265522 L100.047424,39.2643701 Z M104.299405,40.6971149 L104.299405,40.6971149 L104.299405,40.6971149 L101.05964,40.6971149 L101.05964,38.6522841 L104.299405,38.6522841 L104.299405,38.6522841 C105.817729,38.6522841 107.23618,38.0906373 108.298332,37.0177827 C109.210676,36.1494113 109.76672,34.972952 109.916528,33.7453719 L109.207977,33.7453719 C109.10743,33.7453719 109.004859,33.6949328 109.004859,33.5906464 C108.954923,33.4897681 108.954923,33.3854817 109.004859,33.3350426 L110.776236,30.6249602 C110.826172,30.5738394 110.876108,30.5234003 110.979354,30.5234003 C111.079226,30.5234003 111.131862,30.5738394 111.181798,30.6249602 L112.953175,33.3350426 C113.003786,33.4366025 113.003786,33.5402072 112.953175,33.5906464 C112.903239,33.6410856 112.800668,33.7453719 112.750732,33.7453719 L111.891023,33.7453719 C111.738516,35.5345988 110.928744,37.2222658 109.613538,38.500285 C109.157366,38.9610536 108.601322,39.3686565 108.045278,39.677426 C108.601322,39.983469 109.157366,40.3937983 109.613538,40.8538853 C110.828872,42.0814653 111.588034,43.6150884 111.841087,45.3538761 L112.550313,45.3538761 C112.650185,45.3538761 112.753431,45.4043153 112.753431,45.5086017 C112.803367,45.60948 112.803367,45.7130847 112.753431,45.7642055 L110.982054,48.4742879 C110.931443,48.524727 110.881507,48.5758478 110.778936,48.5758478 C110.678389,48.5758478 110.625754,48.524727 110.575818,48.4742879 L108.80444,45.7642055 C108.754504,45.6626456 108.754504,45.5590408 108.80444,45.5086017 C108.854376,45.4574809 108.957622,45.3538761 109.007558,45.3538761 L109.816656,45.3538761 C109.613538,44.2305824 109.057494,43.1543199 108.248396,42.3370692 C107.23618,41.2587617 105.817729,40.6466757 104.299405,40.6971149 L104.299405,40.6971149 Z" id="Imported-Layers" fill="#F8F7F5" transform="translate(98.199288, 39.624260) rotate(-270.000000) translate(-98.199288, -39.624260) "></path>
                        <path d="M85.4236046,151.676215 C84.2082709,151.676215 83.0955083,152.136983 82.1838393,152.954234 C81.2714954,153.821924 80.7653875,154.999065 80.7154515,156.277084 C80.6655155,157.555103 81.1216875,158.732244 81.9807213,159.700812 C82.8930651,160.672788 84.1050248,161.183996 85.4236046,161.183996 C86.6382636,161.183996 87.7510262,160.723228 88.6626952,159.905977 C89.5750391,159.038287 90.081147,157.861146 90.1310829,156.583127 C90.1810189,155.305108 89.7255218,154.128648 88.8658132,153.159399 C87.9541441,152.187422 86.6888744,151.676215 85.4236046,151.676215 L85.4236046,151.676215 Z M87.9541441,159.139165 C87.2449183,159.805099 86.3852096,160.161581 85.4236046,160.161581 C84.4113888,160.161581 83.449109,159.751933 82.7398831,158.985121 C82.0805932,158.268749 81.7276673,157.296773 81.7276673,156.327523 C81.7276673,155.355547 82.1838393,154.384252 82.8930651,153.721045 C83.6016162,153.055112 84.4613248,152.69863 85.4236046,152.69863 C86.4358204,152.69863 87.3974255,153.108959 88.1066513,153.875771 C88.7659412,154.591462 89.1188671,155.563438 89.1188671,156.532688 C89.1188671,157.504664 88.659996,158.422793 87.9541441,159.139165 L87.9541441,159.139165 Z M110.928744,146.513699 L110.928744,146.513699 C113.55983,146.513699 115.636897,144.418429 115.686833,141.811269 C115.686833,140.53325 115.230661,139.356791 114.321691,138.43798 C113.461982,137.517125 112.247323,137.005917 110.982054,137.005917 C108.400903,137.005917 106.326536,139.101187 106.273901,141.707665 C106.273901,144.364581 108.348268,146.513699 110.928744,146.513699 L110.928744,146.513699 Z M107.336052,142.013708 L111.285044,138.025606 C111.741216,138.076045 112.144077,138.17965 112.550313,138.331649 L107.641742,143.289 C107.489234,142.935245 107.336052,142.474476 107.336052,142.013708 L107.336052,142.013708 Z M114.674617,141.758104 L110.928744,145.541722 L110.928744,145.491283 C110.473247,145.491283 110.017075,145.389723 109.613538,145.235679 L114.421563,140.379206 C114.624681,140.839975 114.674617,141.297335 114.674617,141.758104 L114.674617,141.758104 Z M112.347195,145.235679 L114.471499,143.089289 C114.068637,144.108978 113.309475,144.875789 112.347195,145.235679 L112.347195,145.235679 Z M114.068637,139.713273 L108.957622,144.875789 C108.604021,144.620185 108.298332,144.364581 108.045278,144.008099 L113.206229,138.795144 C113.359411,138.896022 113.509894,139.050748 113.662401,139.151626 C113.815583,139.356791 113.915455,139.508108 114.068637,139.713273 L114.068637,139.713273 Z M110.06971,138.17965 L107.439298,140.837248 C107.792224,139.561956 108.754504,138.53954 110.06971,138.17965 L110.06971,138.17965 Z M110.778936,166.450798 C108.19846,166.450798 106.123418,168.546068 106.070783,171.152546 C106.070783,172.430565 106.526955,173.607706 107.436599,174.525835 C108.295633,175.447372 109.510967,175.95858 110.7263,175.95858 L110.776236,175.95858 C113.356712,175.95858 115.43108,173.86331 115.483715,171.256832 C115.537025,168.596508 113.459283,166.450798 110.778936,166.450798 L110.778936,166.450798 Z M100.047424,156.122358 C100.147971,156.173479 100.200606,156.277084 100.200606,156.429083 C100.200606,156.529961 100.15067,156.633566 100.047424,156.735126 L97.3144411,158.574792 C97.2638303,158.577518 97.2138943,158.577518 97.1140224,158.577518 C97.0640864,158.577518 97.0134756,158.577518 96.9608404,158.527079 C96.8609684,158.47664 96.7577224,158.372354 96.7577224,158.221036 L96.7577224,157.403104 L91.6467074,157.403104 C91.4942002,157.403104 91.3936534,157.302226 91.3936534,157.1475 L91.3936534,155.563438 C91.3936534,155.409394 91.4942002,155.307834 91.6467074,155.307834 L96.7577224,155.307834 L96.7577224,154.490583 C96.7577224,154.389023 96.8083332,154.23498 96.9608404,154.18454 C97.0613871,154.13342 97.2138943,154.13342 97.3144411,154.18454 L100.047424,156.122358 Z M104.299405,157.555103 L104.299405,157.555103 L104.299405,157.555103 L101.05964,157.555103 L101.05964,155.510272 L104.299405,155.510272 L104.299405,155.510272 C105.817729,155.510272 107.23618,154.948625 108.298332,153.875771 C109.210676,153.007399 109.76672,151.83094 109.916528,150.60336 L109.207977,150.60336 C109.10743,150.60336 109.004859,150.552921 109.004859,150.448635 C108.954923,150.347756 108.954923,150.24347 109.004859,150.193031 L110.776236,147.482948 C110.826172,147.431828 110.876108,147.381388 110.979354,147.381388 C111.079226,147.381388 111.131862,147.431828 111.181798,147.482948 L112.953175,150.193031 C113.003786,150.294591 113.003786,150.398195 112.953175,150.448635 C112.903239,150.499074 112.800668,150.60336 112.750732,150.60336 L111.891023,150.60336 C111.738516,152.392587 110.928744,154.080254 109.613538,155.358273 C109.157366,155.819042 108.601322,156.226645 108.045278,156.535414 C108.601322,156.841457 109.157366,157.251786 109.613538,157.711873 C110.828872,158.939453 111.588034,160.473077 111.841087,162.211864 L112.550313,162.211864 C112.650185,162.211864 112.753431,162.262303 112.753431,162.36659 C112.803367,162.467468 112.803367,162.571073 112.753431,162.622194 L110.982054,165.332276 C110.931443,165.382715 110.881507,165.433836 110.778936,165.433836 C110.678389,165.433836 110.625754,165.382715 110.575818,165.332276 L108.80444,162.622194 C108.754504,162.520634 108.754504,162.417029 108.80444,162.36659 C108.854376,162.315469 108.957622,162.211864 109.007558,162.211864 L109.816656,162.211864 C109.613538,161.088571 109.057494,160.012308 108.248396,159.195057 C107.23618,158.11675 105.817729,157.504664 104.299405,157.555103 L104.299405,157.555103 Z" id="Imported-Layers-Copy" fill="#F8F7F5" transform="translate(98.199288, 156.482249) scale(1, -1) rotate(-270.000000) translate(-98.199288, -156.482249) "></path>
                    </g>
                    <path d="M33.4045129,281.000005 L24.9045031,276.052597 L24.8539769,276.052597 C24.8027679,276.003296 24.7522417,276.003296 24.6989844,276.003296 L24.6484582,276.003296 C24.597932,276.003296 24.546723,276.003296 24.4429394,275.953995 L24.3924132,275.953995 L24.3924132,275.953995 C24.341887,275.953995 24.2374207,275.953995 24.1868945,276.003296 L24.1363683,276.003296 C24.085842,276.003296 24.0346331,276.052597 23.9813757,276.052597 C23.9813757,276.052597 23.9813757,276.052597 23.9308495,276.052597 L15.2758472,280.79947 C14.969276,280.950704 14.7637573,281.299141 14.7637573,281.598277 L14.6627049,291.243258 C14.6627049,291.591695 14.8170146,291.893496 15.1242686,292.042065 L23.6242783,296.989473 C23.7785881,297.088074 23.9308495,297.14004 24.1363683,297.14004 C24.290678,297.14004 24.4429394,297.090739 24.597932,297.041439 L33.2522515,292.294565 C33.3034605,292.245264 33.3539867,292.245264 33.3539867,292.195297 L33.4045129,292.145996 C33.4550391,292.096696 33.5055653,291.995429 33.5595054,291.945462 C33.6100316,291.896161 33.6100316,291.84686 33.6605578,291.745593 L33.6605578,291.695626 L33.6605578,291.545059 L33.6605578,291.495758 L33.7616102,281.850778 C33.8660766,281.499676 33.6605578,281.200539 33.4045129,281.000005 L33.4045129,281.000005 Z M16.7110645,283.248524 L23.3177072,287.045356 L23.215972,294.540419 L16.6093293,290.743587 L16.7110645,283.248524 Z M24.341887,278.001979 L30.9478469,281.798812 L24.2401518,285.447742 L17.6335092,281.650243 L24.341887,278.001979 Z M25.2110743,287.094657 L31.9187693,283.446393 L31.8177169,290.941456 L25.1100219,294.58972 L25.2110743,287.094657 Z M43.5957849,297.738979 C43.4407924,298.038115 43.083695,298.189349 42.7771238,298.189349 C42.6221313,298.189349 42.4193437,298.139382 42.2650339,298.038115 C41.8034702,297.78828 41.6512088,297.190007 41.9072538,296.739637 C42.1632987,296.289267 42.7771238,296.140699 43.2380048,296.390534 C43.6968373,296.739637 43.8518299,297.288609 43.5957849,297.738979 L43.5957849,297.738979 Z M40.2672005,295.838897 C40.0616817,296.138034 39.7551106,296.289267 39.4485394,296.289267 C39.2935469,296.289267 39.0907593,296.239966 38.9364495,296.138034 C38.4748858,295.888198 38.3226244,295.289926 38.5786694,294.839556 C38.8347143,294.389186 39.4485394,294.241283 39.9094203,294.491118 C40.3682529,294.790255 40.5232454,295.388527 40.2672005,295.838897 L40.2672005,295.838897 Z M36.9386161,293.889515 C36.7330973,294.189317 36.4265261,294.339885 36.119955,294.339885 C35.9649624,294.339885 35.7621748,294.290584 35.6078651,294.189317 C35.1463014,293.939482 34.99404,293.340543 35.2500849,292.890173 C35.5061299,292.440469 36.119955,292.2919 36.5808359,292.541736 C37.0396685,292.840872 37.194661,293.442476 36.9386161,293.889515 L36.9386161,293.889515 Z M6.46926627,296.338568 C6.72531123,296.788938 6.57031868,297.387211 6.11148612,297.637046 C5.95717636,297.736314 5.80491496,297.736314 5.6506052,297.736314 C5.29282505,297.736314 4.98352274,297.58508 4.83126134,297.236643 C4.57521638,296.786273 4.73020893,296.188001 5.18904149,295.938165 C5.59666506,295.740296 6.21322132,295.888198 6.46926627,296.338568 L6.46926627,296.338568 Z M9.84837691,294.491118 C10.1044219,294.941488 9.94942932,295.539761 9.49127954,295.789596 C9.336287,295.888198 9.1840256,295.888198 9.02971584,295.888198 C8.67193568,295.888198 8.36263338,295.737631 8.21105476,295.388527 C7.95500981,294.938823 8.10931957,294.339885 8.56815213,294.090049 C8.97918963,293.889515 9.59233195,294.040748 9.84837691,294.491118 L9.84837691,294.491118 Z M13.2274875,292.640337 C13.4835325,293.090707 13.3292227,293.689646 12.8703902,293.939482 C12.7153976,294.038083 12.563819,294.038083 12.4088265,294.038083 C12.0517291,294.038083 11.741744,293.887516 11.5901654,293.538413 C11.3341204,293.088043 11.4884302,292.48977 11.9472628,292.239935 C12.3583003,292.042065 12.9714426,292.193299 13.2274875,292.640337 L13.2274875,292.640337 Z M23.4187596,269.30704 C23.4187596,268.807369 23.8297971,268.356999 24.3924132,268.356999 C24.9045031,268.356999 25.3660668,268.758068 25.3660668,269.30704 C25.3660668,269.806711 24.9550293,270.257081 24.3924132,270.257081 C23.8297971,270.257081 23.4187596,269.856012 23.4187596,269.30704 L23.4187596,269.30704 Z M23.4187596,265.559508 C23.4187596,265.059837 23.8297971,264.609467 24.3924132,264.609467 C24.9045031,264.609467 25.3660668,265.010537 25.3660668,265.559508 C25.3660668,266.059179 24.9550293,266.509549 24.3924132,266.509549 C23.8297971,266.509549 23.4187596,266.059179 23.4187596,265.559508 L23.4187596,265.559508 Z M23.4187596,273.103872 C23.4187596,272.604201 23.8297971,272.153831 24.3924132,272.153831 C24.9045031,272.153831 25.3660668,272.554901 25.3660668,273.103872 C25.3660668,273.603543 24.9550293,274.053913 24.3924132,274.053913 C23.8297971,274.053913 23.4187596,273.652844 23.4187596,273.103872 L23.4187596,273.103872 Z" id="Imported-Layers-Copy-8" fill="url(#radialGradient-1)" transform="translate(24.213523, 281.399408) rotate(17.000000) translate(-24.213523, -281.399408) "></path>
                    <path d="M108.735474,344.130182 L100.235464,339.182774 L100.184938,339.182774 C100.133729,339.133473 100.083203,339.133473 100.029945,339.133473 L99.979419,339.133473 C99.9288928,339.133473 99.8776838,339.133473 99.7739003,339.084173 L99.7233741,339.084173 L99.7233741,339.084173 C99.6728479,339.084173 99.5683815,339.084173 99.5178553,339.133473 L99.4673291,339.133473 C99.4168029,339.133473 99.3655939,339.182774 99.3123366,339.182774 C99.3123366,339.182774 99.3123366,339.182774 99.2618104,339.182774 L90.606808,343.929648 C90.3002369,344.080881 90.0947181,344.429319 90.0947181,344.728455 L89.9936657,354.373435 C89.9936657,354.721872 90.1479755,355.023674 90.4552294,355.172242 L98.9552392,360.11965 C99.109549,360.218252 99.2618104,360.270218 99.4673291,360.270218 C99.6216389,360.270218 99.7739003,360.220917 99.9288928,360.171616 L108.583212,355.424743 C108.634421,355.375442 108.684948,355.375442 108.684948,355.325475 L108.735474,355.276174 C108.786,355.226873 108.836526,355.125606 108.890466,355.075639 C108.940992,355.026338 108.940992,354.977038 108.991519,354.875771 L108.991519,354.825804 L108.991519,354.675236 L108.991519,354.625936 L109.092571,344.980955 C109.197037,344.629853 108.991519,344.330717 108.735474,344.130182 L108.735474,344.130182 Z M92.0420254,346.378701 L98.648668,350.175534 L98.5469328,357.670597 L91.9402902,353.873764 L92.0420254,346.378701 Z M99.6728479,341.132157 L106.278808,344.928989 L99.5711127,348.577919 L92.96447,344.780421 L99.6728479,341.132157 Z M100.542035,350.224834 L107.24973,346.576571 L107.148678,354.071634 L100.440983,357.719898 L100.542035,350.224834 Z M118.926746,360.869157 C118.771753,361.168293 118.414656,361.319527 118.108085,361.319527 C117.953092,361.319527 117.750305,361.26956 117.595995,361.168293 C117.134431,360.918457 116.98217,360.320185 117.238215,359.869815 C117.49426,359.419445 118.108085,359.270876 118.568966,359.520711 C119.027798,359.869815 119.182791,360.418787 118.926746,360.869157 L118.926746,360.869157 Z M115.598161,358.969075 C115.392643,359.268211 115.086071,359.419445 114.7795,359.419445 C114.624508,359.419445 114.42172,359.370144 114.26741,359.268211 C113.805847,359.018376 113.653585,358.420103 113.90963,357.969733 C114.165675,357.519363 114.7795,357.37146 115.240381,357.621296 C115.699214,357.920432 115.854206,358.518705 115.598161,358.969075 L115.598161,358.969075 Z M112.269577,357.019692 C112.064058,357.319495 111.757487,357.470062 111.450916,357.470062 C111.295923,357.470062 111.093136,357.420761 110.938826,357.319495 C110.477262,357.069659 110.325001,356.47072 110.581046,356.02035 C110.837091,355.570647 111.450916,355.422078 111.911797,355.671913 C112.370629,355.97105 112.525622,356.572653 112.269577,357.019692 L112.269577,357.019692 Z M81.8002271,359.468746 C82.0562721,359.919116 81.9012795,360.517388 81.442447,360.767224 C81.2881372,360.866492 81.1358758,360.866492 80.9815661,360.866492 C80.6237859,360.866492 80.3144836,360.715258 80.1622222,360.366821 C79.9061772,359.916451 80.0611698,359.318178 80.5200023,359.068343 C80.9276259,358.870473 81.5441822,359.018376 81.8002271,359.468746 L81.8002271,359.468746 Z M85.1793378,357.621296 C85.4353827,358.071666 85.2803902,358.669939 84.8222404,358.919774 C84.6672479,359.018376 84.5149864,359.018376 84.3606767,359.018376 C84.0028965,359.018376 83.6935942,358.867808 83.5420156,358.518705 C83.2859707,358.069001 83.4402804,357.470062 83.899113,357.220227 C84.3101505,357.019692 84.9232928,357.170926 85.1793378,357.621296 L85.1793378,357.621296 Z M88.5584484,355.770515 C88.8144934,356.220885 88.6601836,356.819824 88.201351,357.069659 C88.0463585,357.168261 87.8947799,357.168261 87.7397873,357.168261 C87.38269,357.168261 87.0727049,357.017693 86.9211263,356.66859 C86.6650813,356.21822 86.8193911,355.619947 87.2782236,355.370112 C87.6892611,355.172242 88.3024034,355.323476 88.5584484,355.770515 L88.5584484,355.770515 Z M98.7497204,332.437217 C98.7497204,331.937547 99.1607579,331.487177 99.7233741,331.487177 C100.235464,331.487177 100.697028,331.888246 100.697028,332.437217 C100.697028,332.936888 100.28599,333.387258 99.7233741,333.387258 C99.1607579,333.387258 98.7497204,332.986189 98.7497204,332.437217 L98.7497204,332.437217 Z M98.7497204,328.689686 C98.7497204,328.190015 99.1607579,327.739645 99.7233741,327.739645 C100.235464,327.739645 100.697028,328.140714 100.697028,328.689686 C100.697028,329.189357 100.28599,329.639727 99.7233741,329.639727 C99.1607579,329.639727 98.7497204,329.189357 98.7497204,328.689686 L98.7497204,328.689686 Z M98.7497204,336.23405 C98.7497204,335.734379 99.1607579,335.284009 99.7233741,335.284009 C100.235464,335.284009 100.697028,335.685078 100.697028,336.23405 C100.697028,336.733721 100.28599,337.184091 99.7233741,337.184091 C99.1607579,337.184091 98.7497204,336.783022 98.7497204,336.23405 L98.7497204,336.23405 Z" id="Imported-Layers-Copy-13" fill="url(#radialGradient-1)" transform="translate(99.544484, 344.529586) rotate(-56.000000) translate(-99.544484, -344.529586) "></path>
                    <path d="M72.415189,162.798821 L63.9151793,157.851413 L63.8646531,157.851413 C63.8134441,157.802112 63.7629179,157.802112 63.7096605,157.802112 L63.6591343,157.802112 C63.6086081,157.802112 63.5573991,157.802112 63.4536156,157.752812 L63.4030894,157.752812 L63.4030894,157.752812 C63.3525632,157.752812 63.2480968,157.752812 63.1975706,157.802112 L63.1470444,157.802112 C63.0965182,157.802112 63.0453092,157.851413 62.9920519,157.851413 C62.9920519,157.851413 62.9920519,157.851413 62.9415257,157.851413 L54.2865234,162.598287 C53.9799522,162.74952 53.7744334,163.097958 53.7744334,163.397094 L53.673381,173.042074 C53.673381,173.390511 53.8276908,173.692313 54.1349447,173.840881 L62.6349545,178.788289 C62.7892643,178.886891 62.9415257,178.938857 63.1470444,178.938857 C63.3013542,178.938857 63.4536156,178.889556 63.6086081,178.840255 L72.2629276,174.093382 C72.3141366,174.044081 72.3646628,174.044081 72.3646628,173.994114 L72.415189,173.944813 C72.4657152,173.895512 72.5162414,173.794245 72.5701816,173.744278 C72.6207078,173.694978 72.6207078,173.645677 72.671234,173.54441 L72.671234,173.494443 L72.671234,173.343875 L72.671234,173.294575 L72.7722864,163.649594 C72.8767527,163.298492 72.671234,162.999356 72.415189,162.798821 L72.415189,162.798821 Z M55.7217407,165.04734 L62.3283833,168.844173 L62.2266481,176.339236 L55.6200055,172.542403 L55.7217407,165.04734 Z M63.3525632,159.800796 L69.958523,163.597628 L63.250828,167.246558 L56.6441853,163.44906 L63.3525632,159.800796 Z M64.2217504,168.893474 L70.9294455,165.24521 L70.8283931,172.740273 L64.120698,176.388537 L64.2217504,168.893474 Z M82.6064611,179.537796 C82.4514685,179.836932 82.0943712,179.988166 81.7878,179.988166 C81.6328075,179.988166 81.4300199,179.938199 81.2757101,179.836932 C80.8141464,179.587097 80.661885,178.988824 80.9179299,178.538454 C81.1739749,178.088084 81.7878,177.939515 82.2486809,178.189351 C82.7075135,178.538454 82.862506,179.087426 82.6064611,179.537796 L82.6064611,179.537796 Z M79.2778766,177.637714 C79.0723579,177.93685 78.7657867,178.088084 78.4592156,178.088084 C78.304223,178.088084 78.1014354,178.038783 77.9471257,177.93685 C77.485562,177.687015 77.3333006,177.088742 77.5893455,176.638372 C77.8453905,176.188002 78.4592156,176.0401 78.9200965,176.289935 C79.3789291,176.589071 79.5339216,177.187344 79.2778766,177.637714 L79.2778766,177.637714 Z M75.9492922,175.688331 C75.7437735,175.988134 75.4372023,176.138701 75.1306311,176.138701 C74.9756386,176.138701 74.772851,176.0894 74.6185412,175.988134 C74.1569775,175.738298 74.0047161,175.139359 74.2607611,174.688989 C74.516806,174.239286 75.1306311,174.090717 75.5915121,174.340552 C76.0503446,174.639689 76.2053372,175.241292 75.9492922,175.688331 L75.9492922,175.688331 Z M45.4799424,178.137385 C45.7359874,178.587755 45.5809948,179.186027 45.1221623,179.435863 C44.9678525,179.535131 44.8155911,179.535131 44.6612814,179.535131 C44.3035012,179.535131 43.9941989,179.383897 43.8419375,179.03546 C43.5858925,178.58509 43.7408851,177.986817 44.1997176,177.736982 C44.6073412,177.539112 45.2238975,177.687015 45.4799424,178.137385 L45.4799424,178.137385 Z M48.8590531,176.289935 C49.115098,176.740305 48.9601055,177.338578 48.5019557,177.588413 C48.3469632,177.687015 48.1947018,177.687015 48.040392,177.687015 C47.6826118,177.687015 47.3733095,177.536447 47.2217309,177.187344 C46.965686,176.73764 47.1199957,176.138701 47.5788283,175.888866 C47.9898658,175.688331 48.6030081,175.839565 48.8590531,176.289935 L48.8590531,176.289935 Z M52.2381637,174.439154 C52.4942087,174.889524 52.3398989,175.488463 51.8810663,175.738298 C51.7260738,175.8369 51.5744952,175.8369 51.4195026,175.8369 C51.0624053,175.8369 50.7524202,175.686333 50.6008416,175.337229 C50.3447966,174.886859 50.4991064,174.288587 50.9579389,174.038751 C51.3689764,173.840881 51.9821187,173.992115 52.2381637,174.439154 L52.2381637,174.439154 Z M62.4294357,151.105857 C62.4294357,150.606186 62.8404732,150.155816 63.4030894,150.155816 C63.9151793,150.155816 64.376743,150.556885 64.376743,151.105857 C64.376743,151.605527 63.9657055,152.055897 63.4030894,152.055897 C62.8404732,152.055897 62.4294357,151.654828 62.4294357,151.105857 L62.4294357,151.105857 Z M62.4294357,147.358325 C62.4294357,146.858654 62.8404732,146.408284 63.4030894,146.408284 C63.9151793,146.408284 64.376743,146.809353 64.376743,147.358325 C64.376743,147.857996 63.9657055,148.308366 63.4030894,148.308366 C62.8404732,148.308366 62.4294357,147.857996 62.4294357,147.358325 L62.4294357,147.358325 Z M62.4294357,154.902689 C62.4294357,154.403018 62.8404732,153.952648 63.4030894,153.952648 C63.9151793,153.952648 64.376743,154.353717 64.376743,154.902689 C64.376743,155.40236 63.9657055,155.85273 63.4030894,155.85273 C62.8404732,155.85273 62.4294357,155.451661 62.4294357,154.902689 L62.4294357,154.902689 Z" id="Imported-Layers-Copy-9" fill="url(#radialGradient-1)" transform="translate(63.224199, 163.198225) rotate(-26.000000) translate(-63.224199, -163.198225) "></path>
                    <path d="M159.31601,119.775071 L150.816,114.827663 L150.765474,114.827663 C150.714265,114.778363 150.663739,114.778363 150.610482,114.778363 L150.559955,114.778363 C150.509429,114.778363 150.45822,114.778363 150.354437,114.729062 L150.30391,114.729062 L150.30391,114.729062 C150.253384,114.729062 150.148918,114.729062 150.098392,114.778363 L150.047865,114.778363 C149.997339,114.778363 149.94613,114.827663 149.892873,114.827663 C149.892873,114.827663 149.892873,114.827663 149.842347,114.827663 L141.187344,119.574537 C140.880773,119.725771 140.675255,120.074208 140.675255,120.373344 L140.574202,130.018324 C140.574202,130.366762 140.728512,130.668563 141.035766,130.817132 L149.535776,135.764539 C149.690085,135.863141 149.842347,135.915107 150.047865,135.915107 C150.202175,135.915107 150.354437,135.865806 150.509429,135.816505 L159.163749,131.069632 C159.214958,131.020331 159.265484,131.020331 159.265484,130.970364 L159.31601,130.921063 C159.366536,130.871762 159.417063,130.770496 159.471003,130.720529 C159.521529,130.671228 159.521529,130.621927 159.572055,130.52066 L159.572055,130.470693 L159.572055,130.320126 L159.572055,130.270825 L159.673107,120.625844 C159.777574,120.274742 159.572055,119.975606 159.31601,119.775071 L159.31601,119.775071 Z M142.622562,122.02359 L149.229204,125.820423 L149.127469,133.315486 L142.520827,129.518653 L142.622562,122.02359 Z M150.253384,116.777046 L156.859344,120.573879 L150.151649,124.222808 L143.545006,120.42531 L150.253384,116.777046 Z M151.122572,125.869724 L157.830267,122.22146 L157.729214,129.716523 L151.021519,133.364787 L151.122572,125.869724 Z M169.507282,136.514046 C169.35229,136.813182 168.995192,136.964416 168.688621,136.964416 C168.533629,136.964416 168.330841,136.914449 168.176531,136.813182 C167.714967,136.563347 167.562706,135.965074 167.818751,135.514704 C168.074796,135.064334 168.688621,134.915765 169.149502,135.165601 C169.608335,135.514704 169.763327,136.063676 169.507282,136.514046 L169.507282,136.514046 Z M166.178698,134.613964 C165.973179,134.9131 165.666608,135.064334 165.360037,135.064334 C165.205044,135.064334 165.002257,135.015033 164.847947,134.9131 C164.386383,134.663265 164.234122,134.064992 164.490167,133.614622 C164.746212,133.164252 165.360037,133.01635 165.820918,133.266185 C166.27975,133.565321 166.434743,134.163594 166.178698,134.613964 L166.178698,134.613964 Z M162.850113,132.664581 C162.644595,132.964384 162.338023,133.114951 162.031452,133.114951 C161.87646,133.114951 161.673672,133.06565 161.519362,132.964384 C161.057799,132.714548 160.905537,132.11561 161.161582,131.66524 C161.417627,131.215536 162.031452,131.066967 162.492333,131.316802 C162.951166,131.615939 163.106158,132.217542 162.850113,132.664581 L162.850113,132.664581 Z M132.380764,135.113635 C132.636808,135.564005 132.481816,136.162277 132.022983,136.412113 C131.868674,136.511381 131.716412,136.511381 131.562102,136.511381 C131.204322,136.511381 130.89502,136.360147 130.742759,136.01171 C130.486714,135.56134 130.641706,134.963067 131.100539,134.713232 C131.508162,134.515362 132.124719,134.663265 132.380764,135.113635 L132.380764,135.113635 Z M135.759874,133.266185 C136.015919,133.716555 135.860927,134.314828 135.402777,134.564663 C135.247784,134.663265 135.095523,134.663265 134.941213,134.663265 C134.583433,134.663265 134.274131,134.512697 134.122552,134.163594 C133.866507,133.71389 134.020817,133.114951 134.479649,132.865116 C134.890687,132.664581 135.503829,132.815815 135.759874,133.266185 L135.759874,133.266185 Z M139.138985,131.415404 C139.39503,131.865774 139.24072,132.464713 138.781887,132.714548 C138.626895,132.81315 138.475316,132.81315 138.320324,132.81315 C137.963226,132.81315 137.653241,132.662583 137.501663,132.313479 C137.245618,131.863109 137.399927,131.264837 137.85876,131.015001 C138.269798,130.817132 138.88294,130.968365 139.138985,131.415404 L139.138985,131.415404 Z M149.330257,108.082107 C149.330257,107.582436 149.741294,107.132066 150.30391,107.132066 C150.816,107.132066 151.277564,107.533135 151.277564,108.082107 C151.277564,108.581777 150.866527,109.032148 150.30391,109.032148 C149.741294,109.032148 149.330257,108.631078 149.330257,108.082107 L149.330257,108.082107 Z M149.330257,104.334575 C149.330257,103.834904 149.741294,103.384534 150.30391,103.384534 C150.816,103.384534 151.277564,103.785603 151.277564,104.334575 C151.277564,104.834246 150.866527,105.284616 150.30391,105.284616 C149.741294,105.284616 149.330257,104.834246 149.330257,104.334575 L149.330257,104.334575 Z M149.330257,111.878939 C149.330257,111.379268 149.741294,110.928898 150.30391,110.928898 C150.816,110.928898 151.277564,111.329967 151.277564,111.878939 C151.277564,112.37861 150.866527,112.82898 150.30391,112.82898 C149.741294,112.82898 149.330257,112.427911 149.330257,111.878939 L149.330257,111.878939 Z" id="Imported-Layers-Copy-15" fill="url(#radialGradient-1)" transform="translate(150.125020, 120.174475) rotate(-43.000000) translate(-150.125020, -120.174475) "></path>
                    <path d="M62.1518727,26.4230004 L53.6518629,21.4755925 L53.6013367,21.4755925 C53.5501277,21.4262916 53.4996015,21.4262916 53.4463442,21.4262916 L53.395818,21.4262916 C53.3452918,21.4262916 53.2940828,21.4262916 53.1902992,21.3769907 L53.139773,21.3769907 L53.139773,21.3769907 C53.0892468,21.3769907 52.9847805,21.3769907 52.9342543,21.4262916 L52.8837281,21.4262916 C52.8332019,21.4262916 52.7819929,21.4755925 52.7287355,21.4755925 C52.7287355,21.4755925 52.7287355,21.4755925 52.6782093,21.4755925 L44.023207,26.2224658 C43.7166359,26.3736995 43.5111171,26.7221367 43.5111171,27.021273 L43.4100647,36.6662534 C43.4100647,37.0146905 43.5643745,37.3164917 43.8716284,37.4650605 L52.3716382,42.4124685 C52.5259479,42.5110702 52.6782093,42.5630359 52.8837281,42.5630359 C53.0380378,42.5630359 53.1902992,42.5137351 53.3452918,42.4644342 L61.9996113,37.7175609 C62.0508203,37.66826 62.1013465,37.66826 62.1013465,37.6182929 L62.1518727,37.5689921 C62.2023989,37.5196912 62.2529251,37.4184246 62.3068652,37.3684575 C62.3573915,37.3191566 62.3573915,37.2698558 62.4079177,37.1685892 L62.4079177,37.1186221 L62.4079177,36.9680546 L62.4079177,36.9187537 L62.5089701,27.2737733 C62.6134364,26.9226713 62.4079177,26.623535 62.1518727,26.4230004 L62.1518727,26.4230004 Z M45.4584243,28.6715193 L52.065067,32.4683518 L51.9633318,39.9634149 L45.3566891,36.1665825 L45.4584243,28.6715193 Z M53.0892468,23.4249751 L59.6952067,27.2218075 L52.9875116,30.8707374 L46.380869,27.0732387 L53.0892468,23.4249751 Z M53.9584341,32.5176526 L60.6661292,28.869389 L60.5650768,36.3644522 L53.8573817,40.0127158 L53.9584341,32.5176526 Z M72.3431447,43.1619748 C72.1881522,43.4611111 71.8310548,43.6123448 71.5244837,43.6123448 C71.3694911,43.6123448 71.1667035,43.5623777 71.0123938,43.4611111 C70.5508301,43.2112756 70.3985687,42.613003 70.6546136,42.162633 C70.9106586,41.712263 71.5244837,41.5636942 71.9853646,41.8135296 C72.4441972,42.162633 72.5991897,42.7116048 72.3431447,43.1619748 L72.3431447,43.1619748 Z M69.0145603,41.261893 C68.8090416,41.5610293 68.5024704,41.712263 68.1958992,41.712263 C68.0409067,41.712263 67.8381191,41.6629621 67.6838093,41.5610293 C67.2222456,41.3111938 67.0699842,40.7129212 67.3260292,40.2625512 C67.5820741,39.8121812 68.1958992,39.6642786 68.6567802,39.9141141 C69.1156127,40.2132504 69.2706053,40.811523 69.0145603,41.261893 L69.0145603,41.261893 Z M65.6859759,39.3125103 C65.4804571,39.6123129 65.173886,39.7628803 64.8673148,39.7628803 C64.7123223,39.7628803 64.5095347,39.7135795 64.3552249,39.6123129 C63.8936612,39.3624774 63.7413998,38.7635386 63.9974447,38.3131686 C64.2534897,37.8634648 64.8673148,37.714896 65.3281957,37.9647314 C65.7870283,38.2638677 65.9420208,38.8654715 65.6859759,39.3125103 L65.6859759,39.3125103 Z M35.2166261,41.7615639 C35.4726711,42.2119339 35.3176785,42.8102065 34.8588459,43.0600419 C34.7045362,43.1593099 34.5522748,43.1593099 34.397965,43.1593099 C34.0401849,43.1593099 33.7308826,43.0080761 33.5786212,42.659639 C33.3225762,42.209269 33.4775688,41.6109964 33.9364013,41.3611609 C34.3440249,41.1632913 34.9605811,41.3111938 35.2166261,41.7615639 L35.2166261,41.7615639 Z M38.5957367,39.9141141 C38.8517817,40.3644841 38.6967891,40.9627567 38.2386394,41.2125921 C38.0836468,41.3111938 37.9313854,41.3111938 37.7770757,41.3111938 C37.4192955,41.3111938 37.1099932,41.1606264 36.9584146,40.811523 C36.7023696,40.3618192 36.8566794,39.7628803 37.315512,39.5130449 C37.7265495,39.3125103 38.3396918,39.4637441 38.5957367,39.9141141 L38.5957367,39.9141141 Z M41.9748474,38.0633331 C42.2308923,38.5137032 42.0765826,39.112642 41.61775,39.3624774 C41.4627575,39.4610791 41.3111788,39.4610791 41.1561863,39.4610791 C40.7990889,39.4610791 40.4891038,39.3105116 40.3375252,38.9614083 C40.0814803,38.5110382 40.23579,37.9127656 40.6946226,37.6629302 C41.1056601,37.4650605 41.7188024,37.6162943 41.9748474,38.0633331 L41.9748474,38.0633331 Z M52.1661194,14.7300356 C52.1661194,14.2303647 52.5771569,13.7799947 53.139773,13.7799947 C53.6518629,13.7799947 54.1134267,14.1810639 54.1134267,14.7300356 C54.1134267,15.2297065 53.7023891,15.6800765 53.139773,15.6800765 C52.5771569,15.6800765 52.1661194,15.2790073 52.1661194,14.7300356 L52.1661194,14.7300356 Z M52.1661194,10.982504 C52.1661194,10.4828332 52.5771569,10.0324631 53.139773,10.0324631 C53.6518629,10.0324631 54.1134267,10.4335323 54.1134267,10.982504 C54.1134267,11.4821749 53.7023891,11.9325449 53.139773,11.9325449 C52.5771569,11.9325449 52.1661194,11.4821749 52.1661194,10.982504 L52.1661194,10.982504 Z M52.1661194,18.5268681 C52.1661194,18.0271972 52.5771569,17.5768272 53.139773,17.5768272 C53.6518629,17.5768272 54.1134267,17.9778963 54.1134267,18.5268681 C54.1134267,19.0265389 53.7023891,19.4769089 53.139773,19.4769089 C52.5771569,19.4769089 52.1661194,19.0758398 52.1661194,18.5268681 L52.1661194,18.5268681 Z" id="Imported-Layers-Copy-17" fill="url(#radialGradient-1)" transform="translate(52.960883, 26.822404) rotate(-43.000000) translate(-52.960883, -26.822404) "></path>
                    <path d="M334.055758,51.9852118 L325.555749,47.0378039 L325.505222,47.0378039 C325.454013,46.988503 325.403487,46.988503 325.35023,46.988503 L325.299704,46.988503 C325.249178,46.988503 325.197969,46.988503 325.094185,46.9392022 L325.043659,46.9392022 L325.043659,46.9392022 C324.993133,46.9392022 324.888666,46.9392022 324.83814,46.988503 L324.787614,46.988503 C324.737088,46.988503 324.685879,47.0378039 324.632621,47.0378039 C324.632621,47.0378039 324.632621,47.0378039 324.582095,47.0378039 L315.927093,51.7846772 C315.620522,51.9359109 315.415003,52.2843481 315.415003,52.5834844 L315.31395,62.2284648 C315.31395,62.5769019 315.46826,62.8787032 315.775514,63.027272 L324.275524,67.9746799 C324.429834,68.0732816 324.582095,68.1252474 324.787614,68.1252474 C324.941924,68.1252474 325.094185,68.0759465 325.249178,68.0266457 L333.903497,63.2797723 C333.954706,63.2304715 334.005232,63.2304715 334.005232,63.1805044 L334.055758,63.1312035 C334.106285,63.0819026 334.156811,62.980636 334.210751,62.9306689 C334.261277,62.8813681 334.261277,62.8320672 334.311803,62.7308006 L334.311803,62.6808335 L334.311803,62.530266 L334.311803,62.4809651 L334.412856,52.8359847 C334.517322,52.4848827 334.311803,52.1857464 334.055758,51.9852118 L334.055758,51.9852118 Z M317.36231,54.2337307 L323.968953,58.0305632 L323.867218,65.5256264 L317.260575,61.7287939 L317.36231,54.2337307 Z M324.993133,48.9871865 L331.599092,52.784019 L324.891397,56.4329488 L318.284755,52.6354502 L324.993133,48.9871865 Z M325.86232,58.079864 L332.570015,54.4316004 L332.468962,61.9266636 L325.761267,65.5749272 L325.86232,58.079864 Z M344.24703,68.7241862 C344.092038,69.0233225 343.734941,69.1745562 343.428369,69.1745562 C343.273377,69.1745562 343.070589,69.1245891 342.916279,69.0233225 C342.454716,68.7734871 342.302454,68.1752145 342.558499,67.7248444 C342.814544,67.2744744 343.428369,67.1259056 343.88925,67.3757411 C344.348083,67.7248444 344.503075,68.2738162 344.24703,68.7241862 L344.24703,68.7241862 Z M340.918446,66.8241044 C340.712927,67.1232407 340.406356,67.2744744 340.099785,67.2744744 C339.944792,67.2744744 339.742005,67.2251736 339.587695,67.1232407 C339.126131,66.8734053 338.97387,66.2751327 339.229915,65.8247626 C339.48596,65.3743926 340.099785,65.2264901 340.560666,65.4763255 C341.019498,65.7754618 341.174491,66.3737344 340.918446,66.8241044 L340.918446,66.8241044 Z M337.589862,64.8747218 C337.384343,65.1745243 337.077772,65.3250918 336.771201,65.3250918 C336.616208,65.3250918 336.41342,65.2757909 336.259111,65.1745243 C335.797547,64.9246888 335.645286,64.32575 335.90133,63.87538 C336.157375,63.4256762 336.771201,63.2771074 337.232081,63.5269428 C337.690914,63.8260791 337.845907,64.4276829 337.589862,64.8747218 L337.589862,64.8747218 Z M307.120512,67.3237753 C307.376557,67.7741453 307.221564,68.3724179 306.762732,68.6222533 C306.608422,68.7215213 306.456161,68.7215213 306.301851,68.7215213 C305.944071,68.7215213 305.634768,68.5702876 305.482507,68.2218504 C305.226462,67.7714804 305.381454,67.1732078 305.840287,66.9233724 C306.247911,66.7255027 306.864467,66.8734053 307.120512,67.3237753 L307.120512,67.3237753 Z M310.499622,65.4763255 C310.755667,65.9266955 310.600675,66.5249681 310.142525,66.7748035 C309.987533,66.8734053 309.835271,66.8734053 309.680961,66.8734053 C309.323181,66.8734053 309.013879,66.7228378 308.8623,66.3737344 C308.606255,65.9240306 308.760565,65.3250918 309.219398,65.0752563 C309.630435,64.8747218 310.243578,65.0259555 310.499622,65.4763255 L310.499622,65.4763255 Z M313.878733,63.6255446 C314.134778,64.0759146 313.980468,64.6748534 313.521636,64.9246888 C313.366643,65.0232906 313.215065,65.0232906 313.060072,65.0232906 C312.702975,65.0232906 312.39299,64.8727231 312.241411,64.5236197 C311.985366,64.0732497 312.139676,63.4749771 312.598508,63.2251416 C313.009546,63.027272 313.622688,63.1785057 313.878733,63.6255446 L313.878733,63.6255446 Z M324.070005,40.292247 C324.070005,39.7925762 324.481043,39.3422061 325.043659,39.3422061 C325.555749,39.3422061 326.017312,39.7432753 326.017312,40.292247 C326.017312,40.7919179 325.606275,41.2422879 325.043659,41.2422879 C324.481043,41.2422879 324.070005,40.8412188 324.070005,40.292247 L324.070005,40.292247 Z M324.070005,36.5447155 C324.070005,36.0450446 324.481043,35.5946746 325.043659,35.5946746 C325.555749,35.5946746 326.017312,35.9957437 326.017312,36.5447155 C326.017312,37.0443863 325.606275,37.4947563 325.043659,37.4947563 C324.481043,37.4947563 324.070005,37.0443863 324.070005,36.5447155 L324.070005,36.5447155 Z M324.070005,44.0890795 C324.070005,43.5894086 324.481043,43.1390386 325.043659,43.1390386 C325.555749,43.1390386 326.017312,43.5401077 326.017312,44.0890795 C326.017312,44.5887504 325.606275,45.0391204 325.043659,45.0391204 C324.481043,45.0391204 324.070005,44.6380512 324.070005,44.0890795 L324.070005,44.0890795 Z" id="Imported-Layers-Copy-19" fill="url(#radialGradient-1)" transform="translate(324.864769, 52.384615) rotate(-43.000000) translate(-324.864769, -52.384615) "></path>
                    <path d="M176.80144,389.716036 L168.30143,384.768628 L168.250904,384.768628 C168.199695,384.719327 168.149169,384.719327 168.095911,384.719327 L168.045385,384.719327 C167.994859,384.719327 167.94365,384.719327 167.839867,384.670026 L167.78934,384.670026 L167.78934,384.670026 C167.738814,384.670026 167.634348,384.670026 167.583822,384.719327 L167.533295,384.719327 C167.482769,384.719327 167.43156,384.768628 167.378303,384.768628 C167.378303,384.768628 167.378303,384.768628 167.327777,384.768628 L158.672774,389.515501 C158.366203,389.666735 158.160684,390.015172 158.160684,390.314308 L158.059632,399.959289 C158.059632,400.307726 158.213942,400.609527 158.521196,400.758096 L167.021205,405.705504 C167.175515,405.804106 167.327777,405.856071 167.533295,405.856071 C167.687605,405.856071 167.839867,405.806771 167.994859,405.75747 L176.649179,401.010596 C176.700388,400.961295 176.750914,400.961295 176.750914,400.911328 L176.80144,400.862028 C176.851966,400.812727 176.902492,400.71146 176.956433,400.661493 C177.006959,400.612192 177.006959,400.562891 177.057485,400.461625 L177.057485,400.411658 L177.057485,400.26109 L177.057485,400.211789 L177.158537,390.566809 C177.263004,390.215707 177.057485,389.91657 176.80144,389.716036 L176.80144,389.716036 Z M160.107992,391.964555 L166.714634,395.761387 L166.612899,403.25645 L160.006256,399.459618 L160.107992,391.964555 Z M167.738814,386.718011 L174.344774,390.514843 L167.637079,394.163773 L161.030436,390.366274 L167.738814,386.718011 Z M168.608001,395.810688 L175.315696,392.162424 L175.214644,399.657488 L168.506949,403.305751 L168.608001,395.810688 Z M186.992712,406.45501 C186.83772,406.754147 186.480622,406.90538 186.174051,406.90538 C186.019058,406.90538 185.816271,406.855413 185.661961,406.754147 C185.200397,406.504311 185.048136,405.906038 185.304181,405.455668 C185.560226,405.005298 186.174051,404.85673 186.634932,405.106565 C187.093764,405.455668 187.248757,406.00464 186.992712,406.45501 L186.992712,406.45501 Z M183.664128,404.554928 C183.458609,404.854065 183.152038,405.005298 182.845467,405.005298 C182.690474,405.005298 182.487686,404.955998 182.333377,404.854065 C181.871813,404.604229 181.719552,404.005957 181.975596,403.555587 C182.231641,403.105217 182.845467,402.957314 183.306347,403.20715 C183.76518,403.506286 183.920173,404.104558 183.664128,404.554928 L183.664128,404.554928 Z M180.335543,402.605546 C180.130024,402.905348 179.823453,403.055916 179.516882,403.055916 C179.36189,403.055916 179.159102,403.006615 179.004792,402.905348 C178.543228,402.655513 178.390967,402.056574 178.647012,401.606204 C178.903057,401.1565 179.516882,401.007931 179.977763,401.257767 C180.436596,401.556903 180.591588,402.158507 180.335543,402.605546 L180.335543,402.605546 Z M149.866193,405.054599 C150.122238,405.504969 149.967246,406.103242 149.508413,406.353077 C149.354103,406.452345 149.201842,406.452345 149.047532,406.452345 C148.689752,406.452345 148.38045,406.301112 148.228188,405.952674 C147.972144,405.502304 148.127136,404.904032 148.585969,404.654196 C148.993592,404.456327 149.610148,404.604229 149.866193,405.054599 L149.866193,405.054599 Z M153.245304,403.20715 C153.501349,403.65752 153.346356,404.255792 152.888207,404.505628 C152.733214,404.604229 152.580953,404.604229 152.426643,404.604229 C152.068863,404.604229 151.759561,404.453662 151.607982,404.104558 C151.351937,403.654855 151.506247,403.055916 151.965079,402.80608 C152.376117,402.605546 152.989259,402.75678 153.245304,403.20715 L153.245304,403.20715 Z M156.624415,401.356369 C156.88046,401.806739 156.72615,402.405677 156.267317,402.655513 C156.112325,402.754115 155.960746,402.754115 155.805754,402.754115 C155.448656,402.754115 155.138671,402.603547 154.987093,402.254444 C154.731048,401.804074 154.885357,401.205801 155.34419,400.955966 C155.755227,400.758096 156.36837,400.90933 156.624415,401.356369 L156.624415,401.356369 Z M166.815687,378.023071 C166.815687,377.5234 167.226724,377.07303 167.78934,377.07303 C168.30143,377.07303 168.762994,377.474099 168.762994,378.023071 C168.762994,378.522742 168.351956,378.973112 167.78934,378.973112 C167.226724,378.973112 166.815687,378.572043 166.815687,378.023071 L166.815687,378.023071 Z M166.815687,374.275539 C166.815687,373.775869 167.226724,373.325499 167.78934,373.325499 C168.30143,373.325499 168.762994,373.726568 168.762994,374.275539 C168.762994,374.77521 168.351956,375.22558 167.78934,375.22558 C167.226724,375.22558 166.815687,374.77521 166.815687,374.275539 L166.815687,374.275539 Z M166.815687,381.819904 C166.815687,381.320233 167.226724,380.869863 167.78934,380.869863 C168.30143,380.869863 168.762994,381.270932 168.762994,381.819904 C168.762994,382.319574 168.351956,382.769944 167.78934,382.769944 C167.226724,382.769944 166.815687,382.368875 166.815687,381.819904 L166.815687,381.819904 Z" id="Imported-Layers-Copy-14" fill="url(#radialGradient-1)" transform="translate(167.610450, 390.115439) rotate(92.000000) translate(-167.610450, -390.115439) "></path>
                    <path d="M70.39951,433.46885 L61.8995003,428.521442 L61.8489741,428.521442 C61.7977651,428.472141 61.7472389,428.472141 61.6939815,428.472141 L61.6434553,428.472141 C61.5929291,428.472141 61.5417201,428.472141 61.4379366,428.422841 L61.3874104,428.422841 L61.3874104,428.422841 C61.3368842,428.422841 61.2324178,428.422841 61.1818916,428.472141 L61.1313654,428.472141 C61.0808392,428.472141 61.0296302,428.521442 60.9763729,428.521442 C60.9763729,428.521442 60.9763729,428.521442 60.9258467,428.521442 L52.2708443,433.268316 C51.9642732,433.419549 51.7587544,433.767986 51.7587544,434.067123 L51.657702,443.712103 C51.657702,444.06054 51.8120118,444.362342 52.1192657,444.51091 L60.6192755,449.458318 C60.7735853,449.55692 60.9258467,449.608886 61.1313654,449.608886 C61.2856752,449.608886 61.4379366,449.559585 61.5929291,449.510284 L70.2472486,444.763411 C70.2984576,444.71411 70.3489838,444.71411 70.3489838,444.664143 L70.39951,444.614842 C70.4500362,444.565541 70.5005624,444.464274 70.5545026,444.414307 C70.6050288,444.365006 70.6050288,444.315706 70.655555,444.214439 L70.655555,444.164472 L70.655555,444.013904 L70.655555,443.964604 L70.7566074,434.319623 C70.8610737,433.968521 70.655555,433.669385 70.39951,433.46885 L70.39951,433.46885 Z M53.7060617,435.717369 L60.3127043,439.514202 L60.2109691,447.009265 L53.6043265,443.212432 L53.7060617,435.717369 Z M61.3368842,430.470825 L67.942844,434.267657 L61.235149,437.916587 L54.6285063,434.119089 L61.3368842,430.470825 Z M62.2060714,439.563502 L68.9137665,435.915239 L68.8127141,443.410302 L62.105019,447.058566 L62.2060714,439.563502 Z M80.5907821,450.207825 C80.4357895,450.506961 80.0786922,450.658195 79.772121,450.658195 C79.6171285,450.658195 79.4143409,450.608228 79.2600311,450.506961 C78.7984674,450.257125 78.646206,449.658853 78.9022509,449.208483 C79.1582959,448.758113 79.772121,448.609544 80.2330019,448.859379 C80.6918345,449.208483 80.846827,449.757455 80.5907821,450.207825 L80.5907821,450.207825 Z M77.2621976,448.307743 C77.0566789,448.606879 76.7501077,448.758113 76.4435366,448.758113 C76.288544,448.758113 76.0857564,448.708812 75.9314467,448.606879 C75.469883,448.357044 75.3176216,447.758771 75.5736665,447.308401 C75.8297115,446.858031 76.4435366,446.710128 76.9044175,446.959964 C77.3632501,447.2591 77.5182426,447.857373 77.2621976,448.307743 L77.2621976,448.307743 Z M73.9336132,446.35836 C73.7280945,446.658163 73.4215233,446.80873 73.1149521,446.80873 C72.9599596,446.80873 72.757172,446.759429 72.6028622,446.658163 C72.1412985,446.408327 71.9890371,445.809388 72.2450821,445.359018 C72.501127,444.909315 73.1149521,444.760746 73.5758331,445.010581 C74.0346656,445.309718 74.1896582,445.911321 73.9336132,446.35836 L73.9336132,446.35836 Z M43.4642634,448.807414 C43.7203084,449.257784 43.5653158,449.856056 43.1064833,450.105892 C42.9521735,450.20516 42.7999121,450.20516 42.6456024,450.20516 C42.2878222,450.20516 41.9785199,450.053926 41.8262585,449.705489 C41.5702135,449.255119 41.7252061,448.656846 42.1840386,448.407011 C42.5916622,448.209141 43.2082185,448.357044 43.4642634,448.807414 L43.4642634,448.807414 Z M46.8433741,446.959964 C47.099419,447.410334 46.9444265,448.008606 46.4862767,448.258442 C46.3312842,448.357044 46.1790228,448.357044 46.024713,448.357044 C45.6669328,448.357044 45.3576305,448.206476 45.2060519,447.857373 C44.950007,447.407669 45.1043167,446.80873 45.5631493,446.558895 C45.9741868,446.35836 46.5873291,446.509594 46.8433741,446.959964 L46.8433741,446.959964 Z M50.2224847,445.109183 C50.4785297,445.559553 50.3242199,446.158492 49.8653873,446.408327 C49.7103948,446.506929 49.5588162,446.506929 49.4038236,446.506929 C49.0467263,446.506929 48.7367412,446.356361 48.5851626,446.007258 C48.3291176,445.556888 48.4834274,444.958615 48.9422599,444.70878 C49.3532974,444.51091 49.9664397,444.662144 50.2224847,445.109183 L50.2224847,445.109183 Z M60.4137567,421.775885 C60.4137567,421.276215 60.8247942,420.825845 61.3874104,420.825845 C61.8995003,420.825845 62.361064,421.226914 62.361064,421.775885 C62.361064,422.275556 61.9500265,422.725926 61.3874104,422.725926 C60.8247942,422.725926 60.4137567,422.324857 60.4137567,421.775885 L60.4137567,421.775885 Z M60.4137567,418.028354 C60.4137567,417.528683 60.8247942,417.078313 61.3874104,417.078313 C61.8995003,417.078313 62.361064,417.479382 62.361064,418.028354 C62.361064,418.528025 61.9500265,418.978395 61.3874104,418.978395 C60.8247942,418.978395 60.4137567,418.528025 60.4137567,418.028354 L60.4137567,418.028354 Z M60.4137567,425.572718 C60.4137567,425.073047 60.8247942,424.622677 61.3874104,424.622677 C61.8995003,424.622677 62.361064,425.023746 62.361064,425.572718 C62.361064,426.072389 61.9500265,426.522759 61.3874104,426.522759 C60.8247942,426.522759 60.4137567,426.12169 60.4137567,425.572718 L60.4137567,425.572718 Z" id="Imported-Layers-Copy-18" fill="url(#radialGradient-1)" transform="translate(61.208520, 433.868254) rotate(92.000000) translate(-61.208520, -433.868254) "></path>
                    <path d="M247.290634,393.367995 L238.790624,388.420587 L238.740098,388.420587 C238.688889,388.371287 238.638363,388.371287 238.585105,388.371287 L238.534579,388.371287 C238.484053,388.371287 238.432844,388.371287 238.32906,388.321986 L238.278534,388.321986 L238.278534,388.321986 C238.228008,388.321986 238.123542,388.321986 238.073015,388.371287 L238.022489,388.371287 C237.971963,388.371287 237.920754,388.420587 237.867497,388.420587 C237.867497,388.420587 237.867497,388.420587 237.81697,388.420587 L229.161968,393.167461 C228.855397,393.318695 228.649878,393.667132 228.649878,393.966268 L228.548826,403.611248 C228.548826,403.959686 228.703136,404.261487 229.01039,404.410056 L237.510399,409.357463 C237.664709,409.456065 237.81697,409.508031 238.022489,409.508031 C238.176799,409.508031 238.32906,409.45873 238.484053,409.409429 L247.138372,404.662556 C247.189581,404.613255 247.240108,404.613255 247.240108,404.563288 L247.290634,404.513987 C247.34116,404.464686 247.391686,404.36342 247.445626,404.313453 C247.496153,404.264152 247.496153,404.214851 247.546679,404.113584 L247.546679,404.063617 L247.546679,403.91305 L247.546679,403.863749 L247.647731,394.218768 C247.752198,393.867666 247.546679,393.56853 247.290634,393.367995 L247.290634,393.367995 Z M230.597186,395.616514 L237.203828,399.413347 L237.102093,406.90841 L230.49545,403.111578 L230.597186,395.616514 Z M238.228008,390.36997 L244.833968,394.166803 L238.126273,397.815732 L231.51963,394.018234 L238.228008,390.36997 Z M239.097195,399.462648 L245.80489,395.814384 L245.703838,403.309447 L238.996143,406.957711 L239.097195,399.462648 Z M257.481906,410.10697 C257.326913,410.406106 256.969816,410.55734 256.663245,410.55734 C256.508252,410.55734 256.305465,410.507373 256.151155,410.406106 C255.689591,410.156271 255.53733,409.557998 255.793375,409.107628 C256.04942,408.657258 256.663245,408.508689 257.124126,408.758525 C257.582958,409.107628 257.737951,409.6566 257.481906,410.10697 L257.481906,410.10697 Z M254.153321,408.206888 C253.947803,408.506024 253.641232,408.657258 253.33466,408.657258 C253.179668,408.657258 252.97688,408.607957 252.822571,408.506024 C252.361007,408.256189 252.208745,407.657916 252.46479,407.207546 C252.720835,406.757176 253.33466,406.609274 253.795541,406.859109 C254.254374,407.158245 254.409366,407.756518 254.153321,408.206888 L254.153321,408.206888 Z M250.824737,406.257505 C250.619218,406.557308 250.312647,406.707875 250.006076,406.707875 C249.851083,406.707875 249.648296,406.658575 249.493986,406.557308 C249.032422,406.307472 248.880161,405.708534 249.136206,405.258164 C249.392251,404.80846 250.006076,404.659891 250.466957,404.909726 C250.925789,405.208863 251.080782,405.810466 250.824737,406.257505 L250.824737,406.257505 Z M220.355387,408.706559 C220.611432,409.156929 220.45644,409.755202 219.997607,410.005037 C219.843297,410.104305 219.691036,410.104305 219.536726,410.104305 C219.178946,410.104305 218.869644,409.953071 218.717382,409.604634 C218.461337,409.154264 218.61633,408.555991 219.075162,408.306156 C219.482786,408.108286 220.099342,408.256189 220.355387,408.706559 L220.355387,408.706559 Z M223.734498,406.859109 C223.990543,407.309479 223.83555,407.907752 223.377401,408.157587 C223.222408,408.256189 223.070147,408.256189 222.915837,408.256189 C222.558057,408.256189 222.248754,408.105621 222.097176,407.756518 C221.841131,407.306814 221.995441,406.707875 222.454273,406.45804 C222.865311,406.257505 223.478453,406.408739 223.734498,406.859109 L223.734498,406.859109 Z M227.113609,405.008328 C227.369653,405.458698 227.215344,406.057637 226.756511,406.307472 C226.601519,406.406074 226.44994,406.406074 226.294947,406.406074 C225.93785,406.406074 225.627865,406.255507 225.476286,405.906403 C225.220241,405.456033 225.374551,404.857761 225.833384,404.607925 C226.244421,404.410056 226.857564,404.561289 227.113609,405.008328 L227.113609,405.008328 Z M237.304881,381.675031 C237.304881,381.17536 237.715918,380.72499 238.278534,380.72499 C238.790624,380.72499 239.252188,381.126059 239.252188,381.675031 C239.252188,382.174702 238.84115,382.625072 238.278534,382.625072 C237.715918,382.625072 237.304881,382.224002 237.304881,381.675031 L237.304881,381.675031 Z M237.304881,377.927499 C237.304881,377.427828 237.715918,376.977458 238.278534,376.977458 C238.790624,376.977458 239.252188,377.378527 239.252188,377.927499 C239.252188,378.42717 238.84115,378.87754 238.278534,378.87754 C237.715918,378.87754 237.304881,378.42717 237.304881,377.927499 L237.304881,377.927499 Z M237.304881,385.471863 C237.304881,384.972192 237.715918,384.521822 238.278534,384.521822 C238.790624,384.521822 239.252188,384.922891 239.252188,385.471863 C239.252188,385.971534 238.84115,386.421904 238.278534,386.421904 C237.715918,386.421904 237.304881,386.020835 237.304881,385.471863 L237.304881,385.471863 Z" id="Imported-Layers-Copy-16" fill="url(#radialGradient-1)" transform="translate(238.099644, 393.767399) rotate(92.000000) translate(-238.099644, -393.767399) "></path>
                    <path d="M271.504157,145.337283 L263.004147,140.389875 L262.953621,140.389875 C262.902412,140.340574 262.851886,140.340574 262.798628,140.340574 L262.748102,140.340574 C262.697576,140.340574 262.646367,140.340574 262.542584,140.291273 L262.492057,140.291273 L262.492057,140.291273 C262.441531,140.291273 262.337065,140.291273 262.286539,140.340574 L262.236012,140.340574 C262.185486,140.340574 262.134277,140.389875 262.08102,140.389875 C262.08102,140.389875 262.08102,140.389875 262.030494,140.389875 L253.375491,145.136748 C253.06892,145.287982 252.863401,145.636419 252.863401,145.935555 L252.762349,155.580536 C252.762349,155.928973 252.916659,156.230774 253.223913,156.379343 L261.723922,161.326751 C261.878232,161.425353 262.030494,161.477318 262.236012,161.477318 C262.390322,161.477318 262.542584,161.428018 262.697576,161.378717 L271.351896,156.631843 C271.403105,156.582542 271.453631,156.582542 271.453631,156.532575 L271.504157,156.483275 C271.554683,156.433974 271.605209,156.332707 271.65915,156.28274 C271.709676,156.233439 271.709676,156.184138 271.760202,156.082872 L271.760202,156.032904 L271.760202,155.882337 L271.760202,155.833036 L271.861254,146.188056 C271.965721,145.836954 271.760202,145.537817 271.504157,145.337283 L271.504157,145.337283 Z M254.810709,147.585802 L261.417351,151.382634 L261.315616,158.877697 L254.708973,155.080865 L254.810709,147.585802 Z M262.441531,142.339258 L269.047491,146.13609 L262.339796,149.78502 L255.733153,145.987521 L262.441531,142.339258 Z M263.310718,151.431935 L270.018413,147.783671 L269.917361,155.278735 L263.209666,158.926998 L263.310718,151.431935 Z M281.695429,162.076257 C281.540437,162.375393 281.183339,162.526627 280.876768,162.526627 C280.721775,162.526627 280.518988,162.47666 280.364678,162.375393 C279.903114,162.125558 279.750853,161.527285 280.006898,161.076915 C280.262943,160.626545 280.876768,160.477977 281.337649,160.727812 C281.796481,161.076915 281.951474,161.625887 281.695429,162.076257 L281.695429,162.076257 Z M278.366845,160.176175 C278.161326,160.475312 277.854755,160.626545 277.548184,160.626545 C277.393191,160.626545 277.190403,160.577245 277.036094,160.475312 C276.57453,160.225476 276.422269,159.627204 276.678313,159.176834 C276.934358,158.726464 277.548184,158.578561 278.009064,158.828396 C278.467897,159.127533 278.62289,159.725805 278.366845,160.176175 L278.366845,160.176175 Z M275.03826,158.226793 C274.832741,158.526595 274.52617,158.677163 274.219599,158.677163 C274.064607,158.677163 273.861819,158.627862 273.707509,158.526595 C273.245945,158.27676 273.093684,157.677821 273.349729,157.227451 C273.605774,156.777747 274.219599,156.629178 274.68048,156.879014 C275.139313,157.17815 275.294305,157.779754 275.03826,158.226793 L275.03826,158.226793 Z M244.56891,160.675846 C244.824955,161.126216 244.669963,161.724489 244.21113,161.974324 C244.05682,162.073592 243.904559,162.073592 243.750249,162.073592 C243.392469,162.073592 243.083167,161.922359 242.930905,161.573921 C242.674861,161.123551 242.829853,160.525279 243.288686,160.275443 C243.696309,160.077574 244.312865,160.225476 244.56891,160.675846 L244.56891,160.675846 Z M247.948021,158.828396 C248.204066,159.278767 248.049073,159.877039 247.590924,160.126875 C247.435931,160.225476 247.28367,160.225476 247.12936,160.225476 C246.77158,160.225476 246.462278,160.074909 246.310699,159.725805 C246.054654,159.276102 246.208964,158.677163 246.667796,158.427327 C247.078834,158.226793 247.691976,158.378026 247.948021,158.828396 L247.948021,158.828396 Z M251.327132,156.977616 C251.583177,157.427986 251.428867,158.026924 250.970034,158.27676 C250.815042,158.375362 250.663463,158.375362 250.508471,158.375362 C250.151373,158.375362 249.841388,158.224794 249.68981,157.875691 C249.433765,157.425321 249.588074,156.827048 250.046907,156.577213 C250.457944,156.379343 251.071087,156.530577 251.327132,156.977616 L251.327132,156.977616 Z M261.518404,133.644318 C261.518404,133.144647 261.929441,132.694277 262.492057,132.694277 C263.004147,132.694277 263.465711,133.095346 263.465711,133.644318 C263.465711,134.143989 263.054673,134.594359 262.492057,134.594359 C261.929441,134.594359 261.518404,134.19329 261.518404,133.644318 L261.518404,133.644318 Z M261.518404,129.896786 C261.518404,129.397116 261.929441,128.946746 262.492057,128.946746 C263.004147,128.946746 263.465711,129.347815 263.465711,129.896786 C263.465711,130.396457 263.054673,130.846827 262.492057,130.846827 C261.929441,130.846827 261.518404,130.396457 261.518404,129.896786 L261.518404,129.896786 Z M261.518404,137.44115 C261.518404,136.94148 261.929441,136.49111 262.492057,136.49111 C263.004147,136.49111 263.465711,136.892179 263.465711,137.44115 C263.465711,137.940821 263.054673,138.391191 262.492057,138.391191 C261.929441,138.391191 261.518404,137.990122 261.518404,137.44115 L261.518404,137.44115 Z" id="Imported-Layers-Copy-11" fill="url(#radialGradient-1)"></path>
                    <path d="M314.55042,301.147934 L306.050411,296.200526 L305.999884,296.200526 C305.948675,296.151225 305.898149,296.151225 305.844892,296.151225 L305.794366,296.151225 C305.743839,296.151225 305.69263,296.151225 305.588847,296.101924 L305.538321,296.101924 L305.538321,296.101924 C305.487794,296.101924 305.383328,296.101924 305.332802,296.151225 L305.282276,296.151225 C305.23175,296.151225 305.180541,296.200526 305.127283,296.200526 C305.127283,296.200526 305.127283,296.200526 305.076757,296.200526 L296.421755,300.947399 C296.115184,301.098633 295.909665,301.44707 295.909665,301.746206 L295.808612,311.391187 C295.808612,311.739624 295.962922,312.041425 296.270176,312.189994 L304.770186,317.137402 C304.924496,317.236003 305.076757,317.287969 305.282276,317.287969 C305.436585,317.287969 305.588847,317.238668 305.743839,317.189368 L314.398159,312.442494 C314.449368,312.393193 314.499894,312.393193 314.499894,312.343226 L314.55042,312.293925 C314.600947,312.244625 314.651473,312.143358 314.705413,312.093391 C314.755939,312.04409 314.755939,311.994789 314.806465,311.893522 L314.806465,311.843555 L314.806465,311.692988 L314.806465,311.643687 L314.907518,301.998707 C315.011984,301.647605 314.806465,301.348468 314.55042,301.147934 L314.55042,301.147934 Z M297.856972,303.396453 L304.463615,307.193285 L304.361879,314.688348 L297.755237,310.891516 L297.856972,303.396453 Z M305.487794,298.149908 L312.093754,301.946741 L305.386059,305.595671 L298.779417,301.798172 L305.487794,298.149908 Z M306.356982,307.242586 L313.064677,303.594322 L312.963624,311.089385 L306.255929,314.737649 L306.356982,307.242586 Z M324.741692,317.886908 C324.5867,318.186044 324.229602,318.337278 323.923031,318.337278 C323.768039,318.337278 323.565251,318.287311 323.410941,318.186044 C322.949378,317.936209 322.797116,317.337936 323.053161,316.887566 C323.309206,316.437196 323.923031,316.288628 324.383912,316.538463 C324.842745,316.887566 324.997737,317.436538 324.741692,317.886908 L324.741692,317.886908 Z M321.413108,315.986826 C321.207589,316.285963 320.901018,316.437196 320.594447,316.437196 C320.439454,316.437196 320.236667,316.387895 320.082357,316.285963 C319.620793,316.036127 319.468532,315.437855 319.724577,314.987485 C319.980622,314.537115 320.594447,314.389212 321.055328,314.639047 C321.51416,314.938184 321.669153,315.536456 321.413108,315.986826 L321.413108,315.986826 Z M318.084524,314.037444 C317.879005,314.337246 317.572434,314.487814 317.265862,314.487814 C317.11087,314.487814 316.908082,314.438513 316.753773,314.337246 C316.292209,314.087411 316.139947,313.488472 316.395992,313.038102 C316.652037,312.588398 317.265862,312.439829 317.726743,312.689665 C318.185576,312.988801 318.340568,313.590405 318.084524,314.037444 L318.084524,314.037444 Z M287.615174,316.486497 C287.871219,316.936867 287.716226,317.53514 287.257394,317.784975 C287.103084,317.884243 286.950822,317.884243 286.796513,317.884243 C286.438733,317.884243 286.12943,317.733009 285.977169,317.384572 C285.721124,316.934202 285.876116,316.33593 286.334949,316.086094 C286.742573,315.888225 287.359129,316.036127 287.615174,316.486497 L287.615174,316.486497 Z M290.994284,314.639047 C291.250329,315.089417 291.095337,315.68769 290.637187,315.937525 C290.482194,316.036127 290.329933,316.036127 290.175623,316.036127 C289.817843,316.036127 289.508541,315.88556 289.356962,315.536456 C289.100917,315.086752 289.255227,314.487814 289.71406,314.237978 C290.125097,314.037444 290.738239,314.188677 290.994284,314.639047 L290.994284,314.639047 Z M294.373395,312.788266 C294.62944,313.238636 294.47513,313.837575 294.016298,314.087411 C293.861305,314.186012 293.709726,314.186012 293.554734,314.186012 C293.197637,314.186012 292.887651,314.035445 292.736073,313.686342 C292.480028,313.235972 292.634338,312.637699 293.09317,312.387864 C293.504208,312.189994 294.11735,312.341228 294.373395,312.788266 L294.373395,312.788266 Z M304.564667,289.454969 C304.564667,288.955298 304.975705,288.504928 305.538321,288.504928 C306.050411,288.504928 306.511974,288.905997 306.511974,289.454969 C306.511974,289.95464 306.100937,290.40501 305.538321,290.40501 C304.975705,290.40501 304.564667,290.003941 304.564667,289.454969 L304.564667,289.454969 Z M304.564667,285.707437 C304.564667,285.207766 304.975705,284.757396 305.538321,284.757396 C306.050411,284.757396 306.511974,285.158466 306.511974,285.707437 C306.511974,286.207108 306.100937,286.657478 305.538321,286.657478 C304.975705,286.657478 304.564667,286.207108 304.564667,285.707437 L304.564667,285.707437 Z M304.564667,293.251801 C304.564667,292.75213 304.975705,292.30176 305.538321,292.30176 C306.050411,292.30176 306.511974,292.70283 306.511974,293.251801 C306.511974,293.751472 306.100937,294.201842 305.538321,294.201842 C304.975705,294.201842 304.564667,293.800773 304.564667,293.251801 L304.564667,293.251801 Z" id="Imported-Layers-Copy-12" fill="url(#radialGradient-1)"></path>
                </g>
            </g>
        </g>
    </g>
</svg>