<?xml version="1.0" encoding="UTF-8" standalone="no"?>
<svg width="1053px" height="633px" viewBox="0 0 1053 633" version="1.1" xmlns="http://www.w3.org/2000/svg" xmlns:xlink="http://www.w3.org/1999/xlink">
    <!-- Generator: Sketch 3.8.3 (29802) - http://www.bohemiancoding.com/sketch -->
    <title>bg-abs-1</title>
    <desc>Created with Sketch.</desc>
    <defs></defs>
    <g id="CI-stuff" stroke="none" stroke-width="1" fill="none" fill-rule="evenodd" opacity="0.467525653">
        <g id="bg-abs-1">
            <g id="Page-1" transform="translate(256.000000, 54.000000)">
                <g id="bg-abstract-tr" opacity="0.476096082" style="mix-blend-mode: color-burn;">
                    <path d="M194.235464,137.551277 C194.235464,139.207147 192.891747,140.548869 191.233415,140.548869 C189.575083,140.548869 188.231366,139.207147 188.231366,137.551277 C188.231366,135.895407 189.575083,134.553685 191.233415,134.553685 C192.891747,134.553685 194.235464,135.895407 194.235464,137.551277" id="Fill-4" fill="#6660A0"></path>
                    <path d="M24.8929918,305.793543 C24.8929918,307.449413 23.5492746,308.791135 21.8909426,308.791135 C20.2326107,308.791135 18.8888934,307.449413 18.8888934,305.793543 C18.8888934,304.137673 20.2326107,302.79595 21.8909426,302.79595 C23.5492746,302.79595 24.8929918,304.137673 24.8929918,305.793543" id="Fill-6" fill="#6660A0"></path>
                    <polygon id="Fill-8" fill="#6660A0" points="282.417176 430.642063 281.568197 429.794344 367.528873 343.961286 368.377852 344.809005"></polygon>
                    <path d="M370.955292,344.385145 C370.955292,346.041015 369.611575,347.382738 367.953243,347.382738 C366.294911,347.382738 364.951193,346.041015 364.951193,344.385145 C364.951193,342.729275 366.294911,341.387553 367.953243,341.387553 C369.611575,341.387553 370.955292,342.729275 370.955292,344.385145" id="Fill-10" fill="#6660A0"></path>
                    <path d="M284.192588,430.616283 C284.192588,432.272153 282.848871,433.613876 281.190539,433.613876 C279.532207,433.613876 278.18849,432.272153 278.18849,430.616283 C278.18849,428.960413 279.532207,427.618691 281.190539,427.618691 C282.848871,427.618691 284.192588,428.960413 284.192588,430.616283" id="Fill-12" fill="#6660A0"></path>
                    <polygon id="Fill-14" fill="#6660A0" points="312.137463 314.634641 311.288484 313.786922 480.206586 145.120797 481.055566 145.968516"></polygon>
                    <polygon id="Fill-16" fill="#6660A0" points="302.131033 254.682796 301.282053 253.835076 470.200156 85.1689512 471.049135 86.0166703"></polygon>
                    <polygon id="Fill-18" fill="#6660A0" points="300.527939 285.457277 299.678959 284.609558 582.272656 2.43660289 583.121635 3.28312295"></polygon>
                    <polygon id="Fill-20" fill="#6660A0" points="254.498119 343.410328 253.649139 342.562609 536.242836 60.3896543 537.091816 61.2373734"></polygon>
                    <polygon id="Fill-22" fill="#6660A0" points="256.899758 289.854745 256.050779 289.007026 424.968881 120.340901 425.817861 121.18862"></polygon>
                    <polygon id="Fill-24" fill="#6660A0" points="2.72646107 495.687417 1.87748156 494.839698 284.471178 212.666743 285.320158 213.514462"></polygon>
                    <polygon id="Fill-26" fill="#6660A0" points="48.5581455 464.312218 47.709166 463.464499 330.301662 181.291544 331.150641 182.139263"></polygon>
                    <polygon id="Fill-28" fill="#6660A0" points="130.04793 276.993156 147.663955 328.980998 189.147471 174.509072"></polygon>
                    <polygon id="Fill-30" fill="#8E87D4" points="61.2353189 169.503692 130.04829 276.992556 132.332249 199.447241"></polygon>
                    <polygon id="Fill-32" fill="#403888" points="61.2353189 169.503692 189.147831 174.509672 132.332249 199.447241"></polygon>
                    <polygon id="Fill-34" fill="#AEA9DA" points="189.147831 174.509552 130.04829 276.993635 132.332249 199.447122"></polygon>
                    <polygon id="Fill-36" fill="#B6B0C1" points="130.04793 276.993156 125.93152 357.244696 147.663955 328.980998"></polygon>
                    <polygon id="Fill-38" fill="#6660A0" points="188.319386 368.748736 231.021734 412.210227 221.457205 325.95391"></polygon>
                    <polygon id="Fill-40" fill="#6660A0" points="147.664435 328.981478 221.457205 325.95391 125.9308 357.245176"></polygon>
                    <polygon id="Fill-42" fill="#8B85C1" points="147.664435 328.981478 221.457205 325.95391 237.1243 262.615983"></polygon>
                    <polygon id="Fill-44" fill="#9E9AC0" points="231.029419 411.460949 246.797382 485.277259 314.288251 407.041299"></polygon>
                    <polygon id="Fill-46" fill="#403888" points="231.021134 412.210347 221.456605 325.95403 287.671002 351.524691"></polygon>
                    <polygon id="Fill-48" fill="#1E1539" points="189.147831 174.509552 147.664315 328.981478 237.12418 262.615983"></polygon>
                    <polygon id="Fill-50" fill="#6660A0" points="221.456845 325.95403 237.123939 262.616103 311.114845 309.386936"></polygon>
                    <polygon id="Fill-52" fill="#241D64" points="237.1243 262.615864 284.635931 192.381077 189.147951 174.509432"></polygon>
                    <polygon id="Fill-54" fill="#6660A0" points="231.021134 412.210347 287.671002 351.524691 314.288371 407.041299"></polygon>
                    <polygon id="Fill-56" fill="#322B69" points="237.1243 262.615864 369.208459 230.066807 311.115205 309.386697"></polygon>
                    <polygon id="Fill-58" fill="#6660A0" points="314.288131 407.041299 352.872869 315.391713 311.114365 309.386936"></polygon>
                    <polygon id="Fill-60" fill="#332F55" points="311.114845 309.386457 352.872148 315.391234 369.208099 230.066568"></polygon>
                    <polygon id="Fill-62" fill="#6660A0" points="237.1243 262.615864 369.208459 230.066807 284.635931 192.381077"></polygon>
                    <polygon id="Fill-64" fill="#B6B0C1" points="284.635931 192.381437 358.415492 166.264015 369.208459 230.065968"></polygon>
                    <polygon id="Fill-66" fill="#403888" points="284.635931 192.381437 358.415492 166.264015 189.147951 174.509791"></polygon>
                    <polygon id="Fill-68" fill="#807AB6" points="369.208099 230.066208 431.212423 283.056445 352.872148 315.392073"></polygon>
                    <polygon id="Fill-70" fill="#332F56" points="358.415973 166.264374 441.320563 169.839902 369.207739 230.066328"></polygon>
                    <polygon id="Fill-72" fill="#6660A0" points="369.208099 230.066208 441.320923 169.839783 431.212423 283.056445"></polygon>
                    <polygon id="Fill-74" fill="#1E1639" points="287.670762 351.524331 221.456365 325.95367 311.114365 309.386577"></polygon>
                    <polygon id="Fill-76" fill="#B5B1DD" points="314.288131 407.041299 287.670762 351.524691 311.114365 309.386936"></polygon>
                    <polygon id="Fill-78" fill="#807AB6" points="431.212063 283.056326 494.896333 222.327504 441.320563 169.839663"></polygon>
                    <polygon id="Fill-80" fill="#B5B1DD" points="506.155459 166.558858 494.896573 222.327264 441.320803 169.839423"></polygon>
                    <polygon id="Fill-82" fill="#6660A0" points="44.6495975 153.014657 61.2353189 169.503812 189.147831 174.509791"></polygon>
                    <polygon id="Fill-84" fill="#332F56" points="189.147831 174.509552 358.415372 166.264974 273.781602 156.547979"></polygon>
                    <polygon id="Fill-86" fill="#403888" points="189.147831 174.509552 44.6495975 153.014417 171.454954 152.130727"></polygon>
                    <polygon id="Fill-88" fill="#6660A0" points="189.147831 174.509552 273.781602 156.547979 171.454954 152.130727"></polygon>
                    <polygon id="Fill-90" fill="#403888" points="358.415973 166.264374 441.320563 169.839902 334.824669 147.712875"></polygon>
                    <polygon id="Fill-92" fill="#6660A0" points="358.415973 166.264374 273.782202 156.547379 334.824669 147.712875"></polygon>
                    <polygon id="Fill-94" fill="#6660A0" points="506.155459 166.558858 525.910143 149.479776 440.099569 170.09242"></polygon>
                    <polygon id="Fill-96" fill="#6660A0" points="386.374897 158.502769 441.320803 169.839663 525.910143 149.480016"></polygon>
                    <polygon id="Fill-98" fill="#403888" points="125.93128 357.244936 188.319866 368.748496 221.456485 325.95367"></polygon>
                    <polygon id="Fill-100" fill="#B5B1DD" points="188.319386 368.748736 246.798103 485.277139 231.021734 412.210227"></polygon>
                    <path d="M6.15360041,494.26476 C6.15360041,495.92063 4.8098832,497.262352 3.15155123,497.262352 C1.49321926,497.262352 0.149502049,495.92063 0.149502049,494.26476 C0.149502049,492.60889 1.49321926,491.267168 3.15155123,491.267168 C4.8098832,491.267168 6.15360041,492.60889 6.15360041,494.26476" id="Fill-102" fill="#6660A0"></path>
                    <path d="M51.3344406,463.689319 C51.3344406,465.345189 49.9907234,466.686911 48.3323914,466.686911 C46.6740594,466.686911 45.3303422,465.345189 45.3303422,463.689319 C45.3303422,462.033449 46.6740594,460.691726 48.3323914,460.691726 C49.9907234,460.691726 51.3344406,462.033449 51.3344406,463.689319" id="Fill-104" fill="#6660A0"></path>
                    <path d="M539.669375,60.8129143 C539.669375,62.4687843 538.325658,63.8105066 536.667326,63.8105066 C535.008994,63.8105066 533.665277,62.4687843 533.665277,60.8129143 C533.665277,59.1570443 535.008994,57.815322 536.667326,57.815322 C538.325658,57.815322 539.669375,59.1570443 539.669375,60.8129143" id="Fill-106" fill="#6660A0"></path>
                    <path d="M428.3953,120.76476 C428.3953,122.42063 427.051583,123.762352 425.393251,123.762352 C423.734919,123.762352 422.391202,122.42063 422.391202,120.76476 C422.391202,119.10889 423.734919,117.767168 425.393251,117.767168 C427.051583,117.767168 428.3953,119.10889 428.3953,120.76476" id="Fill-108" fill="#6660A0"></path>
                    <path d="M473.626575,85.5928108 C473.626575,87.2486807 472.282857,88.590403 470.624525,88.590403 C468.966193,88.590403 467.622476,87.2486807 467.622476,85.5928108 C467.622476,83.9369408 468.966193,82.5952185 470.624525,82.5952185 C472.282857,82.5952185 473.626575,83.9369408 473.626575,85.5928108" id="Fill-110" fill="#6660A0"></path>
                    <path d="M483.633005,145.544657 C483.633005,147.200527 482.289288,148.542249 480.630956,148.542249 C478.972624,148.542249 477.628907,147.200527 477.628907,145.544657 C477.628907,143.888787 478.972624,142.547064 480.630956,142.547064 C482.289288,142.547064 483.633005,143.888787 483.633005,145.544657" id="Fill-112" fill="#6660A0"></path>
                    <path d="M585.300523,3.25914222 C585.300523,4.9150122 583.956805,6.25673451 582.298473,6.25673451 C580.640141,6.25673451 579.296424,4.9150122 579.296424,3.25914222 C579.296424,1.60327223 580.640141,0.26154992 582.298473,0.26154992 C583.956805,0.26154992 585.300523,1.60327223 585.300523,3.25914222" id="Fill-114" fill="#6660A0"></path>
                </g>
                <polygon id="Fill-161" fill="#B6B0C0" points="274.905969 491.83679 40.3458598 257.624113 40.5435948 257.427471 275.103704 491.63855"></polygon>
                <polygon id="Fill-162" fill="#B6B0C0" points="304.225262 462.560306 69.665153 228.347628 69.862888 228.150986 304.423798 462.362065"></polygon>
                <polygon id="Fill-163" fill="#B6B0C0" points="333.545276 433.283821 98.9851667 199.071943 99.1829016 198.874501 333.743811 433.08558"></polygon>
                <polygon id="Fill-164" fill="#B6B0C0" points="362.86601 404.007336 128.305901 169.795458 128.503636 169.598017 363.064546 403.809095"></polygon>
                <polygon id="Fill-165" fill="#B6B0C0" points="392.185303 374.730052 157.625995 140.518174 157.82373 140.320733 392.383839 374.531811"></polygon>
                <polygon id="Fill-166" fill="#B6B0C0" points="421.506037 345.453567 186.946729 111.241689 187.144464 111.044248 421.704573 345.256126"></polygon>
                <polygon id="Fill-167" fill="#B6B0C0" points="450.825331 316.177482 216.266022 81.9656042 216.463757 81.7681628 451.023866 315.980041"></polygon>
                <polygon id="Fill-168" fill="#B6B0C0" points="480.145344 286.901397 245.585235 52.6887197 245.78377 52.4912783 480.34388 286.703956"></polygon>
                <polygon id="Fill-169" fill="#B6B0C0" points="509.466078 257.624113 274.905969 23.412235 275.103704 23.2147936 509.664614 257.426672"></polygon>
                <polygon id="Fill-170" fill="#B6B0C0" points="40.5432746 257.624513 40.3455396 257.427071 274.905649 23.2151933 275.103384 23.4126347"></polygon>
                <polygon id="Fill-171" fill="#B6B0C0" points="69.8383112 286.925618 69.6405762 286.728176 304.225502 52.4915181 304.424038 52.6889596"></polygon>
                <polygon id="Fill-172" fill="#B6B0C0" points="99.1872246 316.174365 98.9894896 315.976923 333.545596 81.7674433 333.744932 81.9648848"></polygon>
                <polygon id="Fill-173" fill="#B6B0C0" points="128.535738 345.422392 128.338003 345.224951 362.86609 111.044248 363.064626 111.241689"></polygon>
                <polygon id="Fill-174" fill="#B6B0C0" points="157.808919 374.745719 157.611184 374.547479 392.185704 140.320413 392.383439 140.517854"></polygon>
                <polygon id="Fill-175" fill="#B6B0C0" points="187.158233 403.993267 186.960498 403.795027 421.506198 169.597537 421.704733 169.794978"></polygon>
                <polygon id="Fill-176" fill="#B6B0C0" points="216.481369 433.266635 216.283634 433.068394 450.826131 198.873302 451.024667 199.071543"></polygon>
                <polygon id="Fill-177" fill="#B6B0C0" points="245.854939 462.489243 245.657204 462.291002 480.146065 228.150267 480.3446 228.347708"></polygon>
                <polygon id="Fill-178" fill="#B6B0C0" points="275.103784 491.83679 274.906049 491.63855 509.466158 257.426672 509.664694 257.624113"></polygon>
                <polygon id="Fill-179" fill="#B6B0C0" points="69.624165 228.349067 69.624965 286.851677 69.904165 286.851677 69.904165 228.349067"></polygon>
                <polygon id="Fill-180" fill="#B6B0C0" points="98.9515437 316.078921 99.2315437 316.078921 99.2315437 199.022543 98.9515437 199.022543"></polygon>
                <polygon id="Fill-181" fill="#B6B0C0" points="128.278762 345.305846 128.558762 345.305846 128.558762 169.746058 128.278762 169.746058"></polygon>
                <polygon id="Fill-182" fill="#B6B0C0" points="157.60518 374.68225 157.88518 374.68225 157.88518 140.420013 157.60518 140.420013"></polygon>
                <polygon id="Fill-183" fill="#B6B0C0" points="186.933199 111.192609 186.933199 403.907896 187.212399 403.907896 187.213199 111.192609"></polygon>
                <polygon id="Fill-184" fill="#B6B0C0" points="245.587717 52.540279 245.587717 462.362305 245.867717 462.362305 245.866917 52.540279"></polygon>
                <polygon id="Fill-185" fill="#B6B0C0" points="274.914855 491.73783 275.194055 491.73783 275.194055 23.3140738 274.914855 23.3140738"></polygon>
                <polygon id="Fill-186" fill="#B6B0C0" points="304.242074 462.561265 304.522074 462.561265 304.522074 52.689679 304.242074 52.689679"></polygon>
                <polygon id="Fill-187" fill="#B6B0C0" points="362.896751 111.142969 362.897551 403.907816 363.176751 403.907816 363.175951 111.142969"></polygon>
                <polygon id="Fill-188" fill="#B6B0C0" points="392.222929 140.419853 392.223729 374.631731 392.502929 374.631731 392.502129 140.419853"></polygon>
                <polygon id="Fill-189" fill="#B6B0C0" points="421.551268 169.845658 421.550468 345.405446 421.830468 345.405446 421.831268 169.845658"></polygon>
                <polygon id="Fill-190" fill="#B6B0C0" points="450.878166 199.121823 450.877366 316.079081 451.157366 316.079081 451.158166 199.121823"></polygon>
                <polygon id="Fill-191" fill="#B6B0C0" points="480.205385 286.858392 480.484585 286.858392 480.484585 228.468491 480.205385 228.468491"></polygon>
                <polygon id="Fill-192" fill="#B6B0C0" points="245.684263 52.4496318 245.684263 52.7296318 304.32429 52.7288318 304.32429 52.4496318"></polygon>
                <polygon id="Fill-193" fill="#B6B0C0" points="216.364569 81.7337111 216.364569 82.0129111 333.744692 82.0121111 333.744692 81.7329111"></polygon>
                <polygon id="Fill-194" fill="#B6B0C0" points="187.044155 111.01707 187.044155 111.29707 363.015472 111.29627 363.015472 111.01707"></polygon>
                <polygon id="Fill-195" fill="#B6B0C0" points="157.724462 140.580108 392.384639 140.580108 392.384639 140.300909 157.724462 140.300909"></polygon>
                <polygon id="Fill-196" fill="#B6B0C0" points="128.404448 169.863787 421.65582 169.863787 421.65582 169.584587 128.404448 169.584587"></polygon>
                <polygon id="Fill-197" fill="#B6B0C0" points="99.0844344 199.147466 450.924598 199.147466 450.924598 198.868266 99.0844344 198.868266"></polygon>
                <polygon id="Fill-198" fill="#B6B0C0" points="69.7646609 228.431306 480.245653 228.431306 480.245653 228.152106 69.7646609 228.151306"></polygon>
                <polygon id="Fill-199" fill="#B6B0C0" points="40.4444071 257.714824 509.565426 257.714824 509.565426 257.435624 40.4444071 257.435624"></polygon>
                <polygon id="Fill-200" fill="#B6B0C0" points="69.7646609 286.719384 69.7646609 286.998584 480.493822 286.998584 480.493822 286.718584"></polygon>
                <polygon id="Fill-201" fill="#B6B0C0" points="99.0843544 316.002743 99.0843544 316.282743 450.924518 316.281943 450.924518 316.002743"></polygon>
                <polygon id="Fill-202" fill="#B6B0C0" points="128.454082 345.565861 421.654219 345.565861 421.654219 345.286661 128.454082 345.286661"></polygon>
                <polygon id="Fill-203" fill="#B6B0C0" points="157.724462 374.84954 392.135669 374.84954 392.135669 374.57034 157.724462 374.57034"></polygon>
                <polygon id="Fill-204" fill="#B6B0C0" points="187.244452 403.85426 187.244452 404.13426 362.965198 404.13266 362.965198 403.85346"></polygon>
                <polygon id="Fill-205" fill="#B6B0C0" points="216.364489 433.416899 333.59491 433.416899 333.59491 433.136899 216.364489 433.136899"></polygon>
                <polygon id="Fill-206" fill="#B6B0C0" points="245.784571 462.700578 304.375765 462.700578 304.375765 462.420578 245.784571 462.420578"></polygon>
            </g>
        </g>
    </g>
</svg>