<?xml version="1.0" encoding="UTF-8" standalone="no"?>
<svg width="236px" height="46px" viewBox="0 0 236 46" version="1.1" xmlns="http://www.w3.org/2000/svg" xmlns:xlink="http://www.w3.org/1999/xlink">
    <!-- Generator: Sketch 40.3 (33839) - http://www.bohemiancoding.com/sketch -->
    <title>dapphub-rc-logo</title>
    <desc>Created with Sketch.</desc>
    <defs>
        <path d="M3.01,7.63282051 C4.3,7.63282051 5.17,6.63282051 5.17,5.09282051 C5.17,3.54282051 4.3,2.56282051 3.01,2.56282051 C2.29,2.56282051 1.67,2.95282051 1.33,3.44282051 L1.33,2.68282051 L0.81,2.68282051 L0.81,9.35282051 L1.33,9.35282051 L1.33,6.73282051 C1.72,7.28282051 2.33,7.63282051 3.01,7.63282051 L3.01,7.63282051 Z M2.92,7.16282051 C2.25,7.16282051 1.61,6.74282051 1.33,6.28282051 L1.33,3.89282051 C1.61,3.43282051 2.25,3.03282051 2.92,3.03282051 C4,3.03282051 4.61,3.92282051 4.61,5.09282051 C4.61,6.26282051 4,7.16282051 2.92,7.16282051 L2.92,7.16282051 Z M9.429091,7.63282051 C10.859091,7.63282051 11.759091,6.50282051 11.759091,5.09282051 C11.759091,3.68282051 10.859091,2.56282051 9.429091,2.56282051 C8.019091,2.56282051 7.109091,3.68282051 7.109091,5.09282051 C7.109091,6.50282051 8.019091,7.63282051 9.429091,7.63282051 L9.429091,7.63282051 Z M9.429091,7.16282051 C8.309091,7.16282051 7.669091,6.17282051 7.669091,5.09282051 C7.669091,4.02282051 8.309091,3.03282051 9.429091,3.03282051 C10.569091,3.03282051 11.199091,4.02282051 11.199091,5.09282051 C11.199091,6.17282051 10.569091,7.16282051 9.429091,7.16282051 L9.429091,7.16282051 Z M18.648182,7.51282051 L20.218182,2.68282051 L19.658182,2.68282051 L18.378182,6.78282051 L17.018182,2.68282051 L16.568182,2.68282051 L15.208182,6.78282051 L13.928182,2.68282051 L13.368182,2.68282051 L14.938182,7.51282051 L15.438182,7.51282051 L16.798182,3.38282051 L18.148182,7.51282051 L18.648182,7.51282051 Z M24.247273,7.63282051 C25.047273,7.63282051 25.657273,7.35282051 26.137273,6.85282051 L25.867273,6.51282051 C25.457273,6.95282051 24.897273,7.18282051 24.287273,7.18282051 C23.147273,7.18282051 22.447273,6.31282051 22.397273,5.26282051 L26.437273,5.26282051 L26.437273,5.12282051 C26.437273,3.73282051 25.627273,2.56282051 24.157273,2.56282051 C22.817273,2.56282051 21.827273,3.69282051 21.827273,5.09282051 C21.827273,6.58282051 22.837273,7.63282051 24.247273,7.63282051 L24.247273,7.63282051 Z M25.907273,4.85282051 L22.397273,4.85282051 C22.437273,4.01282051 23.007273,3.01282051 24.147273,3.01282051 C25.357273,3.01282051 25.897273,4.03282051 25.907273,4.85282051 L25.907273,4.85282051 Z M29.206364,7.51282051 L29.206364,3.99282051 C29.426364,3.57282051 30.086364,3.13282051 30.576364,3.13282051 C30.676364,3.13282051 30.746364,3.13282051 30.836364,3.15282051 L30.836364,2.58282051 C30.166364,2.58282051 29.616364,2.97282051 29.206364,3.51282051 L29.206364,2.68282051 L28.686364,2.68282051 L28.686364,7.51282051 L29.206364,7.51282051 Z M34.905455,7.63282051 C35.705455,7.63282051 36.315455,7.35282051 36.795455,6.85282051 L36.525455,6.51282051 C36.115455,6.95282051 35.555455,7.18282051 34.945455,7.18282051 C33.805455,7.18282051 33.105455,6.31282051 33.055455,5.26282051 L37.095455,5.26282051 L37.095455,5.12282051 C37.095455,3.73282051 36.285455,2.56282051 34.815455,2.56282051 C33.475455,2.56282051 32.485455,3.69282051 32.485455,5.09282051 C32.485455,6.58282051 33.495455,7.63282051 34.905455,7.63282051 L34.905455,7.63282051 Z M36.565455,4.85282051 L33.055455,4.85282051 C33.095455,4.01282051 33.665455,3.01282051 34.805455,3.01282051 C36.015455,3.01282051 36.555455,4.03282051 36.565455,4.85282051 L36.565455,4.85282051 Z M43.434546,7.51282051 L43.434546,0.842820513 L42.904546,0.842820513 L42.904546,3.46282051 C42.514546,2.91282051 41.914546,2.56282051 41.224546,2.56282051 C39.944546,2.56282051 39.064546,3.57282051 39.064546,5.10282051 C39.064546,6.65282051 39.944546,7.63282051 41.224546,7.63282051 C41.944546,7.63282051 42.564546,7.24282051 42.904546,6.74282051 L42.904546,7.51282051 L43.434546,7.51282051 Z M41.314546,7.16282051 C40.244546,7.16282051 39.624546,6.27282051 39.624546,5.10282051 C39.624546,3.93282051 40.244546,3.03282051 41.314546,3.03282051 C41.994546,3.03282051 42.624546,3.44282051 42.904546,3.91282051 L42.904546,6.30282051 C42.624546,6.76282051 41.994546,7.16282051 41.314546,7.16282051 L41.314546,7.16282051 Z M49.982728,6.30282051 L49.982728,3.91282051 C50.262728,3.45282051 50.902728,3.03282051 51.572728,3.03282051 C52.652728,3.03282051 53.262728,3.93282051 53.262728,5.10282051 C53.262728,6.27282051 52.652728,7.16282051 51.572728,7.16282051 C50.902728,7.16282051 50.262728,6.76282051 49.982728,6.30282051 L49.982728,6.30282051 Z M49.982728,7.51282051 L49.982728,6.74282051 C50.322728,7.24282051 50.942728,7.63282051 51.662728,7.63282051 C52.942728,7.63282051 53.822728,6.65282051 53.822728,5.10282051 C53.822728,3.57282051 52.952728,2.56282051 51.662728,2.56282051 C50.982728,2.56282051 50.372728,2.91282051 49.982728,3.46282051 L49.982728,0.842820513 L49.462728,0.842820513 L49.462728,7.51282051 L49.982728,7.51282051 Z M55.761819,9.40282051 C55.891819,9.44282051 56.111819,9.47282051 56.271819,9.47282051 C56.841819,9.47282051 57.251819,9.18282051 57.511819,8.57282051 L60.011819,2.68282051 L59.421819,2.68282051 L57.681819,6.90282051 L55.921819,2.68282051 L55.341819,2.68282051 L57.381819,7.55282051 L57.001819,8.41282051 C56.811819,8.87282051 56.591819,9.00282051 56.271819,9.00282051 C56.151819,9.00282051 55.961819,8.97282051 55.851819,8.92282051 L55.761819,9.40282051 Z M65.210001,7.51282051 L66.110001,7.51282051 L66.110001,4.15282051 C66.320001,3.79282051 66.930001,3.45282051 67.380001,3.45282051 C67.500001,3.45282051 67.600001,3.46282051 67.690001,3.48282051 L67.690001,2.57282051 C67.050001,2.57282051 66.480001,2.94282051 66.110001,3.42282051 L66.110001,2.68282051 L65.210001,2.68282051 L65.210001,7.51282051 Z M71.6390919,7.63282051 C73.1490919,7.63282051 74.0790919,6.49282051 74.0790919,5.09282051 C74.0790919,3.70282051 73.1490919,2.56282051 71.6390919,2.56282051 C70.1390919,2.56282051 69.1990919,3.70282051 69.1990919,5.09282051 C69.1990919,6.49282051 70.1390919,7.63282051 71.6390919,7.63282051 L71.6390919,7.63282051 Z M71.6390919,6.83282051 C70.6790919,6.83282051 70.1390919,6.01282051 70.1390919,5.09282051 C70.1390919,4.18282051 70.6790919,3.36282051 71.6390919,3.36282051 C72.6090919,3.36282051 73.1390919,4.18282051 73.1390919,5.09282051 C73.1390919,6.01282051 72.6090919,6.83282051 71.6390919,6.83282051 L71.6390919,6.83282051 Z M75.8281829,5.09282051 C75.8281829,6.54282051 76.8281829,7.63282051 78.2881829,7.63282051 C79.1981829,7.63282051 79.7481829,7.25282051 80.0981829,6.78282051 L79.4981829,6.23282051 C79.2081829,6.63282051 78.8181829,6.83282051 78.3281829,6.83282051 C77.3781829,6.83282051 76.7681829,6.09282051 76.7681829,5.09282051 C76.7681829,4.09282051 77.3781829,3.36282051 78.3281829,3.36282051 C78.8181829,3.36282051 79.2081829,3.55282051 79.4981829,3.96282051 L80.0981829,3.41282051 C79.7481829,2.94282051 79.1981829,2.56282051 78.2881829,2.56282051 C76.8281829,2.56282051 75.8281829,3.64282051 75.8281829,5.09282051 L75.8281829,5.09282051 Z M85.2372739,7.51282051 L86.3772739,7.51282051 L84.2772739,4.87282051 L86.3572739,2.68282051 L85.2272739,2.68282051 L82.8972739,5.13282051 L82.8972739,0.842820513 L81.9972739,0.842820513 L81.9972739,7.51282051 L82.8972739,7.51282051 L82.8972739,6.17282051 L83.6272739,5.43282051 L85.2372739,7.51282051 Z M87.5663649,5.09282051 C87.5663649,6.61282051 88.6263649,7.63282051 90.0663649,7.63282051 C90.8463649,7.63282051 91.5263649,7.38282051 92.0063649,6.91282051 L91.5863649,6.32282051 C91.2263649,6.69282051 90.6663649,6.89282051 90.1563649,6.89282051 C89.1863649,6.89282051 88.5863649,6.21282051 88.5163649,5.39282051 L92.3363649,5.39282051 L92.3363649,5.17282051 C92.3363649,3.69282051 91.4363649,2.56282051 89.9863649,2.56282051 C88.5763649,2.56282051 87.5663649,3.69282051 87.5663649,5.09282051 L87.5663649,5.09282051 Z M89.9863649,3.30282051 C91.0063649,3.30282051 91.4363649,4.10282051 91.4563649,4.74282051 L88.5063649,4.74282051 C88.5563649,4.08282051 89.0163649,3.30282051 89.9863649,3.30282051 L89.9863649,3.30282051 Z M95.7054559,7.63282051 C96.1754559,7.63282051 96.4554559,7.50282051 96.6454559,7.32282051 L96.4154559,6.64282051 C96.3254559,6.74282051 96.1354559,6.83282051 95.9254559,6.83282051 C95.6154559,6.83282051 95.4554559,6.58282051 95.4554559,6.24282051 L95.4554559,3.47282051 L96.4354559,3.47282051 L96.4354559,2.68282051 L95.4554559,2.68282051 L95.4554559,1.36282051 L94.5554559,1.36282051 L94.5554559,2.68282051 L93.7554559,2.68282051 L93.7554559,3.47282051 L94.5554559,3.47282051 L94.5554559,6.44282051 C94.5554559,7.20282051 94.9454559,7.63282051 95.7054559,7.63282051 L95.7054559,7.63282051 Z M98.1845469,6.99282051 C98.1845469,7.33282051 98.4645469,7.62282051 98.8045469,7.62282051 C99.1445469,7.62282051 99.4345469,7.33282051 99.4345469,6.99282051 C99.4345469,6.65282051 99.1445469,6.37282051 98.8045469,6.37282051 C98.4645469,6.37282051 98.1845469,6.65282051 98.1845469,6.99282051 L98.1845469,6.99282051 Z M101.273638,5.09282051 C101.273638,6.54282051 102.273638,7.63282051 103.733638,7.63282051 C104.643638,7.63282051 105.193638,7.25282051 105.543638,6.78282051 L104.943638,6.23282051 C104.653638,6.63282051 104.263638,6.83282051 103.773638,6.83282051 C102.823638,6.83282051 102.213638,6.09282051 102.213638,5.09282051 C102.213638,4.09282051 102.823638,3.36282051 103.773638,3.36282051 C104.263638,3.36282051 104.653638,3.55282051 104.943638,3.96282051 L105.543638,3.41282051 C105.193638,2.94282051 104.643638,2.56282051 103.733638,2.56282051 C102.273638,2.56282051 101.273638,3.64282051 101.273638,5.09282051 L101.273638,5.09282051 Z M110.702729,7.51282051 L111.602729,7.51282051 L111.602729,4.10282051 C111.602729,3.08282051 111.082729,2.56282051 110.052729,2.56282051 C109.312729,2.56282051 108.662729,2.97282051 108.342729,3.36282051 L108.342729,0.842820513 L107.442729,0.842820513 L107.442729,7.51282051 L108.342729,7.51282051 L108.342729,4.06282051 C108.602729,3.70282051 109.112729,3.36282051 109.672729,3.36282051 C110.292729,3.36282051 110.702729,3.60282051 110.702729,4.40282051 L110.702729,7.51282051 Z M116.93182,7.51282051 L117.83182,7.51282051 L117.83182,4.25282051 C117.83182,3.02282051 116.94182,2.56282051 115.89182,2.56282051 C115.11182,2.56282051 114.45182,2.82282051 113.91182,3.35282051 L114.30182,3.97282051 C114.73182,3.54282051 115.20182,3.33282051 115.75182,3.33282051 C116.44182,3.33282051 116.93182,3.69282051 116.93182,4.29282051 L116.93182,5.09282051 C116.56182,4.66282051 116.00182,4.45282051 115.35182,4.45282051 C114.54182,4.45282051 113.67182,4.93282051 113.67182,6.03282051 C113.67182,7.09282051 114.55182,7.63282051 115.35182,7.63282051 C116.00182,7.63282051 116.55182,7.40282051 116.93182,6.98282051 L116.93182,7.51282051 Z M116.93182,6.45282051 C116.66182,6.81282051 116.19182,7.00282051 115.69182,7.00282051 C115.04182,7.00282051 114.58182,6.61282051 114.58182,6.04282051 C114.58182,5.47282051 115.04182,5.08282051 115.69182,5.08282051 C116.19182,5.08282051 116.66182,5.27282051 116.93182,5.63282051 L116.93182,6.45282051 Z M121.510911,7.63282051 C121.980911,7.63282051 122.260911,7.50282051 122.450911,7.32282051 L122.220911,6.64282051 C122.130911,6.74282051 121.940911,6.83282051 121.730911,6.83282051 C121.420911,6.83282051 121.260911,6.58282051 121.260911,6.24282051 L121.260911,3.47282051 L122.240911,3.47282051 L122.240911,2.68282051 L121.260911,2.68282051 L121.260911,1.36282051 L120.360911,1.36282051 L120.360911,2.68282051 L119.560911,2.68282051 L119.560911,3.47282051 L120.360911,3.47282051 L120.360911,6.44282051 C120.360911,7.20282051 120.750911,7.63282051 121.510911,7.63282051 L121.510911,7.63282051 Z" id="path-1"></path>
        <filter x="-50%" y="-50%" width="200%" height="200%" filterUnits="objectBoundingBox" id="filter-2">
            <feOffset dx="0" dy="2" in="SourceAlpha" result="shadowOffsetOuter1"></feOffset>
            <feGaussianBlur stdDeviation="2" in="shadowOffsetOuter1" result="shadowBlurOuter1"></feGaussianBlur>
            <feColorMatrix values="0 0 0 0 0   0 0 0 0 0   0 0 0 0 0  0 0 0 0.5 0" type="matrix" in="shadowBlurOuter1"></feColorMatrix>
        </filter>
        <filter x="-50%" y="-50%" width="200%" height="200%" filterUnits="objectBoundingBox" id="filter-3">
            <feOffset dx="0" dy="2" in="SourceAlpha" result="shadowOffsetOuter1"></feOffset>
            <feGaussianBlur stdDeviation="2" in="shadowOffsetOuter1" result="shadowBlurOuter1"></feGaussianBlur>
            <feColorMatrix values="0 0 0 0 0   0 0 0 0 0   0 0 0 0 0  0 0 0 0.5 0" type="matrix" in="shadowBlurOuter1" result="shadowMatrixOuter1"></feColorMatrix>
            <feMerge>
                <feMergeNode in="shadowMatrixOuter1"></feMergeNode>
                <feMergeNode in="SourceGraphic"></feMergeNode>
            </feMerge>
        </filter>
        <path d="M76.9135742,14.0639648 L78.440918,14.0639648 C79.5366266,14.0639648 80.4718386,14.4540977 81.246582,15.234375 C82.0213255,16.0091185 82.4086914,16.9415636 82.4086914,18.0317383 C82.4086914,19.1274469 82.0213255,20.0626589 81.246582,20.8374023 C80.4718386,21.6121458 79.5338597,21.9995117 78.4326172,21.9995117 L76.9135742,22.0244141 L76.9135742,14.0639648 Z M75.9423828,24 L78.440918,23.9667969 C80.078947,23.9667969 81.4789981,23.385748 82.6411133,22.2236328 C83.7976946,21.0670515 84.3759766,19.6697673 84.3759766,18.0317383 C84.3759766,16.3992431 83.7976946,15.0019589 82.6411133,13.8398438 C81.4789981,12.6832624 80.078947,12.1049805 78.440918,12.1049805 L75.9257812,12.1049805 C75.654621,12.1049805 75.4249684,12.199055 75.2368164,12.387207 C75.0431305,12.5808929 74.9462891,12.8133124 74.9462891,13.0844727 L74.9462891,23.0205078 C74.9462891,23.291668 75.0431305,23.5240876 75.2368164,23.7177734 C75.4305023,23.9059254 75.6601549,24 75.9257812,24 L75.9423828,24 Z M92.1139646,19.5175781 L93.7077146,15.6660156 L95.3097653,19.5175781 L92.1139646,19.5175781 Z M89.6071286,24 C90.0443053,24 90.3458973,23.7980163 90.5119138,23.394043 L91.3087888,21.4682617 L96.1149411,21.4682617 L96.9118161,23.394043 C97.0778326,23.7980163 97.3794246,24 97.8166013,24 C97.9438806,24 98.068391,23.9750979 98.1901364,23.925293 C98.4391611,23.8201492 98.6162427,23.6430677 98.7213864,23.394043 C98.8209963,23.1450183 98.8209963,22.8959973 98.7213864,22.6469727 L97.6671872,20.1152344 L97.6671872,20.1069336 L94.6124997,12.7358398 C94.601432,12.7081704 94.5875975,12.6805014 94.5709958,12.652832 C94.5709958,12.6472981 94.5626951,12.6334637 94.5460935,12.6113281 C94.5294918,12.5891926 94.5211911,12.5753581 94.5211911,12.5698242 C94.5211911,12.5642903 94.5101235,12.5504558 94.487988,12.5283203 L94.4630857,12.4951172 C94.4630857,12.4895833 94.4520181,12.4757488 94.4298825,12.4536133 C94.4132809,12.4370116 94.4049802,12.425944 94.4049802,12.4204102 C94.3939124,12.4148763 94.3800779,12.4038087 94.3634763,12.387207 C94.3468746,12.3706054 94.335807,12.3623047 94.3302732,12.3623047 C94.3247393,12.3567708 94.3109048,12.3457032 94.2887692,12.3291016 C94.2666337,12.3124999 94.2555661,12.3041992 94.2555661,12.3041992 C94.2500322,12.2986653 94.2334308,12.2875977 94.2057614,12.2709961 C94.178092,12.2543944 94.1670244,12.2488606 94.1725583,12.2543945 C94.1172195,12.2211912 94.0563477,12.1962891 93.9899411,12.1796875 C94.0010089,12.1796875 93.9899413,12.1769206 93.956738,12.1713867 C93.9290686,12.160319 93.9097003,12.1547852 93.8986325,12.1547852 C93.8986325,12.1547852 93.884798,12.1520183 93.8571286,12.1464844 C93.8239253,12.1409505 93.8073239,12.1381836 93.8073239,12.1381836 L93.7575192,12.1381836 L93.7077146,12.1381836 L93.6662107,12.1381836 L93.616406,12.1381836 C93.616406,12.1381836 93.6025715,12.1409505 93.5749021,12.1464844 C93.5472326,12.1520183 93.5278644,12.1547852 93.5167966,12.1547852 L93.4835935,12.1630859 C93.4503902,12.1741537 93.4310219,12.1796875 93.425488,12.1796875 C93.4144202,12.1852214 93.3950519,12.1907552 93.3673825,12.1962891 L93.3341794,12.2128906 C93.3452472,12.2073567 93.3369465,12.2128905 93.3092771,12.2294922 C93.2816076,12.24056 93.2622394,12.2488606 93.2511716,12.2543945 C93.2456377,12.2543945 93.2290363,12.2626952 93.2013669,12.2792969 L93.1681638,12.3041992 C93.1626299,12.3097331 93.1487954,12.3208007 93.1266599,12.3374023 C93.0989905,12.354004 93.0879229,12.3623047 93.0934567,12.3623047 C93.0879229,12.3623047 93.0740884,12.3733723 93.0519528,12.3955078 C93.0353512,12.4065756 93.0242836,12.4148763 93.0187497,12.4204102 C93.0187497,12.425944 93.0076821,12.4397785 92.9855466,12.4619141 C92.9689449,12.4785157 92.9606442,12.4895833 92.9606442,12.4951172 C92.9551104,12.5006511 92.9440428,12.5117187 92.9274411,12.5283203 C92.9108395,12.5504558 92.9025388,12.5642903 92.9025388,12.5698242 C92.8970049,12.5753581 92.8859373,12.5891926 92.8693357,12.6113281 L92.8527341,12.652832 C92.8361324,12.6805014 92.8222979,12.7081704 92.8112302,12.7358398 L89.7565427,20.1069336 L89.7565427,20.1152344 L88.7023435,22.6469727 C88.6027336,22.8959973 88.6027336,23.1450183 88.7023435,23.394043 C88.8074872,23.6430677 88.9845688,23.8201492 89.2335935,23.925293 C89.3553389,23.9750979 89.4798493,24 89.6071286,24 L89.6071286,24 Z M105.039941,17.0688477 L105.039941,14.0307617 L107.521874,14.0307617 C108.008856,14.0307617 108.423891,14.1801743 108.766992,14.4790039 C109.110092,14.7778335 109.28164,15.1347635 109.28164,15.5498047 C109.28164,15.9593119 109.115626,16.3134751 108.783593,16.6123047 C108.45156,16.9056004 108.05036,17.0577799 107.57998,17.0688477 L105.039941,17.0688477 Z M104.060449,12.0717773 C103.789288,12.0717773 103.559636,12.1686188 103.371484,12.3623047 C103.177798,12.5504567 103.080956,12.7801093 103.080956,13.0512695 L103.080956,23.0205078 C103.080956,23.291668 103.177798,23.5213207 103.371484,23.7094727 C103.559636,23.9031585 103.789288,24 104.060449,24 C104.331609,24 104.564028,23.9031585 104.757714,23.7094727 C104.945866,23.5213207 105.039941,23.291668 105.039941,23.0205078 L105.039941,19.027832 L107.47207,19.027832 L107.521874,19.0361328 C107.527408,19.0361328 107.560611,19.0333659 107.621484,19.027832 L107.638085,19.027832 L107.646386,19.027832 L107.654687,19.027832 C108.650786,18.9946287 109.497457,18.6432325 110.194726,17.9736328 C110.897529,17.2984992 111.248925,16.4905646 111.248925,15.5498047 C111.248925,14.5924431 110.883694,13.7734409 110.153222,13.0927734 C109.428284,12.412106 108.551176,12.0717773 107.521874,12.0717773 L104.060449,12.0717773 Z M117.766698,17.0688477 L117.766698,14.0307617 L120.248632,14.0307617 C120.735614,14.0307617 121.150648,14.1801743 121.493749,14.4790039 C121.83685,14.7778335 122.008398,15.1347635 122.008398,15.5498047 C122.008398,15.9593119 121.842384,16.3134751 121.510351,16.6123047 C121.178318,16.9056004 120.777117,17.0577799 120.306737,17.0688477 L117.766698,17.0688477 Z M116.787206,12.0717773 C116.516046,12.0717773 116.286393,12.1686188 116.098241,12.3623047 C115.904555,12.5504567 115.807714,12.7801093 115.807714,13.0512695 L115.807714,23.0205078 C115.807714,23.291668 115.904555,23.5213207 116.098241,23.7094727 C116.286393,23.9031585 116.516046,24 116.787206,24 C117.058366,24 117.290786,23.9031585 117.484472,23.7094727 C117.672624,23.5213207 117.766698,23.291668 117.766698,23.0205078 L117.766698,19.027832 L120.198827,19.027832 L120.248632,19.0361328 C120.254166,19.0361328 120.287369,19.0333659 120.348241,19.027832 L120.364843,19.027832 L120.373144,19.027832 L120.381444,19.027832 C121.377543,18.9946287 122.224214,18.6432325 122.921484,17.9736328 C123.624287,17.2984992 123.975683,16.4905646 123.975683,15.5498047 C123.975683,14.5924431 123.610452,13.7734409 122.87998,13.0927734 C122.155041,12.412106 121.277934,12.0717773 120.248632,12.0717773 L116.787206,12.0717773 Z M137.324999,23.7094727 C137.518685,23.5157868 137.615526,23.2833672 137.615526,23.012207 L137.615526,13.0927734 C137.615526,12.8216132 137.518685,12.5891937 137.324999,12.3955078 C137.131313,12.2018219 136.898893,12.1049805 136.627733,12.1049805 C136.356573,12.1049805 136.124153,12.2018219 135.930468,12.3955078 C135.736782,12.5891937 135.63994,12.8216132 135.63994,13.0927734 L135.63994,17.0688477 L130.526659,17.0688477 L130.526659,13.0927734 C130.526659,12.8216132 130.432584,12.5891937 130.244432,12.3955078 C130.050747,12.2018219 129.818327,12.1049805 129.547167,12.1049805 C129.276007,12.1049805 129.043587,12.2018219 128.849901,12.3955078 C128.656215,12.5891937 128.559374,12.8216132 128.559374,13.0927734 L128.559374,23.012207 C128.559374,23.2833672 128.656215,23.5157868 128.849901,23.7094727 C129.043587,23.9031585 129.276007,24 129.547167,24 C129.818327,24 130.050747,23.9031585 130.244432,23.7094727 C130.432584,23.5157868 130.526659,23.2833672 130.526659,23.012207 L130.526659,19.0361328 L135.63994,19.0361328 L135.63994,23.012207 C135.63994,23.2833672 135.736782,23.5157868 135.930468,23.7094727 C136.124153,23.9031585 136.356573,24 136.627733,24 C136.898893,24 137.131313,23.9031585 137.324999,23.7094727 L137.324999,23.7094727 Z M149.603514,12.3789062 C149.415362,12.5670582 149.321288,12.793944 149.321288,13.0595703 L149.321288,19.75 C149.321288,20.3919303 149.094402,20.9397764 148.640624,21.3935547 C148.186845,21.847333 147.641766,22.0742188 147.00537,22.0742188 C146.363439,22.0742188 145.815593,21.847333 145.361815,21.3935547 C144.908037,20.9397764 144.681151,20.3919303 144.681151,19.75 L144.681151,13.0595703 C144.681151,12.793944 144.587076,12.5670582 144.398924,12.3789062 C144.210772,12.1907543 143.983887,12.0966797 143.71826,12.0966797 C143.452634,12.0966797 143.225748,12.1907543 143.037596,12.3789062 C142.849444,12.5670582 142.75537,12.793944 142.75537,13.0595703 L142.75537,19.75 C142.75537,20.9231829 143.170405,21.9248005 144.000487,22.7548828 C144.830569,23.5849651 145.832187,24 147.00537,24 C148.173019,24 149.171869,23.5849651 150.001952,22.7548828 C150.832034,21.9248005 151.247069,20.9231829 151.247069,19.75 L151.247069,13.0595703 C151.247069,12.793944 151.152994,12.5670582 150.964842,12.3789062 C150.77669,12.1907543 150.549805,12.0966797 150.284178,12.0966797 C150.018552,12.0966797 149.791666,12.1907543 149.603514,12.3789062 L149.603514,12.3789062 Z M158.387401,19.0527344 L160.894237,19.0527344 L161.027049,19.0527344 L161.101756,19.0527344 C161.588738,19.0527344 162.001006,19.1966131 162.338573,19.484375 C162.676139,19.766603 162.84492,20.1124654 162.84492,20.5219727 C162.84492,20.9425477 162.673372,21.2994777 162.330272,21.5927734 C161.987171,21.8916031 161.572136,22.0410156 161.085155,22.0410156 L158.387401,22.0410156 L158.387401,19.0527344 Z M158.387401,14.0805664 L160.894237,14.0639648 C161.381218,14.0639648 161.793486,14.2078436 162.131053,14.4956055 C162.46862,14.7778334 162.637401,15.1264628 162.637401,15.5415039 C162.637401,15.9620789 162.465853,16.3273096 162.122752,16.637207 C161.774118,16.9415705 161.364617,17.09375 160.894237,17.09375 L158.387401,17.09375 L158.387401,14.0805664 Z M161.085155,24 C162.108923,24 162.983263,23.6596714 163.708201,22.9790039 C164.438674,22.2983364 164.803905,21.4793342 164.803905,20.5219727 C164.803905,19.4871368 164.394403,18.6321648 163.575389,17.9570312 C164.256056,17.2763638 164.596385,16.4711961 164.596385,15.5415039 C164.596385,14.5786085 164.239455,13.76514 163.525584,13.1010742 C162.80618,12.4370084 161.926306,12.1049805 160.885936,12.1049805 L157.399608,12.121582 C157.133981,12.1271159 156.904329,12.2239574 156.710643,12.4121094 C156.522491,12.6057952 156.428416,12.8354479 156.428416,13.1010742 L156.428416,23.0205078 C156.428416,23.291668 156.525258,23.5213207 156.718944,23.7094727 C156.907096,23.9031585 157.136748,24 157.407908,24 L161.085155,24 Z M178.742576,22.4477539 C178.84772,22.3536779 178.903058,22.2374681 178.908592,22.0991211 C178.914126,21.960774 178.869855,21.8417974 178.775779,21.7421875 C178.681703,21.6370437 178.565493,21.5817058 178.427146,21.5761719 C178.288799,21.570638 178.169823,21.6149084 178.070213,21.7089844 C177.123919,22.5667361 176.008859,22.9956055 174.724998,22.9956055 C173.358129,22.9956055 172.190498,22.5113981 171.222068,21.5429688 C170.253639,20.5745394 169.769432,19.4069079 169.769432,18.0400391 C169.769432,16.6676364 170.253639,15.4972379 171.222068,14.5288086 C172.190498,13.5603793 173.358129,13.0761719 174.724998,13.0761719 C175.85391,13.0761719 176.863828,13.4165005 177.754783,14.097168 C177.859927,14.1857101 177.98167,14.2189129 178.120018,14.1967773 C178.258365,14.1801757 178.369041,14.116537 178.452049,14.0058594 C178.535057,13.9007156 178.56826,13.778972 178.551658,13.640625 C178.535057,13.502278 178.471418,13.391602 178.36074,13.3085938 C177.292701,12.4840454 176.080799,12.0717773 174.724998,12.0717773 C173.081435,12.0717773 171.678617,12.6555931 170.516502,13.8232422 C169.348853,14.9853574 168.765037,16.3909423 168.765037,18.0400391 C168.765037,19.683602 169.348853,21.08642 170.516502,22.2485352 C171.678617,23.4161842 173.081435,24 174.724998,24 C176.268951,24 177.60813,23.4825898 178.742576,22.4477539 L178.742576,22.4477539 Z M191.892673,23.8505859 C191.992283,23.7565099 192.042088,23.6403002 192.042088,23.5019531 L192.042088,12.6030273 C192.042088,12.4646803 191.992283,12.3484705 191.892673,12.2543945 C191.798598,12.1547847 191.682388,12.1049805 191.544041,12.1049805 C191.405694,12.1049805 191.286717,12.1547847 191.187107,12.2543945 C191.093031,12.3484705 191.045994,12.4646803 191.045994,12.6030273 L191.045994,17.550293 L184.264256,17.550293 L184.264256,12.6030273 C184.264256,12.4646803 184.217218,12.3484705 184.123142,12.2543945 C184.023532,12.1547847 183.904556,12.1049805 183.766209,12.1049805 C183.627862,12.1049805 183.511652,12.1547847 183.417576,12.2543945 C183.317966,12.3484705 183.268162,12.4646803 183.268162,12.6030273 L183.268162,23.5019531 C183.268162,23.6403002 183.317966,23.7565099 183.417576,23.8505859 C183.511652,23.9501958 183.627862,24 183.766209,24 C183.904556,24 184.023532,23.9501958 184.123142,23.8505859 C184.217218,23.7565099 184.264256,23.6403002 184.264256,23.5019531 L184.264256,18.5546875 L191.045994,18.5546875 L191.045994,23.5019531 C191.045994,23.6403002 191.093031,23.7565099 191.187107,23.8505859 C191.286717,23.9501958 191.405694,24 191.544041,24 C191.682388,24 191.798598,23.9501958 191.892673,23.8505859 L191.892673,23.8505859 Z M198.916794,20.2231445 L201.539841,13.8979492 L204.162888,20.2231445 L198.916794,20.2231445 Z M197.024216,24 C197.245571,24 197.397751,23.8976247 197.480759,23.6928711 L198.510056,21.2192383 L204.569626,21.2192383 L205.598923,23.6928711 C205.681931,23.8976247 205.834111,24 206.055466,24 C206.121873,24 206.185511,23.9861655 206.246384,23.9584961 C206.373663,23.9086912 206.462204,23.8201504 206.512009,23.6928711 C206.567348,23.5655918 206.567348,23.4383144 206.512009,23.3110352 L205.358201,20.5302734 L205.358201,20.5219727 L201.996384,12.4121094 C201.985316,12.38444 201.971482,12.3540041 201.95488,12.3208008 C201.95488,12.3263347 201.943813,12.3152671 201.921677,12.2875977 C201.905075,12.2654621 201.894008,12.2516276 201.888474,12.2460938 C201.88294,12.2460938 201.869106,12.2350262 201.84697,12.2128906 C201.824835,12.196289 201.813767,12.1879883 201.813767,12.1879883 C201.758428,12.1492511 201.697556,12.124349 201.63115,12.1132812 C201.636684,12.1132812 201.622849,12.1132812 201.589646,12.1132812 C201.561976,12.1077474 201.545375,12.1049805 201.539841,12.1049805 C201.534307,12.1049805 201.514939,12.1077474 201.481736,12.1132812 L201.440232,12.1132812 C201.379359,12.124349 201.321254,12.1492511 201.265915,12.1879883 C201.271449,12.1824544 201.260382,12.1907551 201.232712,12.2128906 C201.210577,12.2294923 201.196742,12.2405599 201.191208,12.2460938 C201.185674,12.2516276 201.174607,12.2654621 201.158005,12.2875977 L201.124802,12.3208008 C201.1082,12.3540041 201.094366,12.38444 201.083298,12.4121094 L197.721482,20.5219727 L197.721482,20.5302734 L196.567673,23.3110352 C196.512334,23.4383144 196.512334,23.5655918 196.567673,23.6928711 C196.617478,23.8201504 196.706019,23.9086912 196.833298,23.9584961 C196.894171,23.9861655 196.95781,24 197.024216,24 L197.024216,24 Z M213.444821,23.5019531 C213.444821,23.6403002 213.491859,23.7592768 213.585935,23.8588867 C213.685545,23.9529627 213.801754,24 213.934567,24 C214.072914,24 214.191891,23.9529627 214.291501,23.8588867 C214.385577,23.7592768 214.432614,23.6403002 214.432614,23.5019531 L214.432614,13.0844727 L217.711423,13.0844727 C217.84977,13.0844727 217.96598,13.0374354 218.060056,12.9433594 C218.159666,12.8492834 218.20947,12.7330736 218.20947,12.5947266 C218.20947,12.4563795 218.159666,12.3401697 218.060056,12.2460938 C217.96598,12.1464839 217.84977,12.0966797 217.711423,12.0966797 L210.166013,12.0966797 C210.027666,12.0966797 209.908689,12.1464839 209.809079,12.2460938 C209.715003,12.3401697 209.667966,12.4563795 209.667966,12.5947266 C209.667966,12.7330736 209.715003,12.8492834 209.809079,12.9433594 C209.908689,13.0374354 210.027666,13.0844727 210.166013,13.0844727 L213.444821,13.0844727 L213.444821,23.5019531 Z" id="path-4"></path>
        <filter x="-50%" y="-50%" width="200%" height="200%" filterUnits="objectBoundingBox" id="filter-5">
            <feOffset dx="0" dy="2" in="SourceAlpha" result="shadowOffsetOuter1"></feOffset>
            <feGaussianBlur stdDeviation="2" in="shadowOffsetOuter1" result="shadowBlurOuter1"></feGaussianBlur>
            <feColorMatrix values="0 0 0 0 0   0 0 0 0 0   0 0 0 0 0  0 0 0 0.5 0" type="matrix" in="shadowBlurOuter1"></feColorMatrix>
        </filter>
    </defs>
    <g id="rocket.chat" stroke="none" stroke-width="1" fill="none" fill-rule="evenodd">
        <g id="dapphub-rc-logo">
            <g id="Group-2" transform="translate(75.000000, 26.000000)">
                <g id="Group" transform="translate(0.117380, 0.974359)">
                    <g id="powered-by-rocket.ch">
                        <use fill="black" fill-opacity="1" filter="url(#filter-2)" xlink:href="#path-1"></use>
                        <use fill="#FFFFFF" fill-rule="evenodd" xlink:href="#path-1"></use>
                    </g>
                </g>
            </g>
            <g id="Group" filter="url(#filter-3)" transform="translate(13.000000, 8.000000)">
                <g id="Group-2-Copy-4">
                    <rect id="Rectangle-2-Copy-16" fill="#807AB6" x="0" y="10.5084746" width="4.67088607" height="4.72881356" rx="1.06101154"></rect>
                    <rect id="Rectangle-2-Copy-17" fill="#FFFFFF" x="5.18987342" y="15.7627119" width="4.67088607" height="4.72881356" rx="1.06101154"></rect>
                    <rect id="Rectangle-2-Copy-18" fill="#FFFFFF" x="0" y="21.0169492" width="4.67088607" height="4.72881356" rx="1.06101154"></rect>
                    <rect id="Rectangle-2-Copy-19" fill="#8D86C9" x="5.18987342" y="26.2711864" width="4.67088607" height="4.72881356" rx="1.06101154"></rect>
                    <rect id="Rectangle-2-Copy-20" fill="#FFFFFF" x="10.3797469" y="26.2711864" width="4.67088607" height="4.72881356" rx="1.06101154"></rect>
                    <rect id="Rectangle-2-Copy-21" fill="#FFFFFF" x="15.5696202" y="21.0169492" width="4.67088607" height="4.72881356" rx="1.06101154"></rect>
                    <rect id="Rectangle-2-Copy-22" fill="#C5BFF6" x="20.7594936" y="15.7627119" width="4.67088607" height="4.72881356" rx="1.06101154"></rect>
                    <rect id="Rectangle-2-Copy-23" fill="#FFFFFF" x="25.9493671" y="10.5084746" width="4.67088607" height="4.72881356" rx="1.06101154"></rect>
                    <rect id="Rectangle-2-Copy-24" fill="#8D86C9" x="25.9493671" y="21.0169492" width="4.67088607" height="4.72881356" rx="1.06101154"></rect>
                    <rect id="Rectangle-2-Copy-25" fill="#FFFFFF" x="25.9493671" y="26.2711864" width="4.67088607" height="4.72881356" rx="1.06101154"></rect>
                    <rect id="Rectangle-2-Copy-26" fill="#FFFFFF" x="36.3291139" y="26.2711864" width="4.67088607" height="4.72881356" rx="1.06101154"></rect>
                    <rect id="Rectangle-2-Copy-27" fill="#FFFFFF" x="36.3291139" y="15.7627119" width="4.67088607" height="4.72881356" rx="1.06101154"></rect>
                    <rect id="Rectangle-2-Copy-28" fill="#807AB6" x="36.3291139" y="5.25423729" width="4.67088607" height="4.72881356" rx="1.06101154"></rect>
                    <rect id="Rectangle-2-Copy-30" fill="#FFFFFF" x="31.1392405" y="10.5084746" width="4.67088607" height="4.72881356" rx="1.06101154"></rect>
                    <rect id="Rectangle-2-Copy-29" fill="#FFFFFF" x="36.3291139" y="0" width="4.67088607" height="4.72881356" rx="1.06101154"></rect>
                    <rect id="Rectangle-2-Copy-31" fill="#FFFFFF" x="25.9493671" y="0" width="4.67088607" height="4.72881356" rx="1.06101154"></rect>
                    <rect id="Rectangle-2-Copy-32" fill="#807AB6" x="10.3797469" y="0" width="4.67088607" height="4.72881356" rx="1.06101154"></rect>
                    <rect id="Rectangle-2-Copy-33" fill="#FFFFFF" x="15.5696202" y="5.25423729" width="4.67088607" height="4.72881356" rx="1.06101154"></rect>
                </g>
            </g>
            <g id="DAPPHUBCHAT">
                <use fill="black" fill-opacity="1" filter="url(#filter-5)" xlink:href="#path-4"></use>
                <use fill="#F8F7F5" fill-rule="evenodd" xlink:href="#path-4"></use>
            </g>
        </g>
    </g>
</svg>