<?xml version="1.0" encoding="UTF-8" standalone="no"?>
<svg width="68px" height="52px" viewBox="0 0 68 52" version="1.1" xmlns="http://www.w3.org/2000/svg" xmlns:xlink="http://www.w3.org/1999/xlink">
    <!-- Generator: Sketch 3.7 (28169) - http://www.bohemiancoding.com/sketch -->
    <title>Group</title>
    <desc>Created with Sketch.</desc>
    <defs></defs>
    <g id="Dapphub-CI" stroke="none" stroke-width="1" fill="none" fill-rule="evenodd">
        <g id="dapphub-copy-8" transform="translate(-222.000000, -210.000000)">
            <g id="Group" transform="translate(222.000000, 210.000000)">
                <g id="Group-2-Copy-4">
                    <rect id="Rectangle-2-Copy-16" fill="#C5BFF6" x="0" y="17.6271186" width="7.74683544" height="7.93220339" rx="1.76835268"></rect>
                    <rect id="Rectangle-2-Copy-17" fill="#CFD8DC" x="8.60759494" y="26.440678" width="7.74683544" height="7.93220339" rx="1.76835268"></rect>
                    <rect id="Rectangle-2-Copy-18" fill="#CFD8DC" x="0" y="35.2542373" width="7.74683544" height="7.93220339" rx="1.76835268"></rect>
                    <rect id="Rectangle-2-Copy-19" fill="#8D86C9" x="8.60759494" y="44.0677966" width="7.74683544" height="7.93220339" rx="1.76835268"></rect>
                    <rect id="Rectangle-2-Copy-20" fill="#CFD8DC" x="17.2151899" y="44.0677966" width="7.74683544" height="7.93220339" rx="1.76835268"></rect>
                    <rect id="Rectangle-2-Copy-21" fill="#CFD8DC" x="25.8227848" y="35.2542373" width="7.74683544" height="7.93220339" rx="1.76835268"></rect>
                    <rect id="Rectangle-2-Copy-22" fill="#C5BFF6" x="34.4303797" y="26.440678" width="7.74683544" height="7.93220339" rx="1.76835268"></rect>
                    <rect id="Rectangle-2-Copy-23" fill="#CFD8DC" x="43.0379747" y="17.6271186" width="7.74683544" height="7.93220339" rx="1.76835268"></rect>
                    <rect id="Rectangle-2-Copy-24" fill="#8D86C9" x="43.0379747" y="35.2542373" width="7.74683544" height="7.93220339" rx="1.76835268"></rect>
                    <rect id="Rectangle-2-Copy-25" fill="#CFD8DC" x="43.0379747" y="44.0677966" width="7.74683544" height="7.93220339" rx="1.76835268"></rect>
                    <rect id="Rectangle-2-Copy-26" fill="#CFD8DC" x="60.2531646" y="44.0677966" width="7.74683544" height="7.93220339" rx="1.76835268"></rect>
                    <rect id="Rectangle-2-Copy-27" fill="#CFD8DC" x="60.2531646" y="26.440678" width="7.74683544" height="7.93220339" rx="1.76835268"></rect>
                    <rect id="Rectangle-2-Copy-28" fill="#725AC1" x="60.2531646" y="8.81355932" width="7.74683544" height="7.93220339" rx="1.76835268"></rect>
                    <rect id="Rectangle-2-Copy-30" fill="#CFD8DC" x="51.6455696" y="17.6271186" width="7.74683544" height="7.93220339" rx="1.76835268"></rect>
                    <rect id="Rectangle-2-Copy-29" fill="#CFD8DC" x="60.2531646" y="0" width="7.74683544" height="7.93220339" rx="1.76835268"></rect>
                    <rect id="Rectangle-2-Copy-31" fill="#CFD8DC" x="43.0379747" y="0" width="7.74683544" height="7.93220339" rx="1.76835268"></rect>
                    <rect id="Rectangle-2-Copy-32" fill="#725AC1" x="17.2151899" y="0" width="7.74683544" height="7.93220339" rx="1.76835268"></rect>
                    <rect id="Rectangle-2-Copy-33" fill="#CFD8DC" x="25.8227848" y="8.81355932" width="7.74683544" height="7.93220339" rx="1.76835268"></rect>
                </g>
            </g>
        </g>
    </g>
</svg>