<?xml version="1.0" encoding="UTF-8" standalone="no"?>
<svg width="66px" height="69px" viewBox="0 0 66 69" version="1.1" xmlns="http://www.w3.org/2000/svg" xmlns:xlink="http://www.w3.org/1999/xlink">
    <!-- Generator: Sketch 3.7.2 (28276) - http://www.bohemiancoding.com/sketch -->
    <title>logo-maker</title>
    <desc>Created with Sketch.</desc>
    <defs></defs>
    <g id="Nexus---Site" stroke="none" stroke-width="1" fill="none" fill-rule="evenodd">
        <g id="Nexus_site_playground_ideas_1-lighter-Copy" transform="translate(-130.000000, -529.000000)">
            <g id="logo-maker" transform="translate(130.000000, 531.000000)">
                <g id="Path-3-Copy-4-+-Path-3-Copy-5-Copy" transform="translate(2.500000, 0.000000)" stroke-width="3" stroke-linecap="round" stroke-linejoin="round">
                    <polyline id="Path-3-Copy-4" stroke="#8D86C9" points="25.9999999 41.9999996 26 19.5766327 0 0 0 42"></polyline>
                    <polyline id="Path-3-Copy-5" stroke="#725AC1" transform="translate(47.000000, 21.000000) scale(-1, 1) translate(-47.000000, -21.000000) " points="59.9999999 41.9999996 60 19.5766327 34 0 34 42"></polyline>
                </g>
                <path d="M1.98632812,56.8310547 L6.70605469,64.6269531 C6.70605469,64.6269531 6.70898435,64.6298828 6.71484375,64.6357422 L6.71484375,64.6445312 C6.72656256,64.6562501 6.73828119,64.6708983 6.75,64.6884766 C6.76171881,64.7001954 6.77343744,64.711914 6.78515625,64.7236328 C6.79687506,64.7353516 6.80859369,64.7470703 6.8203125,64.7587891 C6.83789071,64.7705079 6.852539,64.7822265 6.86425781,64.7939453 C6.89355483,64.8115235 6.89941415,64.8144532 6.88183594,64.8027344 C6.88769534,64.8027344 6.890625,64.805664 6.890625,64.8115234 L6.90820312,64.8115234 C6.92578134,64.8232422 6.94335929,64.8320312 6.9609375,64.8378906 C6.97265631,64.84375 6.9873046,64.8496093 7.00488281,64.8554687 C7.02246103,64.8613282 7.04003897,64.8642578 7.05761719,64.8642578 C7.069336,64.8701172 7.08398429,64.8730469 7.1015625,64.8730469 C7.11914071,64.8789063 7.13671866,64.8818359 7.15429688,64.8818359 C7.17187509,64.8818359 7.18945304,64.8789063 7.20703125,64.8730469 C7.22460946,64.8730469 7.23925775,64.8701172 7.25097656,64.8642578 C7.26855478,64.8642578 7.28613272,64.8613282 7.30371094,64.8554687 C7.32128915,64.8496093 7.33593744,64.84375 7.34765625,64.8378906 C7.36523446,64.8320312 7.38281241,64.8232422 7.40039062,64.8115234 C7.42382824,64.7998046 7.43261722,64.796875 7.42675781,64.8027344 C7.4091796,64.8144532 7.41503892,64.8115235 7.44433594,64.7939453 C7.45605475,64.7822265 7.47070304,64.7705079 7.48828125,64.7587891 C7.50000006,64.7470703 7.51171869,64.7353516 7.5234375,64.7236328 C7.5292969,64.7177734 7.54101554,64.7060548 7.55859375,64.6884766 C7.57031256,64.6708983 7.58203119,64.6562501 7.59375,64.6445312 L7.59375,64.6357422 C7.5996094,64.6298828 7.60253906,64.6269531 7.60253906,64.6269531 L12.3222656,56.8310547 L12.3222656,66.4726562 C12.3222656,66.6191414 12.3720698,66.7451167 12.4716797,66.8505859 C12.577149,66.9501958 12.7001946,67 12.8408203,67 C12.9873054,67 13.1103511,66.9501958 13.2099609,66.8505859 C13.3154302,66.7451167 13.3681641,66.6191414 13.3681641,66.4726562 L13.3681641,54.9501953 C13.3681641,54.6865221 13.2392591,54.5195316 12.9814453,54.4492187 C12.7294909,54.3789059 12.5332038,54.4580067 12.3925781,54.6865234 L7.15429688,63.34375 L1.91601562,54.6865234 C1.77538992,54.4580067 1.57910282,54.3789059 1.32714844,54.4492187 C1.06933465,54.5195316 0.940429688,54.6865221 0.940429688,54.9501953 L0.940429688,66.4726562 C0.940429688,66.6191414 0.990233877,66.7451167 1.08984375,66.8505859 C1.19531303,66.9501958 1.32128833,67 1.46777344,67 C1.60839914,67 1.73144479,66.9501958 1.83691406,66.8505859 C1.93652394,66.7451167 1.98632812,66.6191414 1.98632812,66.4726562 L1.98632812,56.8310547 Z M20.1185547,63.0009766 L22.8958985,56.3037109 L25.6732422,63.0009766 L20.1185547,63.0009766 Z M18.1146485,67 C18.3490246,67 18.5101558,66.8916026 18.5980469,66.6748047 L19.6878906,64.0556641 L26.1039063,64.0556641 L27.19375,66.6748047 C27.2816411,66.8916026 27.4427723,67 27.6771485,67 C27.7474613,67 27.8148435,66.9853517 27.8792969,66.9560547 C28.0140632,66.90332 28.1078123,66.809571 28.1605469,66.6748047 C28.2191409,66.5400384 28.2191409,66.4052741 28.1605469,66.2705078 L26.9388672,63.3261719 L26.9388672,63.3173828 L23.3792969,54.7304687 C23.3675781,54.7011717 23.3529298,54.6689455 23.3353516,54.6337891 C23.3353516,54.6396485 23.323633,54.6279298 23.3001953,54.5986328 C23.2826171,54.5751952 23.2708985,54.5605469 23.2650391,54.5546875 C23.2591797,54.5546875 23.2445314,54.5429689 23.2210938,54.5195312 C23.1976562,54.501953 23.1859375,54.4931641 23.1859375,54.4931641 C23.1273435,54.4521482 23.062891,54.4257813 22.9925781,54.4140625 C22.9984376,54.4140625 22.9837893,54.4140625 22.9486328,54.4140625 C22.9193358,54.4082031 22.9017579,54.4052734 22.8958985,54.4052734 C22.8900391,54.4052734 22.8695314,54.4082031 22.834375,54.4140625 L22.7904297,54.4140625 C22.7259763,54.4257813 22.6644534,54.4521482 22.6058594,54.4931641 C22.6117188,54.4873047 22.6000002,54.4960936 22.5707031,54.5195312 C22.5472655,54.5371095 22.5326172,54.5488281 22.5267578,54.5546875 C22.5208984,54.5605469 22.5091798,54.5751952 22.4916016,54.5986328 C22.468164,54.6220704 22.4564453,54.6337891 22.4564453,54.6337891 C22.4388671,54.6689455 22.4242188,54.7011717 22.4125,54.7304687 L18.8529297,63.3173828 L18.8529297,63.3261719 L17.63125,66.2705078 C17.572656,66.4052741 17.572656,66.5400384 17.63125,66.6748047 C17.6839847,66.809571 17.7777337,66.90332 17.9125,66.9560547 C17.9769535,66.9853517 18.0443356,67 18.1146485,67 L18.1146485,67 Z M32.9597657,66.7539062 C33.065235,66.6542964 33.1179688,66.5312507 33.1179688,66.3847656 L33.1179688,63.0273437 L34.6824219,61.375 L39.8767579,66.8417969 C39.9822271,66.9472662 40.1082024,67 40.2546875,67 C40.3953133,67 40.5154292,66.9531255 40.6150391,66.859375 C40.7205084,66.7597651 40.7761719,66.6367195 40.7820313,66.4902344 C40.7820313,66.3437493 40.7322271,66.2207036 40.6326172,66.1210937 L35.403125,60.6191406 L40.456836,55.3105469 C40.5564459,55.2050776 40.6033204,55.0791023 40.597461,54.9326172 C40.597461,54.7919915 40.5447271,54.6718755 40.4392579,54.5722656 C40.3337886,54.4726558 40.2078133,54.4228516 40.0613282,54.4228516 C39.9207025,54.428711 39.8005865,54.4843745 39.7009766,54.5898437 L33.1179688,61.515625 L33.1179688,54.8974609 C33.1179688,54.7568352 33.065235,54.6337896 32.9597657,54.5283203 C32.8601558,54.4287104 32.7371102,54.3789062 32.590625,54.3789062 C32.4499993,54.3789062 32.3269537,54.4287104 32.2214844,54.5283203 C32.1218745,54.6337896 32.0720704,54.7568352 32.0720704,54.8974609 L32.0720704,66.3847656 C32.0720704,66.5312507 32.1218745,66.6542964 32.2214844,66.7539062 C32.3269537,66.8593755 32.4499993,66.9121094 32.590625,66.9121094 C32.7371102,66.9121094 32.8601558,66.8593755 32.9597657,66.7539062 L32.9597657,66.7539062 Z M52.322461,67 C52.4689461,67 52.5919918,66.9472662 52.6916016,66.8417969 C52.7970709,66.742187 52.8498048,66.6191414 52.8498048,66.4726562 C52.8498048,66.3261711 52.7970709,66.2031255 52.6916016,66.1035156 C52.5919918,65.9980463 52.4689461,65.9453125 52.322461,65.9453125 L45.8712891,65.9453125 L45.8712891,61.2167969 L50.6964844,61.2167969 C50.8429696,61.2167969 50.9660152,61.164063 51.0656251,61.0585937 C51.1710943,60.9589839 51.2238282,60.8359382 51.2238282,60.6894531 C51.2238282,60.542968 51.1710943,60.4199224 51.0656251,60.3203125 C50.9660152,60.2148432 50.8429696,60.1621094 50.6964844,60.1621094 L45.8712891,60.1621094 L45.8712891,55.4335937 L52.322461,55.4511719 C52.4689461,55.4511719 52.5919918,55.4013677 52.6916016,55.3017578 C52.7970709,55.1962885 52.8498048,55.0703132 52.8498048,54.9238281 C52.8498048,54.7832024 52.7970709,54.6601568 52.6916016,54.5546875 C52.5919918,54.4492182 52.4689461,54.3964844 52.322461,54.3964844 L45.3439454,54.3789062 C45.2033197,54.3730468 45.080274,54.4257807 44.9748048,54.5371094 C44.8693355,54.6367192 44.8166016,54.7597649 44.8166016,54.90625 L44.8166016,66.4726562 C44.8166016,66.6191414 44.8693355,66.742187 44.9748048,66.8417969 C45.0744146,66.9472662 45.1974603,67 45.3439454,67 L52.322461,67 Z M63.4410157,59.4501953 C62.9429664,59.9072288 62.3365271,60.1416015 61.6216798,60.1533203 L58.1060548,60.1533203 L58.1060548,55.4511719 L61.5601563,55.4511719 C62.2867225,55.4511719 62.90781,55.6826149 63.4234376,56.1455078 C63.9390652,56.6025413 64.1968751,57.1562467 64.1968751,57.8066406 C64.1968751,58.4453157 63.9449245,58.9931618 63.4410157,59.4501953 L63.4410157,59.4501953 Z M57.578711,54.4140625 C57.4380853,54.4140625 57.3150397,54.4638667 57.2095704,54.5634766 C57.1099605,54.6630864 57.0601563,54.7861321 57.0601563,54.9326172 L57.0601563,66.3935547 C57.0601563,66.5341804 57.1099605,66.657226 57.2095704,66.7626953 C57.3150397,66.8623052 57.4380853,66.9121094 57.578711,66.9121094 C57.7251961,66.9121094 57.8482418,66.8623052 57.9478517,66.7626953 C58.0533209,66.657226 58.1060548,66.5341804 58.1060548,66.3935547 L58.1060548,61.1992187 L61.0416017,61.1992187 L63.757422,66.7099609 C63.8511724,66.9033213 64.0064443,67 64.2232423,67 C64.3052739,67 64.3814451,66.9824221 64.4517579,66.9472656 C64.5806648,66.8828122 64.6685545,66.7832038 64.7154298,66.6484375 C64.762305,66.5136712 64.753516,66.3818366 64.6890626,66.2529297 L62.1841798,61.1464844 C63.057231,61.0117181 63.7808566,60.6308625 64.3550782,60.0039062 C64.9410187,59.3710906 65.2339845,58.638676 65.2339845,57.8066406 C65.2339845,56.8691359 64.8765662,56.0693392 64.1617188,55.4072266 C63.4410121,54.7451139 62.5738333,54.4140625 61.5601563,54.4140625 L57.578711,54.4140625 Z" id="Maker" fill="#8D86C9"></path>
            </g>
        </g>
    </g>
</svg>