<?xml version="1.0" encoding="UTF-8" standalone="no"?>
<svg width="64px" height="11px" viewBox="0 0 64 11" version="1.1" xmlns="http://www.w3.org/2000/svg" xmlns:xlink="http://www.w3.org/1999/xlink">
    <!-- Generator: Sketch 3.8.3 (29802) - http://www.bohemiancoding.com/sketch -->
    <title>nexus</title>
    <desc>Created with Sketch.</desc>
    <defs></defs>
    <g id="CI-stuff" stroke="none" stroke-width="1" fill="none" fill-rule="evenodd">
        <g id="NXS-new-logo" transform="translate(-134.000000, -232.000000)" stroke="#6660A0" stroke-width="0.5" fill="#6660A0">
            <path d="M141.264563,241.906178 C141.276576,241.914517 141.284584,241.920772 141.288588,241.924942 C141.300601,241.933282 141.314615,241.941622 141.330632,241.949961 C141.342645,241.958301 141.350653,241.964556 141.354657,241.968726 C141.36667,241.972896 141.382687,241.979151 141.402708,241.98749 C141.418724,241.99166 141.426733,241.993745 141.426733,241.993745 C141.450758,241.997915 141.474783,242 141.498808,242 C141.518829,242 141.540852,241.997915 141.564877,241.993745 C141.568882,241.993745 141.57689,241.99166 141.588903,241.98749 C141.60492,241.98332 141.618934,241.979151 141.630947,241.974981 C141.638955,241.970811 141.646963,241.966641 141.654972,241.962471 C141.666985,241.958301 141.678997,241.952046 141.69101,241.943707 C141.699018,241.939537 141.705024,241.935367 141.709029,241.931197 C141.725045,241.918687 141.72905,241.914517 141.721041,241.918687 C141.713033,241.927027 141.719039,241.922857 141.73906,241.906178 C141.751073,241.893668 141.759081,241.885328 141.763085,241.881158 C141.771094,241.872818 141.779102,241.862394 141.78711,241.849884 C141.795119,241.837374 141.801125,241.82695 141.805129,241.81861 C141.813138,241.81027 141.819144,241.799846 141.823148,241.787336 C141.827152,241.774826 141.831156,241.764402 141.835161,241.756062 C141.839165,241.747722 141.843169,241.735212 141.847173,241.718533 C141.851177,241.706023 141.85318,241.695598 141.85318,241.687259 C141.857184,241.674749 141.859186,241.662239 141.859186,241.64973 L141.859186,241.62471 L141.859186,233.387104 C141.859186,233.282857 141.82515,233.19529 141.757079,233.124402 C141.685003,233.049343 141.598914,233.011815 141.498808,233.011815 C141.402707,233.011815 141.31862,233.049343 141.246544,233.124402 C141.178472,233.19529 141.144437,233.282857 141.144437,233.387104 L141.144437,240.530116 L135.642673,233.155676 C135.538564,233.013899 135.404425,232.972201 135.240252,233.030579 C135.080083,233.088958 135,233.207798 135,233.387104 L135,241.62471 C135,241.728958 135.036037,241.816525 135.108113,241.887413 C135.176185,241.962471 135.260272,242 135.360378,242 C135.460483,242 135.54457,241.962471 135.612642,241.887413 C135.684718,241.816525 135.720755,241.728958 135.720755,241.62471 L135.720755,234.481699 L141.216513,241.856139 C141.216513,241.856139 141.218515,241.858224 141.222519,241.862394 C141.226523,241.866564 141.228525,241.868649 141.228525,241.868649 C141.240538,241.881158 141.25255,241.893668 141.264563,241.906178 L141.264563,241.906178 Z M155.403375,242 C155.50348,242 155.587568,241.962471 155.655639,241.887413 C155.727715,241.816525 155.763753,241.728958 155.763753,241.62471 C155.763753,241.520463 155.727715,241.432896 155.655639,241.362008 C155.587568,241.286949 155.50348,241.249421 155.403375,241.249421 L150.994756,241.249421 L150.994756,237.884324 L154.292211,237.884324 C154.392316,237.884324 154.476404,237.846796 154.544475,237.771737 C154.616551,237.700849 154.652588,237.613282 154.652588,237.509035 C154.652588,237.404787 154.616551,237.31722 154.544475,237.246332 C154.476404,237.171274 154.392316,237.133745 154.292211,237.133745 L150.994756,237.133745 L150.994756,233.768649 L155.403375,233.781158 C155.50348,233.781158 155.587568,233.745715 155.655639,233.674826 C155.727715,233.599768 155.763753,233.510116 155.763753,233.405869 C155.763753,233.305791 155.727715,233.218224 155.655639,233.143166 C155.587568,233.068108 155.50348,233.030579 155.403375,233.030579 L150.634379,233.01807 C150.538278,233.0139 150.45419,233.051428 150.382115,233.130656 C150.310039,233.201545 150.274001,233.289112 150.274001,233.393359 L150.274001,241.62471 C150.274001,241.728958 150.310039,241.816525 150.382115,241.887413 C150.450186,241.962471 150.534274,242 150.634379,242 L155.403375,242 Z M169.205835,233.00556 C169.109734,233.02224 169.031653,233.074363 168.971589,233.161931 L166.460959,236.852278 L163.950329,233.161931 C163.89427,233.074363 163.816189,233.02224 163.716084,233.00556 C163.619982,232.98888 163.529889,233.00973 163.4458,233.068108 C163.365716,233.130657 163.317666,233.211969 163.301649,233.312046 C163.285632,233.416294 163.305653,233.510115 163.361712,233.593514 L166.0225,237.50278 L163.361712,241.405792 C163.305653,241.49336 163.285632,241.587181 163.301649,241.687259 C163.317666,241.791506 163.365716,241.872818 163.4458,241.931197 C163.509868,241.977066 163.579941,242 163.656021,242 C163.780151,242 163.878253,241.947877 163.950329,241.843629 L166.460959,238.147027 L168.971589,241.843629 C169.043665,241.947877 169.141767,242 169.265898,242 C169.341978,242 169.41205,241.977066 169.476118,241.931197 C169.556202,241.872818 169.604252,241.791506 169.620269,241.687259 C169.64029,241.587181 169.620269,241.49336 169.560206,241.405792 L166.905425,237.50278 L169.560206,233.593514 C169.620269,233.510115 169.64029,233.416294 169.620269,233.312046 C169.604252,233.211969 169.556202,233.130657 169.476118,233.068108 C169.396034,233.00973 169.30594,232.98888 169.205835,233.00556 L169.205835,233.00556 Z M182.713986,233.155676 C182.645914,233.226564 182.611879,233.314131 182.611879,233.418378 L182.611879,238.92888 C182.611879,239.575216 182.391651,240.125635 181.951187,240.580154 C181.510723,241.038844 180.982175,241.268185 180.365526,241.268185 C179.744872,241.268185 179.216324,241.038844 178.779865,240.580154 C178.339401,240.125635 178.119172,239.575216 178.119172,238.92888 L178.119172,233.418378 C178.119172,233.314131 178.085137,233.226564 178.017065,233.155676 C177.948994,233.084787 177.866909,233.049344 177.770808,233.049344 C177.670702,233.049344 177.586615,233.084787 177.518543,233.155676 C177.450472,233.226564 177.416436,233.314131 177.416436,233.418378 L177.416436,238.92888 C177.416436,239.775371 177.704735,240.498839 178.281342,241.099305 C178.857949,241.699771 179.55267,242 180.365526,242 C181.178381,242 181.873102,241.699771 182.449709,241.099305 C183.026316,240.498839 183.314615,239.775371 183.314615,238.92888 L183.314615,233.418378 C183.314615,233.314131 183.28058,233.226564 183.212508,233.155676 C183.140432,233.084787 183.056345,233.049344 182.960244,233.049344 C182.864143,233.049344 182.782058,233.084787 182.713986,233.155676 L182.713986,233.155676 Z M192.642387,241.593436 C192.045759,241.264014 191.669369,240.788652 191.513204,240.167336 C191.489179,240.071428 191.501191,239.977607 191.549242,239.885869 C191.601297,239.798301 191.675374,239.742008 191.771475,239.716988 C191.863572,239.691969 191.953665,239.704479 192.041758,239.754517 C192.125847,239.808726 192.179903,239.883783 192.203928,239.979691 C192.312042,240.413361 192.592333,240.744864 193.044809,240.974209 C193.421205,241.161854 193.851652,241.255676 194.336162,241.255676 C194.860714,241.255676 195.311181,241.080542 195.687577,240.73027 C196.063974,240.379998 196.264181,239.952589 196.288207,239.448031 C196.304224,239.085249 196.184099,238.764171 195.927829,238.484788 C195.579462,238.096987 195.024887,237.896834 194.264086,237.884324 C194.163981,237.884324 194.079894,237.846796 194.011822,237.771737 C193.94375,237.696679 193.909715,237.609113 193.909715,237.509035 C193.913719,237.404787 193.951759,237.31722 194.023834,237.246332 C194.091906,237.175444 194.175993,237.14 194.276099,237.14 C195.23711,237.15668 195.961862,237.436059 196.450377,237.978147 C196.84279,238.407647 197.024979,238.908028 196.996949,239.479305 C196.96892,240.184019 196.696637,240.780306 196.180093,241.268185 C195.667554,241.756064 195.052916,242 194.336162,242 C193.703496,242 193.13891,241.86448 192.642387,241.593436 L192.642387,241.593436 Z M194.228048,237.884324 C193.267037,237.871815 192.542285,237.59452 192.053771,237.052432 C191.661358,236.618762 191.477166,236.116296 191.501192,235.545019 C191.533225,234.840305 191.80751,234.244018 192.324054,233.756139 C192.836593,233.26826 193.451231,233.024324 194.167986,233.024324 C194.800651,233.024324 195.365237,233.161929 195.86176,233.437143 C196.458388,233.762396 196.834779,234.235673 196.990943,234.856988 C197.014968,234.957066 197.002956,235.050888 196.954905,235.138456 C196.90285,235.226024 196.828773,235.282317 196.732672,235.307336 C196.636571,235.336525 196.546478,235.324016 196.462389,235.269807 C196.378301,235.219768 196.324245,235.144711 196.300219,235.044633 C196.192105,234.610963 195.911815,234.281546 195.459338,234.056371 C195.082942,233.864555 194.652496,233.768649 194.167986,233.768649 C193.643433,233.768649 193.192966,233.943782 192.81657,234.294054 C192.440174,234.644326 192.239966,235.07382 192.215941,235.582548 C192.199924,235.94116 192.320048,236.260153 192.576318,236.539537 C192.924685,236.927338 193.47926,237.12749 194.240061,237.14 C194.340166,237.14417 194.424254,237.181699 194.492325,237.252587 C194.560397,237.327645 194.594432,237.417297 194.594432,237.521544 C194.590428,237.621622 194.554391,237.707104 194.486319,237.777992 C194.414243,237.848881 194.330156,237.884324 194.234055,237.884324 L194.228048,237.884324 Z" id="nexus"></path>
        </g>
    </g>
</svg>