<?xml version="1.0" encoding="UTF-8" standalone="no"?>
<svg width="163px" height="64px" viewBox="0 0 163 64" version="1.1" xmlns="http://www.w3.org/2000/svg" xmlns:xlink="http://www.w3.org/1999/xlink">
    <!-- Generator: Sketch 3.6.1 (26313) - http://www.bohemiancoding.com/sketch -->
    <title>nxs-logo-typo</title>
    <desc>Created with Sketch.</desc>
    <defs></defs>
    <g id="Nexus" stroke="none" stroke-width="1" fill="none" fill-rule="evenodd">
        <g id="nxs-logo-typo">
            <g id="Group-Copy" transform="translate(14.000000, 17.000000)">
                <g id="Imported-Layers" fill="#725AC1">
                    <path d="M14.7522936,0 C6.60470018,0 0,6.7156 0,15 C0,23.2844 6.60470018,30 14.7522936,30 C22.899887,30 29.5045872,23.2844 29.5045872,15 C29.5045872,6.7156 22.899887,0 14.7522936,0 L14.7522936,0 Z M14.7522936,28.8 C7.25616147,28.8 1.18018349,22.622 1.18018349,15 C1.18018349,7.378 7.25616147,1.2 14.7522936,1.2 C22.2484257,1.2 28.3244037,7.378 28.3244037,15 C28.3244037,22.622 22.2484257,28.8 14.7522936,28.8 L14.7522936,28.8 Z" id="Fill-1"></path>
                    <path d="M15.9324771,15 C15.9324771,16.6 13.5721101,16.6 13.5721101,15 C13.5721101,13.4 15.9324771,13.4 15.9324771,15" id="Fill-2"></path>
                </g>
                <path d="M54.9801462,22.3352051 C55.0017561,22.3498536 55.0161625,22.3608398 55.0233658,22.3681641 C55.0449757,22.3828126 55.0701869,22.3974609 55.0990001,22.4121094 C55.1206101,22.4267579 55.1350164,22.4377441 55.1422198,22.4450684 C55.1638297,22.4523926 55.1926425,22.4633788 55.228659,22.4780273 C55.2574722,22.4853516 55.2718786,22.4890137 55.2718786,22.4890137 C55.3150984,22.4963379 55.3583176,22.5 55.4015374,22.5 C55.4375539,22.5 55.4771715,22.4963379 55.5203913,22.4890137 C55.5275946,22.4890137 55.542001,22.4853516 55.563611,22.4780273 C55.5924242,22.4707031 55.6176354,22.4633789 55.6392453,22.4560547 C55.6536519,22.4487304 55.6680583,22.4414063 55.6824649,22.434082 C55.7040748,22.4267578 55.7256844,22.4157716 55.7472943,22.401123 C55.7617009,22.3937988 55.7725057,22.3864746 55.779709,22.3791504 C55.8085222,22.3571776 55.8157254,22.3498535 55.8013188,22.3571777 C55.7869122,22.3718262 55.797717,22.3645021 55.8337335,22.3352051 C55.8553434,22.3132323 55.8697498,22.298584 55.8769531,22.2912598 C55.8913597,22.2766113 55.9057661,22.2583009 55.9201727,22.2363281 C55.9345793,22.2143554 55.9453841,22.196045 55.9525874,22.1813965 C55.9669941,22.166748 55.9777988,22.1484376 55.9850022,22.1264648 C55.9922055,22.1044921 55.9994087,22.0861817 56.006612,22.0715332 C56.0138153,22.0568847 56.0210185,22.0349123 56.0282218,22.0056152 C56.0354251,21.9836425 56.0390267,21.9653321 56.0390267,21.9506836 C56.04623,21.9287108 56.0498316,21.9067384 56.0498316,21.8847656 L56.0498316,21.8408203 L56.0498316,7.37182617 C56.0498316,7.18871979 55.9886044,7.03491273 55.8661482,6.91040039 C55.7364887,6.77856379 55.58162,6.71264648 55.4015374,6.71264648 C55.2286581,6.71264648 55.077391,6.77856379 54.9477315,6.91040039 C54.8252753,7.03491273 54.7640482,7.18871979 54.7640482,7.37182617 L54.7640482,19.9182129 L44.8667575,6.96533203 C44.6794715,6.71630735 44.4381645,6.64306589 44.142829,6.74560547 C43.8546968,6.84814504 43.7106329,7.05688319 43.7106329,7.37182617 L43.7106329,21.8408203 C43.7106329,22.0239267 43.7754617,22.1777338 43.9051211,22.3022461 C44.0275773,22.4340827 44.1788444,22.5 44.358927,22.5 C44.5390096,22.5 44.6902768,22.4340827 44.8127329,22.3022461 C44.9423924,22.1777338 45.0072212,22.0239267 45.0072212,21.8408203 L45.0072212,9.29443359 L54.893707,22.2473145 C54.893707,22.2473145 54.8973086,22.2509765 54.9045119,22.2583008 C54.9117152,22.265625 54.9153168,22.2692871 54.9153168,22.2692871 C54.9369267,22.2912599 54.9585363,22.3132323 54.9801462,22.3352051 L54.9801462,22.3352051 Z M74.8827767,22.5 C75.0628593,22.5 75.2141264,22.4340827 75.3365826,22.3022461 C75.466242,22.1777338 75.5310708,22.0239267 75.5310708,21.8408203 C75.5310708,21.6577139 75.466242,21.5039069 75.3365826,21.3793945 C75.2141264,21.2475579 75.0628593,21.1816406 74.8827767,21.1816406 L66.9519782,21.1816406 L66.9519782,15.2709961 L72.8838697,15.2709961 C73.0639523,15.2709961 73.2152194,15.2050788 73.3376756,15.0732422 C73.4673351,14.9487298 73.5321638,14.7949228 73.5321638,14.6118164 C73.5321638,14.42871 73.4673351,14.274903 73.3376756,14.1503906 C73.2152194,14.018554 73.0639523,13.9526367 72.8838697,13.9526367 L66.9519782,13.9526367 L66.9519782,8.04199219 L74.8827767,8.06396484 C75.0628593,8.06396484 75.2141264,8.00170961 75.3365826,7.87719727 C75.466242,7.74536067 75.5310708,7.58789154 75.5310708,7.40478516 C75.5310708,7.22900303 75.466242,7.07519597 75.3365826,6.94335937 C75.2141264,6.81152278 75.0628593,6.74560547 74.8827767,6.74560547 L66.3036841,6.72363281 C66.1308048,6.71630856 65.9795376,6.78222587 65.8498782,6.92138672 C65.7202187,7.04589906 65.6553899,7.19970612 65.6553899,7.3828125 L65.6553899,21.8408203 C65.6553899,22.0239267 65.7202187,22.1777338 65.8498782,22.3022461 C65.9723343,22.4340827 66.1236015,22.5 66.3036841,22.5 L74.8827767,22.5 Z M94.1803326,6.70166016 C94.0074533,6.73095718 93.8669909,6.822509 93.7589414,6.97631836 L89.2424921,13.458252 L84.7260429,6.97631836 C84.6251966,6.822509 84.4847343,6.73095718 84.3046517,6.70166016 C84.1317724,6.67236313 83.9697004,6.70898386 83.818431,6.81152344 C83.674365,6.92138727 83.5879266,7.06420811 83.5591134,7.23999023 C83.5303002,7.42309662 83.5663162,7.58788989 83.6671624,7.734375 L88.4537342,14.6008301 L83.6671624,21.4562988 C83.5663162,21.6101082 83.5303002,21.7749015 83.5591134,21.9506836 C83.5879266,22.13379 83.674365,22.2766108 83.818431,22.3791504 C83.9336839,22.4597172 84.0597399,22.5 84.1966026,22.5 C84.4199051,22.5 84.5963834,22.4084482 84.7260429,22.2253418 L89.2424921,15.7324219 L93.7589414,22.2253418 C93.8886008,22.4084482 94.0650792,22.5 94.2883816,22.5 C94.4252444,22.5 94.5513003,22.4597172 94.6665532,22.3791504 C94.8106193,22.2766108 94.8970576,22.13379 94.9258708,21.9506836 C94.9618874,21.7749015 94.9258714,21.6101082 94.8178218,21.4562988 L90.0420549,14.6008301 L94.8178218,7.734375 C94.9258714,7.58788989 94.9618874,7.42309662 94.9258708,7.23999023 C94.8970576,7.06420811 94.8106193,6.92138727 94.6665532,6.81152344 C94.5224871,6.70898386 94.3604152,6.67236313 94.1803326,6.70166016 L94.1803326,6.70166016 Z M128.16701,15.2704882 C128.175988,15.2708268 128.18504,15.2709961 128.194166,15.2709961 C129.562794,15.2929689 130.560436,15.6445278 131.187124,16.3256836 C131.648135,16.8164087 131.864231,17.3803679 131.835418,18.0175781 C131.792198,18.903813 131.432038,19.6545379 130.754928,20.2697754 C130.077817,20.8850128 129.267457,21.192627 128.323825,21.192627 C127.452225,21.192627 126.677881,21.0278337 126.00077,20.6982422 C125.186797,20.2954081 124.682573,19.7131386 124.488084,18.951416 C124.444864,18.7829581 124.347621,18.6511235 124.196352,18.5559082 C124.037879,18.4680171 123.875807,18.4460447 123.710131,18.4899902 C123.537252,18.5339358 123.403993,18.6328117 123.31035,18.7866211 C123.22391,18.9477547 123.202301,19.112548 123.24552,19.2810059 C123.526449,20.3723199 124.20355,21.2072725 125.276842,21.7858887 C126.170052,22.2619653 127.185702,22.5 128.323825,22.5 C129.613216,22.5 130.718907,22.0715375 131.64093,21.2145996 C132.570156,20.3576617 133.059973,19.3103089 133.110396,18.0725098 C133.160819,17.0690868 132.833074,16.1901893 132.12715,15.435791 C131.248347,14.4836378 129.944569,13.9929201 128.215776,13.963623 C128.201336,13.963623 128.187083,13.9640233 128.173014,13.9648237 C128.165707,13.9643244 128.158351,13.9639242 128.150946,13.963623 C126.782318,13.9416503 125.784676,13.5900913 125.157988,12.9089355 C124.696977,12.4182104 124.480881,11.8579133 124.509694,11.2280273 C124.552914,10.3344682 124.913074,9.5800812 125.590184,8.96484375 C126.267295,8.3496063 127.077654,8.04199219 128.021287,8.04199219 C128.892887,8.04199219 129.667231,8.21044753 130.344341,8.54736328 C131.158315,8.94287307 131.662538,9.52148057 131.857028,10.2832031 C131.900247,10.4589853 131.997491,10.5908199 132.14876,10.6787109 C132.300029,10.7739263 132.462101,10.7958987 132.634981,10.7446289 C132.80786,10.7006834 132.941119,10.6018074 133.034762,10.447998 C133.121202,10.2941887 133.142811,10.1293954 133.099591,9.95361328 C132.818663,8.86229923 132.141562,8.03100872 131.06827,7.4597168 C130.17506,6.97631594 129.159409,6.73461914 128.021287,6.73461914 C126.731896,6.73461914 125.626205,7.16308165 124.704182,8.02001953 C123.774956,8.87695741 123.281537,9.92431022 123.223911,11.1621094 C123.180691,12.1655324 123.512038,13.0480919 124.217962,13.8098145 C125.096765,14.7619677 126.400543,15.2490233 128.129336,15.2709961 L128.140141,15.2709961 C128.149156,15.2709961 128.158112,15.2708268 128.16701,15.2704882 Z M112.948448,6.96533203 C112.825992,7.08984437 112.764765,7.24365143 112.764765,7.42675781 L112.764765,17.1057129 C112.764765,18.2409725 112.368589,19.2077597 111.576226,20.0061035 C110.783862,20.8117716 109.83304,21.2145996 108.723731,21.2145996 C107.607219,21.2145996 106.656397,20.8117716 105.871237,20.0061035 C105.078874,19.2077597 104.682698,18.2409725 104.682698,17.1057129 L104.682698,7.42675781 C104.682698,7.24365143 104.621471,7.08984437 104.499014,6.96533203 C104.376558,6.84081969 104.228893,6.77856445 104.056013,6.77856445 C103.875931,6.77856445 103.724664,6.84081969 103.602208,6.96533203 C103.479751,7.08984437 103.418524,7.24365143 103.418524,7.42675781 L103.418524,17.1057129 C103.418524,18.5925367 103.937154,19.863276 104.97443,20.9179688 C106.011706,21.9726615 107.261461,22.5 108.723731,22.5 C110.186002,22.5 111.435757,21.9726615 112.473033,20.9179688 C113.510308,19.863276 114.028939,18.5925367 114.028939,17.1057129 L114.028939,7.42675781 C114.028939,7.24365143 113.967711,7.08984437 113.845255,6.96533203 C113.715596,6.84081969 113.564329,6.77856445 113.391449,6.77856445 C113.21857,6.77856445 113.070904,6.84081969 112.948448,6.96533203 Z" id="nexus" fill="#C5BFF6"></path>
            </g>
        </g>
    </g>
</svg>