<?xml version="1.0" encoding="UTF-8" standalone="no"?>
<svg width="128px" height="128px" viewBox="0 0 128 128" version="1.1" xmlns="http://www.w3.org/2000/svg" xmlns:xlink="http://www.w3.org/1999/xlink">
    <!-- Generator: Sketch 3.7.1 (28215) - http://www.bohemiancoding.com/sketch -->
    <title>NXS/nxs-icon</title>
    <desc>Created with Sketch.</desc>
    <defs>
        <filter x="-50%" y="-50%" width="200%" height="200%" filterUnits="objectBoundingBox" id="filter-1">
            <feOffset dx="0" dy="2" in="SourceAlpha" result="shadowOffsetOuter1"></feOffset>
            <feGaussianBlur stdDeviation="2.5" in="shadowOffsetOuter1" result="shadowBlurOuter1"></feGaussianBlur>
            <feColorMatrix values="0 0 0 0 0   0 0 0 0 0   0 0 0 0 0  0 0 0 0.135586504 0" type="matrix" in="shadowBlurOuter1" result="shadowMatrixOuter1"></feColorMatrix>
            <feMerge>
                <feMergeNode in="shadowMatrixOuter1"></feMergeNode>
                <feMergeNode in="SourceGraphic"></feMergeNode>
            </feMerge>
        </filter>
        <radialGradient cx="0%" cy="0%" fx="0%" fy="0%" r="143.544416%" id="radialGradient-2">
            <stop stop-color="#725AC1" offset="0%"></stop>
            <stop stop-color="#1E1639" offset="100%"></stop>
        </radialGradient>
    </defs>
    <g id="Nexus" stroke="none" stroke-width="1" fill="none" fill-rule="evenodd">
        <g id="NXS/nxs-icon" fill="url(#radialGradient-2)">
            <g id="Rectangle-2-+-Imported-Layers-Copy" transform="translate(19.000000, 19.000000)">
                <g id="Imported-Layers-Copy" filter="url(#filter-1)" transform="translate(1.500000, 1.500000)">
                    <path d="M43.5,0 C19.47524,0 0,19.47524 0,43.5 C0,67.52476 19.47524,87 43.5,87 C67.52476,87 87,67.52476 87,43.5 C87,19.47524 67.52476,0 43.5,0 L43.5,0 Z M43.5,83.52 C21.3962,83.52 3.48,65.6038 3.48,43.5 C3.48,21.3962 21.3962,3.48 43.5,3.48 C65.6038,3.48 83.52,21.3962 83.52,43.5 C83.52,65.6038 65.6038,83.52 43.5,83.52 L43.5,83.52 Z" id="Fill-1"></path>
                    <path d="M46.98,43.5 C46.98,48.14 40.02,48.14 40.02,43.5 C40.02,38.86 46.98,38.86 46.98,43.5" id="Fill-2"></path>
                </g>
            </g>
        </g>
    </g>
</svg>