<?xml version="1.0" encoding="UTF-8" standalone="no"?>
<svg width="66px" height="93px" viewBox="0 0 66 93" version="1.1" xmlns="http://www.w3.org/2000/svg" xmlns:xlink="http://www.w3.org/1999/xlink">
    <!-- Generator: Sketch 3.8.3 (29802) - http://www.bohemiancoding.com/sketch -->
    <title>Group 8</title>
    <desc>Created with Sketch.</desc>
    <defs></defs>
    <g id="CI-stuff" stroke="none" stroke-width="1" fill="none" fill-rule="evenodd">
        <g id="NXS-new-logo" transform="translate(-133.000000, -150.000000)">
            <g id="Group-8" transform="translate(129.000000, 151.000000)">
                <path d="M12.2645629,90.9061776 C12.2765755,90.9145174 12.2845838,90.9207722 12.288588,90.9249421 C12.3006007,90.9332819 12.3146152,90.9416216 12.3306321,90.9499614 C12.3426447,90.9583012 12.350653,90.964556 12.3546573,90.9687259 C12.3666699,90.9728958 12.3826865,90.9791505 12.4027076,90.9874903 C12.4187245,90.9916603 12.4267328,90.9937452 12.4267328,90.9937452 C12.4507581,90.9979151 12.474783,91 12.4988083,91 C12.5188293,91 12.5408522,90.9979151 12.5648775,90.9937452 C12.5688817,90.9937452 12.57689,90.9916603 12.5889027,90.9874903 C12.6049195,90.9833204 12.6189341,90.9791506 12.6309467,90.9749807 C12.6389551,90.9708108 12.6469634,90.9666409 12.6549719,90.962471 C12.6669845,90.9583011 12.678997,90.9520464 12.6910096,90.9437066 C12.6990181,90.9395367 12.7050243,90.9353668 12.7090285,90.9311969 C12.7250454,90.9186872 12.7290495,90.9145174 12.7210411,90.9186873 C12.7130327,90.9270271 12.7190389,90.9228572 12.73906,90.9061776 C12.7510726,90.8936679 12.7590809,90.8853282 12.7630851,90.8811583 C12.7710936,90.8728185 12.7791019,90.8623939 12.7871103,90.8498842 C12.7951187,90.8373745 12.801125,90.8269498 12.8051292,90.81861 C12.8131376,90.8102702 12.8191438,90.7998456 12.8231481,90.7873359 C12.8271523,90.7748262 12.8311564,90.7644016 12.8351606,90.7560618 C12.8391649,90.747722 12.843169,90.7352124 12.8471732,90.7185328 C12.8511774,90.7060231 12.8531795,90.6955985 12.8531795,90.6872587 C12.8571837,90.674749 12.8591858,90.6622394 12.8591858,90.6497297 L12.8591858,90.6247104 L12.8591858,82.3871043 C12.8591858,82.2828567 12.8251505,82.19529 12.7570788,82.1244016 C12.685003,82.0493433 12.5989136,82.0118147 12.4988083,82.0118147 C12.4027071,82.0118147 12.3186199,82.0493433 12.246544,82.1244016 C12.1784723,82.19529 12.144437,82.2828567 12.144437,82.3871043 L12.144437,89.5301158 L6.64267328,82.1556757 C6.53856369,82.013899 6.4044245,81.9722005 6.24025169,82.0305792 C6.0800831,82.0889579 6,82.2077984 6,82.3871043 L6,90.6247104 C6,90.7289581 6.03603739,90.8165247 6.10811326,90.8874131 C6.17618491,90.9624714 6.26027217,91 6.36037754,91 C6.46048291,91 6.54457016,90.9624714 6.61264182,90.8874131 C6.68471768,90.8165247 6.72075508,90.7289581 6.72075508,90.6247104 L6.72075508,83.4816989 L12.2165125,90.856139 C12.2165125,90.856139 12.2185146,90.8582239 12.2225188,90.8623938 C12.226523,90.8665637 12.2285251,90.8686486 12.2285251,90.8686486 C12.2405378,90.8811584 12.2525502,90.8936679 12.2645629,90.9061776 L12.2645629,90.9061776 Z M26.403375,91 C26.5034803,91 26.5875676,90.9624714 26.6556392,90.8874131 C26.7277151,90.8165247 26.7637525,90.7289581 26.7637525,90.6247104 C26.7637525,90.5204628 26.7277151,90.4328961 26.6556392,90.3620077 C26.5875676,90.2869494 26.5034803,90.2494209 26.403375,90.2494209 L21.9947564,90.2494209 L21.9947564,86.8843244 L25.2922109,86.8843244 C25.3923163,86.8843244 25.4764035,86.8467958 25.5444752,86.7717375 C25.616551,86.7008491 25.6525884,86.6132824 25.6525884,86.5090348 C25.6525884,86.4047872 25.616551,86.3172205 25.5444752,86.2463321 C25.4764035,86.1712738 25.3923163,86.1337452 25.2922109,86.1337452 L21.9947564,86.1337452 L21.9947564,82.7686487 L26.403375,82.7811584 C26.5034803,82.7811584 26.5875676,82.7457147 26.6556392,82.6748263 C26.7277151,82.599768 26.7637525,82.5101164 26.7637525,82.4058688 C26.7637525,82.3057911 26.7277151,82.2182244 26.6556392,82.1431661 C26.5875676,82.0681078 26.5034803,82.0305792 26.403375,82.0305792 L21.6343789,82.0180696 C21.5382777,82.0138997 21.4541905,82.0514282 21.3821146,82.1306564 C21.3100387,82.2015448 21.2740013,82.2891115 21.2740013,82.3933591 L21.2740013,90.6247104 C21.2740013,90.7289581 21.3100387,90.8165247 21.3821146,90.8874131 C21.4501862,90.9624714 21.5342735,91 21.6343789,91 L26.403375,91 Z M40.2058347,82.0055599 C40.1097335,82.0222395 40.0316525,82.0743626 39.9715893,82.1619306 L37.4609591,85.852278 L34.9503289,82.1619306 C34.8942699,82.0743626 34.8161889,82.0222395 34.7160835,82.0055599 C34.6199824,81.9888803 34.5298889,82.0097295 34.4458004,82.0681082 C34.3657161,82.1306567 34.3176662,82.2119687 34.3016493,82.3120464 C34.2856325,82.416294 34.3056533,82.5101155 34.3617123,82.5935136 L37.0224998,86.50278 L34.3617123,90.4057915 C34.3056533,90.4933595 34.2856325,90.587181 34.3016493,90.6872587 C34.3176662,90.7915063 34.3657161,90.8728182 34.4458004,90.9311969 C34.5098678,90.9770659 34.5799405,91 34.6560206,91 C34.7801513,91 34.878253,90.947877 34.9503289,90.8436293 L37.4609591,87.1470271 L39.9715893,90.8436293 C40.0436652,90.947877 40.1417669,91 40.2658976,91 C40.3419777,91 40.4120504,90.9770659 40.4761178,90.9311969 C40.5562021,90.8728182 40.604252,90.7915063 40.6202689,90.6872587 C40.6402899,90.587181 40.6202692,90.4933595 40.5602059,90.4057915 L37.9054247,86.50278 L40.5602059,82.5935136 C40.6202692,82.5101155 40.6402899,82.416294 40.6202689,82.3120464 C40.604252,82.2119687 40.5562021,82.1306567 40.4761178,82.0681082 C40.3960335,82.0097295 40.3059401,81.9888803 40.2058347,82.0055599 L40.2058347,82.0055599 Z M53.7139861,82.1556757 C53.6459144,82.2265641 53.6118791,82.3141308 53.6118791,82.4183784 L53.6118791,87.9288803 C53.6118791,88.5752156 53.3916506,89.1256348 52.951187,89.5801545 C52.5107233,90.038844 51.9821749,90.2681853 51.3655258,90.2681853 C50.7448725,90.2681853 50.216324,90.038844 49.7798646,89.5801545 C49.339401,89.1256348 49.1191725,88.5752156 49.1191725,87.9288803 L49.1191725,82.4183784 C49.1191725,82.3141308 49.0851372,82.2265641 49.0170655,82.1556757 C48.9489938,82.0847874 48.8669087,82.0493437 48.7708075,82.0493437 C48.6707021,82.0493437 48.5866149,82.0847874 48.5185432,82.1556757 C48.4504716,82.2265641 48.4164363,82.3141308 48.4164363,82.4183784 L48.4164363,87.9288803 C48.4164363,88.775371 48.7047354,89.4988387 49.2813424,90.099305 C49.8579493,90.6997713 50.5526702,91 51.3655258,91 C52.1783814,91 52.8731023,90.6997713 53.4497092,90.099305 C54.0263162,89.4988387 54.3146153,88.775371 54.3146153,87.9288803 L54.3146153,82.4183784 C54.3146153,82.3141308 54.28058,82.2265641 54.2125083,82.1556757 C54.1404325,82.0847874 54.0563452,82.0493437 53.9602441,82.0493437 C53.8641429,82.0493437 53.7820577,82.0847874 53.7139861,82.1556757 L53.7139861,82.1556757 Z M63.6423873,90.5934363 C63.0457592,90.2640138 62.6693687,89.7886518 62.5132043,89.1673359 C62.489179,89.0714281 62.5011915,88.9776067 62.5492421,88.8858687 C62.6012969,88.7983007 62.6753737,88.7420079 62.7714749,88.7169884 C62.8635718,88.691969 62.9536653,88.7044785 63.041758,88.7545174 C63.1258465,88.8087262 63.1799026,88.8837833 63.2039279,88.9796911 C63.3120417,89.4133613 63.5923326,89.7448637 64.0448088,89.9742085 C64.421205,90.1618542 64.8516517,90.2556757 65.3361617,90.2556757 C65.8607138,90.2556757 66.3111813,90.0805423 66.6875775,89.7302703 C67.0639737,89.3799983 67.2641814,88.9525894 67.2882067,88.4480309 C67.3042236,88.0852492 67.1840989,87.7641713 66.9278292,87.4847877 C66.5794625,87.0969865 66.024887,86.8968341 65.2640862,86.8843244 C65.1639808,86.8843244 65.0798936,86.8467958 65.0118219,86.7717375 C64.9437503,86.6966792 64.9097149,86.6091125 64.9097149,86.5090348 C64.9137192,86.4047872 64.9517586,86.3172205 65.0238345,86.2463321 C65.0919061,86.1754437 65.1759934,86.14 65.2760988,86.14 C66.2371103,86.1566797 66.9618624,86.4360591 67.4503766,86.9781467 C67.8427896,87.407647 68.0249787,87.9080281 67.9969492,88.479305 C67.9689197,89.184019 67.6966372,89.7803065 67.1800934,90.2681853 C66.6675539,90.7560642 66.0529162,91 65.3361617,91 C64.7034957,91 64.1389099,90.8644801 63.6423873,90.5934363 L63.6423873,90.5934363 Z M65.2280484,86.8843244 C64.2670369,86.8718146 63.5422848,86.5945201 63.0537706,86.0524325 C62.6613576,85.6187624 62.4771664,85.1162963 62.5011917,84.5450194 C62.5332254,83.8403054 62.80751,83.2440179 63.3240538,82.7561391 C63.8365933,82.2682602 64.451231,82.0243244 65.1679855,82.0243244 C65.8006515,82.0243244 66.3652373,82.1619292 66.8617599,82.4371429 C67.458388,82.7623955 67.8347785,83.2356726 67.9909429,83.8569885 C68.0149682,83.9570662 68.0029557,84.0508876 67.9549051,84.1384556 C67.9028503,84.2260237 67.8287735,84.2823165 67.7326723,84.307336 C67.6365712,84.3365253 67.5464777,84.3240158 67.4623892,84.269807 C67.3783007,84.2197681 67.3242446,84.144711 67.3002193,84.0446333 C67.1921055,83.6109631 66.9118146,83.2815456 66.4593384,83.0563707 C66.0829422,82.8645551 65.6524955,82.7686487 65.1679855,82.7686487 C64.6434334,82.7686487 64.1929659,82.9437821 63.8165697,83.2940541 C63.4401735,83.6443261 63.2399658,84.0738199 63.2159405,84.5825483 C63.1999236,84.9411601 63.3200483,85.2601531 63.576318,85.5395367 C63.9246847,85.9273379 64.4792602,86.1274903 65.240061,86.14 C65.3401664,86.1441699 65.4242536,86.1816985 65.4923253,86.2525869 C65.5603969,86.3276452 65.5944323,86.4172968 65.5944323,86.5215444 C65.590428,86.6216222 65.5543907,86.7071039 65.486319,86.7779923 C65.4142431,86.8488807 65.3301559,86.8843244 65.2340547,86.8843244 L65.2280484,86.8843244 Z" id="nexus" stroke="#6660A0" stroke-width="0.5" fill="#6660A0"></path>
                <g id="Group-7">
                    <g id="Group-2" transform="translate(36.500000, 44.500000) rotate(-180.000000) translate(-36.500000, -44.500000) translate(0.000000, 14.000000)">
                        <g id="Group" transform="translate(9.285946, 21.500166) rotate(-240.000000) translate(-9.285946, -21.500166) translate(8.079050, 17.311642)"></g>
                        <g id="Group-4" transform="translate(0.000000, 10.573770)" stroke-linecap="round" stroke-width="3" stroke-linejoin="round">
                            <g id="Group" transform="translate(8.042173, 8.929917) rotate(-240.000000) translate(-8.042173, -8.929917) translate(0.042173, 4.929917)" stroke="#6660A0">
                                <path d="M8.86369205,0.100282473 L8.69307037,7.12842659" id="Line"></path>
                                <polyline id="Path-20650" points="0.277537753 3.2587093 8.69307037 7.33209593 15.7479086 3.2587093"></polyline>
                            </g>
                            <g id="Group" transform="translate(8.042802, 40.699415) scale(1, -1) rotate(-240.000000) translate(-8.042802, -40.699415) translate(0.042802, 36.699415)" stroke="#C7BDE6">
                                <path d="M8.86369205,0.100282473 L8.69307037,7.12842659" id="Line"></path>
                                <polyline id="Path-20650" points="0.277537753 3.2587093 8.69307037 7.33209593 15.7479086 3.2587093"></polyline>
                            </g>
                        </g>
                        <g id="Group" transform="translate(34.299370, 3.560739) scale(1, -1) translate(-34.299370, -3.560739) translate(25.707382, 1.030302)"></g>
                        <g id="Group-3" transform="translate(56.103448, 10.573770)" stroke-linecap="round" stroke-width="3" stroke-linejoin="round">
                            <g id="Group" transform="translate(8.030998, 8.929917) scale(-1, 1) rotate(-240.000000) translate(-8.030998, -8.929917) translate(0.030998, 4.929917)" stroke="#6660A0">
                                <path d="M8.86369205,0.100282473 L8.69307037,7.12842659" id="Line"></path>
                                <polyline id="Path-20650" points="0.277537753 3.2587093 8.69307037 7.33209593 15.7479086 3.2587093"></polyline>
                            </g>
                            <g id="Group" transform="translate(8.030368, 40.699415) scale(-1, -1) rotate(-240.000000) translate(-8.030368, -40.699415) translate(0.030368, 36.699415)" stroke="#C7BDE6">
                                <path d="M8.86369205,0.100282473 L8.69307037,7.12842659" id="Line"></path>
                                <polyline id="Path-20650" points="0.277537753 3.2587093 8.69307037 7.33209593 15.7479086 3.2587093"></polyline>
                            </g>
                        </g>
                        <g id="Group" transform="translate(35.250978, 3.082324) scale(-1, 1) rotate(-180.000000) translate(-35.250978, -3.082324) translate(29.186045, 0.551887)"></g>
                    </g>
                    <g id="Group-5" transform="translate(28.344828, 27.131148)" stroke="#C7BDE6" stroke-width="3" stroke-linecap="round" stroke-linejoin="round">
                        <path d="M4.09378492,15.557377 L0,13.0203329" id="Line" transform="translate(2.046892, 14.288855) scale(-1, 1) translate(-2.046892, -14.288855) "></path>
                        <path d="M9.5,-1.4899797e-09 L9.5,4.78688524" id="Line" transform="translate(9.500000, 2.393443) scale(-1, 1) translate(-9.500000, -2.393443) "></path>
                        <path d="M15.4234565,15.557377 L19.5172414,13.0203329" id="Line" transform="translate(17.470349, 14.288855) scale(-1, 1) translate(-17.470349, -14.288855) "></path>
                    </g>
                    <g id="Group" transform="translate(37.362069, 5.073770) rotate(-180.000000) translate(-37.362069, -5.073770) translate(26.862069, 0.573770)" stroke-linecap="round" stroke-width="3" stroke="#6660A0" stroke-linejoin="round">
                        <g id="Group-6">
                            <path d="M10.5,0.183536538 L10.5,7.20829064" id="Line"></path>
                            <polyline id="Path-20650" points="0.603448276 1.39344262 10.2586207 8.57377049 20.5172414 1.39344262"></polyline>
                        </g>
                    </g>
                </g>
            </g>
        </g>
    </g>
</svg>