<?xml version="1.0" encoding="UTF-8" standalone="no"?>
<svg width="35px" height="34px" viewBox="0 0 35 34" version="1.1" xmlns="http://www.w3.org/2000/svg" xmlns:xlink="http://www.w3.org/1999/xlink">
    <!-- Generator: Sketch 3.8.3 (29802) - http://www.bohemiancoding.com/sketch -->
    <title>Group 7</title>
    <desc>Created with Sketch.</desc>
    <defs></defs>
    <g id="CI-stuff" stroke="none" stroke-width="1" fill="none" fill-rule="evenodd">
        <g id="NXS-new-logo" transform="translate(-145.000000, -45.000000)">
            <g id="Group-7" transform="translate(144.000000, 46.000000)">
                <g id="Group-2" transform="translate(18.500000, 22.452273) rotate(-180.000000) translate(-18.500000, -22.452273) translate(0.000000, 7.063636)">
                    <g id="Group" transform="translate(4.706576, 10.847811) rotate(-240.000000) translate(-4.706576, -10.847811) translate(4.094861, 8.734510)"></g>
                    <g id="Group-4" transform="translate(0.000000, 5.334948)" stroke-linecap="round" stroke-width="1.79999989" stroke-linejoin="round">
                        <g id="Group" transform="translate(4.076170, 4.505549) rotate(-240.000000) translate(-4.076170, -4.505549) translate(0.021375, 2.487367)" stroke="#6660A0">
                            <path d="M4.49255625,0.0505970661 L4.40607676,3.59661524" id="Line"></path>
                            <polyline id="Path-20650" points="0.14066982 1.64416697 4.40607676 3.69937567 7.98181671 1.64416697"></polyline>
                        </g>
                        <g id="Group" transform="translate(4.076489, 20.534705) scale(1, -1) rotate(-240.000000) translate(-4.076489, -20.534705) translate(0.021694, 18.516523)" stroke="#C7BDE6">
                            <path d="M4.49255625,0.0505970661 L4.40607676,3.59661524" id="Line"></path>
                            <polyline id="Path-20650" points="0.14066982 1.64416697 4.40607676 3.69937567 7.98181671 1.64416697"></polyline>
                        </g>
                    </g>
                    <g id="Group-3" transform="translate(28.435994, 5.334948)" stroke-linecap="round" stroke-width="1.79999989" stroke-linejoin="round">
                        <g id="Group" transform="translate(4.070506, 4.505549) scale(-1, 1) rotate(-240.000000) translate(-4.070506, -4.505549) translate(0.015711, 2.487367)" stroke="#6660A0">
                            <path d="M4.49255625,0.0505970661 L4.40607676,3.59661524" id="Line"></path>
                            <polyline id="Path-20650" points="0.14066982 1.64416697 4.40607676 3.69937567 7.98181671 1.64416697"></polyline>
                        </g>
                        <g id="Group" transform="translate(4.070187, 20.534705) scale(-1, -1) rotate(-240.000000) translate(-4.070187, -20.534705) translate(0.015392, 18.516523)" stroke="#C7BDE6">
                            <path d="M4.49255625,0.0505970661 L4.40607676,3.59661524" id="Line"></path>
                            <polyline id="Path-20650" points="0.14066982 1.64416697 4.40607676 3.69937567 7.98181671 1.64416697"></polyline>
                        </g>
                    </g>
                </g>
                <g id="Group-5" transform="translate(14.366556, 13.688897)" stroke="#C7BDE6" stroke-width="1.79999989" stroke-linecap="round" stroke-linejoin="round">
                    <path d="M2.07493208,7.84940386 L0,6.56934979" id="Line" transform="translate(1.037466, 7.209377) scale(-1, 1) translate(-1.037466, -7.209377) "></path>
                    <path d="M4.81506849,-7.51762438e-10 L4.81506849,2.41520119" id="Line" transform="translate(4.815068, 1.207601) scale(-1, 1) translate(-4.815068, -1.207601) "></path>
                    <path d="M7.81736834,7.84940386 L9.89230043,6.56934979" id="Line" transform="translate(8.854834, 7.209377) scale(-1, 1) translate(-8.854834, -7.209377) "></path>
                </g>
                <g id="Group" transform="translate(18.936939, 2.559948) rotate(-180.000000) translate(-18.936939, -2.559948) translate(13.615021, 0.289493)" stroke-linecap="round" stroke-width="1.79999989" stroke="#6660A0" stroke-linejoin="round">
                    <g id="Group-6">
                        <path d="M5.3219178,0.0926025258 L5.32191782,3.63691028" id="Line"></path>
                        <polyline id="Path-20650" points="0.305857345 0.703055142 5.19957487 4.32585693 10.3991497 0.703055142"></polyline>
                    </g>
                </g>
            </g>
        </g>
    </g>
</svg>