<?xml version="1.0" encoding="UTF-8" standalone="no"?>
<svg width="256px" height="256px" viewBox="0 0 256 256" version="1.1" xmlns="http://www.w3.org/2000/svg" xmlns:xlink="http://www.w3.org/1999/xlink">
    <!-- Generator: Sketch 40.1 (33804) - http://www.bohemiancoding.com/sketch -->
    <title>nxs-rocket</title>
    <desc>Created with Sketch.</desc>
    <defs>
        <radialGradient cx="0%" cy="0%" fx="0%" fy="0%" r="143.544416%" id="radialGradient-1">
            <stop stop-color="#725AC1" offset="0%"></stop>
            <stop stop-color="#1E1639" offset="100%"></stop>
        </radialGradient>
        <rect id="path-2" x="17" y="16" width="224" height="224" rx="10"></rect>
        <mask id="mask-3" maskContentUnits="userSpaceOnUse" maskUnits="objectBoundingBox" x="0" y="0" width="224" height="224" fill="white">
            <use xlink:href="#path-2"></use>
        </mask>
        <filter x="-50%" y="-50%" width="200%" height="200%" filterUnits="objectBoundingBox" id="filter-4">
            <feOffset dx="0" dy="2" in="SourceAlpha" result="shadowOffsetOuter1"></feOffset>
            <feGaussianBlur stdDeviation="2.5" in="shadowOffsetOuter1" result="shadowBlurOuter1"></feGaussianBlur>
            <feColorMatrix values="0 0 0 0 0   0 0 0 0 0   0 0 0 0 0  0 0 0 0.5 0" type="matrix" in="shadowBlurOuter1" result="shadowMatrixOuter1"></feColorMatrix>
            <feMerge>
                <feMergeNode in="shadowMatrixOuter1"></feMergeNode>
                <feMergeNode in="SourceGraphic"></feMergeNode>
            </feMerge>
        </filter>
    </defs>
    <g id="rocket.chat" stroke="none" stroke-width="1" fill="none" fill-rule="evenodd">
        <g id="nxs-rocket">
            <use id="Rectangle-4" stroke="#F8F7F5" mask="url(#mask-3)" stroke-width="6" fill="url(#radialGradient-1)" xlink:href="#path-2"></use>
            <g id="Group-8" filter="url(#filter-4)" transform="translate(64.000000, 65.000000)">
                <g id="Group-7">
                    <g id="Group-2" transform="translate(64.500000, 74.835353) rotate(-180.000000) translate(-64.500000, -74.835353) translate(0.000000, 21.835353)">
                        <g id="Group" transform="translate(18.543352, 35.784050) rotate(-240.000000) translate(-18.543352, -35.784050) translate(16.462846, 28.680861)"></g>
                        <g id="Group-4" transform="translate(0.000000, 13.254313)" stroke="#FFFFFF" stroke-width="2" fill="#FFFFFF">
                            <g id="Group" transform="translate(16.973278, 19.287267) rotate(-240.000000) translate(-16.973278, -19.287267) translate(0.473278, 10.287267)">
                                <path d="M20.5402175,10.7648011 L20.7310471,3.03184599 C20.765741,1.62595214 19.6350004,0.458590122 18.2054673,0.424469952 C16.7759343,0.390349781 15.5889438,1.50239207 15.5542499,2.90828593 L15.3492597,11.2150696 L4.46974391,6.03450812 C3.18271476,5.42165605 1.63420309,5.95093151 1.0110463,7.21667795 C0.387889519,8.4824244 0.926064411,10.0053294 2.21309357,10.6181815 L16.7201974,17.5261124 C17.492666,17.8939432 18.4002726,17.8614165 19.1434699,17.4392674 L31.3049427,10.5313364 C32.5432022,9.82798316 32.9672421,8.27059437 32.2520625,7.05281114 C31.5368829,5.83502792 29.9533076,5.418 28.7150481,6.12135321 L20.5402175,10.7648011 Z" id="Combined-Shape"></path>
                            </g>
                            <g id="Group" transform="translate(16.974363, 72.877589) scale(1, -1) rotate(-240.000000) translate(-16.974363, -72.877589) translate(0.474363, 63.877589)">
                                <path d="M20.5402175,10.7648011 L20.7310471,3.03184599 C20.765741,1.62595214 19.6350004,0.458590122 18.2054673,0.424469952 C16.7759343,0.390349781 15.5889438,1.50239207 15.5542499,2.90828593 L15.3492597,11.2150696 L4.46974391,6.03450812 C3.18271476,5.42165605 1.63420309,5.95093151 1.0110463,7.21667795 C0.387889519,8.4824244 0.926064411,10.0053294 2.21309357,10.6181815 L16.7201974,17.5261124 C17.492666,17.8939432 18.4002726,17.8614165 19.1434699,17.4392674 L31.3049427,10.5313364 C32.5432022,9.82798316 32.9672421,8.27059437 32.2520625,7.05281114 C31.5368829,5.83502792 29.9533076,5.418 28.7150481,6.12135321 L20.5402175,10.7648011 Z" id="Combined-Shape"></path>
                            </g>
                        </g>
                        <g id="Group" transform="translate(61.662707, 5.361129) scale(1, -1) translate(-61.662707, -5.361129) translate(46.851421, 1.069838)"></g>
                        <g id="Group-3" transform="translate(95.916303, 13.254313)" stroke="#FFFFFF" stroke-width="2" fill="#FFFFFF">
                            <g id="Group" transform="translate(16.603555, 19.287267) scale(-1, 1) rotate(-240.000000) translate(-16.603555, -19.287267) translate(0.103555, 10.287267)">
                                <path d="M20.5402175,10.7648011 L20.7310471,3.03184599 C20.765741,1.62595214 19.6350004,0.458590122 18.2054673,0.424469952 C16.7759343,0.390349781 15.5889438,1.50239207 15.5542499,2.90828593 L15.3492597,11.2150696 L4.46974391,6.03450812 C3.18271476,5.42165605 1.63420309,5.95093151 1.0110463,7.21667795 C0.387889519,8.4824244 0.926064411,10.0053294 2.21309357,10.6181815 L16.7201974,17.5261124 C17.492666,17.8939432 18.4002726,17.8614165 19.1434699,17.4392674 L31.3049427,10.5313364 C32.5432022,9.82798316 32.9672421,8.27059437 32.2520625,7.05281114 C31.5368829,5.83502792 29.9533076,5.418 28.7150481,6.12135321 L20.5402175,10.7648011 Z" id="Combined-Shape"></path>
                            </g>
                            <g id="Group" transform="translate(16.602470, 72.877589) scale(-1, -1) rotate(-240.000000) translate(-16.602470, -72.877589) translate(0.102470, 63.877589)">
                                <path d="M20.5402175,10.7648011 L20.7310471,3.03184599 C20.765741,1.62595214 19.6350004,0.458590122 18.2054673,0.424469952 C16.7759343,0.390349781 15.5889438,1.50239207 15.5542499,2.90828593 L15.3492597,11.2150696 L4.46974391,6.03450812 C3.18271476,5.42165605 1.63420309,5.95093151 1.0110463,7.21667795 C0.387889519,8.4824244 0.926064411,10.0053294 2.21309357,10.6181815 L16.7201974,17.5261124 C17.492666,17.8939432 18.4002726,17.8614165 19.1434699,17.4392674 L31.3049427,10.5313364 C32.5432022,9.82798316 32.9672421,8.27059437 32.2520625,7.05281114 C31.5368829,5.83502792 29.9533076,5.418 28.7150481,6.12135321 L20.5402175,10.7648011 Z" id="Combined-Shape"></path>
                            </g>
                        </g>
                        <g id="Group" transform="translate(63.303136, 4.549799) scale(-1, 1) rotate(-180.000000) translate(-63.303136, -4.549799) translate(52.848110, 0.258508)"></g>
                    </g>
                    <g id="Group-5" transform="translate(46.622472, 44.533459)" stroke="#FFFFFF" stroke-width="2" fill-opacity="0.200000003" fill="#FFFFFF">
                        <path d="M11.2842604,27.0450021 C12.499624,26.304029 12.8740934,24.7343972 12.1206613,23.5391313 C11.3672292,22.3438654 9.77120501,21.9755883 8.55584148,22.7165614 L1.49877621,27.0190564 C0.283412676,27.7600295 -0.0910567517,29.3296613 0.662375336,30.5249272 C1.41580742,31.7201931 3.01183162,32.0884702 4.22719516,31.3474971 L11.2842604,27.0450021 Z M16.6503863,10.9179313 C16.6503863,12.3242392 17.8095931,13.4642769 19.2395471,13.4642769 C20.669501,13.4642769 21.8287078,12.3242392 21.8287078,10.9179313 L21.8287078,2.8 C21.8287078,1.39369217 20.669501,0.253654419 19.2395471,0.253654419 C17.8095931,0.253654419 16.6503863,1.39369217 16.6503863,2.8 L16.6503863,10.9179313 Z M30.8148984,22.7165614 C29.5995349,21.9755883 28.0035107,22.3438654 27.2500786,23.5391313 C26.4966465,24.7343972 26.871116,26.304029 28.0864795,27.0450021 L35.1435448,31.3474971 C36.3589083,32.0884702 37.9549325,31.7201931 38.7083646,30.5249272 C39.4617967,29.3296613 39.0873272,27.7600295 37.8719637,27.0190564 L30.8148984,22.7165614 Z" id="Combined-Shape"></path>
                    </g>
                    <g id="Group" transform="translate(64.695666, 10.358443) rotate(-180.000000) translate(-64.695666, -10.358443) translate(44.195666, 0.358443)" stroke-width="2" stroke="#FFFFFF" fill="#FFFFFF">
                        <g id="Group-6">
                            <path d="M22.7550104,12.16223 L22.7550103,3.11125395 C22.7550103,1.70494612 21.5958035,0.564908376 20.1658495,0.564908385 C18.7358955,0.564908395 17.5766888,1.70494615 17.5766888,3.11125398 L17.5766889,12.5765207 L4.65107804,3.12006128 C3.50376861,2.28068237 1.88179815,2.51492932 1.02830562,3.64326649 C0.17481309,4.77160366 0.412998754,6.36675271 1.56030819,7.20613162 L18.2043633,19.3830286 C19.0995822,20.0379765 20.3207436,20.0552506 21.2347459,19.4258954 L38.9190545,7.2489984 C40.0904367,6.44241894 40.3751734,4.85466697 39.5550318,3.70265513 C38.7348903,2.55064329 37.1204413,2.27061503 35.9490591,3.07719449 L22.7550104,12.16223 Z" id="Combined-Shape"></path>
                        </g>
                    </g>
                </g>
            </g>
        </g>
    </g>
</svg>