<?xml version="1.0" encoding="UTF-8" standalone="no"?>
<svg width="66px" height="67px" viewBox="0 0 66 67" version="1.1" xmlns="http://www.w3.org/2000/svg" xmlns:xlink="http://www.w3.org/1999/xlink" xmlns:sketch="http://www.bohemiancoding.com/sketch/ns">
    <!-- Generator: Sketch 3.3.3 (12072) - http://www.bohemiancoding.com/sketch -->
    <title>Rectangle 2 + Imported Layers Copy</title>
    <desc>Created with Sketch.</desc>
    <defs>
        <radialGradient cx="0%" cy="0%" fx="0%" fy="0%" r="143.544416%" id="radialGradient-1">
            <stop stop-color="#725AC1" offset="0%"></stop>
            <stop stop-color="#1E1639" offset="100%"></stop>
        </radialGradient>
        <filter x="-50%" y="-50%" width="200%" height="200%" filterUnits="objectBoundingBox" id="filter-2">
            <feOffset dx="0" dy="1" in="SourceAlpha" result="shadowOffsetOuter1"></feOffset>
            <feGaussianBlur stdDeviation="0.5" in="shadowOffsetOuter1" result="shadowBlurOuter1"></feGaussianBlur>
            <feColorMatrix values="0 0 0 0 0   0 0 0 0 0   0 0 0 0 0  0 0 0 0.103609035 0" in="shadowBlurOuter1" type="matrix" result="shadowMatrixOuter1"></feColorMatrix>
            <feMerge>
                <feMergeNode in="shadowMatrixOuter1"></feMergeNode>
                <feMergeNode in="SourceGraphic"></feMergeNode>
            </feMerge>
        </filter>
    </defs>
    <g id="Nexus" stroke="none" stroke-width="1" fill="none" fill-rule="evenodd" sketch:type="MSPage">
        <g id="nexus-copy" sketch:type="MSArtboardGroup" transform="translate(-225.000000, -355.000000)">
            <g id="Group" sketch:type="MSLayerGroup" transform="translate(206.000000, 114.000000)">
                <g id="Rectangle-2-+-Imported-Layers-Copy" transform="translate(23.000000, 243.000000)" sketch:type="MSShapeGroup">
                    <rect id="Rectangle-2" stroke-opacity="0.185858243" stroke="#000000" stroke-width="1.19999993" fill="url(#radialGradient-1)" filter="url(#filter-2)" x="0" y="0" width="58" height="58" rx="8"></rect>
                    <g id="Imported-Layers-Copy" transform="translate(11.479167, 11.479167)" fill="#FFFFFF">
                        <path d="M17.5208333,0 C7.84419389,0 0,7.84419389 0,17.5208333 C0,27.1974728 7.84419389,35.0416667 17.5208333,35.0416667 C27.1974728,35.0416667 35.0416667,27.1974728 35.0416667,17.5208333 C35.0416667,7.84419389 27.1974728,0 17.5208333,0 L17.5208333,0 Z M17.5208333,33.64 C8.61791389,33.64 1.40166667,26.4237528 1.40166667,17.5208333 C1.40166667,8.61791389 8.61791389,1.40166667 17.5208333,1.40166667 C26.4237528,1.40166667 33.64,8.61791389 33.64,17.5208333 C33.64,26.4237528 26.4237528,33.64 17.5208333,33.64 L17.5208333,33.64 Z" id="Fill-1"></path>
                        <path d="M18.9225,17.5208333 C18.9225,19.3897222 16.1191667,19.3897222 16.1191667,17.5208333 C16.1191667,15.6519444 18.9225,15.6519444 18.9225,17.5208333" id="Fill-2"></path>
                    </g>
                </g>
            </g>
        </g>
    </g>
</svg>