<?xml version="1.0" encoding="UTF-8" standalone="no"?>
<svg width="458px" height="299px" viewBox="0 0 458 299" version="1.1" xmlns="http://www.w3.org/2000/svg" xmlns:xlink="http://www.w3.org/1999/xlink">
    <!-- Generator: Sketch 3.7.2 (28276) - http://www.bohemiancoding.com/sketch -->
    <title>Group 6</title>
    <desc>Created with Sketch.</desc>
    <defs>
        <linearGradient x1="12.7675746%" y1="8.7721374%" x2="69.9146563%" y2="71.4007634%" id="linearGradient-1">
            <stop stop-color="#6119DB" offset="0%"></stop>
            <stop stop-color="#A476EA" stop-opacity="0.1" offset="100%"></stop>
        </linearGradient>
        <filter x="-50%" y="-50%" width="200%" height="200%" filterUnits="objectBoundingBox" id="filter-2">
            <feOffset dx="0" dy="2" in="SourceAlpha" result="shadowOffsetOuter1"></feOffset>
            <feGaussianBlur stdDeviation="1.5" in="shadowOffsetOuter1" result="shadowBlurOuter1"></feGaussianBlur>
            <feColorMatrix values="0 0 0 0 0.631472086   0 0 0 0 0.581150444   0 0 0 0 0.797114158  0 0 0 1 0" type="matrix" in="shadowBlurOuter1" result="shadowMatrixOuter1"></feColorMatrix>
            <feMerge>
                <feMergeNode in="shadowMatrixOuter1"></feMergeNode>
                <feMergeNode in="SourceGraphic"></feMergeNode>
            </feMerge>
        </filter>
        <linearGradient x1="100%" y1="50%" x2="3.061617e-15%" y2="50%" id="linearGradient-3">
            <stop stop-color="#F8F7F5" offset="0%"></stop>
            <stop stop-color="#EFF1F3" offset="100%"></stop>
        </linearGradient>
        <filter x="-50%" y="-50%" width="200%" height="200%" filterUnits="objectBoundingBox" id="filter-4">
            <feOffset dx="0" dy="2" in="SourceAlpha" result="shadowOffsetOuter1"></feOffset>
            <feGaussianBlur stdDeviation="1.5" in="shadowOffsetOuter1" result="shadowBlurOuter1"></feGaussianBlur>
            <feColorMatrix values="0 0 0 0 0.631472086   0 0 0 0 0.581150444   0 0 0 0 0.797114158  0 0 0 1 0" type="matrix" in="shadowBlurOuter1" result="shadowMatrixOuter1"></feColorMatrix>
            <feMerge>
                <feMergeNode in="shadowMatrixOuter1"></feMergeNode>
                <feMergeNode in="SourceGraphic"></feMergeNode>
            </feMerge>
        </filter>
        <polygon id="path-5" points="0.0998189373 28.9966529 69.0747046 53.0608855 138.0995 28.9966529 138.0995 23.4663635 69.0747046 0.0498224277 0.0998189373 23.4663635"></polygon>
        <linearGradient x1="50%" y1="0%" x2="50%" y2="100%" id="linearGradient-6">
            <stop stop-color="#F8F7F5" offset="0%"></stop>
            <stop stop-color="#EFF1F3" offset="100%"></stop>
        </linearGradient>
        <radialGradient cx="0%" cy="0%" fx="0%" fy="0%" r="143.544416%" id="radialGradient-7">
            <stop stop-color="#725AC1" offset="0%"></stop>
            <stop stop-color="#1E1639" offset="100%"></stop>
        </radialGradient>
        <polygon id="path-8" points="0.0998189373 28.9966529 69.0747046 53.0608855 138.0995 28.9966529 138.0995 23.4663635 69.0747046 0.0498224277 0.0998189373 23.4663635"></polygon>
        <polygon id="path-9" points="0.0998189373 28.9966529 69.0747046 53.0608855 138.0995 28.9966529 138.0995 23.4663635 69.0747046 0.0498224277 0.0998189373 23.4663635"></polygon>
        <radialGradient cx="0%" cy="0%" fx="0%" fy="0%" r="143.544416%" id="radialGradient-10">
            <stop stop-color="#725AC1" offset="0%"></stop>
            <stop stop-color="#5E43B8" offset="100%"></stop>
        </radialGradient>
        <polygon id="path-11" points="0.0998189373 28.9966529 69.0747046 53.0608855 138.0995 28.9966529 138.0995 23.4663635 69.0747046 0.0498224277 0.0998189373 23.4663635"></polygon>
        <linearGradient x1="0%" y1="100%" x2="100%" y2="0%" id="linearGradient-12">
            <stop stop-color="#D8D8D8" offset="0%"></stop>
            <stop stop-color="#929EA3" offset="100%"></stop>
        </linearGradient>
        <polygon id="path-13" points="0.0998189373 28.9966529 69.0747046 53.0608855 138.0995 28.9966529 138.0995 23.4663635 69.0747046 0.0498224277 0.0998189373 23.4663635"></polygon>
        <polygon id="path-14" points="0.0998189373 28.9966529 69.0747046 53.0608855 138.0995 28.9966529 138.0995 23.4663635 69.0747046 0.0498224277 0.0998189373 23.4663635"></polygon>
        <polygon id="path-15" points="0.0998189373 28.9966529 69.0747046 53.0608855 138.0995 28.9966529 138.0995 23.4663635 69.0747046 0.0498224277 0.0998189373 23.4663635"></polygon>
        <polygon id="path-16" points="0.069929651 20.1816705 48.3913185 36.9303763 96.7476721 20.1816705 96.7476721 16.332589 48.3913185 0.0346764097 0.069929651 16.332589"></polygon>
        <polygon id="path-17" points="0.069929651 20.1816705 48.3913185 36.9303763 96.7476721 20.1816705 96.7476721 16.332589 48.3913185 0.0346764097 0.069929651 16.332589"></polygon>
        <polygon id="path-18" points="0.069929651 20.1816705 48.3913185 36.9303763 96.7476721 20.1816705 96.7476721 16.332589 48.3913185 0.0346764097 0.069929651 16.332589"></polygon>
        <polygon id="path-19" points="0.069929651 20.1816705 48.3913185 36.9303763 96.7476721 20.1816705 96.7476721 16.332589 48.3913185 0.0346764097 0.069929651 16.332589"></polygon>
        <polygon id="path-20" points="0.069929651 20.1816705 48.3913185 36.9303763 96.7476721 20.1816705 96.7476721 16.332589 48.3913185 0.0346764097 0.069929651 16.332589"></polygon>
        <polygon id="path-21" points="0.069929651 20.1816705 48.3913185 36.9303763 96.7476721 20.1816705 96.7476721 16.332589 48.3913185 0.0346764097 0.069929651 16.332589"></polygon>
        <polygon id="path-22" points="0.069929651 20.1816705 48.3913185 36.9303763 96.7476721 20.1816705 96.7476721 16.332589 48.3913185 0.0346764097 0.069929651 16.332589"></polygon>
        <polygon id="path-23" points="0.069929651 20.1816705 48.3913185 36.9303763 96.7476721 20.1816705 96.7476721 16.332589 48.3913185 0.0346764097 0.069929651 16.332589"></polygon>
        <polygon id="path-24" points="0.069929651 20.1816705 48.3913185 36.9303763 96.7476721 20.1816705 96.7476721 16.332589 48.3913185 0.0346764097 0.069929651 16.332589"></polygon>
        <polygon id="path-25" points="0.069929651 20.1816705 48.3913185 36.9303763 96.7476721 20.1816705 96.7476721 16.332589 48.3913185 0.0346764097 0.069929651 16.332589"></polygon>
        <polygon id="path-26" points="0.069929651 20.1816705 48.3913185 36.9303763 96.7476721 20.1816705 96.7476721 16.332589 48.3913185 0.0346764097 0.069929651 16.332589"></polygon>
        <polygon id="path-27" points="0.069929651 20.1816705 48.3913185 36.9303763 96.7476721 20.1816705 96.7476721 16.332589 48.3913185 0.0346764097 0.069929651 16.332589"></polygon>
        <polygon id="path-28" points="0.069929651 20.1816705 48.3913185 36.9303763 96.7476721 20.1816705 96.7476721 16.332589 48.3913185 0.0346764097 0.069929651 16.332589"></polygon>
        <polygon id="path-29" points="0.069929651 20.1816705 48.3913185 36.9303763 96.7476721 20.1816705 96.7476721 16.332589 48.3913185 0.0346764097 0.069929651 16.332589"></polygon>
        <radialGradient cx="0%" cy="0%" fx="0%" fy="0%" r="143.544416%" id="radialGradient-30">
            <stop stop-color="#BFB2EB" offset="0%"></stop>
            <stop stop-color="#5E43B8" offset="100%"></stop>
        </radialGradient>
        <rect id="path-31" x="0" y="0.871967751" width="164.741573" height="66.8846359" rx="6.80000019"></rect>
        <mask id="mask-32" maskContentUnits="userSpaceOnUse" maskUnits="objectBoundingBox" x="0" y="0" width="164.741573" height="66.8846359" fill="white">
            <use xlink:href="#path-31"></use>
        </mask>
        <path d="M51.6628426,15.5731751 C50.742095,15.5731751 49.9312875,15.9328662 49.2441625,16.7490884 C48.8318875,16.0158719 48.0760499,15.5731751 47.0865899,15.5731751 C46.1108723,15.5731751 45.3825198,16.0297062 44.7778498,16.9012655 L44.7778498,15.7115178 L44.0494973,15.7115178 L44.0494973,22.4903124 L44.7778498,22.4903124 L44.7778498,17.8419961 C45.3687773,16.7352542 46.1246148,16.2510546 47.0041349,16.2510546 C48.1997324,16.2510546 48.8868575,17.1364481 48.8868575,18.2570244 L48.8868575,22.4903124 L49.61521,22.4903124 L49.61521,18.2570244 C49.61521,17.9665046 49.587725,17.7036534 49.5190125,17.4546364 C50.10994,16.62458 50.82455,16.2510546 51.6628426,16.2510546 C52.9271526,16.2510546 53.6005352,17.1502824 53.6005352,18.2985272 L53.6005352,22.4903124 L54.3426302,22.4903124 L54.3426302,18.2985272 C54.3426302,16.6937513 53.2982001,15.5731751 51.6628426,15.5731751 L51.6628426,15.5731751 Z M63.903652,15.7115178 L63.903652,16.9012655 C63.3127245,16.071209 62.3370069,15.5731751 61.1688944,15.5731751 C59.0662918,15.5731751 57.6370717,17.1641167 57.6370717,19.1009151 C57.6370717,21.0377136 59.0662918,22.6286552 61.1688944,22.6286552 C62.3370069,22.6286552 63.3127245,22.1306213 63.903652,21.3005648 L63.903652,22.4903124 L64.6320045,22.4903124 L64.6320045,15.7115178 L63.903652,15.7115178 Z M63.903652,20.4705083 C63.3676945,21.3835705 62.4332044,21.9369414 61.2650919,21.9369414 C59.5335368,21.9369414 58.3791668,20.7471938 58.3791668,19.1009151 C58.3791668,17.4546364 59.5335368,16.2510546 61.2650919,16.2510546 C62.4332044,16.2510546 63.3676945,16.8182598 63.903652,17.7313219 L63.903652,20.4705083 Z M71.9804837,15.5731751 C70.8123712,15.5731751 69.9603361,16.071209 69.2594686,17.0257739 L69.2594686,15.7115178 L68.5311161,15.7115178 L68.5311161,22.4903124 L69.2594686,22.4903124 L69.2594686,17.883499 C70.0015636,16.776757 70.8261137,16.2510546 71.8568012,16.2510546 C73.1348538,16.2510546 73.9319188,17.0396082 73.9319188,18.3261958 L73.9319188,22.4903124 L74.6602713,22.4903124 L74.6602713,18.3261958 C74.6602713,16.6384142 73.6570688,15.5731751 71.9804837,15.5731751 L71.9804837,15.5731751 Z M84.2212931,15.7115178 L84.2212931,16.9012655 C83.6303656,16.071209 82.6546481,15.5731751 81.4865355,15.5731751 C79.3839329,15.5731751 77.9547129,17.1641167 77.9547129,19.1009151 C77.9547129,21.0377136 79.3839329,22.6286552 81.4865355,22.6286552 C82.6546481,22.6286552 83.6303656,22.1306213 84.2212931,21.3005648 L84.2212931,22.4903124 L84.9496457,22.4903124 L84.9496457,15.7115178 L84.2212931,15.7115178 Z M84.2212931,20.4705083 C83.6853356,21.3835705 82.7508456,21.9369414 81.582733,21.9369414 C79.851178,21.9369414 78.6968079,20.7471938 78.6968079,19.1009151 C78.6968079,17.4546364 79.851178,16.2510546 81.582733,16.2510546 C82.7508456,16.2510546 83.6853356,16.8182598 84.2212931,17.7313219 L84.2212931,20.4705083 Z M94.6206075,15.7115178 L94.6206075,16.9012655 C94.02968,16.071209 93.0539624,15.5731751 91.8858499,15.5731751 C89.7832473,15.5731751 88.3540272,17.1641167 88.3540272,19.1009151 C88.3540272,21.0377136 89.7832473,22.6286552 91.8858499,22.6286552 C93.0539624,22.6286552 94.02968,22.1306213 94.6206075,21.3005648 L94.6206075,22.1444556 C94.6206075,23.7907343 93.5761774,24.7176307 91.7896524,24.7176307 C90.6902523,24.7176307 89.9344148,24.3856081 89.2610323,23.7492314 L88.9312122,24.3717738 C89.6733073,25.0219847 90.5115998,25.3955101 91.7759099,25.3955101 C94.0434225,25.3955101 95.34896,24.1089226 95.34896,22.1444556 L95.34896,15.7115178 L94.6206075,15.7115178 Z M94.6206075,20.4705083 C94.08465,21.3835705 93.1501599,21.9369414 91.9820474,21.9369414 C90.2504923,21.9369414 89.0961222,20.7471938 89.0961222,19.1009151 C89.0961222,17.4546364 90.2504923,16.2510546 91.9820474,16.2510546 C93.1501599,16.2510546 94.08465,16.8182598 94.6206075,17.7313219 L94.6206075,20.4705083 Z M99.6053766,14.1344105 C99.9351966,14.1344105 100.196304,13.8853936 100.196304,13.5672053 C100.196304,13.2490169 99.9351966,13 99.6053766,13 C99.2892991,13 99.0281916,13.2490169 99.0281916,13.5672053 C99.0281916,13.8853936 99.2892991,14.1344105 99.6053766,14.1344105 L99.6053766,14.1344105 Z M99.9764241,15.7115178 L99.2480716,15.7115178 L99.2480716,22.4903124 L99.9764241,22.4903124 L99.9764241,15.7115178 Z M107.324903,15.5731751 C106.156791,15.5731751 105.304756,16.071209 104.603888,17.0257739 L104.603888,15.7115178 L103.875536,15.7115178 L103.875536,22.4903124 L104.603888,22.4903124 L104.603888,17.883499 C105.345983,16.776757 106.170533,16.2510546 107.201221,16.2510546 C108.479273,16.2510546 109.276338,17.0396082 109.276338,18.3261958 L109.276338,22.4903124 L110.004691,22.4903124 L110.004691,18.3261958 C110.004691,16.6384142 109.001488,15.5731751 107.324903,15.5731751 L107.324903,15.5731751 Z M119.497,15.7115178 L119.497,16.9012655 C118.906073,16.071209 117.930355,15.5731751 116.762243,15.5731751 C114.65964,15.5731751 113.23042,17.1641167 113.23042,19.1009151 C113.23042,21.0377136 114.65964,22.6286552 116.762243,22.6286552 C117.930355,22.6286552 118.906073,22.1306213 119.497,21.3005648 L119.497,22.1444556 C119.497,23.7907343 118.45257,24.7176307 116.666045,24.7176307 C115.566645,24.7176307 114.810808,24.3856081 114.137425,23.7492314 L113.807605,24.3717738 C114.5497,25.0219847 115.387993,25.3955101 116.652303,25.3955101 C118.919815,25.3955101 120.225353,24.1089226 120.225353,22.1444556 L120.225353,15.7115178 L119.497,15.7115178 Z M119.497,20.4705083 C118.961043,21.3835705 118.026553,21.9369414 116.85844,21.9369414 C115.126885,21.9369414 113.972515,20.7471938 113.972515,19.1009151 C113.972515,17.4546364 115.126885,16.2510546 116.85844,16.2510546 C118.026553,16.2510546 118.961043,16.8182598 119.497,17.7313219 L119.497,20.4705083 Z M21.6692477,38.0000715 C23.1396952,38.0000715 24.2528378,37.2945235 24.7338253,36.2569529 L23.6481677,35.6344105 C23.3183477,36.3399585 22.6037377,36.7826553 21.6692477,36.7826553 C20.1713151,36.7826553 19.3192801,35.7865875 19.3192801,34.4723315 C19.3192801,33.1580754 20.1438301,32.1620076 21.6417627,32.1620076 C22.5487677,32.1620076 23.2633777,32.6047044 23.5931977,33.3102524 L24.6788553,32.68771 C24.1978678,31.6501394 23.0847252,30.9445914 21.6417627,30.9445914 C19.3605076,30.9445914 18,32.5216987 18,34.4723315 C18,36.4229642 19.3879926,38.0000715 21.6692477,38.0000715 L21.6692477,38.0000715 Z M30.6530844,38.0000715 C32.8793695,38.0000715 34.2948471,36.4091299 34.2948471,34.4723315 C34.2948471,32.535533 32.8793695,30.9445914 30.6530844,30.9445914 C28.4267993,30.9445914 27.0113218,32.535533 27.0113218,34.4723315 C27.0113218,36.4091299 28.4267993,38.0000715 30.6530844,38.0000715 L30.6530844,38.0000715 Z M30.6530844,36.7826553 C29.2376069,36.7826553 28.3306018,35.8004218 28.3306018,34.4723315 C28.3306018,33.1442411 29.2376069,32.1620076 30.6530844,32.1620076 C32.068562,32.1620076 32.975567,33.1442411 32.975567,34.4723315 C32.975567,35.8004218 32.068562,36.7826553 30.6530844,36.7826553 L30.6530844,36.7826553 Z M41.0798838,30.9445914 C40.0491962,30.9445914 39.3071012,31.3181168 38.6886887,32.0513334 L38.6886887,31.0829342 L37.3968936,31.0829342 L37.3968936,37.8617287 L38.6886887,37.8617287 L38.6886887,33.4070923 C39.3345862,32.5632015 39.9942262,32.1620076 40.8050338,32.1620076 C41.7944938,32.1620076 42.4266488,32.7568814 42.4266488,33.6837778 L42.4266488,37.8617287 L43.7184439,37.8617287 L43.7184439,33.6837778 C43.7184439,31.9959963 42.7427263,30.9445914 41.0798838,30.9445914 L41.0798838,30.9445914 Z M51.3555156,32.2726818 L51.3555156,31.0829342 L48.8268955,31.0829342 L48.8268955,29.007793 L47.5351004,29.007793 L47.5351004,31.0829342 L46.2707904,31.0829342 L46.2707904,32.2726818 L47.5351004,32.2726818 L47.5351004,35.9249303 C47.5351004,37.3360263 48.5795305,38.0000715 49.8163555,38.0000715 C50.3660556,38.0000715 50.8195581,37.8893973 51.2730606,37.6680489 L51.2730606,36.5198041 C50.8745281,36.7134839 50.4347681,36.8103239 49.995008,36.8103239 C49.307883,36.8103239 48.8268955,36.5336384 48.8268955,35.8419246 L48.8268955,32.2726818 L51.3555156,32.2726818 Z M55.6119322,32.2588475 L55.6119322,31.0829342 L54.3201371,31.0829342 L54.3201371,37.8617287 L55.6119322,37.8617287 L55.6119322,33.6561092 C56.1616322,32.6047044 57.3572298,32.2173447 58.2917198,32.2450132 L58.2917198,30.9445914 C57.1373498,30.9169229 56.2715722,31.3181168 55.6119322,32.2588475 L55.6119322,32.2588475 Z M66.1486715,31.0829342 L66.1486715,31.982162 C65.5714865,31.276614 64.705709,30.9445914 63.7712189,30.9445914 C61.7373288,30.9445914 60.2943663,32.5493673 60.2943663,34.4723315 C60.2943663,36.3952956 61.7373288,38.0000715 63.7712189,38.0000715 C64.705709,38.0000715 65.5714865,37.6680489 66.1486715,36.9625009 L66.1486715,37.8617287 L67.4404666,37.8617287 L67.4404666,31.0829342 L66.1486715,31.0829342 Z M66.1486715,35.7450847 C65.5714865,36.4506327 64.870619,36.7826553 63.9910989,36.7826553 C62.4656814,36.7826553 61.6136463,35.8004218 61.6136463,34.4723315 C61.6136463,33.1442411 62.4656814,32.1620076 63.9910989,32.1620076 C64.870619,32.1620076 65.5714865,32.4940302 66.1486715,33.1995782 L66.1486715,35.7450847 Z M74.2117608,38.0000715 C75.6822083,38.0000715 76.7953509,37.2945235 77.2763384,36.2569529 L76.1906809,35.6344105 C75.8608608,36.3399585 75.1462508,36.7826553 74.2117608,36.7826553 C72.7138282,36.7826553 71.8617932,35.7865875 71.8617932,34.4723315 C71.8617932,33.1580754 72.6863432,32.1620076 74.1842758,32.1620076 C75.0912808,32.1620076 75.8058908,32.6047044 76.1357109,33.3102524 L77.2213684,32.68771 C76.7403809,31.6501394 75.6272383,30.9445914 74.1842758,30.9445914 C71.9030207,30.9445914 70.5425131,32.5216987 70.5425131,34.4723315 C70.5425131,36.4229642 71.9305057,38.0000715 74.2117608,38.0000715 L74.2117608,38.0000715 Z M84.5698476,32.2726818 L84.5698476,31.0829342 L82.0412275,31.0829342 L82.0412275,29.007793 L80.7494324,29.007793 L80.7494324,31.0829342 L79.4851224,31.0829342 L79.4851224,32.2726818 L80.7494324,32.2726818 L80.7494324,35.9249303 C80.7494324,37.3360263 81.7938625,38.0000715 83.0306875,38.0000715 C83.5803876,38.0000715 84.0338901,37.8893973 84.4873926,37.6680489 L84.4873926,36.5198041 C84.0888601,36.7134839 83.6491001,36.8103239 83.2093401,36.8103239 C82.522215,36.8103239 82.0412275,36.5336384 82.0412275,35.8419246 L82.0412275,32.2726818 L84.5698476,32.2726818 Z M95.6113009,38.0000715 C97.590221,38.0000715 98.8133035,37.2253521 98.8133035,35.8142561 C98.8133035,34.3339887 97.452796,34.1126403 95.8311809,33.9051262 C94.5531283,33.7391149 93.9759433,33.6284407 93.9759433,33.0612354 C93.9759433,32.535533 94.5256433,32.134339 95.5700734,32.134339 C96.6282459,32.134339 97.2878859,32.4940302 97.535251,33.1165725 L98.579681,32.5908701 C98.194891,31.677808 97.2466584,30.9445914 95.5838159,30.9445914 C93.8797458,30.9445914 92.6566633,31.8023164 92.6566633,33.1580754 C92.6566633,34.5968399 93.9347158,34.8458569 95.4876184,35.0395367 C96.9992934,35.2332166 97.4940235,35.3162222 97.4940235,35.8695932 C97.4940235,36.464467 96.9030959,36.8103239 95.6800134,36.8103239 C94.6768108,36.8103239 93.7423208,36.5613069 93.0551958,35.9664331 L92.4917532,37.0455065 C93.3300458,37.6818832 94.3469908,38.0000715 95.6113009,38.0000715 L95.6113009,38.0000715 Z M106.601543,31.0829342 L104.526425,36.3399585 L102.176458,31.0829342 L100.747237,31.0829342 L100.747237,31.1521055 L103.89427,37.7787231 L102.588733,40.5594123 L102.588733,40.6285837 L104.017953,40.6285837 L108.030763,31.1521055 L108.030763,31.0829342 L106.601543,31.0829342 Z M113.015532,38.0000715 C114.994452,38.0000715 116.217535,37.2253521 116.217535,35.8142561 C116.217535,34.3339887 114.857027,34.1126403 113.235412,33.9051262 C111.957359,33.7391149 111.380174,33.6284407 111.380174,33.0612354 C111.380174,32.535533 111.929874,32.134339 112.974304,32.134339 C114.032477,32.134339 114.692117,32.4940302 114.939482,33.1165725 L115.983912,32.5908701 C115.599122,31.677808 114.650889,30.9445914 112.988047,30.9445914 C111.283977,30.9445914 110.060894,31.8023164 110.060894,33.1580754 C110.060894,34.5968399 111.338947,34.8458569 112.891849,35.0395367 C114.403524,35.2332166 114.898254,35.3162222 114.898254,35.8695932 C114.898254,36.464467 114.307327,36.8103239 113.084244,36.8103239 C112.081042,36.8103239 111.146552,36.5613069 110.459427,35.9664331 L109.895984,37.0455065 C110.734277,37.6818832 111.751222,38.0000715 113.015532,38.0000715 L113.015532,38.0000715 Z M123.373619,32.2726818 L123.373619,31.0829342 L120.844999,31.0829342 L120.844999,29.007793 L119.553204,29.007793 L119.553204,31.0829342 L118.288894,31.0829342 L118.288894,32.2726818 L119.553204,32.2726818 L119.553204,35.9249303 C119.553204,37.3360263 120.597634,38.0000715 121.834459,38.0000715 C122.384159,38.0000715 122.837661,37.8893973 123.291164,37.6680489 L123.291164,36.5198041 C122.892631,36.7134839 122.452871,36.8103239 122.013111,36.8103239 C121.325986,36.8103239 120.844999,36.5336384 120.844999,35.8419246 L120.844999,32.2726818 L123.373619,32.2726818 Z M126.970395,35.053371 L132.494881,35.053371 C132.769731,32.535533 131.28554,30.9445914 129.127968,30.9445914 C126.970395,30.9445914 125.651115,32.5493673 125.651115,34.4446629 C125.651115,36.4921356 127.094078,38.0000715 129.430303,38.0000715 C130.543445,38.0000715 131.381738,37.6403804 132.137576,37.0455065 L131.574133,35.9941017 C130.941978,36.5336384 130.227368,36.8103239 129.389075,36.8103239 C128.014825,36.8103239 127.190275,36.1324444 126.970395,35.053371 L126.970395,35.053371 Z M126.956653,33.946629 C127.135305,32.8675556 127.904885,32.134339 129.127968,32.134339 C130.268595,32.134339 131.093145,32.7430471 131.244313,33.946629 L126.956653,33.946629 Z M143.2515,30.9445914 C142.358237,30.9445914 141.616142,31.2627797 140.970245,31.9406592 C140.530485,31.3181168 139.815875,30.9445914 138.881385,30.9445914 C137.988122,30.9445914 137.397195,31.3181168 136.847495,31.9129906 L136.847495,31.0829342 L135.5557,31.0829342 L135.5557,37.8617287 L136.847495,37.8617287 L136.847495,33.4070923 C137.31474,32.6047044 137.905667,32.1620076 138.675247,32.1620076 C139.719677,32.1620076 140.17318,32.9782298 140.17318,33.6837778 L140.17318,37.8617287 L141.464975,37.8617287 L141.464975,33.6837778 C141.464975,33.4900979 141.451232,33.3102524 141.423747,33.1304068 C141.890992,32.4801959 142.495662,32.1620076 143.224015,32.1620076 C144.268445,32.1620076 144.708205,32.9228927 144.708205,33.6976121 L144.708205,37.8617287 L146,37.8617287 L146,33.6976121 C146,32.0236648 144.859372,30.9445914 143.2515,30.9445914 L143.2515,30.9445914 Z M43.3798733,53.3714878 C44.8503209,53.3714878 45.9634634,52.6659398 46.4307084,51.6283692 L45.7985534,51.2963466 C45.4137634,52.1540716 44.5205009,52.6797741 43.3798733,52.6797741 C41.6483182,52.6797741 40.5076907,51.4900265 40.5076907,49.8437478 C40.5076907,48.1974691 41.6208332,46.9938872 43.3523883,46.9938872 C44.4517884,46.9938872 45.3175659,47.5195896 45.7435834,48.4049832 L46.3757384,48.0591263 C45.8672659,47.0077215 44.7678659,46.3160077 43.3523883,46.3160077 C41.1398457,46.3160077 39.7655957,47.8792808 39.7655957,49.8437478 C39.7655957,51.7943805 41.1673307,53.3714878 43.3798733,53.3714878 L43.3798733,53.3714878 Z M52.5835901,53.3714878 C54.7686477,53.3714878 56.1841253,51.7805462 56.1841253,49.8437478 C56.1841253,47.9069493 54.7686477,46.3160077 52.5835901,46.3160077 C50.38479,46.3160077 48.9693125,47.9069493 48.9693125,49.8437478 C48.9693125,51.7805462 50.38479,53.3714878 52.5835901,53.3714878 L52.5835901,53.3714878 Z M52.5835901,52.6797741 C50.8932625,52.6797741 49.7114075,51.4900265 49.7114075,49.8437478 C49.7114075,48.1974691 50.8932625,46.9938872 52.5835901,46.9938872 C54.2601752,46.9938872 55.4420302,48.1974691 55.4420302,49.8437478 C55.4420302,51.4900265 54.2601752,52.6797741 52.5835901,52.6797741 L52.5835901,52.6797741 Z M67.2018521,46.3160077 C66.2811046,46.3160077 65.4702971,46.6756989 64.783172,47.4919211 C64.370897,46.7587045 63.6150595,46.3160077 62.6255994,46.3160077 C61.6498819,46.3160077 60.9215294,46.7725388 60.3168593,47.6440981 L60.3168593,46.4543505 L59.5885068,46.4543505 L59.5885068,53.2331451 L60.3168593,53.2331451 L60.3168593,48.5848288 C60.9077869,47.4780868 61.6636244,46.9938872 62.5431444,46.9938872 C63.738742,46.9938872 64.425867,47.8792808 64.425867,48.999857 L64.425867,53.2331451 L65.1542195,53.2331451 L65.1542195,48.999857 C65.1542195,48.7093372 65.1267345,48.446486 65.058022,48.1974691 C65.6489496,47.3674126 66.3635596,46.9938872 67.2018521,46.9938872 C68.4661622,46.9938872 69.1395447,47.893115 69.1395447,49.0413598 L69.1395447,53.2331451 L69.8816397,53.2331451 L69.8816397,49.0413598 C69.8816397,47.436584 68.8372097,46.3160077 67.2018521,46.3160077 L67.2018521,46.3160077 Z M77.0652089,46.3160077 C75.8970964,46.3160077 74.9213788,46.8140416 74.3304513,47.6440981 L74.3304513,46.4543505 L73.6020988,46.4543505 L73.6020988,56 L74.3304513,56 L74.3304513,52.0433974 C74.9213788,52.8734539 75.8970964,53.3714878 77.0652089,53.3714878 C79.1678115,53.3714878 80.5970316,51.7805462 80.5970316,49.8437478 C80.5970316,47.9069493 79.1678115,46.3160077 77.0652089,46.3160077 L77.0652089,46.3160077 Z M76.9690114,52.6797741 C75.8008989,52.6797741 74.8664088,52.1264031 74.3304513,51.213341 L74.3304513,48.4741546 C74.8664088,47.5610924 75.8008989,46.9938872 76.9690114,46.9938872 C78.7005665,46.9938872 79.8549366,48.1974691 79.8549366,49.8437478 C79.8549366,51.4900265 78.7005665,52.6797741 76.9690114,52.6797741 L76.9690114,52.6797741 Z M84.0014131,53.2331451 L84.7297657,53.2331451 L84.7297657,43.2724673 L84.0014131,43.2724673 L84.0014131,53.2331451 Z M88.8762422,50.2449417 L94.8679725,50.2449417 C95.0878525,47.9761207 93.7136024,46.3160077 91.5835149,46.3160077 C89.4534273,46.3160077 88.1341472,47.9207836 88.1341472,49.857582 C88.1341472,51.8635519 89.5221398,53.3714878 91.8308799,53.3714878 C92.9715074,53.3714878 93.7960574,52.9979624 94.5381525,52.3339172 L94.222075,51.7390434 C93.5486924,52.37542 92.7928549,52.6936084 91.8171374,52.6936084 C90.1130673,52.6936084 89.0411522,51.7390434 88.8762422,50.2449417 L88.8762422,50.2449417 Z M88.8624997,49.6085651 C88.9724397,48.0452921 90.0306123,46.9938872 91.5972574,46.9938872 C93.1226749,46.9938872 94.1258775,48.0452921 94.1808475,49.6085651 L88.8624997,49.6085651 Z M97.117984,53.2331451 L97.942534,53.2331451 L100.402442,50.2864446 L102.862349,53.2331451 L103.686899,53.2331451 L103.686899,53.177808 L100.842202,49.7469078 L103.521989,46.5096876 L103.521989,46.4543505 L102.711182,46.4543505 L100.402442,49.1935369 L98.107444,46.4543505 L97.282894,46.4543505 L97.282894,46.5096876 L99.9764241,49.7469078 L97.117984,53.177808 L97.117984,53.2331451 Z M107.187478,44.8772432 C107.517298,44.8772432 107.778406,44.6282262 107.778406,44.3100379 C107.778406,43.9918496 107.517298,43.7428326 107.187478,43.7428326 C106.871401,43.7428326 106.610293,43.9918496 106.610293,44.3100379 C106.610293,44.6282262 106.871401,44.8772432 107.187478,44.8772432 L107.187478,44.8772432 Z M107.558526,46.4543505 L106.830173,46.4543505 L106.830173,53.2331451 L107.558526,53.2331451 L107.558526,46.4543505 Z M115.70407,47.1322299 L115.70407,46.4543505 L112.763175,46.4543505 L112.763175,44.3792093 L112.034822,44.3792093 L112.034822,46.4543505 L110.688057,46.4543505 L110.688057,47.1322299 L112.034822,47.1322299 L112.034822,51.4070208 C112.034822,52.7489454 112.969312,53.3714878 114.137425,53.3714878 C114.71461,53.3714878 115.15437,53.2469793 115.59413,53.0117967 L115.59413,52.3339172 C115.168113,52.5829342 114.755838,52.6936084 114.233623,52.6936084 C113.326617,52.6936084 112.763175,52.2647458 112.763175,51.3793523 L112.763175,47.1322299 L115.70407,47.1322299 Z M124.179434,46.4543505 L121.540874,52.37542 L118.654949,46.4543505 L117.844142,46.4543505 L117.844142,46.5096876 L121.169827,53.1639737 L119.836804,55.9446629 L119.836804,56 L120.633869,56 L124.976499,46.5096876 L124.976499,46.4543505 L124.179434,46.4543505 Z" id="path-33"></path>
        <filter x="-50%" y="-50%" width="200%" height="200%" filterUnits="objectBoundingBox" id="filter-34">
            <feOffset dx="0" dy="3" in="SourceAlpha" result="shadowOffsetOuter1"></feOffset>
            <feGaussianBlur stdDeviation="3" in="shadowOffsetOuter1" result="shadowBlurOuter1"></feGaussianBlur>
            <feColorMatrix values="0 0 0 0 0   0 0 0 0 0   0 0 0 0 0  0 0 0 0.237347147 0" type="matrix" in="shadowBlurOuter1"></feColorMatrix>
        </filter>
    </defs>
    <g id="Nexus---Site" stroke="none" stroke-width="1" fill="none" fill-rule="evenodd">
        <g id="Artboard-19" transform="translate(-110.000000, -90.000000)">
            <g id="Group-6" transform="translate(113.000000, 91.000000)">
                <polygon id="Shape-Copy-2" fill="url(#linearGradient-1)" opacity="0.5" points="345.663647 286.08 185.340824 220.507001 278.462464 185.611429 432.065169 250.034024"></polygon>
                <polygon id="Shape-Copy-3" fill="url(#linearGradient-1)" opacity="0.5" transform="translate(143.766667, 247.765714) scale(-1, 1) translate(-143.766667, -247.765714) " points="180.727318 298 20.4044944 232.427001 113.526134 197.531429 267.128839 261.954024"></polygon>
                <g id="select-location-e2a393dc-copy-25" filter="url(#filter-2)" transform="translate(69.715356, 153.257143)">
                    <g id="Layer_1">
                        <polygon id="Shape" fill="url(#linearGradient-3)" points="0.228441703 66.2471129 158.081658 121.225387 316.049096 66.2471129 316.049096 53.6123542 158.081658 0.113826654 0.228441703 53.6123542"></polygon>
                        <polyline id="Shape" stroke="#8D86C9" stroke-width="1.70000005" points="108.167146 17.5293048 266.134584 71.0278323 266.134584 83.662591"></polyline>
                        <polyline id="Shape" stroke="#8D86C9" stroke-width="1.70000005" points="53.3411376 36.0830494 211.308575 89.581577 211.308575 102.216336"></polyline>
                        <polyline id="Shape" stroke="#8D86C9" stroke-width="1.70000005" points="208.567274 17.8707847 50.5998371 71.3693123 50.5998371 84.0040709"></polyline>
                        <polyline id="Shape" stroke="#8D86C9" stroke-width="1.70000005" points="263.393283 36.4245294 105.425846 89.923057 105.425846 102.557816"></polyline>
                        <polyline id="Shape" stroke="#8D86C9" stroke-width="1.70000005" points="316.049096 53.6123542 158.081658 108.590628 0.228441703 53.6123542"></polyline>
                        <path d="M158.134831,108.476802 L158.134831,121.11156" id="Shape" stroke="#8D86C9" stroke-width="1.70000005"></path>
                    </g>
                </g>
                <g id="Group-5-Copy" filter="url(#filter-4)">
                    <g id="Group" transform="translate(0.000000, 4.092832)">
                        <g id="select-location-e2a393dc-copy" transform="translate(0.406855, 174.524321)">
                            <g id="Layer_1">
                                <g id="Shape" opacity="0.461170709" fill="#C5BFF6">
                                    <use xlink:href="#path-5"></use>
                                    <use fill-opacity="0.5" xlink:href="#path-5"></use>
                                </g>
                                <polyline id="Shape" stroke="url(#linearGradient-6)" stroke-width="0.884000021" opacity="0.27" points="47.2642668 7.67265387 116.289062 31.0891949 116.289062 36.6194844"></polyline>
                                <polyline id="Shape" stroke="url(#linearGradient-6)" stroke-width="0.884000021" opacity="0.27" points="23.3077219 15.7937096 92.332517 39.2102506 92.332517 44.7405401"></polyline>
                                <polyline id="Shape" stroke="url(#linearGradient-6)" stroke-width="0.884000021" opacity="0.27" points="91.1346897 7.82212116 22.1098946 31.2386622 22.1098946 36.7689517"></polyline>
                                <polyline id="Shape" stroke="url(#linearGradient-6)" stroke-width="0.884000021" opacity="0.27" points="115.091235 15.9431769 46.0664395 39.3597179 46.0664395 44.8900074"></polyline>
                                <polyline id="Shape" stroke="url(#linearGradient-6)" stroke-width="0.884000021" opacity="0.27" points="138.0995 23.4663635 69.0747046 47.5305961 0.0998189373 23.4663635"></polyline>
                                <path id="Shape" stroke="url(#linearGradient-6)" stroke-width="0.884000021" opacity="0.27"></path>
                            </g>
                        </g>
                        <g id="select-location-e2a393dc-copy-2" transform="translate(102.498593, 174.524321)">
                            <g id="Layer_1">
                                <g id="Shape">
                                    <use fill="url(#radialGradient-7)" xlink:href="#path-8"></use>
                                    <use fill-opacity="0.5" fill="#C5BFF6" xlink:href="#path-8"></use>
                                </g>
                                <polygon id="Shape" points="0.0998189373 28.9966529 69.0747046 53.0608855 138.0995 28.9966529 138.0995 23.4663635 69.0747046 0.0498224277 0.0998189373 23.4663635"></polygon>
                                <polyline id="Shape" stroke="url(#linearGradient-6)" stroke-width="0.884000021" opacity="0.27" points="47.2642668 7.67265387 116.289062 31.0891949 116.289062 36.6194844"></polyline>
                                <polyline id="Shape" stroke="url(#linearGradient-6)" stroke-width="0.884000021" opacity="0.27" points="23.3077219 15.7937096 92.332517 39.2102506 92.332517 44.7405401"></polyline>
                                <polyline id="Shape" stroke="url(#linearGradient-6)" stroke-width="0.884000021" opacity="0.27" points="91.1346897 7.82212116 22.1098946 31.2386622 22.1098946 36.7689517"></polyline>
                                <polyline id="Shape" stroke="url(#linearGradient-6)" stroke-width="0.884000021" opacity="0.27" points="115.091235 15.9431769 46.0664395 39.3597179 46.0664395 44.8900074"></polyline>
                                <polyline id="Shape" stroke="url(#linearGradient-6)" stroke-width="0.884000021" opacity="0.27" points="138.0995 23.4663635 69.0747046 47.5305961 0.0998189373 23.4663635"></polyline>
                                <path id="Shape" stroke="url(#linearGradient-6)" stroke-width="0.884000021" opacity="0.27"></path>
                            </g>
                        </g>
                        <g id="select-location-e2a393dc-copy-3" transform="translate(33.373979, 174.524321)">
                            <g id="Layer_1">
                                <g id="Shape">
                                    <use fill="url(#radialGradient-7)" xlink:href="#path-9"></use>
                                    <use fill-opacity="0.5" fill="#C5BFF6" xlink:href="#path-9"></use>
                                </g>
                                <polygon id="Shape" points="0.0998189373 28.9966529 69.0747046 53.0608855 138.0995 28.9966529 138.0995 23.4663635 69.0747046 0.0498224277 0.0998189373 23.4663635"></polygon>
                                <polyline id="Shape" stroke="url(#linearGradient-6)" stroke-width="0.884000021" opacity="0.27" points="47.2642668 7.67265387 116.289062 31.0891949 116.289062 36.6194844"></polyline>
                                <polyline id="Shape" stroke="url(#linearGradient-6)" stroke-width="0.884000021" opacity="0.27" points="23.3077219 15.7937096 92.332517 39.2102506 92.332517 44.7405401"></polyline>
                                <polyline id="Shape" stroke="url(#linearGradient-6)" stroke-width="0.884000021" opacity="0.27" points="91.1346897 7.82212116 22.1098946 31.2386622 22.1098946 36.7689517"></polyline>
                                <polyline id="Shape" stroke="url(#linearGradient-6)" stroke-width="0.884000021" opacity="0.27" points="115.091235 15.9431769 46.0664395 39.3597179 46.0664395 44.8900074"></polyline>
                                <polyline id="Shape" stroke="url(#linearGradient-6)" stroke-width="0.884000021" opacity="0.27" points="138.0995 23.4663635 69.0747046 47.5305961 0.0998189373 23.4663635"></polyline>
                                <path id="Shape" stroke="url(#linearGradient-6)" stroke-width="0.884000021" opacity="0.27"></path>
                            </g>
                        </g>
                        <g id="select-location-e2a393dc-copy-4" transform="translate(69.531469, 174.524321)">
                            <g id="Layer_1">
                                <polygon id="Shape" fill="url(#radialGradient-10)" points="0.0998189373 28.9966529 69.0747046 53.0608855 138.0995 28.9966529 138.0995 23.4663635 69.0747046 0.0498224277 0.0998189373 23.4663635"></polygon>
                                <polyline id="Shape" stroke="url(#linearGradient-6)" stroke-width="0.884000021" opacity="0.27" points="47.2642668 7.67265387 116.289062 31.0891949 116.289062 36.6194844"></polyline>
                                <polyline id="Shape" stroke="url(#linearGradient-6)" stroke-width="0.884000021" opacity="0.27" points="23.3077219 15.7937096 92.332517 39.2102506 92.332517 44.7405401"></polyline>
                                <polyline id="Shape" stroke="url(#linearGradient-6)" stroke-width="0.884000021" opacity="0.27" points="91.1346897 7.82212116 22.1098946 31.2386622 22.1098946 36.7689517"></polyline>
                                <polyline id="Shape" stroke="url(#linearGradient-6)" stroke-width="0.884000021" opacity="0.27" points="115.091235 15.9431769 46.0664395 39.3597179 46.0664395 44.8900074"></polyline>
                                <polyline id="Shape" stroke="url(#linearGradient-6)" stroke-width="0.884000021" opacity="0.27" points="138.0995 23.4663635 69.0747046 47.5305961 0.0998189373 23.4663635"></polyline>
                                <path id="Shape" stroke="url(#linearGradient-6)" stroke-width="0.884000021" opacity="0.27"></path>
                            </g>
                        </g>
                        <g id="select-location-e2a393dc-copy-5" transform="translate(69.531469, 138.273523)">
                            <g id="Layer_1">
                                <g id="Shape">
                                    <use fill="url(#radialGradient-7)" xlink:href="#path-11"></use>
                                    <use fill-opacity="0.5" fill="#C5BFF6" xlink:href="#path-11"></use>
                                </g>
                                <polygon id="Shape" points="0.0998189373 28.9966529 69.0747046 53.0608855 138.0995 28.9966529 138.0995 23.4663635 69.0747046 0.0498224277 0.0998189373 23.4663635"></polygon>
                                <polyline id="Shape" stroke="url(#linearGradient-6)" stroke-width="0.884000021" opacity="0.27" points="47.2642668 7.67265387 116.289062 31.0891949 116.289062 36.6194844"></polyline>
                                <polyline id="Shape" stroke="url(#linearGradient-6)" stroke-width="0.884000021" opacity="0.27" points="23.3077219 15.7937096 92.332517 39.2102506 92.332517 44.7405401"></polyline>
                                <polyline id="Shape" stroke="url(#linearGradient-6)" stroke-width="0.884000021" opacity="0.27" points="91.1346897 7.82212116 22.1098946 31.2386622 22.1098946 36.7689517"></polyline>
                                <polyline id="Shape" stroke="url(#linearGradient-6)" stroke-width="0.884000021" opacity="0.27" points="115.091235 15.9431769 46.0664395 39.3597179 46.0664395 44.8900074"></polyline>
                                <polyline id="Shape" stroke="url(#linearGradient-6)" stroke-width="0.884000021" opacity="0.27" points="138.0995 23.4663635 69.0747046 47.5305961 0.0998189373 23.4663635"></polyline>
                                <path id="Shape" stroke="url(#linearGradient-6)" stroke-width="0.884000021" opacity="0.27"></path>
                            </g>
                        </g>
                        <path d="M138.656083,91.3607251 L138.656083,162.303597" id="Line-Copy-5" stroke="url(#linearGradient-12)" stroke-width="0.884000021" stroke-linecap="square" stroke-dasharray="2.121599900627132,2.121599900627132"></path>
                        <g id="select-location-e2a393dc-copy-7" transform="translate(62.454656, 51.210468)">
                            <g id="Layer_1">
                                <polygon id="Shape" fill="url(#radialGradient-10)" points="0.0998189373 28.9966529 69.0747046 53.0608855 138.0995 28.9966529 138.0995 23.4663635 69.0747046 0.0498224277 0.0998189373 23.4663635"></polygon>
                                <polyline id="Shape" stroke="url(#linearGradient-6)" stroke-width="0.884000021" opacity="0.27" points="47.2642668 7.67265387 116.289062 31.0891949 116.289062 36.6194844"></polyline>
                                <polyline id="Shape" stroke="url(#linearGradient-6)" stroke-width="0.884000021" opacity="0.27" points="23.3077219 15.7937096 92.332517 39.2102506 92.332517 44.7405401"></polyline>
                                <polyline id="Shape" stroke="url(#linearGradient-6)" stroke-width="0.884000021" opacity="0.27" points="91.1346897 7.82212116 22.1098946 31.2386622 22.1098946 36.7689517"></polyline>
                                <polyline id="Shape" stroke="url(#linearGradient-6)" stroke-width="0.884000021" opacity="0.27" points="115.091235 15.9431769 46.0664395 39.3597179 46.0664395 44.8900074"></polyline>
                                <polyline id="Shape" stroke="url(#linearGradient-6)" stroke-width="0.884000021" opacity="0.27" points="138.0995 23.4663635 69.0747046 47.5305961 0.0998189373 23.4663635"></polyline>
                                <path id="Shape" stroke="url(#linearGradient-6)" stroke-width="0.884000021" opacity="0.27"></path>
                            </g>
                        </g>
                        <g id="Group-4" transform="translate(268.905013, 86.728015) scale(-1, 1) translate(-268.905013, -86.728015) translate(148.178422, 0.733729)">
                            <g id="select-location-e2a393dc-copy-11" transform="translate(0.000000, 116.215795)">
                                <g id="Layer_1">
                                    <polygon id="Shape" fill="#403788" points="0.0998189373 28.9966529 69.0747046 53.0608855 138.0995 28.9966529 138.0995 23.4663635 69.0747046 0.0498224277 0.0998189373 23.4663635"></polygon>
                                    <polyline id="Shape" stroke="url(#linearGradient-6)" stroke-width="0.884000021" opacity="0.27" points="47.2642668 7.67265387 116.289062 31.0891949 116.289062 36.6194844"></polyline>
                                    <polyline id="Shape" stroke="url(#linearGradient-6)" stroke-width="0.884000021" opacity="0.27" points="23.3077219 15.7937096 92.332517 39.2102506 92.332517 44.7405401"></polyline>
                                    <polyline id="Shape" stroke="url(#linearGradient-6)" stroke-width="0.884000021" opacity="0.27" points="91.1346897 7.82212116 22.1098946 31.2386622 22.1098946 36.7689517"></polyline>
                                    <polyline id="Shape" stroke="url(#linearGradient-6)" stroke-width="0.884000021" opacity="0.27" points="115.091235 15.9431769 46.0664395 39.3597179 46.0664395 44.8900074"></polyline>
                                    <polyline id="Shape" stroke="url(#linearGradient-6)" stroke-width="0.884000021" opacity="0.27" points="138.0995 23.4663635 69.0747046 47.5305961 0.0998189373 23.4663635"></polyline>
                                    <path id="Shape" stroke="url(#linearGradient-6)" stroke-width="0.884000021" opacity="0.27"></path>
                                </g>
                            </g>
                            <g id="select-location-e2a393dc-copy-17" transform="translate(102.091738, 116.215795)">
                                <g id="Layer_1">
                                    <g id="Shape" fill="#C5BFF6">
                                        <use xlink:href="#path-13"></use>
                                        <use fill-opacity="0.5" xlink:href="#path-13"></use>
                                    </g>
                                    <polyline id="Shape" stroke="url(#linearGradient-6)" stroke-width="0.884000021" opacity="0.27" points="47.2642668 7.67265387 116.289062 31.0891949 116.289062 36.6194844"></polyline>
                                    <polyline id="Shape" stroke="url(#linearGradient-6)" stroke-width="0.884000021" opacity="0.27" points="23.3077219 15.7937096 92.332517 39.2102506 92.332517 44.7405401"></polyline>
                                    <polyline id="Shape" stroke="url(#linearGradient-6)" stroke-width="0.884000021" opacity="0.27" points="91.1346897 7.82212116 22.1098946 31.2386622 22.1098946 36.7689517"></polyline>
                                    <polyline id="Shape" stroke="url(#linearGradient-6)" stroke-width="0.884000021" opacity="0.27" points="115.091235 15.9431769 46.0664395 39.3597179 46.0664395 44.8900074"></polyline>
                                    <polyline id="Shape" stroke="url(#linearGradient-6)" stroke-width="0.884000021" opacity="0.27" points="138.0995 23.4663635 69.0747046 47.5305961 0.0998189373 23.4663635"></polyline>
                                    <path id="Shape" stroke="url(#linearGradient-6)" stroke-width="0.884000021" opacity="0.27"></path>
                                </g>
                            </g>
                            <g id="select-location-e2a393dc-copy-18" transform="translate(32.967124, 116.215795)">
                                <g id="Layer_1">
                                    <g id="Shape">
                                        <use fill="url(#radialGradient-7)" xlink:href="#path-14"></use>
                                        <use fill-opacity="0.5" fill="#C5BFF6" xlink:href="#path-14"></use>
                                    </g>
                                    <polygon id="Shape" points="0.0998189373 28.9966529 69.0747046 53.0608855 138.0995 28.9966529 138.0995 23.4663635 69.0747046 0.0498224277 0.0998189373 23.4663635"></polygon>
                                    <polyline id="Shape" stroke="url(#linearGradient-6)" stroke-width="0.884000021" opacity="0.27" points="47.2642668 7.67265387 116.289062 31.0891949 116.289062 36.6194844"></polyline>
                                    <polyline id="Shape" stroke="url(#linearGradient-6)" stroke-width="0.884000021" opacity="0.27" points="23.3077219 15.7937096 92.332517 39.2102506 92.332517 44.7405401"></polyline>
                                    <polyline id="Shape" stroke="url(#linearGradient-6)" stroke-width="0.884000021" opacity="0.27" points="91.1346897 7.82212116 22.1098946 31.2386622 22.1098946 36.7689517"></polyline>
                                    <polyline id="Shape" stroke="url(#linearGradient-6)" stroke-width="0.884000021" opacity="0.27" points="115.091235 15.9431769 46.0664395 39.3597179 46.0664395 44.8900074"></polyline>
                                    <polyline id="Shape" stroke="url(#linearGradient-6)" stroke-width="0.884000021" opacity="0.27" points="138.0995 23.4663635 69.0747046 47.5305961 0.0998189373 23.4663635"></polyline>
                                    <path id="Shape" stroke="url(#linearGradient-6)" stroke-width="0.884000021" opacity="0.27"></path>
                                </g>
                            </g>
                            <g id="select-location-e2a393dc-copy-19" transform="translate(69.124614, 116.215795)">
                                <g id="Layer_1">
                                    <polygon id="Shape" fill="#1D1244" points="0.0998189373 28.9966529 69.0747046 53.0608855 138.0995 28.9966529 138.0995 23.4663635 69.0747046 0.0498224277 0.0998189373 23.4663635"></polygon>
                                    <polyline id="Shape" stroke="url(#linearGradient-6)" stroke-width="0.884000021" opacity="0.27" points="47.2642668 7.67265387 116.289062 31.0891949 116.289062 36.6194844"></polyline>
                                    <polyline id="Shape" stroke="url(#linearGradient-6)" stroke-width="0.884000021" opacity="0.27" points="23.3077219 15.7937096 92.332517 39.2102506 92.332517 44.7405401"></polyline>
                                    <polyline id="Shape" stroke="url(#linearGradient-6)" stroke-width="0.884000021" opacity="0.27" points="91.1346897 7.82212116 22.1098946 31.2386622 22.1098946 36.7689517"></polyline>
                                    <polyline id="Shape" stroke="url(#linearGradient-6)" stroke-width="0.884000021" opacity="0.27" points="115.091235 15.9431769 46.0664395 39.3597179 46.0664395 44.8900074"></polyline>
                                    <polyline id="Shape" stroke="url(#linearGradient-6)" stroke-width="0.884000021" opacity="0.27" points="138.0995 23.4663635 69.0747046 47.5305961 0.0998189373 23.4663635"></polyline>
                                    <path id="Shape" stroke="url(#linearGradient-6)" stroke-width="0.884000021" opacity="0.27"></path>
                                </g>
                            </g>
                            <g id="select-location-e2a393dc-copy-20" transform="translate(69.124614, 79.964997)">
                                <g id="Layer_1">
                                    <polygon id="Shape" fill="#403788" points="0.0998189373 28.9966529 69.0747046 53.0608855 138.0995 28.9966529 138.0995 23.4663635 69.0747046 0.0498224277 0.0998189373 23.4663635"></polygon>
                                    <polyline id="Shape" stroke="url(#linearGradient-6)" stroke-width="0.884000021" opacity="0.27" points="47.2642668 7.67265387 116.289062 31.0891949 116.289062 36.6194844"></polyline>
                                    <polyline id="Shape" stroke="url(#linearGradient-6)" stroke-width="0.884000021" opacity="0.27" points="23.3077219 15.7937096 92.332517 39.2102506 92.332517 44.7405401"></polyline>
                                    <polyline id="Shape" stroke="url(#linearGradient-6)" stroke-width="0.884000021" opacity="0.27" points="91.1346897 7.82212116 22.1098946 31.2386622 22.1098946 36.7689517"></polyline>
                                    <polyline id="Shape" stroke="url(#linearGradient-6)" stroke-width="0.884000021" opacity="0.27" points="115.091235 15.9431769 46.0664395 39.3597179 46.0664395 44.8900074"></polyline>
                                    <polyline id="Shape" stroke="url(#linearGradient-6)" stroke-width="0.884000021" opacity="0.27" points="138.0995 23.4663635 69.0747046 47.5305961 0.0998189373 23.4663635"></polyline>
                                    <path id="Shape" stroke="url(#linearGradient-6)" stroke-width="0.884000021" opacity="0.27"></path>
                                </g>
                            </g>
                            <path d="M136.455056,54.3463739 L136.455056,125.289245" id="Line-Copy-7" stroke="#403788" stroke-width="0.850000024" stroke-linecap="round" stroke-linejoin="round" stroke-dasharray="3.400000095367432,3.400000095367432"></path>
                            <path d="M202.769663,29.5031693 L202.769663,100.446041" id="Line-Copy-11" stroke="#403788" stroke-width="0.850000024" stroke-linecap="round" stroke-linejoin="round" stroke-dasharray="3.400000095367432,3.400000095367432"></path>
                            <path d="M65.0748706,51.3677245 L65.0748706,102.220556" id="Line-Copy-10" stroke="#403788" stroke-width="0.850000024" stroke-linecap="round" stroke-linejoin="round" stroke-dasharray="3.400000095367432,3.400000095367432"></path>
                            <g id="select-location-e2a393dc-copy-21" transform="translate(68.061158, 0.000000)">
                                <g id="Layer_1">
                                    <g id="Shape">
                                        <use fill="url(#radialGradient-7)" xlink:href="#path-15"></use>
                                        <use fill-opacity="0.5" fill="#C5BFF6" xlink:href="#path-15"></use>
                                    </g>
                                    <polygon id="Shape" points="0.0998189373 28.9966529 69.0747046 53.0608855 138.0995 28.9966529 138.0995 23.4663635 69.0747046 0.0498224277 0.0998189373 23.4663635"></polygon>
                                    <polyline id="Shape" stroke="url(#linearGradient-6)" stroke-width="0.884000021" opacity="0.27" points="47.2642668 7.67265387 116.289062 31.0891949 116.289062 36.6194844"></polyline>
                                    <polyline id="Shape" stroke="url(#linearGradient-6)" stroke-width="0.884000021" opacity="0.27" points="23.3077219 15.7937096 92.332517 39.2102506 92.332517 44.7405401"></polyline>
                                    <polyline id="Shape" stroke="url(#linearGradient-6)" stroke-width="0.884000021" opacity="0.27" points="91.1346897 7.82212116 22.1098946 31.2386622 22.1098946 36.7689517"></polyline>
                                    <polyline id="Shape" stroke="url(#linearGradient-6)" stroke-width="0.884000021" opacity="0.27" points="115.091235 15.9431769 46.0664395 39.3597179 46.0664395 44.8900074"></polyline>
                                    <polyline id="Shape" stroke="url(#linearGradient-6)" stroke-width="0.884000021" opacity="0.27" points="138.0995 23.4663635 69.0747046 47.5305961 0.0998189373 23.4663635"></polyline>
                                    <path id="Shape" stroke="url(#linearGradient-6)" stroke-width="0.884000021" opacity="0.27"></path>
                                </g>
                            </g>
                        </g>
                    </g>
                    <g id="Group-4-Copy" transform="translate(184.101394, 133.251061) scale(-1, 1) translate(-184.101394, -133.251061) translate(61.674428, 60.028204)">
                        <g id="select-location-e2a393dc-copy-11" transform="translate(74.929155, 80.886193)">
                            <g id="Layer_1">
                                <g id="Shape">
                                    <use fill="url(#radialGradient-7)" xlink:href="#path-16"></use>
                                    <use fill-opacity="0.5" fill="#C5BFF6" xlink:href="#path-16"></use>
                                </g>
                                <polygon id="Shape" points="0.069929651 20.1816705 48.3913185 36.9303763 96.7476721 20.1816705 96.7476721 16.332589 48.3913185 0.0346764097 0.069929651 16.332589"></polygon>
                                <polyline id="Shape" stroke="url(#linearGradient-6)" stroke-width="0.850000024" opacity="0.27" points="33.1116897 5.3401671 81.4680434 21.6380797 81.4680434 25.4871611"></polyline>
                                <polyline id="Shape" stroke="url(#linearGradient-6)" stroke-width="0.850000024" opacity="0.27" points="16.3285735 10.9924219 64.6849271 27.2903344 64.6849271 31.1394159"></polyline>
                                <polyline id="Shape" stroke="url(#linearGradient-6)" stroke-width="0.850000024" opacity="0.27" points="63.8457713 5.44419632 15.4894177 21.7421089 15.4894177 25.5911904"></polyline>
                                <polyline id="Shape" stroke="url(#linearGradient-6)" stroke-width="0.850000024" opacity="0.27" points="80.6288876 11.0964511 32.2725339 27.3943637 32.2725339 31.2434451"></polyline>
                                <polyline id="Shape" stroke="url(#linearGradient-6)" stroke-width="0.850000024" opacity="0.27" points="96.7476721 16.332589 48.3913185 33.0812949 0.069929651 16.332589"></polyline>
                                <path id="Shape" stroke="url(#linearGradient-6)" stroke-width="0.850000024" opacity="0.27"></path>
                            </g>
                        </g>
                        <g id="select-location-e2a393dc-copy-17" transform="translate(146.451050, 80.886193)">
                            <g id="Layer_1">
                                <g id="Shape">
                                    <use fill="url(#radialGradient-7)" xlink:href="#path-17"></use>
                                    <use fill-opacity="0.5" fill="#C5BFF6" xlink:href="#path-17"></use>
                                </g>
                                <polygon id="Shape" points="0.069929651 20.1816705 48.3913185 36.9303763 96.7476721 20.1816705 96.7476721 16.332589 48.3913185 0.0346764097 0.069929651 16.332589"></polygon>
                                <polyline id="Shape" stroke="url(#linearGradient-6)" stroke-width="0.850000024" opacity="0.27" points="33.1116897 5.3401671 81.4680434 21.6380797 81.4680434 25.4871611"></polyline>
                                <polyline id="Shape" stroke="url(#linearGradient-6)" stroke-width="0.850000024" opacity="0.27" points="16.3285735 10.9924219 64.6849271 27.2903344 64.6849271 31.1394159"></polyline>
                                <polyline id="Shape" stroke="url(#linearGradient-6)" stroke-width="0.850000024" opacity="0.27" points="63.8457713 5.44419632 15.4894177 21.7421089 15.4894177 25.5911904"></polyline>
                                <polyline id="Shape" stroke="url(#linearGradient-6)" stroke-width="0.850000024" opacity="0.27" points="80.6288876 11.0964511 32.2725339 27.3943637 32.2725339 31.2434451"></polyline>
                                <polyline id="Shape" stroke="url(#linearGradient-6)" stroke-width="0.850000024" opacity="0.27" points="96.7476721 16.332589 48.3913185 33.0812949 0.069929651 16.332589"></polyline>
                                <path id="Shape" stroke="url(#linearGradient-6)" stroke-width="0.850000024" opacity="0.27"></path>
                            </g>
                        </g>
                        <g id="select-location-e2a393dc-copy-18" transform="translate(98.024767, 80.886193)">
                            <g id="Layer_1">
                                <g id="Shape" fill="#C5BFF6">
                                    <use xlink:href="#path-18"></use>
                                    <use fill-opacity="0.5" xlink:href="#path-18"></use>
                                </g>
                                <polyline id="Shape" stroke="url(#linearGradient-6)" stroke-width="0.850000024" opacity="0.27" points="33.1116897 5.3401671 81.4680434 21.6380797 81.4680434 25.4871611"></polyline>
                                <polyline id="Shape" stroke="url(#linearGradient-6)" stroke-width="0.850000024" opacity="0.27" points="16.3285735 10.9924219 64.6849271 27.2903344 64.6849271 31.1394159"></polyline>
                                <polyline id="Shape" stroke="url(#linearGradient-6)" stroke-width="0.850000024" opacity="0.27" points="63.8457713 5.44419632 15.4894177 21.7421089 15.4894177 25.5911904"></polyline>
                                <polyline id="Shape" stroke="url(#linearGradient-6)" stroke-width="0.850000024" opacity="0.27" points="80.6288876 11.0964511 32.2725339 27.3943637 32.2725339 31.2434451"></polyline>
                                <polyline id="Shape" stroke="url(#linearGradient-6)" stroke-width="0.850000024" opacity="0.27" points="96.7476721 16.332589 48.3913185 33.0812949 0.069929651 16.332589"></polyline>
                                <path id="Shape" stroke="url(#linearGradient-6)" stroke-width="0.850000024" opacity="0.27"></path>
                            </g>
                        </g>
                        <g id="select-location-e2a393dc-copy-19" transform="translate(123.355438, 80.886193)">
                            <g id="Layer_1">
                                <polygon id="Shape" fill="#725AC1" points="0.069929651 20.1816705 48.3913185 36.9303763 96.7476721 20.1816705 96.7476721 16.332589 48.3913185 0.0346764097 0.069929651 16.332589"></polygon>
                                <polyline id="Shape" stroke="url(#linearGradient-6)" stroke-width="0.850000024" opacity="0.27" points="33.1116897 5.3401671 81.4680434 21.6380797 81.4680434 25.4871611"></polyline>
                                <polyline id="Shape" stroke="url(#linearGradient-6)" stroke-width="0.850000024" opacity="0.27" points="16.3285735 10.9924219 64.6849271 27.2903344 64.6849271 31.1394159"></polyline>
                                <polyline id="Shape" stroke="url(#linearGradient-6)" stroke-width="0.850000024" opacity="0.27" points="63.8457713 5.44419632 15.4894177 21.7421089 15.4894177 25.5911904"></polyline>
                                <polyline id="Shape" stroke="url(#linearGradient-6)" stroke-width="0.850000024" opacity="0.27" points="80.6288876 11.0964511 32.2725339 27.3943637 32.2725339 31.2434451"></polyline>
                                <polyline id="Shape" stroke="url(#linearGradient-6)" stroke-width="0.850000024" opacity="0.27" points="96.7476721 16.332589 48.3913185 33.0812949 0.069929651 16.332589"></polyline>
                                <path id="Shape" stroke="url(#linearGradient-6)" stroke-width="0.850000024" opacity="0.27"></path>
                            </g>
                        </g>
                        <g id="select-location-e2a393dc-copy-23" transform="translate(0.744094, 108.171740)">
                            <g id="Layer_1" transform="translate(0.000000, 0.000000)">
                                <polygon id="Shape" fill="#725AC1" points="0.069929651 20.1816705 48.3913185 36.9303763 96.7476721 20.1816705 96.7476721 16.332589 48.3913185 0.0346764097 0.069929651 16.332589"></polygon>
                                <polyline id="Shape" stroke="url(#linearGradient-6)" stroke-width="0.850000024" opacity="0.27" points="33.1116897 5.3401671 81.4680434 21.6380797 81.4680434 25.4871611"></polyline>
                                <polyline id="Shape" stroke="url(#linearGradient-6)" stroke-width="0.850000024" opacity="0.27" points="16.3285735 10.9924219 64.6849271 27.2903344 64.6849271 31.1394159"></polyline>
                                <polyline id="Shape" stroke="url(#linearGradient-6)" stroke-width="0.850000024" opacity="0.27" points="63.8457713 5.44419632 15.4894177 21.7421089 15.4894177 25.5911904"></polyline>
                                <polyline id="Shape" stroke="url(#linearGradient-6)" stroke-width="0.850000024" opacity="0.27" points="80.6288876 11.0964511 32.2725339 27.3943637 32.2725339 31.2434451"></polyline>
                                <polyline id="Shape" stroke="url(#linearGradient-6)" stroke-width="0.850000024" opacity="0.27" points="96.7476721 16.332589 48.3913185 33.0812949 0.069929651 16.332589"></polyline>
                                <path id="Shape" stroke="url(#linearGradient-6)" stroke-width="0.850000024" opacity="0.27"></path>
                            </g>
                        </g>
                        <g id="select-location-e2a393dc-copy-20" transform="translate(123.267390, 35.816803)">
                            <g id="Layer_1">
                                <g id="Shape">
                                    <use fill="url(#radialGradient-7)" xlink:href="#path-19"></use>
                                    <use fill-opacity="0.5" fill="#C5BFF6" xlink:href="#path-19"></use>
                                </g>
                                <polygon id="Shape" points="0.069929651 20.1816705 48.3913185 36.9303763 96.7476721 20.1816705 96.7476721 16.332589 48.3913185 0.0346764097 0.069929651 16.332589"></polygon>
                                <polyline id="Shape" stroke="url(#linearGradient-6)" stroke-width="0.850000024" opacity="0.27" points="33.1116897 5.3401671 81.4680434 21.6380797 81.4680434 25.4871611"></polyline>
                                <polyline id="Shape" stroke="url(#linearGradient-6)" stroke-width="0.850000024" opacity="0.27" points="16.3285735 10.9924219 64.6849271 27.2903344 64.6849271 31.1394159"></polyline>
                                <polyline id="Shape" stroke="url(#linearGradient-6)" stroke-width="0.850000024" opacity="0.27" points="63.8457713 5.44419632 15.4894177 21.7421089 15.4894177 25.5911904"></polyline>
                                <polyline id="Shape" stroke="url(#linearGradient-6)" stroke-width="0.850000024" opacity="0.27" points="80.6288876 11.0964511 32.2725339 27.3943637 32.2725339 31.2434451"></polyline>
                                <polyline id="Shape" stroke="url(#linearGradient-6)" stroke-width="0.850000024" opacity="0.27" points="96.7476721 16.332589 48.3913185 33.0812949 0.069929651 16.332589"></polyline>
                                <path id="Shape" stroke="url(#linearGradient-6)" stroke-width="0.850000024" opacity="0.27"></path>
                            </g>
                        </g>
                        <path d="M168.790822,37.051865 L168.790822,69.1634814" id="Line-Copy-7" stroke="#403788" stroke-width="0.850000024" stroke-linecap="round" stroke-linejoin="round" stroke-dasharray="3.400000095367432,3.400000095367432"></path>
                        <path d="M216.401308,19.7609947 L216.401308,51.872611" id="Line-Copy-8" stroke="#403788" stroke-width="0.850000024" stroke-linecap="round" stroke-linejoin="round" stroke-dasharray="3.400000095367432,3.400000095367432"></path>
                        <g id="select-location-e2a393dc-copy-21" transform="translate(122.610418, 0.000000)">
                            <g id="Layer_1">
                                <g id="Shape" fill="#C5BFF6">
                                    <use xlink:href="#path-20"></use>
                                    <use fill-opacity="0.5" xlink:href="#path-20"></use>
                                </g>
                                <polygon id="Shape" points="0.069929651 20.1816705 48.3913185 36.9303763 96.7476721 20.1816705 96.7476721 16.332589 48.3913185 0.0346764097 0.069929651 16.332589"></polygon>
                                <polyline id="Shape" stroke="url(#linearGradient-6)" stroke-width="0.850000024" opacity="0.27" points="33.1116897 5.3401671 81.4680434 21.6380797 81.4680434 25.4871611"></polyline>
                                <polyline id="Shape" stroke="url(#linearGradient-6)" stroke-width="0.850000024" opacity="0.27" points="16.3285735 10.9924219 64.6849271 27.2903344 64.6849271 31.1394159"></polyline>
                                <polyline id="Shape" stroke="url(#linearGradient-6)" stroke-width="0.850000024" opacity="0.27" points="63.8457713 5.44419632 15.4894177 21.7421089 15.4894177 25.5911904"></polyline>
                                <polyline id="Shape" stroke="url(#linearGradient-6)" stroke-width="0.850000024" opacity="0.27" points="80.6288876 11.0964511 32.2725339 27.3943637 32.2725339 31.2434451"></polyline>
                                <polyline id="Shape" stroke="url(#linearGradient-6)" stroke-width="0.850000024" opacity="0.27" points="96.7476721 16.332589 48.3913185 33.0812949 0.069929651 16.332589"></polyline>
                                <path id="Shape" stroke="url(#linearGradient-6)" stroke-width="0.850000024" opacity="0.27"></path>
                            </g>
                        </g>
                    </g>
                    <g id="Group-4-Copy-2" transform="translate(288.264699, 59.600000) scale(-1, 1) translate(-288.264699, -59.600000) translate(203.245973, 0.000000)">
                        <g id="select-location-e2a393dc-copy-11" transform="translate(0.000000, 80.886193)">
                            <g id="Layer_1">
                                <g id="Shape">
                                    <use fill="url(#radialGradient-7)" xlink:href="#path-21"></use>
                                    <use fill-opacity="0.5" fill="#C5BFF6" xlink:href="#path-21"></use>
                                </g>
                                <polygon id="Shape" points="0.069929651 20.1816705 48.3913185 36.9303763 96.7476721 20.1816705 96.7476721 16.332589 48.3913185 0.0346764097 0.069929651 16.332589"></polygon>
                                <polyline id="Shape" stroke="url(#linearGradient-6)" stroke-width="0.850000024" opacity="0.27" points="33.1116897 5.3401671 81.4680434 21.6380797 81.4680434 25.4871611"></polyline>
                                <polyline id="Shape" stroke="url(#linearGradient-6)" stroke-width="0.850000024" opacity="0.27" points="16.3285735 10.9924219 64.6849271 27.2903344 64.6849271 31.1394159"></polyline>
                                <polyline id="Shape" stroke="url(#linearGradient-6)" stroke-width="0.850000024" opacity="0.27" points="63.8457713 5.44419632 15.4894177 21.7421089 15.4894177 25.5911904"></polyline>
                                <polyline id="Shape" stroke="url(#linearGradient-6)" stroke-width="0.850000024" opacity="0.27" points="80.6288876 11.0964511 32.2725339 27.3943637 32.2725339 31.2434451"></polyline>
                                <polyline id="Shape" stroke="url(#linearGradient-6)" stroke-width="0.850000024" opacity="0.27" points="96.7476721 16.332589 48.3913185 33.0812949 0.069929651 16.332589"></polyline>
                                <path id="Shape" stroke="url(#linearGradient-6)" stroke-width="0.850000024" opacity="0.27"></path>
                            </g>
                        </g>
                        <g id="select-location-e2a393dc-copy-17" transform="translate(71.521895, 80.886193)">
                            <g id="Layer_1">
                                <g id="Shape">
                                    <use fill="url(#radialGradient-7)" xlink:href="#path-22"></use>
                                    <use fill-opacity="0.5" fill="#C5BFF6" xlink:href="#path-22"></use>
                                </g>
                                <polygon id="Shape" points="0.069929651 20.1816705 48.3913185 36.9303763 96.7476721 20.1816705 96.7476721 16.332589 48.3913185 0.0346764097 0.069929651 16.332589"></polygon>
                                <polyline id="Shape" stroke="url(#linearGradient-6)" stroke-width="0.850000024" opacity="0.27" points="33.1116897 5.3401671 81.4680434 21.6380797 81.4680434 25.4871611"></polyline>
                                <polyline id="Shape" stroke="url(#linearGradient-6)" stroke-width="0.850000024" opacity="0.27" points="16.3285735 10.9924219 64.6849271 27.2903344 64.6849271 31.1394159"></polyline>
                                <polyline id="Shape" stroke="url(#linearGradient-6)" stroke-width="0.850000024" opacity="0.27" points="63.8457713 5.44419632 15.4894177 21.7421089 15.4894177 25.5911904"></polyline>
                                <polyline id="Shape" stroke="url(#linearGradient-6)" stroke-width="0.850000024" opacity="0.27" points="80.6288876 11.0964511 32.2725339 27.3943637 32.2725339 31.2434451"></polyline>
                                <polyline id="Shape" stroke="url(#linearGradient-6)" stroke-width="0.850000024" opacity="0.27" points="96.7476721 16.332589 48.3913185 33.0812949 0.069929651 16.332589"></polyline>
                                <path id="Shape" stroke="url(#linearGradient-6)" stroke-width="0.850000024" opacity="0.27"></path>
                            </g>
                        </g>
                        <g id="select-location-e2a393dc-copy-18" transform="translate(23.095612, 80.886193)">
                            <g id="Layer_1">
                                <g id="Shape" fill="#C5BFF6">
                                    <use xlink:href="#path-23"></use>
                                    <use fill-opacity="0.5" xlink:href="#path-23"></use>
                                </g>
                                <polyline id="Shape" stroke="url(#linearGradient-6)" stroke-width="0.850000024" opacity="0.27" points="33.1116897 5.3401671 81.4680434 21.6380797 81.4680434 25.4871611"></polyline>
                                <polyline id="Shape" stroke="url(#linearGradient-6)" stroke-width="0.850000024" opacity="0.27" points="16.3285735 10.9924219 64.6849271 27.2903344 64.6849271 31.1394159"></polyline>
                                <polyline id="Shape" stroke="url(#linearGradient-6)" stroke-width="0.850000024" opacity="0.27" points="63.8457713 5.44419632 15.4894177 21.7421089 15.4894177 25.5911904"></polyline>
                                <polyline id="Shape" stroke="url(#linearGradient-6)" stroke-width="0.850000024" opacity="0.27" points="80.6288876 11.0964511 32.2725339 27.3943637 32.2725339 31.2434451"></polyline>
                                <polyline id="Shape" stroke="url(#linearGradient-6)" stroke-width="0.850000024" opacity="0.27" points="96.7476721 16.332589 48.3913185 33.0812949 0.069929651 16.332589"></polyline>
                                <path id="Shape" stroke="url(#linearGradient-6)" stroke-width="0.850000024" opacity="0.27"></path>
                            </g>
                        </g>
                        <g id="select-location-e2a393dc-copy-19" transform="translate(48.426283, 80.886193)">
                            <g id="Layer_1">
                                <polygon id="Shape" fill="#725AC1" points="0.069929651 20.1816705 48.3913185 36.9303763 96.7476721 20.1816705 96.7476721 16.332589 48.3913185 0.0346764097 0.069929651 16.332589"></polygon>
                                <polyline id="Shape" stroke="url(#linearGradient-6)" stroke-width="0.850000024" opacity="0.27" points="33.1116897 5.3401671 81.4680434 21.6380797 81.4680434 25.4871611"></polyline>
                                <polyline id="Shape" stroke="url(#linearGradient-6)" stroke-width="0.850000024" opacity="0.27" points="16.3285735 10.9924219 64.6849271 27.2903344 64.6849271 31.1394159"></polyline>
                                <polyline id="Shape" stroke="url(#linearGradient-6)" stroke-width="0.850000024" opacity="0.27" points="63.8457713 5.44419632 15.4894177 21.7421089 15.4894177 25.5911904"></polyline>
                                <polyline id="Shape" stroke="url(#linearGradient-6)" stroke-width="0.850000024" opacity="0.27" points="80.6288876 11.0964511 32.2725339 27.3943637 32.2725339 31.2434451"></polyline>
                                <polyline id="Shape" stroke="url(#linearGradient-6)" stroke-width="0.850000024" opacity="0.27" points="96.7476721 16.332589 48.3913185 33.0812949 0.069929651 16.332589"></polyline>
                                <path id="Shape" stroke="url(#linearGradient-6)" stroke-width="0.850000024" opacity="0.27"></path>
                            </g>
                        </g>
                        <g id="select-location-e2a393dc-copy-20" transform="translate(48.338236, 35.816803)">
                            <g id="Layer_1">
                                <g id="Shape">
                                    <use fill="url(#radialGradient-7)" xlink:href="#path-24"></use>
                                    <use fill-opacity="0.5" fill="#C5BFF6" xlink:href="#path-24"></use>
                                </g>
                                <polygon id="Shape" points="0.069929651 20.1816705 48.3913185 36.9303763 96.7476721 20.1816705 96.7476721 16.332589 48.3913185 0.0346764097 0.069929651 16.332589"></polygon>
                                <polyline id="Shape" stroke="url(#linearGradient-6)" stroke-width="0.850000024" opacity="0.27" points="33.1116897 5.3401671 81.4680434 21.6380797 81.4680434 25.4871611"></polyline>
                                <polyline id="Shape" stroke="url(#linearGradient-6)" stroke-width="0.850000024" opacity="0.27" points="16.3285735 10.9924219 64.6849271 27.2903344 64.6849271 31.1394159"></polyline>
                                <polyline id="Shape" stroke="url(#linearGradient-6)" stroke-width="0.850000024" opacity="0.27" points="63.8457713 5.44419632 15.4894177 21.7421089 15.4894177 25.5911904"></polyline>
                                <polyline id="Shape" stroke="url(#linearGradient-6)" stroke-width="0.850000024" opacity="0.27" points="80.6288876 11.0964511 32.2725339 27.3943637 32.2725339 31.2434451"></polyline>
                                <polyline id="Shape" stroke="url(#linearGradient-6)" stroke-width="0.850000024" opacity="0.27" points="96.7476721 16.332589 48.3913185 33.0812949 0.069929651 16.332589"></polyline>
                                <path id="Shape" stroke="url(#linearGradient-6)" stroke-width="0.850000024" opacity="0.27"></path>
                            </g>
                        </g>
                        <path d="M93.9743422,37.051865 L93.9743422,69.1634814" id="Line-Copy-7" stroke="#403788" stroke-width="0.850000024" stroke-linecap="round" stroke-linejoin="round" stroke-dasharray="3.400000095367432,3.400000095367432"></path>
                        <path d="M141.584829,19.7609947 L141.584829,51.872611" id="Line-Copy-8" stroke="#403788" stroke-width="0.850000024" stroke-linecap="round" stroke-linejoin="round" stroke-dasharray="3.400000095367432,3.400000095367432"></path>
                        <g id="select-location-e2a393dc-copy-21" opacity="0.435692631" transform="translate(47.681264, 0.000000)">
                            <g id="Layer_1">
                                <g id="Shape" fill="#C5BFF6">
                                    <use xlink:href="#path-25"></use>
                                    <use fill-opacity="0.5" xlink:href="#path-25"></use>
                                </g>
                                <polygon id="Shape" points="0.069929651 20.1816705 48.3913185 36.9303763 96.7476721 20.1816705 96.7476721 16.332589 48.3913185 0.0346764097 0.069929651 16.332589"></polygon>
                                <polyline id="Shape" stroke="url(#linearGradient-6)" stroke-width="0.850000024" opacity="0.27" points="33.1116897 5.3401671 81.4680434 21.6380797 81.4680434 25.4871611"></polyline>
                                <polyline id="Shape" stroke="url(#linearGradient-6)" stroke-width="0.850000024" opacity="0.27" points="16.3285735 10.9924219 64.6849271 27.2903344 64.6849271 31.1394159"></polyline>
                                <polyline id="Shape" stroke="url(#linearGradient-6)" stroke-width="0.850000024" opacity="0.27" points="63.8457713 5.44419632 15.4894177 21.7421089 15.4894177 25.5911904"></polyline>
                                <polyline id="Shape" stroke="url(#linearGradient-6)" stroke-width="0.850000024" opacity="0.27" points="80.6288876 11.0964511 32.2725339 27.3943637 32.2725339 31.2434451"></polyline>
                                <polyline id="Shape" stroke="url(#linearGradient-6)" stroke-width="0.850000024" opacity="0.27" points="96.7476721 16.332589 48.3913185 33.0812949 0.069929651 16.332589"></polyline>
                                <path id="Shape" stroke="url(#linearGradient-6)" stroke-width="0.850000024" opacity="0.27"></path>
                            </g>
                        </g>
                    </g>
                    <g id="Group-4-Copy-3" transform="translate(222.062768, 95.499415)">
                        <g id="select-location-e2a393dc-copy-11" transform="translate(61.305672, 80.886193)">
                            <g id="Layer_1">
                                <g id="Shape">
                                    <use fill="url(#radialGradient-7)" xlink:href="#path-26"></use>
                                    <use fill-opacity="0.5" fill="#C5BFF6" xlink:href="#path-26"></use>
                                </g>
                                <polygon id="Shape" points="0.069929651 20.1816705 48.3913185 36.9303763 96.7476721 20.1816705 96.7476721 16.332589 48.3913185 0.0346764097 0.069929651 16.332589"></polygon>
                                <polyline id="Shape" stroke="url(#linearGradient-6)" stroke-width="0.850000024" opacity="0.27" points="33.1116897 5.3401671 81.4680434 21.6380797 81.4680434 25.4871611"></polyline>
                                <polyline id="Shape" stroke="url(#linearGradient-6)" stroke-width="0.850000024" opacity="0.27" points="16.3285735 10.9924219 64.6849271 27.2903344 64.6849271 31.1394159"></polyline>
                                <polyline id="Shape" stroke="url(#linearGradient-6)" stroke-width="0.850000024" opacity="0.27" points="63.8457713 5.44419632 15.4894177 21.7421089 15.4894177 25.5911904"></polyline>
                                <polyline id="Shape" stroke="url(#linearGradient-6)" stroke-width="0.850000024" opacity="0.27" points="80.6288876 11.0964511 32.2725339 27.3943637 32.2725339 31.2434451"></polyline>
                                <polyline id="Shape" stroke="url(#linearGradient-6)" stroke-width="0.850000024" opacity="0.27" points="96.7476721 16.332589 48.3913185 33.0812949 0.069929651 16.332589"></polyline>
                                <path id="Shape" stroke="url(#linearGradient-6)" stroke-width="0.850000024" opacity="0.27"></path>
                            </g>
                        </g>
                        <g id="select-location-e2a393dc-copy-17" transform="translate(132.827567, 80.886193)">
                            <g id="Layer_1">
                                <g id="Shape">
                                    <use fill="url(#radialGradient-7)" xlink:href="#path-27"></use>
                                    <use fill-opacity="0.5" fill="#C5BFF6" xlink:href="#path-27"></use>
                                </g>
                                <polygon id="Shape" points="0.069929651 20.1816705 48.3913185 36.9303763 96.7476721 20.1816705 96.7476721 16.332589 48.3913185 0.0346764097 0.069929651 16.332589"></polygon>
                                <polyline id="Shape" stroke="url(#linearGradient-6)" stroke-width="0.850000024" opacity="0.27" points="33.1116897 5.3401671 81.4680434 21.6380797 81.4680434 25.4871611"></polyline>
                                <polyline id="Shape" stroke="url(#linearGradient-6)" stroke-width="0.850000024" opacity="0.27" points="16.3285735 10.9924219 64.6849271 27.2903344 64.6849271 31.1394159"></polyline>
                                <polyline id="Shape" stroke="url(#linearGradient-6)" stroke-width="0.850000024" opacity="0.27" points="63.8457713 5.44419632 15.4894177 21.7421089 15.4894177 25.5911904"></polyline>
                                <polyline id="Shape" stroke="url(#linearGradient-6)" stroke-width="0.850000024" opacity="0.27" points="80.6288876 11.0964511 32.2725339 27.3943637 32.2725339 31.2434451"></polyline>
                                <polyline id="Shape" stroke="url(#linearGradient-6)" stroke-width="0.850000024" opacity="0.27" points="96.7476721 16.332589 48.3913185 33.0812949 0.069929651 16.332589"></polyline>
                                <path id="Shape" stroke="url(#linearGradient-6)" stroke-width="0.850000024" opacity="0.27"></path>
                            </g>
                        </g>
                        <g id="select-location-e2a393dc-copy-18" transform="translate(84.401284, 80.886193)">
                            <g id="Layer_1">
                                <g id="Shape" fill="#C5BFF6">
                                    <use xlink:href="#path-28"></use>
                                    <use fill-opacity="0.5" xlink:href="#path-28"></use>
                                </g>
                                <polyline id="Shape" stroke="url(#linearGradient-6)" stroke-width="0.850000024" opacity="0.27" points="33.1116897 5.3401671 81.4680434 21.6380797 81.4680434 25.4871611"></polyline>
                                <polyline id="Shape" stroke="url(#linearGradient-6)" stroke-width="0.850000024" opacity="0.27" points="16.3285735 10.9924219 64.6849271 27.2903344 64.6849271 31.1394159"></polyline>
                                <polyline id="Shape" stroke="url(#linearGradient-6)" stroke-width="0.850000024" opacity="0.27" points="63.8457713 5.44419632 15.4894177 21.7421089 15.4894177 25.5911904"></polyline>
                                <polyline id="Shape" stroke="url(#linearGradient-6)" stroke-width="0.850000024" opacity="0.27" points="80.6288876 11.0964511 32.2725339 27.3943637 32.2725339 31.2434451"></polyline>
                                <polyline id="Shape" stroke="url(#linearGradient-6)" stroke-width="0.850000024" opacity="0.27" points="96.7476721 16.332589 48.3913185 33.0812949 0.069929651 16.332589"></polyline>
                                <path id="Shape" stroke="url(#linearGradient-6)" stroke-width="0.850000024" opacity="0.27"></path>
                            </g>
                        </g>
                        <g id="select-location-e2a393dc-copy-19" transform="translate(109.731955, 80.886193)">
                            <g id="Layer_1">
                                <polygon id="Shape" fill="#725AC1" points="0.069929651 20.1816705 48.3913185 36.9303763 96.7476721 20.1816705 96.7476721 16.332589 48.3913185 0.0346764097 0.069929651 16.332589"></polygon>
                                <polyline id="Shape" stroke="url(#linearGradient-6)" stroke-width="0.850000024" opacity="0.27" points="33.1116897 5.3401671 81.4680434 21.6380797 81.4680434 25.4871611"></polyline>
                                <polyline id="Shape" stroke="url(#linearGradient-6)" stroke-width="0.850000024" opacity="0.27" points="16.3285735 10.9924219 64.6849271 27.2903344 64.6849271 31.1394159"></polyline>
                                <polyline id="Shape" stroke="url(#linearGradient-6)" stroke-width="0.850000024" opacity="0.27" points="63.8457713 5.44419632 15.4894177 21.7421089 15.4894177 25.5911904"></polyline>
                                <polyline id="Shape" stroke="url(#linearGradient-6)" stroke-width="0.850000024" opacity="0.27" points="80.6288876 11.0964511 32.2725339 27.3943637 32.2725339 31.2434451"></polyline>
                                <polyline id="Shape" stroke="url(#linearGradient-6)" stroke-width="0.850000024" opacity="0.27" points="96.7476721 16.332589 48.3913185 33.0812949 0.069929651 16.332589"></polyline>
                                <path id="Shape" stroke="url(#linearGradient-6)" stroke-width="0.850000024" opacity="0.27"></path>
                            </g>
                        </g>
                        <g id="select-location-e2a393dc-copy-20" transform="translate(109.643908, 35.816803)">
                            <g id="Layer_1">
                                <polygon id="Shape" fill="#1D1244" points="0.069929651 20.1816705 48.3913185 36.9303763 96.7476721 20.1816705 96.7476721 16.332589 48.3913185 0.0346764097 0.069929651 16.332589"></polygon>
                                <polyline id="Shape" stroke="url(#linearGradient-6)" stroke-width="0.850000024" opacity="0.27" points="33.1116897 5.3401671 81.4680434 21.6380797 81.4680434 25.4871611"></polyline>
                                <polyline id="Shape" stroke="url(#linearGradient-6)" stroke-width="0.850000024" opacity="0.27" points="16.3285735 10.9924219 64.6849271 27.2903344 64.6849271 31.1394159"></polyline>
                                <polyline id="Shape" stroke="url(#linearGradient-6)" stroke-width="0.850000024" opacity="0.27" points="63.8457713 5.44419632 15.4894177 21.7421089 15.4894177 25.5911904"></polyline>
                                <polyline id="Shape" stroke="url(#linearGradient-6)" stroke-width="0.850000024" opacity="0.27" points="80.6288876 11.0964511 32.2725339 27.3943637 32.2725339 31.2434451"></polyline>
                                <polyline id="Shape" stroke="url(#linearGradient-6)" stroke-width="0.850000024" opacity="0.27" points="96.7476721 16.332589 48.3913185 33.0812949 0.069929651 16.332589"></polyline>
                                <path id="Shape" stroke="url(#linearGradient-6)" stroke-width="0.850000024" opacity="0.27"></path>
                            </g>
                        </g>
                        <g id="select-location-e2a393dc-copy-22" transform="translate(0.656046, 76.745124)">
                            <g id="Layer_1">
                                <polygon id="Shape" fill="#1D1244" points="0.069929651 20.1816705 48.3913185 36.9303763 96.7476721 20.1816705 96.7476721 16.332589 48.3913185 0.0346764097 0.069929651 16.332589"></polygon>
                                <polyline id="Shape" stroke="url(#linearGradient-6)" stroke-width="0.850000024" opacity="0.27" points="33.1116897 5.3401671 81.4680434 21.6380797 81.4680434 25.4871611"></polyline>
                                <polyline id="Shape" stroke="url(#linearGradient-6)" stroke-width="0.850000024" opacity="0.27" points="16.3285735 10.9924219 64.6849271 27.2903344 64.6849271 31.1394159"></polyline>
                                <polyline id="Shape" stroke="url(#linearGradient-6)" stroke-width="0.850000024" opacity="0.27" points="63.8457713 5.44419632 15.4894177 21.7421089 15.4894177 25.5911904"></polyline>
                                <polyline id="Shape" stroke="url(#linearGradient-6)" stroke-width="0.850000024" opacity="0.27" points="80.6288876 11.0964511 32.2725339 27.3943637 32.2725339 31.2434451"></polyline>
                                <polyline id="Shape" stroke="url(#linearGradient-6)" stroke-width="0.850000024" opacity="0.27" points="96.7476721 16.332589 48.3913185 33.0812949 0.069929651 16.332589"></polyline>
                                <path id="Shape" stroke="url(#linearGradient-6)" stroke-width="0.850000024" opacity="0.27"></path>
                            </g>
                        </g>
                        <path d="M155.187825,37.051865 L155.187825,69.1634814" id="Line-Copy-7" stroke="#403788" stroke-width="0.850000024" stroke-linecap="round" stroke-linejoin="round" stroke-dasharray="3.400000095367432,3.400000095367432"></path>
                        <path d="M202.798312,19.7609947 L202.798312,51.872611" id="Line-Copy-8" stroke="#403788" stroke-width="0.850000024" stroke-linecap="round" stroke-linejoin="round" stroke-dasharray="3.400000095367432,3.400000095367432"></path>
                        <path d="M107.577338,20.9960568 L107.577338,53.1076732" id="Line-Copy-9" stroke="#403788" stroke-width="0.850000024" stroke-linecap="round" stroke-linejoin="round" stroke-dasharray="3.400000095367432,3.400000095367432"></path>
                        <g id="select-location-e2a393dc-copy-21" transform="translate(108.986936, 0.000000)">
                            <g id="Layer_1">
                                <g id="Shape" fill="#C5BFF6">
                                    <use xlink:href="#path-29"></use>
                                    <use fill-opacity="0.5" xlink:href="#path-29"></use>
                                </g>
                                <polygon id="Shape" points="0.069929651 20.1816705 48.3913185 36.9303763 96.7476721 20.1816705 96.7476721 16.332589 48.3913185 0.0346764097 0.069929651 16.332589"></polygon>
                                <polyline id="Shape" stroke="url(#linearGradient-6)" stroke-width="0.850000024" opacity="0.27" points="33.1116897 5.3401671 81.4680434 21.6380797 81.4680434 25.4871611"></polyline>
                                <polyline id="Shape" stroke="url(#linearGradient-6)" stroke-width="0.850000024" opacity="0.27" points="16.3285735 10.9924219 64.6849271 27.2903344 64.6849271 31.1394159"></polyline>
                                <polyline id="Shape" stroke="url(#linearGradient-6)" stroke-width="0.850000024" opacity="0.27" points="63.8457713 5.44419632 15.4894177 21.7421089 15.4894177 25.5911904"></polyline>
                                <polyline id="Shape" stroke="url(#linearGradient-6)" stroke-width="0.850000024" opacity="0.27" points="80.6288876 11.0964511 32.2725339 27.3943637 32.2725339 31.2434451"></polyline>
                                <polyline id="Shape" stroke="url(#linearGradient-6)" stroke-width="0.850000024" opacity="0.27" points="96.7476721 16.332589 48.3913185 33.0812949 0.069929651 16.332589"></polyline>
                                <path id="Shape" stroke="url(#linearGradient-6)" stroke-width="0.850000024" opacity="0.27"></path>
                            </g>
                        </g>
                    </g>
                </g>
                <path d="M229.550562,231.588571 L229.550562,129.417143" id="Line-Copy-13" stroke="#403788" stroke-width="0.884000021" stroke-linecap="round" stroke-linejoin="round" stroke-dasharray="3.400000095367432,3.400000095367432"></path>
                <path d="M358.779026,246.914286 L358.779026,144.742857" id="Line-Copy-14" stroke="#403788" stroke-width="0.884000021" stroke-linecap="round" stroke-linejoin="round" stroke-dasharray="3.400000095367432,3.400000095367432"></path>
                <path d="M136.029963,274.16 L136.029963,171.988571" id="Line-Copy-15" stroke="#403788" stroke-width="0.884000021" stroke-linecap="round" stroke-linejoin="round" stroke-dasharray="3.400000095367432,3.400000095367432"></path>
                <g id="Group-2" transform="translate(146.329588, 107.874286)">
                    <use id="Rectangle-240" stroke="url(#radialGradient-30)" mask="url(#mask-32)" stroke-width="1.70000005" fill-opacity="0.849999964" fill="url(#linearGradient-6)" xlink:href="#path-31"></use>
                    <g id="managing">
                        <use fill="black" fill-opacity="1" filter="url(#filter-34)" xlink:href="#path-33"></use>
                        <use fill="#403788" fill-rule="evenodd" xlink:href="#path-33"></use>
                        <use fill="black" fill-opacity="1" xlink:href="#path-33"></use>
                    </g>
                </g>
            </g>
        </g>
    </g>
</svg>