<?xml version="1.0" encoding="UTF-8" standalone="no"?>
<svg width="72px" height="84px" viewBox="0 0 72 84" version="1.1" xmlns="http://www.w3.org/2000/svg" xmlns:xlink="http://www.w3.org/1999/xlink">
    <!-- Generator: Sketch 3.7.2 (28276) - http://www.bohemiancoding.com/sketch -->
    <title>dapphub-logo</title>
    <desc>Created with Sketch.</desc>
    <defs></defs>
    <g id="Dapple" stroke="none" stroke-width="1" fill="none" fill-rule="evenodd">
        <g id="dapphub-copy-8" transform="translate(-222.000000, -210.000000)">
            <g id="dapphub-logo" transform="translate(222.000000, 210.000000)">
                <g id="Group-2">
                    <path d="M4.38,80.15 C3.8399973,80.15 3.3400023,80.0375011 2.88,79.8125 C2.4199977,79.5874989 2.02250168,79.2875019 1.6875,78.9125 C1.35249833,78.5374981 1.09250093,78.1075024 0.9075,77.6225 C0.722499075,77.1374976 0.63,76.6350026 0.63,76.115 C0.63,75.5749973 0.7199991,75.0600025 0.9,74.57 C1.0800009,74.0799976 1.3299984,73.6500019 1.65,73.28 C1.9700016,72.9099982 2.34749783,72.6150011 2.7825,72.395 C3.21750218,72.1749989 3.6949974,72.065 4.215,72.065 C4.5550017,72.065 4.87749848,72.1149995 5.1825,72.215 C5.48750153,72.3150005 5.76749873,72.4474992 6.0225,72.6125 C6.27750128,72.7775008 6.50999895,72.9699989 6.72,73.19 C6.93000105,73.4100011 7.10999925,73.6449988 7.26,73.895 L7.26,69.05 L8.01,69.05 L8.01,78.95 C8.01,79.2000013 8.11499895,79.325 8.325,79.325 L8.325,80 C8.27499975,80.0100001 8.2300002,80.015 8.19,80.015 L8.07,80.015 C7.8499989,80.015 7.67250068,79.9450007 7.5375,79.805 C7.40249933,79.6649993 7.335,79.5100009 7.335,79.34 L7.335,78.44 C7.0149984,78.9600026 6.58750268,79.3749985 6.0525,79.685 C5.51749733,79.9950016 4.9600029,80.15 4.38,80.15 L4.38,80.15 Z M4.515,79.475 C4.78500135,79.475 5.07499845,79.4200006 5.385,79.31 C5.69500155,79.1999995 5.98499865,79.047501 6.255,78.8525 C6.52500135,78.657499 6.75249908,78.4350013 6.9375,78.185 C7.12250093,77.9349988 7.22999985,77.6650015 7.26,77.375 L7.26,74.81 C7.14999945,74.5299986 6.99250103,74.2625013 6.7875,74.0075 C6.58249898,73.7524987 6.3500013,73.5325009 6.09,73.3475 C5.8299987,73.1624991 5.5500015,73.0150006 5.25,72.905 C4.9499985,72.7949995 4.6600014,72.74 4.38,72.74 C3.92999775,72.74 3.52250183,72.837499 3.1575,73.0325 C2.79249818,73.227501 2.47750133,73.4824984 2.2125,73.7975 C1.94749868,74.1125016 1.7450007,74.472498 1.605,74.8775 C1.4649993,75.282502 1.395,75.6999979 1.395,76.13 C1.395,76.5800023 1.4749992,77.004998 1.635,77.405 C1.7950008,77.805002 2.01749858,78.1599985 2.3025,78.47 C2.58750143,78.7800016 2.91749813,79.0249991 3.2925,79.205 C3.66750188,79.3850009 4.0749978,79.475 4.515,79.475 L4.515,79.475 Z M13.73,80.15 C13.3699982,80.15 13.0325016,80.0875006 12.7175,79.9625 C12.4024984,79.8374994 12.1275012,79.6675011 11.8925,79.4525 C11.6574988,79.2374989 11.4750006,78.9825015 11.345,78.6875 C11.2149993,78.3924985 11.15,78.0750017 11.15,77.735 C11.15,77.3949983 11.2299992,77.0850014 11.39,76.805 C11.5500008,76.5249986 11.7749985,76.282501 12.065,76.0775 C12.3550014,75.872499 12.697498,75.7125006 13.0925,75.5975 C13.487502,75.4824994 13.9249976,75.425 14.405,75.425 C14.8250021,75.425 15.2499978,75.4624996 15.68,75.5375 C16.1100021,75.6125004 16.4949983,75.7149994 16.835,75.845 L16.835,75.08 C16.835,74.3399963 16.6250021,73.7525022 16.205,73.3175 C15.7849979,72.8824978 15.2150036,72.665 14.495,72.665 C14.104998,72.665 13.6975021,72.7449992 13.2725,72.905 C12.8474979,73.0650008 12.4200021,73.2949985 11.99,73.595 L11.69,73.085 C12.700005,72.4049966 13.6499955,72.065 14.54,72.065 C15.4800047,72.065 16.2224973,72.3374973 16.7675,72.8825 C17.3125027,73.4275027 17.585,74.1799952 17.585,75.14 L17.585,78.95 C17.585,79.2000013 17.6899989,79.325 17.9,79.325 L17.9,80 C17.8499997,80.0100001 17.8025002,80.015 17.7575,80.015 L17.63,80.015 C17.4499991,80.015 17.2850007,79.9525006 17.135,79.8275 C16.9849992,79.7024994 16.91,79.540001 16.91,79.34 L16.91,78.695 C16.5499982,79.1650024 16.0925028,79.5249988 15.5375,79.775 C14.9824972,80.0250013 14.3800032,80.15 13.73,80.15 L13.73,80.15 Z M13.88,79.55 C14.4600029,79.55 14.9949975,79.4425011 15.485,79.2275 C15.9750024,79.0124989 16.3399988,78.7200019 16.58,78.35 C16.7500008,78.149999 16.835,77.950001 16.835,77.75 L16.835,76.37 C16.0749962,76.0899986 15.295004,75.95 14.495,75.95 C13.7149961,75.95 13.0850024,76.1099984 12.605,76.43 C12.1249976,76.7500016 11.885,77.1699974 11.885,77.69 C11.885,77.9500013 11.9349995,78.1949989 12.035,78.425 C12.1350005,78.6550012 12.2749991,78.8524992 12.455,79.0175 C12.6350009,79.1825008 12.8474988,79.3124995 13.0925,79.4075 C13.3375012,79.5025005 13.5999986,79.55 13.88,79.55 L13.88,79.55 Z M25.075,80.15 C24.4049966,80.15 23.8100026,79.9725018 23.29,79.6175 C22.7699974,79.2624982 22.3500016,78.8300026 22.03,78.32 L22.03,83.195 L21.28,83.195 L21.28,72.2 L21.955,72.2 L21.955,73.76 C22.2750016,73.2599975 22.6999973,72.8525016 23.23,72.5375 C23.7600026,72.2224984 24.324997,72.065 24.925,72.065 C25.4650027,72.065 25.9624977,72.1799989 26.4175,72.41 C26.8725022,72.6400012 27.2649983,72.9424981 27.595,73.3175 C27.9250016,73.6925019 28.182499,74.1249976 28.3675,74.615 C28.5525009,75.1050025 28.645,75.6049975 28.645,76.115 C28.645,76.6550027 28.5600008,77.1699976 28.39,77.66 C28.2199991,78.1500025 27.9775015,78.5799982 27.6625,78.95 C27.3474984,79.3200019 26.9700022,79.6124989 26.53,79.8275 C26.0899978,80.0425011 25.6050026,80.15 25.075,80.15 L25.075,80.15 Z M24.91,79.475 C25.3600022,79.475 25.7674981,79.380001 26.1325,79.19 C26.4975018,78.9999991 26.8099987,78.7475016 27.07,78.4325 C27.3300013,78.1174984 27.5299993,77.757502 27.67,77.3525 C27.8100007,76.947498 27.88,76.5350021 27.88,76.115 C27.88,75.6649978 27.8000008,75.237502 27.64,74.8325 C27.4799992,74.427498 27.2600014,74.0700016 26.98,73.76 C26.6999986,73.4499985 26.3700019,73.2025009 25.99,73.0175 C25.6099981,72.8324991 25.2050021,72.74 24.775,72.74 C24.5049986,72.74 24.2150015,72.7974994 23.905,72.9125 C23.5949984,73.0275006 23.3050013,73.182499 23.035,73.3775 C22.7649986,73.572501 22.5375009,73.7949988 22.3525,74.045 C22.167499,74.2950013 22.0600001,74.5599986 22.03,74.84 L22.03,77.405 C22.1500006,77.6950015 22.309999,77.9649988 22.51,78.215 C22.710001,78.4650013 22.9349987,78.6849991 23.185,78.875 C23.4350012,79.065001 23.7074985,79.2124995 24.0025,79.3175 C24.2975014,79.4225005 24.5999984,79.475 24.91,79.475 L24.91,79.475 Z M35.6399999,80.15 C34.9699966,80.15 34.3750025,79.9725018 33.8549999,79.6175 C33.3349973,79.2624982 32.9150015,78.8300026 32.5949999,78.32 L32.5949999,83.195 L31.8449999,83.195 L31.8449999,72.2 L32.5199999,72.2 L32.5199999,73.76 C32.8400015,73.2599975 33.2649973,72.8525016 33.7949999,72.5375 C34.3250026,72.2224984 34.8899969,72.065 35.4899999,72.065 C36.0300026,72.065 36.5274977,72.1799989 36.9824999,72.41 C37.4375022,72.6400012 37.8299983,72.9424981 38.1599999,73.3175 C38.4900016,73.6925019 38.747499,74.1249976 38.9324999,74.615 C39.1175009,75.1050025 39.2099999,75.6049975 39.2099999,76.115 C39.2099999,76.6550027 39.1250008,77.1699976 38.9549999,77.66 C38.7849991,78.1500025 38.5425015,78.5799982 38.2274999,78.95 C37.9124984,79.3200019 37.5350021,79.6124989 37.0949999,79.8275 C36.6549977,80.0425011 36.1700026,80.15 35.6399999,80.15 L35.6399999,80.15 Z M35.4749999,79.475 C35.9250022,79.475 36.3324981,79.380001 36.6974999,79.19 C37.0625018,78.9999991 37.3749986,78.7475016 37.6349999,78.4325 C37.8950012,78.1174984 38.0949992,77.757502 38.2349999,77.3525 C38.3750006,76.947498 38.4449999,76.5350021 38.4449999,76.115 C38.4449999,75.6649978 38.3650007,75.237502 38.2049999,74.8325 C38.0449991,74.427498 37.8250013,74.0700016 37.5449999,73.76 C37.2649985,73.4499985 36.9350018,73.2025009 36.5549999,73.0175 C36.174998,72.8324991 35.7700021,72.74 35.3399999,72.74 C35.0699986,72.74 34.7800015,72.7974994 34.4699999,72.9125 C34.1599984,73.0275006 33.8700013,73.182499 33.5999999,73.3775 C33.3299986,73.572501 33.1025009,73.7949988 32.9174999,74.045 C32.732499,74.2950013 32.6250001,74.5599986 32.5949999,74.84 L32.5949999,77.405 C32.7150005,77.6950015 32.8749989,77.9649988 33.0749999,78.215 C33.2750009,78.4650013 33.4999987,78.6849991 33.7499999,78.875 C34.0000012,79.065001 34.2724985,79.2124995 34.5674999,79.3175 C34.8625014,79.4225005 35.1649984,79.475 35.4749999,79.475 L35.4749999,79.475 Z M49.4599999,80 L47.4499999,80 L47.4499999,75.59 C47.4499999,74.9699969 47.3350011,74.5125015 47.1049999,74.2175 C46.8749988,73.9224985 46.550002,73.775 46.1299999,73.775 C45.949999,73.775 45.7600009,73.8149996 45.5599999,73.895 C45.3599989,73.9750004 45.1700008,74.0874993 44.9899999,74.2325 C44.809999,74.3775007 44.6450007,74.549999 44.4949999,74.75 C44.3449992,74.950001 44.2350003,75.1699988 44.1649999,75.41 L44.1649999,80 L42.1549999,80 L42.1549999,69.05 L44.1649999,69.05 L44.1649999,73.595 C44.4550014,73.0849975 44.8474974,72.6925014 45.3424999,72.4175 C45.8375024,72.1424986 46.3849969,72.005 46.9849999,72.005 C47.4950025,72.005 47.9099983,72.0924991 48.2299999,72.2675 C48.5500015,72.4425009 48.799999,72.6749986 48.9799999,72.965 C49.1600008,73.2550015 49.2849996,73.5849982 49.3549999,73.955 C49.4250003,74.3250019 49.4599999,74.7049981 49.4599999,75.095 L49.4599999,80 Z M54.9849999,80.15 C54.1749958,80.15 53.560002,79.8900026 53.1399999,79.37 C52.7199978,78.8499974 52.5099999,78.0800051 52.5099999,77.06 L52.5099999,72.14 L54.5199999,72.14 L54.5199999,76.625 C54.5199999,77.8350061 54.9549955,78.44 55.8249999,78.44 C56.2250019,78.44 56.6074981,78.3225012 56.9724999,78.0875 C57.3375017,77.8524988 57.6349987,77.4950024 57.8649999,77.015 L57.8649999,72.14 L59.8749999,72.14 L59.8749999,77.69 C59.8749999,77.9000011 59.9149995,78.0499996 59.9949999,78.14 C60.0750003,78.2300005 60.2149989,78.28 60.4149999,78.29 L60.4149999,80 C60.2049988,80.0400002 60.0200007,80.0674999 59.8599999,80.0825 C59.6999991,80.0975001 59.5600005,80.105 59.4399999,80.105 C59.0799981,80.105 58.7975009,80.0225008 58.5924999,79.8575 C58.3874989,79.6924992 58.2600001,79.4650015 58.2099999,79.175 L58.1649999,78.53 C57.8049981,79.0700027 57.3525026,79.4749987 56.8074999,79.745 C56.2624972,80.0150014 55.6550032,80.15 54.9849999,80.15 L54.9849999,80.15 Z M67.7849999,80.15 C67.1849969,80.15 66.6500022,80.0150014 66.1799999,79.745 C65.7099975,79.4749987 65.3400012,79.1050024 65.0699999,78.635 L65.0699999,80 L63.3149999,80 L63.3149999,69.05 L65.3249999,69.05 L65.3249999,73.52 C65.6050013,73.0399976 65.9724976,72.6675013 66.4274999,72.4025 C66.8825021,72.1374987 67.4099969,72.005 68.0099999,72.005 C68.5200024,72.005 68.9874977,72.1149989 69.4124999,72.335 C69.837502,72.5550011 70.2024983,72.8499982 70.5074999,73.22 C70.8125014,73.5900019 71.047499,74.0249975 71.2124999,74.525 C71.3775007,75.0250025 71.4599999,75.5499973 71.4599999,76.1 C71.4599999,76.6700029 71.3675008,77.1999976 71.1824999,77.69 C70.9974989,78.1800025 70.7400015,78.6074982 70.4099999,78.9725 C70.0799982,79.3375018 69.6900021,79.624999 69.2399999,79.835 C68.7899976,80.0450011 68.3050025,80.15 67.7849999,80.15 L67.7849999,80.15 Z M67.2299999,78.44 C67.5500015,78.44 67.8424985,78.3775006 68.1074999,78.2525 C68.3725012,78.1274994 68.6024989,77.9600011 68.7974999,77.75 C68.9925008,77.539999 69.1424993,77.2950014 69.2474999,77.015 C69.3525004,76.7349986 69.4049999,76.4350016 69.4049999,76.115 C69.4049999,75.7949984 69.3550004,75.4900015 69.2549999,75.2 C69.1549994,74.9099986 69.0125008,74.6550011 68.8274999,74.435 C68.6424989,74.2149989 68.4250011,74.0400007 68.1749999,73.91 C67.9249986,73.7799994 67.6500014,73.715 67.3499999,73.715 C66.8999976,73.715 66.4975016,73.8624985 66.1424999,74.1575 C65.7874981,74.4525015 65.5150008,74.8149979 65.3249999,75.245 L65.3249999,77.12 C65.3950002,77.320001 65.4974992,77.4999992 65.6324999,77.66 C65.7675005,77.8200008 65.919999,77.9574994 66.0899999,78.0725 C66.2600007,78.1875006 66.4449989,78.2774997 66.6449999,78.3425 C66.8450009,78.4075003 67.0399989,78.44 67.2299999,78.44 L67.2299999,78.44 Z" id="dapphub" fill="#403788"></path>
                    <g id="Group" transform="translate(3.000000, 0.000000)">
                        <g id="Group-2-Copy-4">
                            <rect id="Rectangle-2-Copy-16" fill="#725AC1" x="0" y="17.6271186" width="7.74683544" height="7.93220339" rx="1.76835268"></rect>
                            <rect id="Rectangle-2-Copy-17" fill="#CFD8DC" x="8.60759494" y="26.440678" width="7.74683544" height="7.93220339" rx="1.76835268"></rect>
                            <rect id="Rectangle-2-Copy-18" fill="#CFD8DC" x="0" y="35.2542373" width="7.74683544" height="7.93220339" rx="1.76835268"></rect>
                            <rect id="Rectangle-2-Copy-19" fill="#8D86C9" x="8.60759494" y="44.0677966" width="7.74683544" height="7.93220339" rx="1.76835268"></rect>
                            <rect id="Rectangle-2-Copy-20" fill="#CFD8DC" x="17.2151899" y="44.0677966" width="7.74683544" height="7.93220339" rx="1.76835268"></rect>
                            <rect id="Rectangle-2-Copy-21" fill="#CFD8DC" x="25.8227848" y="35.2542373" width="7.74683544" height="7.93220339" rx="1.76835268"></rect>
                            <rect id="Rectangle-2-Copy-22" fill="#C5BFF6" x="34.4303797" y="26.440678" width="7.74683544" height="7.93220339" rx="1.76835268"></rect>
                            <rect id="Rectangle-2-Copy-23" fill="#CFD8DC" x="43.0379747" y="17.6271186" width="7.74683544" height="7.93220339" rx="1.76835268"></rect>
                            <rect id="Rectangle-2-Copy-24" fill="#8D86C9" x="43.0379747" y="35.2542373" width="7.74683544" height="7.93220339" rx="1.76835268"></rect>
                            <rect id="Rectangle-2-Copy-25" fill="#CFD8DC" x="43.0379747" y="44.0677966" width="7.74683544" height="7.93220339" rx="1.76835268"></rect>
                            <rect id="Rectangle-2-Copy-26" fill="#CFD8DC" x="60.2531646" y="44.0677966" width="7.74683544" height="7.93220339" rx="1.76835268"></rect>
                            <rect id="Rectangle-2-Copy-27" fill="#CFD8DC" x="60.2531646" y="26.440678" width="7.74683544" height="7.93220339" rx="1.76835268"></rect>
                            <rect id="Rectangle-2-Copy-28" fill="#725AC1" x="60.2531646" y="8.81355932" width="7.74683544" height="7.93220339" rx="1.76835268"></rect>
                            <rect id="Rectangle-2-Copy-30" fill="#CFD8DC" x="51.6455696" y="17.6271186" width="7.74683544" height="7.93220339" rx="1.76835268"></rect>
                            <rect id="Rectangle-2-Copy-29" fill="#CFD8DC" x="60.2531646" y="0" width="7.74683544" height="7.93220339" rx="1.76835268"></rect>
                            <rect id="Rectangle-2-Copy-31" fill="#CFD8DC" x="43.0379747" y="0" width="7.74683544" height="7.93220339" rx="1.76835268"></rect>
                            <rect id="Rectangle-2-Copy-32" fill="#725AC1" x="17.2151899" y="0" width="7.74683544" height="7.93220339" rx="1.76835268"></rect>
                            <rect id="Rectangle-2-Copy-33" fill="#CFD8DC" x="25.8227848" y="8.81355932" width="7.74683544" height="7.93220339" rx="1.76835268"></rect>
                        </g>
                    </g>
                </g>
            </g>
        </g>
    </g>
</svg>