<?xml version="1.0" encoding="UTF-8" standalone="no"?>
<svg width="483px" height="120px" viewBox="0 0 483 120" version="1.1" xmlns="http://www.w3.org/2000/svg" xmlns:xlink="http://www.w3.org/1999/xlink">
    <!-- Generator: Sketch 3.7.2 (28276) - http://www.bohemiancoding.com/sketch -->
    <title>dapple-logo-headline</title>
    <desc>Created with Sketch.</desc>
    <defs></defs>
    <g id="Nexus---Site" stroke="none" stroke-width="1" fill="none" fill-rule="evenodd">
        <g id="dapple-logo-headline">
            <rect id="Rectangle-1" opacity="0.306203358" x="0" y="0" width="321" height="203"></rect>
            <g id="Group-5" transform="translate(27.000000, 28.000000)">
                <g id="Group-2">
                    <path d="M186.44,31 L186.44,18.22 L190.976,18.22 C192.008005,18.22 192.910996,18.3879983 193.685,18.724 C194.459004,19.0600017 195.106997,19.5159971 195.629,20.092 C196.151003,20.6680029 196.543999,21.3429961 196.808,22.117 C197.072001,22.8910039 197.204,23.7159956 197.204,24.592 C197.204,25.5640049 197.057001,26.4429961 196.763,27.229 C196.468999,28.0150039 196.052003,28.6869972 195.512,29.245 C194.971997,29.8030028 194.318004,30.2349985 193.55,30.541 C192.781996,30.8470015 191.924005,31 190.976,31 L186.44,31 Z M195.152,24.592 C195.152,23.9199966 195.059001,23.3020028 194.873,22.738 C194.686999,22.1739972 194.414002,21.691002 194.054,21.289 C193.693998,20.886998 193.256003,20.5720011 192.74,20.344 C192.223997,20.1159989 191.636003,20.002 190.976,20.002 L188.456,20.002 L188.456,29.218 L190.976,29.218 C191.648003,29.218 192.244997,29.1010012 192.767,28.867 C193.289003,28.6329988 193.726998,28.3090021 194.081,27.895 C194.435002,27.4809979 194.701999,26.9920028 194.882,26.428 C195.062001,25.8639972 195.152,25.2520033 195.152,24.592 L195.152,24.592 Z M199.1,31 L204.248,18.22 L205.904,18.22 L211.034,31 L208.892,31 L207.524,27.526 L202.592,27.526 L201.26,31 L199.1,31 Z M205.076,20.47 L202.952,26.032 L207.128,26.032 L205.076,20.47 Z M214.082,31 L214.082,18.22 L219.446,18.22 C220.022002,18.22 220.552997,18.3399988 221.039,18.58 C221.525002,18.8200012 221.941998,19.1349981 222.29,19.525 C222.638001,19.9150019 222.910999,20.3589975 223.109,20.857 C223.307001,21.3550025 223.406,21.8619974 223.406,22.378 C223.406,22.9180027 223.313,23.4369975 223.127,23.935 C222.940999,24.4330025 222.680001,24.876998 222.344,25.267 C222.007998,25.657002 221.603002,25.9689988 221.129,26.203 C220.654997,26.4370012 220.130002,26.554 219.554,26.554 L216.098,26.554 L216.098,31 L214.082,31 Z M216.098,24.772 L219.428,24.772 C219.716001,24.772 219.976998,24.7120006 220.211,24.592 C220.445001,24.4719994 220.645999,24.3040011 220.814,24.088 C220.982,23.8719989 221.113999,23.6200014 221.21,23.332 C221.306,23.0439986 221.354,22.7260017 221.354,22.378 C221.354,22.0179982 221.3,21.6940014 221.192,21.406 C221.083999,21.1179986 220.934,20.869001 220.742,20.659 C220.549999,20.448999 220.331001,20.2870006 220.085,20.173 C219.838998,20.0589994 219.584001,20.002 219.32,20.002 L216.098,20.002 L216.098,24.772 Z M226.759999,31 L226.759999,18.22 L232.123999,18.22 C232.700002,18.22 233.230997,18.3399988 233.716999,18.58 C234.203002,18.8200012 234.619998,19.1349981 234.967999,19.525 C235.316001,19.9150019 235.588998,20.3589975 235.786999,20.857 C235.985,21.3550025 236.083999,21.8619974 236.083999,22.378 C236.083999,22.9180027 235.991,23.4369975 235.804999,23.935 C235.618998,24.4330025 235.358001,24.876998 235.021999,25.267 C234.685998,25.657002 234.281002,25.9689988 233.806999,26.203 C233.332997,26.4370012 232.808002,26.554 232.231999,26.554 L228.775999,26.554 L228.775999,31 L226.759999,31 Z M228.775999,24.772 L232.105999,24.772 C232.394001,24.772 232.654998,24.7120006 232.888999,24.592 C233.123,24.4719994 233.323998,24.3040011 233.491999,24.088 C233.66,23.8719989 233.791999,23.6200014 233.887999,23.332 C233.984,23.0439986 234.031999,22.7260017 234.031999,22.378 C234.031999,22.0179982 233.978,21.6940014 233.869999,21.406 C233.761999,21.1179986 233.612,20.869001 233.419999,20.659 C233.227998,20.448999 233.009001,20.2870006 232.762999,20.173 C232.516998,20.0589994 232.262001,20.002 231.997999,20.002 L228.775999,20.002 L228.775999,24.772 Z M239.437999,31 L239.437999,18.22 L241.453999,18.22 L241.453999,29.218 L248.311999,29.218 L248.311999,31 L239.437999,31 Z M260.323999,29.218 L260.323999,31 L251.557999,31 L251.557999,18.22 L260.161999,18.22 L260.161999,20.002 L253.573999,20.002 L253.573999,23.638 L259.279999,23.638 L259.279999,25.312 L253.573999,25.312 L253.573999,29.218 L260.323999,29.218 Z M269.965998,26.518 L269.965998,25.69 L275.149998,25.69 L275.149998,26.518 L269.965998,26.518 Z M283.837998,31 L289.273998,18.22 L290.029998,18.22 L295.465998,31 L294.475998,31 L292.693998,26.788 L286.591998,26.788 L284.809998,31 L283.837998,31 Z M289.651998,19.336 L286.807998,26.032 L292.441998,26.032 L289.651998,19.336 Z M311.929997,21.226 C311.809997,21.0939993 311.635999,20.9530008 311.407997,20.803 C311.179996,20.6529993 310.912999,20.5120007 310.606997,20.38 C310.300996,20.2479993 309.961999,20.1400004 309.589997,20.056 C309.217996,19.9719996 308.821999,19.93 308.401997,19.93 C307.609993,19.93 307.009999,20.0859984 306.601997,20.398 C306.193995,20.7100016 305.989997,21.1479972 305.989997,21.712 C305.989997,22.0240016 306.055997,22.278999 306.187997,22.477 C306.319998,22.675001 306.517996,22.8459993 306.781997,22.99 C307.045999,23.1340007 307.375995,23.2629994 307.771997,23.377 C308.167999,23.4910006 308.629995,23.6139993 309.157997,23.746 C309.782,23.9140008 310.354995,24.0879991 310.876997,24.268 C311.399,24.4480009 311.842996,24.6729987 312.208997,24.943 C312.574999,25.2130013 312.859996,25.545998 313.063997,25.942 C313.267998,26.338002 313.369997,26.8299971 313.369997,27.418 C313.369997,28.0900034 313.243999,28.6599977 312.991997,29.128 C312.739996,29.5960023 312.401,29.9769985 311.974997,30.271 C311.548995,30.5650015 311.054,30.7809993 310.489997,30.919 C309.925995,31.0570007 309.326001,31.126 308.689997,31.126 C307.717993,31.126 306.776002,30.9790015 305.863997,30.685 C304.951993,30.3909985 304.130001,29.9620028 303.397997,29.398 L304.333997,27.67 C304.489998,27.8260008 304.711996,27.999999 304.999997,28.192 C305.287999,28.384001 305.626995,28.5609992 306.016997,28.723 C306.406999,28.8850008 306.835995,29.0229994 307.303997,29.137 C307.772,29.2510006 308.257995,29.308 308.761997,29.308 C309.530001,29.308 310.126995,29.1670014 310.552997,28.885 C310.979,28.6029986 311.191997,28.1920027 311.191997,27.652 C311.191997,27.3279984 311.113998,27.0580011 310.957997,26.842 C310.801997,26.6259989 310.573999,26.4370008 310.273997,26.275 C309.973996,26.1129992 309.608,25.9690006 309.175997,25.843 C308.743995,25.7169994 308.252,25.5820007 307.699997,25.438 C307.063994,25.2699992 306.509,25.0930009 306.034997,24.907 C305.560995,24.7209991 305.167999,24.4960013 304.855997,24.232 C304.543996,23.9679987 304.306998,23.6590018 304.144997,23.305 C303.982997,22.9509982 303.901997,22.5220025 303.901997,22.018 C303.901997,21.3939969 304.018996,20.8390024 304.252997,20.353 C304.486999,19.8669976 304.810995,19.4590016 305.224997,19.129 C305.638999,18.7989983 306.127995,18.5500008 306.691997,18.382 C307.256,18.2139992 307.861994,18.13 308.509997,18.13 C309.398002,18.13 310.204994,18.2679986 310.930997,18.544 C311.657001,18.8200014 312.295995,19.161998 312.847997,19.57 L311.929997,21.226 Z M322.159997,31.09 C321.259993,31.09 320.441001,30.9070018 319.702997,30.541 C318.964993,30.1749982 318.329,29.689003 317.794997,29.083 C317.260994,28.476997 316.849999,27.7840039 316.561997,27.004 C316.273996,26.2239961 316.129997,25.4260041 316.129997,24.61 C316.129997,23.7579957 316.282996,22.9420039 316.588997,22.162 C316.894999,21.3819961 317.317994,20.692003 317.857997,20.092 C318.398,19.491997 319.039993,19.0150018 319.783997,18.661 C320.528001,18.3069982 321.337993,18.13 322.213997,18.13 C323.114002,18.13 323.932993,18.3189981 324.670997,18.697 C325.409001,19.0750019 326.041994,19.5699969 326.569997,20.182 C327.098,20.7940031 327.505996,21.4869961 327.793997,22.261 C328.081999,23.0350039 328.225997,23.823996 328.225997,24.628 C328.225997,25.4800043 328.072999,26.2959961 327.766997,27.076 C327.460996,27.8560039 327.038,28.542997 326.497997,29.137 C325.957994,29.731003 325.319001,30.2049982 324.580997,30.559 C323.842993,30.9130018 323.036002,31.09 322.159997,31.09 L322.159997,31.09 Z M318.181997,24.61 C318.181997,25.210003 318.274996,25.7919972 318.460997,26.356 C318.646998,26.9200028 318.913995,27.4179978 319.261997,27.85 C319.609999,28.2820022 320.029995,28.6269987 320.521997,28.885 C321.014,29.1430013 321.565994,29.272 322.177997,29.272 C322.802,29.272 323.362995,29.1370013 323.860997,28.867 C324.359,28.5969986 324.778995,28.2400022 325.120997,27.796 C325.462999,27.3519978 325.723996,26.8540028 325.903997,26.302 C326.083998,25.7499972 326.173997,25.1860029 326.173997,24.61 C326.173997,23.9979969 326.077998,23.4130028 325.885997,22.855 C325.693996,22.2969972 325.423999,21.8050021 325.075997,21.379 C324.727995,20.9529979 324.308,20.6110013 323.815997,20.353 C323.323995,20.0949987 322.778,19.966 322.177997,19.966 C321.553994,19.966 320.993,20.1009987 320.494997,20.371 C319.996995,20.6410013 319.576999,20.9919978 319.234997,21.424 C318.892995,21.8560022 318.631998,22.3509972 318.451997,22.909 C318.271996,23.4670028 318.181997,24.0339971 318.181997,24.61 L318.181997,24.61 Z M331.831997,31 L331.831997,18.22 L333.847997,18.22 L333.847997,29.218 L340.705997,29.218 L340.705997,31 L331.831997,31 Z M343.951997,31 L343.951997,18.238 L345.967997,18.238 L345.967997,31 L343.951997,31 Z M350.347996,31 L350.347996,18.22 L354.883996,18.22 C355.916002,18.22 356.818993,18.3879983 357.592996,18.724 C358.367,19.0600017 359.014994,19.5159971 359.536996,20.092 C360.058999,20.6680029 360.451995,21.3429961 360.715996,22.117 C360.979998,22.8910039 361.111996,23.7159956 361.111996,24.592 C361.111996,25.5640049 360.964998,26.4429961 360.670996,27.229 C360.376995,28.0150039 359.959999,28.6869972 359.419996,29.245 C358.879994,29.8030028 358.226,30.2349985 357.457996,30.541 C356.689993,30.8470015 355.832001,31 354.883996,31 L350.347996,31 Z M359.059996,24.592 C359.059996,23.9199966 358.966997,23.3020028 358.780996,22.738 C358.594995,22.1739972 358.321998,21.691002 357.961996,21.289 C357.601995,20.886998 357.163999,20.5720011 356.647996,20.344 C356.131994,20.1159989 355.544,20.002 354.883996,20.002 L352.363996,20.002 L352.363996,29.218 L354.883996,29.218 C355.556,29.218 356.152994,29.1010012 356.674996,28.867 C357.196999,28.6329988 357.634995,28.3090021 357.988996,27.895 C358.342998,27.4809979 358.609996,26.9920028 358.789996,26.428 C358.969997,25.8639972 359.059996,25.2520033 359.059996,24.592 L359.059996,24.592 Z M364.771996,31 L364.771996,18.238 L366.787996,18.238 L366.787996,31 L364.771996,31 Z M380.545996,20.002 L376.297996,20.002 L376.297996,31 L374.281996,31 L374.281996,20.002 L370.015996,20.002 L370.015996,18.22 L380.545996,18.22 L380.545996,20.002 Z M384.565996,18.22 L388.111996,24.628 L391.675996,18.22 L393.871996,18.22 L389.119996,26.428 L389.119996,31 L387.085996,31 L387.085996,26.392 L382.351996,18.22 L384.565996,18.22 Z M186.692,52 L186.692,39.22 L190.94,39.22 C191.948005,39.22 192.832996,39.3879983 193.595,39.724 C194.357004,40.0600017 194.989997,40.5159971 195.494,41.092 C195.998003,41.6680029 196.375999,42.3429961 196.628,43.117 C196.880001,43.8910039 197.006,44.7159956 197.006,45.592 C197.006,46.5640049 196.865001,47.4429961 196.583,48.229 C196.300999,49.0150039 195.896003,49.6869972 195.368,50.245 C194.839997,50.8030028 194.201004,51.2349985 193.451,51.541 C192.700996,51.8470015 191.864005,52 190.94,52 L186.692,52 Z M196.088,45.592 C196.088,44.787996 195.974001,44.0470034 195.746,43.369 C195.517999,42.6909966 195.185002,42.1060025 194.747,41.614 C194.308998,41.1219975 193.772003,40.7380014 193.136,40.462 C192.499997,40.1859986 191.768004,40.048 190.94,40.048 L187.61,40.048 L187.61,51.172 L190.94,51.172 C191.780004,51.172 192.520997,51.0310014 193.163,50.749 C193.805003,50.4669986 194.341998,50.0740025 194.774,49.57 C195.206002,49.0659975 195.532999,48.4750034 195.755,47.797 C195.977001,47.1189966 196.088,46.384004 196.088,45.592 L196.088,45.592 Z M209.63,51.172 L209.63,52 L201.116,52 L201.116,39.22 L209.468,39.22 L209.468,40.048 L202.034,40.048 L202.034,45.07 L208.532,45.07 L208.532,45.862 L202.034,45.862 L202.034,51.172 L209.63,51.172 Z M213.218,39.22 L218.096,50.848 L222.956,39.22 L223.928,39.22 L218.51,52 L217.682,52 L212.264,39.22 L213.218,39.22 Z M235.903999,51.172 L235.903999,52 L227.389999,52 L227.389999,39.22 L235.741999,39.22 L235.741999,40.048 L228.307999,40.048 L228.307999,45.07 L234.805999,45.07 L234.805999,45.862 L228.307999,45.862 L228.307999,51.172 L235.903999,51.172 Z M239.959999,52 L239.959999,39.22 L240.877999,39.22 L240.877999,51.172 L248.509999,51.172 L248.509999,52 L239.959999,52 Z M256.363999,52.09 C255.475994,52.09 254.666002,51.9040019 253.933999,51.532 C253.201995,51.1599981 252.572001,50.674003 252.043999,50.074 C251.515996,49.473997 251.108,48.7840039 250.819999,48.004 C250.531997,47.2239961 250.387999,46.4260041 250.387999,45.61 C250.387999,44.7579957 250.540997,43.9420039 250.846999,43.162 C251.153,42.3819961 251.572996,41.692003 252.106999,41.092 C252.641001,40.491997 253.273995,40.0150018 254.005999,39.661 C254.738002,39.3069982 255.529995,39.13 256.381999,39.13 C257.270003,39.13 258.079995,39.3189981 258.811999,39.697 C259.544002,40.0750019 260.170996,40.5699969 260.692999,41.182 C261.215001,41.7940031 261.619997,42.4869961 261.907999,43.261 C262.196,44.0350039 262.339999,44.817996 262.339999,45.61 C262.339999,46.4740043 262.187,47.2959961 261.880999,48.076 C261.574997,48.8560039 261.155001,49.542997 260.620999,50.137 C260.086996,50.731003 259.457002,51.2049982 258.730999,51.559 C258.004995,51.9130018 257.216003,52.09 256.363999,52.09 L256.363999,52.09 Z M251.305999,45.61 C251.305999,46.3420037 251.428998,47.0469966 251.674999,47.725 C251.921,48.4030034 252.268997,49.0029974 252.718999,49.525 C253.169001,50.0470026 253.702996,50.4639984 254.320999,50.776 C254.939002,51.0880016 255.619995,51.244 256.363999,51.244 C257.132003,51.244 257.824996,51.0820016 258.442999,50.758 C259.061002,50.4339984 259.591997,50.0050027 260.035999,49.471 C260.480001,48.9369973 260.821998,48.3340034 261.061999,47.662 C261.302,46.9899966 261.421999,46.3060035 261.421999,45.61 C261.421999,44.8779963 261.296,44.1730034 261.043999,43.495 C260.791998,42.8169966 260.441001,42.2170026 259.990999,41.695 C259.540997,41.1729974 259.007002,40.7560016 258.388999,40.444 C257.770996,40.1319984 257.096002,39.976 256.363999,39.976 C255.595995,39.976 254.900002,40.1379984 254.275999,40.462 C253.651996,40.7860016 253.121001,41.2149973 252.682999,41.749 C252.244997,42.2830027 251.906,42.8859966 251.665999,43.558 C251.425998,44.2300034 251.305999,44.9139965 251.305999,45.61 L251.305999,45.61 Z M266.395999,52 L266.395999,39.22 L271.651999,39.22 C272.192001,39.22 272.689996,39.3339989 273.145999,39.562 C273.602001,39.7900011 273.994997,40.0929981 274.324999,40.471 C274.655,40.8490019 274.912998,41.2749976 275.098999,41.749 C275.284999,42.2230024 275.377999,42.6999976 275.377999,43.18 C275.377999,43.6960026 275.290999,44.1939976 275.116999,44.674 C274.942998,45.1540024 274.697,45.5799981 274.378999,45.952 C274.060997,46.3240019 273.683001,46.6209989 273.244999,46.843 C272.806996,47.0650011 272.318001,47.176 271.777999,47.176 L267.313999,47.176 L267.313999,52 L266.395999,52 Z M267.313999,46.33 L271.723999,46.33 C272.144001,46.33 272.521997,46.2430009 272.857999,46.069 C273.194,45.8949991 273.478997,45.6610015 273.712999,45.367 C273.947,45.0729985 274.126998,44.7370019 274.252999,44.359 C274.378999,43.9809981 274.441999,43.588002 274.441999,43.18 C274.441999,42.7599979 274.366999,42.3610019 274.216999,41.983 C274.066998,41.6049981 273.863,41.2720014 273.604999,40.984 C273.346997,40.6959986 273.047,40.4680008 272.704999,40.3 C272.362997,40.1319992 272,40.048 271.615999,40.048 L267.313999,40.048 L267.313999,46.33 Z M287.605998,51.172 L287.605998,52 L279.091998,52 L279.091998,39.22 L287.443998,39.22 L287.443998,40.048 L280.009998,40.048 L280.009998,45.07 L286.507998,45.07 L286.507998,45.862 L280.009998,45.862 L280.009998,51.172 L287.605998,51.172 Z M291.661998,52 L291.661998,39.22 L296.989998,39.22 C297.530001,39.22 298.027996,39.3339989 298.483998,39.562 C298.94,39.7900011 299.329996,40.0929981 299.653998,40.471 C299.978,40.8490019 300.232997,41.2749976 300.418998,41.749 C300.604999,42.2230024 300.697998,42.6999976 300.697998,43.18 C300.697998,43.6480023 300.625999,44.1009978 300.481998,44.539 C300.337997,44.9770022 300.133999,45.3699983 299.869998,45.718 C299.605997,46.0660017 299.288,46.3539989 298.915998,46.582 C298.543996,46.8100011 298.136,46.9599996 297.691998,47.032 L300.877998,52 L299.815998,52 L296.719998,47.176 L292.579998,47.176 L292.579998,52 L291.661998,52 Z M292.579998,46.33 L297.061998,46.33 C297.47,46.33 297.841996,46.2400009 298.177998,46.06 C298.514,45.8799991 298.801997,45.6430015 299.041998,45.349 C299.281999,45.0549985 299.464997,44.7190019 299.590998,44.341 C299.716999,43.9629981 299.779998,43.576002 299.779998,43.18 C299.779998,42.771998 299.704999,42.3790019 299.554998,42.001 C299.404997,41.6229981 299.200999,41.2900014 298.942998,41.002 C298.684997,40.7139986 298.385,40.4830009 298.042998,40.309 C297.700996,40.1349991 297.332,40.048 296.935998,40.048 L292.579998,40.048 L292.579998,46.33 Z M322.741998,52 L322.741998,40.948 L317.701998,49.57 L317.125998,49.57 L312.085998,40.948 L312.085998,52 L311.167998,52 L311.167998,39.22 L312.085998,39.22 L317.413998,48.364 L322.741998,39.22 L323.659998,39.22 L323.659998,52 L322.741998,52 Z M333.655997,51.244 C334.520002,51.244 335.236995,51.0820016 335.806997,50.758 C336.377,50.4339984 336.829996,50.0080026 337.165997,49.48 C337.501999,48.9519974 337.738997,48.3520034 337.876997,47.68 C338.014998,47.0079966 338.083997,46.3300034 338.083997,45.646 L338.083997,39.22 L339.001997,39.22 L339.001997,45.646 C339.001997,46.4980043 338.908998,47.3139961 338.722997,48.094 C338.536996,48.8740039 338.233999,49.560997 337.813997,50.155 C337.393995,50.749003 336.845001,51.2199983 336.166997,51.568 C335.488994,51.9160017 334.658002,52.09 333.673997,52.09 C332.665992,52.09 331.820001,51.9070018 331.135997,51.541 C330.451994,51.1749982 329.902999,50.689003 329.488997,50.083 C329.074995,49.476997 328.780998,48.7900038 328.606997,48.022 C328.432997,47.2539962 328.345997,46.4620041 328.345997,45.646 L328.345997,39.22 L329.263997,39.22 L329.263997,45.646 C329.263997,46.3540035 329.332997,47.0439966 329.470997,47.716 C329.608998,48.3880034 329.845996,48.9849974 330.181997,49.507 C330.517999,50.0290026 330.967995,50.4489984 331.531997,50.767 C332.096,51.0850016 332.803993,51.244 333.655997,51.244 L333.655997,51.244 Z M343.669997,52 L343.669997,39.22 L344.587997,39.22 L344.587997,51.172 L352.219997,51.172 L352.219997,52 L343.669997,52 Z M362.647997,40.048 L357.967997,40.048 L357.967997,52 L357.049997,52 L357.049997,40.048 L352.369997,40.048 L352.369997,39.22 L362.647997,39.22 L362.647997,40.048 Z M366.217997,52 L366.217997,39.238 L367.135997,39.238 L367.135997,52 L366.217997,52 Z M380.983996,40.048 L376.303996,40.048 L376.303996,52 L375.385996,52 L375.385996,40.048 L370.705996,40.048 L370.705996,39.22 L380.983996,39.22 L380.983996,40.048 Z M389.053996,52.09 C388.165992,52.09 387.356,51.9040019 386.623996,51.532 C385.891993,51.1599981 385.261999,50.674003 384.733996,50.074 C384.205994,49.473997 383.797998,48.7840039 383.509996,48.004 C383.221995,47.2239961 383.077996,46.4260041 383.077996,45.61 C383.077996,44.7579957 383.230995,43.9420039 383.536996,43.162 C383.842998,42.3819961 384.262994,41.692003 384.796996,41.092 C385.330999,40.491997 385.963993,40.0150018 386.695996,39.661 C387.428,39.3069982 388.219992,39.13 389.071996,39.13 C389.960001,39.13 390.769993,39.3189981 391.501996,39.697 C392.234,40.0750019 392.860994,40.5699969 393.382996,41.182 C393.904999,41.7940031 394.309995,42.4869961 394.597996,43.261 C394.885998,44.0350039 395.029996,44.817996 395.029996,45.61 C395.029996,46.4740043 394.876998,47.2959961 394.570996,48.076 C394.264995,48.8560039 393.844999,49.542997 393.310996,50.137 C392.776994,50.731003 392.147,51.2049982 391.420996,51.559 C390.694993,51.9130018 389.906,52.09 389.053996,52.09 L389.053996,52.09 Z M383.995996,45.61 C383.995996,46.3420037 384.118995,47.0469966 384.364996,47.725 C384.610997,48.4030034 384.958994,49.0029974 385.408996,49.525 C385.858998,50.0470026 386.392993,50.4639984 387.010996,50.776 C387.628999,51.0880016 388.309992,51.244 389.053996,51.244 C389.822,51.244 390.514993,51.0820016 391.132996,50.758 C391.750999,50.4339984 392.281994,50.0050027 392.725996,49.471 C393.169998,48.9369973 393.511995,48.3340034 393.751996,47.662 C393.991997,46.9899966 394.111996,46.3060035 394.111996,45.61 C394.111996,44.8779963 393.985997,44.1730034 393.733996,43.495 C393.481995,42.8169966 393.130998,42.2170026 392.680996,41.695 C392.230994,41.1729974 391.696999,40.7560016 391.078996,40.444 C390.460993,40.1319984 389.786,39.976 389.053996,39.976 C388.285992,39.976 387.589999,40.1379984 386.965996,40.462 C386.341993,40.7860016 385.810998,41.2149973 385.372996,41.749 C384.934994,42.2830027 384.595997,42.8859966 384.355996,43.558 C384.115995,44.2300034 383.995996,44.9139965 383.995996,45.61 L383.995996,45.61 Z M404.233996,52.09 C403.345992,52.09 402.536,51.9040019 401.803996,51.532 C401.071992,51.1599981 400.441999,50.674003 399.913996,50.074 C399.385993,49.473997 398.977997,48.7840039 398.689996,48.004 C398.401995,47.2239961 398.257996,46.4260041 398.257996,45.61 C398.257996,44.7579957 398.410994,43.9420039 398.716996,43.162 C399.022997,42.3819961 399.442993,41.692003 399.976996,41.092 C400.510999,40.491997 401.143992,40.0150018 401.875996,39.661 C402.608,39.3069982 403.399992,39.13 404.251996,39.13 C405.14,39.13 405.949992,39.3189981 406.681996,39.697 C407.414,40.0750019 408.040993,40.5699969 408.562996,41.182 C409.084999,41.7940031 409.489995,42.4869961 409.777996,43.261 C410.065997,44.0350039 410.209996,44.817996 410.209996,45.61 C410.209996,46.4740043 410.056997,47.2959961 409.750996,48.076 C409.444994,48.8560039 409.024999,49.542997 408.490996,50.137 C407.956993,50.731003 407.327,51.2049982 406.600996,51.559 C405.874992,51.9130018 405.086,52.09 404.233996,52.09 L404.233996,52.09 Z M399.175996,45.61 C399.175996,46.3420037 399.298995,47.0469966 399.544996,47.725 C399.790997,48.4030034 400.138994,49.0029974 400.588996,49.525 C401.038998,50.0470026 401.572993,50.4639984 402.190996,50.776 C402.808999,51.0880016 403.489992,51.244 404.233996,51.244 C405.002,51.244 405.694993,51.0820016 406.312996,50.758 C406.930999,50.4339984 407.461994,50.0050027 407.905996,49.471 C408.349998,48.9369973 408.691995,48.3340034 408.931996,47.662 C409.171997,46.9899966 409.291996,46.3060035 409.291996,45.61 C409.291996,44.8779963 409.165997,44.1730034 408.913996,43.495 C408.661995,42.8169966 408.310998,42.2170026 407.860996,41.695 C407.410994,41.1729974 406.876999,40.7560016 406.258996,40.444 C405.640993,40.1319984 404.966,39.976 404.233996,39.976 C403.465992,39.976 402.769999,40.1379984 402.145996,40.462 C401.521993,40.7860016 400.990998,41.2149973 400.552996,41.749 C400.114994,42.2830027 399.775997,42.8859966 399.535996,43.558 C399.295995,44.2300034 399.175996,44.9139965 399.175996,45.61 L399.175996,45.61 Z M414.265996,52 L414.265996,39.22 L415.183996,39.22 L415.183996,51.172 L422.815996,51.172 L422.815996,52 L414.265996,52 Z" id="DAPPLE---A-SOLIDITY" fill="#403788"></path>
                    <path d="M133.5,70.5 L157.5,0.5" id="Line" stroke="#C5BFF6" stroke-linecap="square"></path>
                    <g id="Group-4" transform="translate(0.000000, 51.000000)">
                        <g id="Group" transform="translate(0.000000, 10.000000)">
                            <g id="dapple-+-Deer-Copy-2" transform="translate(0.161290, 0.800000)"></g>
                        </g>
                        <g id="Group" transform="translate(52.000000, 0.000000)">
                            <g id="dapple-+-Deer-Copy-2" transform="translate(0.016129, 0.800000)"></g>
                        </g>
                    </g>
                </g>
                <g id="loco-icon-copy" transform="translate(63.500000, 34.500000) rotate(-90.000000) translate(-63.500000, -34.500000) translate(37.000000, -9.000000)">
                    <rect id="Rectangle-path" fill="#C5BFF6" x="7.10542736e-15" y="54.1028934" width="5.17849462" height="5.29678677"></rect>
                    <rect id="Rectangle-path" fill="#403788" x="10.3569892" y="54.1028934" width="5.17849462" height="5.29678677"></rect>
                    <rect id="Rectangle-path" fill="#725AC1" x="20.8989247" y="54.1028934" width="5.17849462" height="5.29678677"></rect>
                    <rect id="Rectangle-path" fill="#8D86C9" x="31.4408602" y="54.1028934" width="5.17849462" height="5.29678677"></rect>
                    <rect id="Rectangle-path" fill="#C5BFF6" x="10.3569892" y="48.6169357" width="5.17849462" height="5.29678677"></rect>
                    <rect id="Rectangle-path" fill="#C5BFF6" x="15.7204301" y="48.6169357" width="5.17849462" height="5.29678677"></rect>
                    <rect id="Rectangle-path" fill="#C5BFF6" x="20.8989247" y="48.6169357" width="5.17849462" height="5.29678677"></rect>
                    <rect id="Rectangle-path" fill="#C5BFF6" x="26.0774194" y="48.6169357" width="5.17849462" height="5.29678677"></rect>
                    <rect id="Rectangle-path" fill="#C5BFF6" x="36.6193548" y="48.6169357" width="5.17849462" height="5.29678677"></rect>
                    <rect id="Rectangle-path" fill="#C5BFF6" x="41.7978495" y="48.6169357" width="5.17849462" height="5.29678677"></rect>
                    <rect id="Rectangle-path" fill="#C5BFF6" x="47.1612903" y="48.6169357" width="5.17849462" height="5.29678677"></rect>
                    <rect id="Rectangle-path" fill="#C5BFF6" x="5.17849462" y="43.3201489" width="5.17849462" height="5.29678677"></rect>
                    <rect id="Rectangle-path" fill="#C5BFF6" x="10.3569892" y="43.3201489" width="5.17849462" height="5.29678677"></rect>
                    <rect id="Rectangle-path" fill="#403788" x="15.7204301" y="43.3201489" width="5.17849462" height="5.29678677"></rect>
                    <rect id="Rectangle-path" fill="#725AC1" x="26.0774194" y="43.3201489" width="5.17849462" height="5.29678677"></rect>
                    <rect id="Rectangle-path" fill="#C5BFF6" x="31.4408602" y="43.3201489" width="5.17849462" height="5.29678677"></rect>
                    <rect id="Rectangle-path" fill="#C5BFF6" x="41.7978495" y="43.3201489" width="5.17849462" height="5.29678677"></rect>
                    <rect id="Rectangle-path" fill="#C5BFF6" x="10.3569892" y="38.0233622" width="5.17849462" height="5.29678677"></rect>
                    <rect id="Rectangle-path" fill="#C5BFF6" x="15.7204301" y="38.0233622" width="5.17849462" height="5.29678677"></rect>
                    <rect id="Rectangle-path" fill="#C5BFF6" x="20.8989247" y="38.0233622" width="5.17849462" height="5.29678677"></rect>
                    <rect id="Rectangle-path" fill="#403788" x="26.0774194" y="38.0233622" width="5.17849462" height="5.29678677"></rect>
                    <rect id="Rectangle-path" fill="#C5BFF6" x="36.6193548" y="38.0233622" width="5.17849462" height="5.29678677"></rect>
                    <rect id="Rectangle-path" fill="#C5BFF6" x="15.7204301" y="32.5374044" width="5.17849462" height="5.29678677"></rect>
                    <rect id="Rectangle-path" fill="#C5BFF6" x="26.0774194" y="32.5374044" width="5.17849462" height="5.29678677"></rect>
                    <rect id="Rectangle-path" fill="#C5BFF6" x="41.7978495" y="32.5374044" width="5.17849462" height="5.29678677"></rect>
                    <rect id="Rectangle-path" fill="#C5BFF6" x="15.7204301" y="27.2406177" width="5.17849462" height="5.29678677"></rect>
                    <rect id="Rectangle-path" fill="#C5BFF6" x="10.3569892" y="27.2406177" width="5.17849462" height="5.29678677"></rect>
                    <rect id="Rectangle-path" fill="#C5BFF6" x="36.6193548" y="27.2406177" width="5.17849462" height="5.29678677"></rect>
                    <rect id="Rectangle-path" fill="#C5BFF6" x="26.0774194" y="21.9438309" width="5.17849462" height="5.29678677"></rect>
                    <rect id="Rectangle-path" fill="#C5BFF6" x="41.7978495" y="21.9438309" width="5.17849462" height="5.29678677"></rect>
                    <rect id="Rectangle-path" fill="#C5BFF6" x="5.17849462" y="21.9438309" width="5.17849462" height="5.29678677"></rect>
                    <rect id="Rectangle-path" fill="#725AC1" x="10.3569892" y="16.4578732" width="5.17849462" height="5.29678677"></rect>
                    <rect id="Rectangle-path" fill="#C5BFF6" x="36.6193548" y="16.4578732" width="5.17849462" height="5.29678677"></rect>
                    <rect id="Rectangle-path" fill="#725AC1" x="26.0774194" y="11.1610864" width="5.17849462" height="5.29678677"></rect>
                    <rect id="Rectangle-path" fill="#C5BFF6" x="31.4408602" y="0.378341912" width="5.17849462" height="5.29678677"></rect>
                    <rect id="Rectangle-path" fill="#C5BFF6" x="15.7204301" y="5.86429964" width="5.17849462" height="5.29678677"></rect>
                    <path d="M26.0774194,86.261956 C40.5032258,86.261956 52.3397849,74.3441857 52.3397849,59.3996802 L7.10542736e-15,59.3996802 C7.10542736e-15,74.1550148 11.6516129,86.261956 26.0774194,86.261956 L26.0774194,86.261956 Z" id="Shape" fill="#403788"></path>
                    <rect id="Rectangle-path" fill="#C5BFF6" x="15.7204301" y="59.3996802" width="5.17849462" height="5.29678677"></rect>
                    <rect id="Rectangle-path" fill="#C5BFF6" x="41.7978495" y="59.3996802" width="5.17849462" height="5.29678677"></rect>
                    <rect id="Rectangle-path" fill="#C5BFF6" x="10.3569892" y="64.696467" width="5.17849462" height="5.29678677"></rect>
                    <rect id="Rectangle-path" fill="#C5BFF6" x="26.0774194" y="64.696467" width="5.17849462" height="5.29678677"></rect>
                    <rect id="Rectangle-path" fill="#C5BFF6" x="20.8989247" y="70.1824247" width="5.17849462" height="5.29678677"></rect>
                    <rect id="Rectangle-path" fill="#C5BFF6" x="36.6193548" y="64.696467" width="5.17849462" height="5.29678677"></rect>
                </g>
            </g>
        </g>
    </g>
</svg>