<svg xmlns="http://www.w3.org/2000/svg" style="display: none;">
  
    <symbol id="icon-dapphub" viewBox="0 0 512 512">
      <path d="m14 193l32 0c7 0 13 6 13 13l0 33c0 8-6 13-13 13l-32 0c-7 0-13-5-13-13l0-33c0-7 6-13 13-13z m65 66l32 0c7 0 13 6 13 13l0 33c0 7-6 13-13 13l-32 0c-7 0-13-6-13-13l0-33c0-7 6-13 13-13z m-65 66l32 0c7 0 13 6 13 13l0 33c0 7-6 13-13 13l-32 0c-7 0-13-6-13-13l0-33c0-7 6-13 13-13z m65 66l32 0c7 0 13 6 13 13l0 33c0 7-6 13-13 13l-32 0c-7 0-13-6-13-13l0-33c0-7 6-13 13-13z m64 0l32 0c7 0 13 6 13 13l0 33c0 7-6 13-13 13l-32 0c-7 0-13-6-13-13l0-33c0-7 6-13 13-13z m65-66l32 0c7 0 13 6 13 13l0 33c0 7-6 13-13 13l-32 0c-7 0-13-6-13-13l0-33c0-7 6-13 13-13z m64-66l32 0c7 0 13 6 13 13l0 33c0 7-6 13-13 13l-32 0c-7 0-13-6-13-13l0-33c0-7 6-13 13-13z m65-66l32 0c7 0 13 6 13 13l0 33c0 8-6 13-13 13l-32 0c-7 0-13-5-13-13l0-33c0-7 6-13 13-13z m0 132l32 0c7 0 13 6 13 13l0 33c0 7-6 13-13 13l-32 0c-7 0-13-6-13-13l0-33c0-7 6-13 13-13z m0 66l32 0c7 0 13 6 13 13l0 33c0 7-6 13-13 13l-32 0c-7 0-13-6-13-13l0-33c0-7 6-13 13-13z m129 0l32 0c7 0 13 6 13 13l0 33c0 7-6 13-13 13l-32 0c-7 0-13-6-13-13l0-33c0-7 6-13 13-13z m0-132l32 0c7 0 13 6 13 13l0 33c0 7-6 13-13 13l-32 0c-7 0-13-6-13-13l0-33c0-7 6-13 13-13z m0-132l32 0c7 0 13 6 13 13l0 33c0 8-6 14-13 14l-32 0c-7 0-13-6-13-14l0-33c0-7 6-13 13-13z m-65 66l32 0c7 0 13 6 13 13l0 33c0 8-6 13-13 13l-32 0c-7 0-13-5-13-13l0-33c0-7 6-13 13-13z m65-132l32 0c7 0 13 6 13 14l0 32c0 8-6 14-13 14l-32 0c-7 0-13-6-13-14l0-32c0-8 6-14 13-14z m-129 0l32 0c7 0 13 6 13 14l0 32c0 8-6 14-13 14l-32 0c-7 0-13-6-13-14l0-32c0-8 6-14 13-14z m-194 0l32 0c7 0 13 6 13 14l0 32c0 8-6 14-13 14l-32 0c-7 0-13-6-13-14l0-32c0-8 6-14 13-14z m65 66l32 0c7 0 13 6 13 13l0 33c0 8-6 14-13 14l-32 0c-7 0-13-6-13-14l0-33c0-7 6-13 13-13z"/>
    </symbol>
  
</svg>
