<?xml version="1.0" encoding="UTF-8" standalone="no"?>
<svg width="233px" height="214px" viewBox="0 0 233 214" version="1.1" xmlns="http://www.w3.org/2000/svg" xmlns:xlink="http://www.w3.org/1999/xlink">
    <!-- Generator: Sketch 3.7.2 (28276) - http://www.bohemiancoding.com/sketch -->
    <title>temp-dappsys</title>
    <desc>Created with Sketch.</desc>
    <defs>
        <filter x="-50%" y="-50%" width="200%" height="200%" filterUnits="objectBoundingBox" id="filter-1">
            <feOffset dx="-0" dy="2" in="SourceAlpha" result="shadowOffsetOuter1"></feOffset>
            <feGaussianBlur stdDeviation="3.5" in="shadowOffsetOuter1" result="shadowBlurOuter1"></feGaussianBlur>
            <feColorMatrix values="0 0 0 0 0   0 0 0 0 0   0 0 0 0 0  0 0 0 0.334154212 0" type="matrix" in="shadowBlurOuter1" result="shadowMatrixOuter1"></feColorMatrix>
            <feMerge>
                <feMergeNode in="shadowMatrixOuter1"></feMergeNode>
                <feMergeNode in="SourceGraphic"></feMergeNode>
            </feMerge>
        </filter>
    </defs>
    <g id="Nexus---Site" stroke="none" stroke-width="1" fill="none" fill-rule="evenodd">
        <g id="Artboard-14" transform="translate(-25.000000, -33.000000)">
            <g id="temp-dappsys" style="mix-blend-mode: luminosity;" transform="translate(25.000000, 33.000000)">
                <g id="Group-+-Oval-1-+-Rectangle-2" transform="translate(0.243215, 0.455966)">
                    <g id="Group" style="mix-blend-mode: overlay;">
                        <path d="M57.5933194,194.390616 C57.5933194,204.917962 49.0558365,213.451416 38.525261,213.451416 C27.9939059,213.451416 19.4572025,204.917962 19.4572025,194.390616 C19.4572025,183.864049 27.9939059,175.329816 38.525261,175.329816 C49.0558365,175.329816 57.5933194,183.864049 57.5933194,194.390616" id="Fill-37" fill="#403788"></path>
                        <path d="M214.029228,37.236266 C214.029228,47.7628329 205.491745,56.2970659 194.961169,56.2970659 C184.429814,56.2970659 175.893111,47.7628329 175.893111,37.236266 C175.893111,26.7089199 184.429814,18.1754661 194.961169,18.1754661 C205.491745,18.1754661 214.029228,26.7089199 214.029228,37.236266" id="Fill-38" fill="#C5BFF6"></path>
                        <path d="M192.626305,120.870388 L191.842402,120.870388 C190.782334,138.228934 183.757723,154.011902 172.779958,166.221852 L173.081158,166.52174 L173.333071,166.771906 C184.451657,154.419781 191.56389,138.442585 192.626305,120.870388" id="Fill-39" fill="#C5BFF6"></path>
                        <path d="M111.638553,6.09742005 C111.638553,3.74961412 113.544163,1.83958754 115.886541,1.83958754 C118.228919,1.83958754 120.13453,3.74961412 120.13453,6.09742005 C120.13453,8.31358059 118.435645,10.1379208 116.275124,10.3349994 L116.275124,6.31085695 L115.497958,6.31085695 L115.497958,10.3349994 C113.337437,10.1379208 111.638553,8.31358059 111.638553,6.09742005 L111.638553,6.09742005 Z M65.3762004,60.0245125 L65.9264338,60.576021 C79.1203787,48.7692212 96.4838183,41.5520938 115.497958,41.4555019 C115.627745,41.454723 115.756755,41.4500492 115.886541,41.4500492 C116.017105,41.4500492 116.145337,41.454723 116.275124,41.4555019 C135.178129,41.5520938 152.449086,48.6843138 165.614276,60.3688158 L166.164509,59.8173073 C152.857876,47.9925913 135.392627,40.773127 116.275124,40.6765351 L116.275124,11.892933 C119.292859,11.6911806 121.688862,9.17278097 121.688862,6.09742005 C121.688862,2.89041375 119.086133,0.281653942 115.886541,0.281653942 C112.687727,0.281653942 110.084221,2.89041375 110.084221,6.09742005 C110.084221,9.17278097 112.480223,11.6911806 115.497958,11.892933 L115.497958,40.6765351 C96.2693205,40.773906 78.7115894,48.0767197 65.3762004,60.0245125 L65.3762004,60.0245125 Z" id="Fill-40" fill="#C5BFF6"></path>
                        <path d="M173.078382,65.8851869 L172.779958,66.1858194 C183.537926,78.4258599 190.416391,94.1985282 191.460485,111.534486 L192.237161,111.534486 C191.191516,93.9830098 184.226238,78.0159064 173.327972,65.6329679 L173.078382,65.8851869" id="Fill-41" fill="#C5BFF6"></path>
                        <path d="M41.2559754,111.923482 C42.3042013,94.7567714 49.174076,79.1270415 59.9281837,66.961938 L59.6257807,66.6615459 L59.3735171,66.4109597 C48.4783925,78.7184771 41.5207739,94.5419833 40.4709812,111.923482 L41.2559754,111.923482" id="Fill-43" fill="#C5BFF6"></path>
                        <path d="M40.858544,120.870388 L40.4709812,120.870388 C41.5166256,138.421382 48.4819042,154.389538 59.3793948,166.771906 L59.9281837,166.219045 C49.1702157,153.979577 42.2909761,138.206641 41.247657,120.870388 L40.858544,120.870388" id="Fill-44" fill="#C5BFF6"></path>
                        <path d="M5.80537167,120.525957 C3.46176195,120.525957 1.55514912,118.620912 1.55514912,116.279229 C1.55514912,113.937547 3.46176195,112.032501 5.80537167,112.032501 C8.0175713,112.032501 9.83865092,113.730882 10.0361549,115.890762 L5.80537167,115.890762 L5.80537167,116.667697 L10.0361549,116.667697 C9.83865092,118.827577 8.0175713,120.525957 5.80537167,120.525957 L5.80537167,120.525957 Z M49.1201626,116.667697 C49.2158043,133.297218 55.4247371,148.497955 65.6039657,160.158975 L66.1544885,159.608905 C56.1152234,148.089287 49.9933788,133.083561 49.8977372,116.667697 C49.8969596,116.537949 49.8876287,116.409754 49.8876287,116.279229 C49.8876287,116.148704 49.8969596,116.021287 49.8977372,115.890762 C49.9926013,99.5867765 56.0328005,84.6735053 65.9499864,73.1849645 L65.3994636,72.6348944 C55.3415367,84.2648374 49.2150267,99.3723423 49.1201626,115.890762 L11.591304,115.890762 C11.3891346,112.873922 8.87523604,110.478631 5.80537167,110.478631 C2.60409721,110.478631 0,113.080587 0,116.279229 C0,119.477871 2.60409721,122.079827 5.80537167,122.079827 C8.87523604,122.079827 11.3891346,119.685313 11.591304,116.667697 L40.4976383,116.667697 L49.1201626,116.667697 Z" id="Fill-45" fill="#C5BFF6"></path>
                        <path d="M116.277249,182.328903 C116.147452,182.328903 116.019209,182.319533 115.888634,182.318753 C99.4665187,182.22271 84.4550779,176.075226 72.9318501,165.993914 L72.3807933,166.547524 C84.0462544,176.768604 99.2527802,183.003542 115.888634,183.099584 C116.019209,183.100365 116.147452,183.109735 116.277249,183.109735 C116.407824,183.109735 116.536067,183.100365 116.665865,183.099584 C133.190575,183.004322 148.303833,176.852153 159.938205,166.752101 L159.387925,166.199273 C147.895786,176.157994 132.976059,182.223491 116.665865,182.318753 C116.536067,182.319533 116.407824,182.328903 116.277249,182.328903" id="Fill-46" fill="#C5BFF6"></path>
                        <path d="M116.666805,50.0667479 C116.797835,50.0667479 116.926526,50.0752356 117.056777,50.0760072 C133.536218,50.1709151 148.60084,56.2465606 160.164292,66.2087983 L160.462231,65.9140438 L160.716493,65.6617278 C149.01031,55.5613722 133.751482,49.3993065 117.056777,49.3043987 C116.926526,49.3036271 116.797835,49.2951394 116.666805,49.2951394 C116.536554,49.2951394 116.407863,49.3036271 116.276832,49.3043987 C99.470595,49.4000781 84.1173935,55.6423911 72.3807933,65.8646609 L72.9329938,66.4109597 C84.5276442,56.3283511 99.6858596,50.1716867 116.276832,50.0760072 C116.407863,50.0752356 116.536554,50.0667479 116.666805,50.0667479" id="Fill-47" fill="#C5BFF6"></path>
                        <path d="M162.334472,68.5887813 L156.643769,74.2773185 C146.195889,64.2373499 132.049715,58.0226872 116.470158,57.9199526 C116.340134,57.9191743 116.211667,57.9098348 116.080864,57.9098348 C115.95084,57.9098348 115.822373,57.9191743 115.69157,57.9199526 C101.233181,58.0149043 88.0104121,63.3765588 77.82881,72.1720383 L79.4840892,73.8259091 C89.2374676,65.4507074 101.877074,60.3497807 115.69157,60.254829 C115.822373,60.2540508 115.95084,60.2447112 116.080864,60.2447112 C116.211667,60.2447112 116.340134,60.2540508 116.470158,60.254829 C147.17769,60.4649679 172.112765,85.3905519 172.322984,116.086394 C172.323763,116.216369 172.332327,116.344787 172.332327,116.47554 C172.332327,116.606293 172.323763,116.734711 172.322984,116.864686 C172.227997,130.673923 167.125127,143.308718 158.746736,153.059162 L160.401237,154.713033 C169.200066,144.536085 174.563762,131.317571 174.65875,116.864686 C174.659529,116.734711 174.668093,116.606293 174.668093,116.47554 C174.668093,116.344787 174.659529,116.216369 174.65875,116.086394 C174.555976,100.513546 168.338947,86.3727566 158.295155,75.9280761 L160.897976,73.3270238 L163.688438,70.5368465 L163.985858,70.2403172 L164.2389,69.9865939 L170.072085,64.1556292 L170.37262,63.8559868 L170.622547,63.6053767 L191.699717,42.5370085 C192.407454,42.9580646 193.231979,43.2047832 194.116456,43.2047832 C196.731734,43.2047832 198.85261,41.0847154 198.85261,38.4704321 C198.85261,35.8553705 196.731734,33.7353027 194.116456,33.7353027 C191.500398,33.7353027 189.379523,35.8553705 189.379523,38.4704321 C189.379523,39.3537937 189.626336,40.1780051 190.048331,40.8862509 L168.971161,61.9546191 L168.721234,62.2052291 L168.420699,62.5048716 L162.334472,68.5887813" id="Fill-48" fill="#8D86C9"></path>
                        <path d="M70.0098077,164.569401 L75.7036718,158.877742 C86.1595635,168.924596 100.315532,175.143521 115.905095,175.246326 C116.035988,175.247105 116.164544,175.256451 116.294659,175.256451 C116.425552,175.256451 116.554108,175.247105 116.684223,175.246326 C130.929791,175.152867 143.97784,169.954204 154.101044,161.393349 L152.445398,159.738344 C142.750714,167.878633 130.284673,172.816389 116.684223,172.909848 C116.554108,172.910627 116.425552,172.919973 116.294659,172.919973 C116.164544,172.919973 116.035988,172.910627 115.905095,172.909848 C85.1763045,172.699565 60.2247448,147.756886 60.0136012,117.039991 C60.0128221,116.909927 60.0042517,116.781421 60.0042517,116.650578 C60.0042517,116.519736 60.0128221,116.391229 60.0136012,116.261165 C60.1070965,102.66598 65.0467652,90.2047652 73.1902063,80.5138341 L71.5345603,78.858829 C62.9711694,88.9781143 57.770493,102.021891 57.6762186,116.261165 C57.6754395,116.391229 57.6668691,116.519736 57.6668691,116.650578 C57.6668691,116.781421 57.6754395,116.909927 57.6762186,117.039991 C57.7790634,132.623519 64.0003969,146.774008 74.0511422,157.225852 L68.3572781,162.917512 L68.1032826,163.17063 L61.9660949,169.306221 L61.7152158,169.556224 L40.6242331,190.639821 C39.915227,190.218476 39.0901309,189.971588 38.2058212,189.971588 C35.5879526,189.971588 33.4663883,192.092331 33.4663883,194.709186 C33.4663883,197.326041 35.5879526,199.447563 38.2058212,199.447563 C40.8236897,199.447563 42.945254,197.326041 42.945254,194.709186 C42.945254,193.825219 42.6982706,193.000442 42.2767626,192.29171 L70.0098077,164.569401" id="Fill-49" fill="#C5BFF6"></path>
                        <path d="M194.595411,198.279745 C192.247631,198.279745 190.338258,196.37109 190.338258,194.024971 C190.338258,192.992024 190.709698,192.043924 191.324871,191.305994 L194.319752,194.300527 L194.870292,193.750193 L191.875412,190.75566 C192.61362,190.140719 193.561298,189.770197 194.595411,189.770197 C196.942413,189.770197 198.851786,191.678851 198.851786,194.024971 C198.851786,196.37109 196.942413,198.279745 194.595411,198.279745 L194.595411,198.279745 Z M116.937993,164.294485 C116.80795,164.295264 116.679465,164.303826 116.548643,164.303826 C116.4186,164.303826 116.290115,164.295264 116.159293,164.294485 C89.82833,164.084315 68.4545715,142.718594 68.2443225,116.397532 C68.2435438,116.267538 68.2341994,116.139101 68.2341994,116.008328 C68.2341994,115.877556 68.2435438,115.749119 68.2443225,115.619125 C68.3486683,102.597929 73.6305906,90.7910478 82.1332163,82.1553981 C82.3146534,81.9709155 82.4984266,81.7872114 82.6837572,81.6050641 C91.3226554,73.1064141 103.133978,67.8264779 116.159293,67.7221713 C116.290115,67.7213929 116.4186,67.7128304 116.548643,67.7128304 C116.679465,67.7128304 116.80795,67.7213929 116.937993,67.7221713 C143.268956,67.9323413 164.643493,89.2980627 164.853742,115.619125 C164.854521,115.749119 164.863087,115.877556 164.863087,116.008328 C164.863087,116.139101 164.854521,116.267538 164.853742,116.397532 C164.749396,129.418728 159.467474,141.22483 150.964848,149.861258 C150.782633,150.045741 150.599638,150.229445 150.414307,150.411592 C141.775409,158.910242 129.964087,164.190179 116.937993,164.294485 L116.937993,164.294485 Z M38.5026534,42.2464597 C36.1556515,42.2464597 34.2455003,40.3378052 34.2455003,37.9909074 C34.2455003,35.644788 36.1556515,33.7361335 38.5026534,33.7361335 C40.8496553,33.7361335 42.7590278,35.644788 42.7590278,37.9909074 C42.7590278,39.0246322 42.3883665,39.9727322 41.7731935,40.7106622 L38.7775345,37.7161297 L38.2269936,38.2664636 L41.2226526,41.2609961 C40.484445,41.8751594 39.5359883,42.2464597 38.5026534,42.2464597 L38.5026534,42.2464597 Z M194.595411,188.213382 C193.132234,188.213382 191.797542,188.760603 190.77433,189.654992 L170.554605,169.44287 L170.303864,169.193002 L170.004064,168.892537 L158.231677,157.125355 L151.515389,150.410814 C160.15896,141.634272 165.528096,129.63279 165.632442,116.397532 C165.633221,116.267538 165.641787,116.139101 165.641787,116.008328 C165.641787,115.877556 165.633221,115.749119 165.632442,115.619125 C165.422193,88.8691604 143.69802,67.153934 116.937993,66.9437641 C116.80795,66.9429857 116.679465,66.9344232 116.548643,66.9344232 C116.4186,66.9344232 116.290115,66.9429857 116.159293,66.9437641 C102.919056,67.0480707 90.9130592,72.4151885 82.1332163,81.0547302 L70.0220947,68.9489411 L69.7254099,68.6515895 L42.8734967,41.8105516 C43.7690017,40.7877246 44.3164278,39.4535346 44.3164278,37.9909074 C44.3164278,34.7869833 41.7077827,32.1793191 38.5026534,32.1793191 C35.2967453,32.1793191 32.6881002,34.7869833 32.6881002,37.9909074 C32.6881002,41.1956099 35.2967453,43.8032741 38.5026534,43.8032741 C39.965052,43.8032741 41.3005226,43.2560539 42.3229557,42.3608856 L69.174869,69.2019234 L69.4715537,69.499275 L81.5826754,81.6050641 C72.939105,90.382384 67.5699682,102.383867 67.4656224,115.619125 C67.4648437,115.749119 67.4554993,115.877556 67.4554993,116.008328 C67.4554993,116.139101 67.4648437,116.267538 67.4656224,116.397532 C67.6758715,143.147496 89.3992663,164.862722 116.159293,165.072892 C116.290115,165.073671 116.4186,165.082233 116.548643,165.082233 C116.679465,165.082233 116.80795,165.073671 116.937993,165.072892 C130.179008,164.968586 142.184227,159.601468 150.964848,150.961148 L169.453523,169.44287 L169.753323,169.743336 L170.004064,169.993204 L190.223789,190.205326 C189.328284,191.228153 188.780858,192.562343 188.780858,194.024971 C188.780858,197.229673 191.389503,199.836559 194.595411,199.836559 C197.800541,199.836559 200.409186,197.229673 200.409186,194.024971 C200.409186,190.820268 197.800541,188.213382 194.595411,188.213382 L194.595411,188.213382 Z" id="Fill-50" fill="#C5BFF6"></path>
                        <path d="M226.497473,121.362071 C224.147342,121.362071 222.235424,119.450375 222.235424,117.100519 C222.235424,117.085705 222.236984,117.071672 222.236984,117.057638 L226.497473,117.057638 L226.497473,116.277991 L222.316517,116.277991 C222.700928,114.321076 224.428828,112.838966 226.497473,112.838966 C228.847604,112.838966 230.759522,114.750662 230.759522,117.100519 C230.759522,119.450375 228.847604,121.362071 226.497473,121.362071 L226.497473,121.362071 Z M226.497473,111.279672 C223.567217,111.279672 221.142231,113.457227 220.740666,116.277991 L183.06138,116.277991 C182.965472,99.5904199 176.739263,84.3366206 166.532491,72.6348944 L165.980436,73.1868846 C176.046856,84.7467151 182.186514,99.8048229 182.281642,116.277991 C182.282422,116.408971 182.291779,116.536834 182.291779,116.667814 C182.291779,116.798795 182.282422,116.927437 182.281642,117.057638 C182.185734,133.642295 175.964204,148.79474 165.775365,160.384977 L166.32742,160.936967 C176.657391,149.204835 182.965472,133.857478 183.06138,117.057638 L220.677507,117.057638 C220.677507,117.071672 220.675948,117.085705 220.675948,117.100519 C220.675948,120.309547 223.287291,122.921365 226.497473,122.921365 C229.707655,122.921365 232.318998,120.309547 232.318998,117.100519 C232.318998,113.890711 229.707655,111.279672 226.497473,111.279672 L226.497473,111.279672 Z" id="Fill-51" fill="#C5BFF6"></path>
                    </g>
                </g>
                <g id="Oval-1-+-Rectangle-2" filter="url(#filter-1)" transform="translate(83.422756, 83.380966)"></g>
            </g>
        </g>
    </g>
</svg>