<?xml version="1.0" encoding="UTF-8" standalone="no"?>
<svg width="107px" height="31px" viewBox="0 0 107 31" version="1.1" xmlns="http://www.w3.org/2000/svg" xmlns:xlink="http://www.w3.org/1999/xlink" xmlns:sketch="http://www.bohemiancoding.com/sketch/ns">
    <!-- Generator: Sketch 3.3.3 (12072) - http://www.bohemiancoding.com/sketch -->
    <title>NEXUS-logo-typo</title>
    <desc>Created with Sketch.</desc>
    <defs></defs>
    <g id="ENS-GUI" stroke="none" stroke-width="1" fill="none" fill-rule="evenodd" sketch:type="MSPage">
        <g id="Desktop-HD-Copy" sketch:type="MSArtboardGroup" transform="translate(-130.000000, -29.000000)">
            <g id="Rectangle-17-Copy-+-NEXUS-logo-typo-+-ABOUT----WORK----CON" sketch:type="MSLayerGroup">
                <g id="NEXUS-logo-typo" transform="translate(130.000000, 29.000000)">
                    <g id="Imported-Layers" fill="#C5BFF6" sketch:type="MSShapeGroup">
                        <path d="M15.0921053,0 C6.75683614,0 0,6.72259542 0,15.015625 C0,23.3086546 6.75683614,30.03125 15.0921053,30.03125 C23.4273744,30.03125 30.1842105,23.3086546 30.1842105,15.015625 C30.1842105,6.72259542 23.4273744,0 15.0921053,0 L15.0921053,0 Z M15.0921053,28.83 C7.42330351,28.83 1.20736842,22.6455646 1.20736842,15.015625 C1.20736842,7.38568542 7.42330351,1.20125 15.0921053,1.20125 C22.760907,1.20125 28.9768421,7.38568542 28.9768421,15.015625 C28.9768421,22.6455646 22.760907,28.83 15.0921053,28.83 L15.0921053,28.83 Z" id="Fill-1"></path>
                        <path d="M16.2994737,15.015625 C16.2994737,16.6172917 13.8847368,16.6172917 13.8847368,15.015625 C13.8847368,13.4139583 16.2994737,13.4139583 16.2994737,15.015625" id="Fill-2"></path>
                    </g>
                    <text id="nexus" fill="#725AC1" sketch:type="MSTextLayer" font-family="Moon" font-size="15" font-weight="260" letter-spacing="3.75">
                        <tspan x="44.1403509" y="20.875" fill="#F8F7F5">nexus</tspan>
                    </text>
                </g>
            </g>
        </g>
    </g>
</svg>